<svg width="172" height="188" viewBox="0 0 172 188" fill="none" xmlns="http://www.w3.org/2000/svg">
<path d="M122.897 82.8438C121.484 82.8438 120.25 81.809 120.043 80.3729C119.815 78.7987 120.911 77.3396 122.489 77.113C122.558 77.1034 122.562 77.1015 122.627 77.0862C122.683 77.0727 122.743 77.0593 122.808 77.0439C123.126 76.8654 123.54 76.6964 124.073 76.6196C124.585 76.5467 125.016 76.5851 125.364 76.6619C125.386 76.658 125.407 76.6542 125.43 76.6504C125.709 76.5217 126.059 76.3989 126.515 76.3336C126.989 76.2664 127.395 76.2952 127.736 76.3643C127.861 76.3355 128.001 76.3086 128.163 76.2856C128.39 76.2529 128.504 76.2395 128.617 76.2241C128.706 76.2126 128.796 76.2011 128.973 76.1762C129.075 76.1608 129.162 76.1512 129.243 76.1416C129.572 75.9419 130.007 75.7538 130.557 75.6751C130.996 75.6117 131.339 75.6232 131.62 75.6578C131.82 75.6348 131.966 75.629 132.101 75.6232L132.147 75.6213C132.161 75.6194 132.18 75.6175 132.203 75.6136L132.209 75.6117C132.399 75.556 132.632 75.4927 133.005 75.4409C133.106 75.4274 133.131 75.4217 133.206 75.4044C133.365 75.3698 133.531 75.3353 133.812 75.2949C133.962 75.2738 134.037 75.2604 134.112 75.2469C134.239 75.2239 134.366 75.2009 134.62 75.1644C134.994 75.1106 135.238 75.1068 135.436 75.1068H135.44C135.621 75.0799 135.792 75.0684 135.954 75.0684C136.289 74.8937 136.651 74.7785 137.04 74.7228C137.45 74.6633 137.761 74.6691 138.015 74.6883C138.402 74.6499 138.745 74.6748 139.032 74.7305C139.109 74.7113 139.19 74.6921 139.276 74.6768C139.544 74.5635 139.867 74.456 140.306 74.3945C140.756 74.3293 141.139 74.3523 141.451 74.4022C141.778 74.2121 142.194 74.0432 142.729 73.9664C143.126 73.9088 143.453 73.9165 143.724 73.9434C143.888 73.8992 144.09 73.8531 144.365 73.8147C144.588 73.7821 144.785 73.7706 144.96 73.7687C145.237 73.6419 145.57 73.5306 145.972 73.473C146.247 73.4346 146.498 73.4269 146.729 73.4423C146.975 73.3386 147.262 73.2541 147.589 73.2061C148.147 73.1255 148.625 73.1869 149.002 73.2906C149.269 73.1735 149.606 73.0602 150.045 72.9988C150.328 72.9585 150.497 72.945 150.661 72.9335C150.665 72.9335 150.669 72.9335 150.672 72.9335C150.93 72.8279 151.24 72.73 151.654 72.6705C152.151 72.5995 152.572 72.634 152.919 72.7108C152.949 72.7051 152.98 72.6993 153.013 72.6916C153.29 72.5649 153.638 72.444 154.096 72.3787C154.57 72.3115 154.957 72.3345 155.271 72.3883C155.276 72.3864 155.282 72.3864 155.288 72.3844C155.398 72.3672 155.507 72.3499 155.719 72.3192C155.827 72.2865 155.942 72.252 156.079 72.2213C156.158 71.9717 156.256 71.7528 156.362 71.5628C156.373 71.3305 156.41 71.0751 156.483 70.8044C156.595 70.3936 156.754 70.0634 156.926 69.7984C156.943 69.6794 156.968 69.5508 157.001 69.4106C157.014 69.1553 157.047 68.8577 157.149 68.4756C157.172 68.276 157.207 68.0322 157.305 67.6655C157.424 67.2258 157.596 66.8841 157.767 66.6172C157.792 66.4886 157.827 66.3388 157.88 66.1373C157.956 65.8627 158.019 65.6823 158.077 65.5287C158.083 65.258 158.115 64.9335 158.221 64.5457C158.271 64.3633 158.294 64.2712 158.317 64.179C158.344 64.0734 158.371 63.9698 158.429 63.7605C158.543 63.342 158.697 63.0194 158.856 62.7622C158.881 62.6182 158.916 62.4454 158.976 62.2246C159.049 61.952 159.101 61.7965 159.139 61.6832C159.158 61.6237 159.178 61.5661 159.21 61.4471C159.251 61.2973 159.293 61.1649 159.336 61.0477C159.307 60.7041 159.322 60.2894 159.447 59.8286C159.586 59.3199 159.797 58.9359 160.005 58.6479C160.009 58.6383 160.011 58.6287 160.015 58.6172C160.003 58.3043 160.028 57.9318 160.148 57.4922C160.217 57.2349 160.309 57.0065 160.41 56.8068C160.411 56.5361 160.444 56.2347 160.533 55.9121C160.548 55.8526 160.548 55.8526 160.56 55.7912C160.589 55.6184 160.623 55.4245 160.706 55.1173C160.806 54.7487 160.9 54.5183 160.983 54.3321C161.087 53.9539 161.21 53.6774 161.328 53.4567C161.356 53.2877 161.391 53.0957 161.472 52.7982C161.57 52.4353 161.699 52.1435 161.836 51.9054C161.857 51.7134 161.895 51.4965 161.963 51.2469C162.063 50.8783 162.184 50.598 162.305 50.3734C162.328 50.1968 162.367 49.9817 162.444 49.6938C162.525 49.3943 162.59 49.2138 162.648 49.0544C162.671 48.993 162.673 48.9873 162.692 48.9181C162.713 48.8394 162.715 48.8279 162.729 48.7588C162.736 48.7127 162.746 48.6628 162.756 48.611C162.715 48.2462 162.723 47.8008 162.864 47.2805C162.896 47.1576 162.91 47.0962 162.923 47.0328C162.948 46.9177 162.981 46.7602 163.054 46.4895C163.195 45.9693 163.412 45.5795 163.63 45.2858C163.612 44.9613 163.637 44.5812 163.755 44.1531C163.809 43.9496 163.837 43.8478 163.866 43.7461C163.893 43.652 163.918 43.5579 163.97 43.3679C164.097 42.8956 164.299 42.5231 164.5 42.2409C164.523 42.1238 164.552 41.9952 164.59 41.8493C164.615 41.7552 164.64 41.6707 164.663 41.5958C164.607 41.2119 164.607 40.7415 164.752 40.2078C164.838 39.8872 164.911 39.6933 164.979 39.5224L164.994 39.4821C164.998 39.4725 165.002 39.4552 165.008 39.4341C165.133 38.9714 165.308 38.6277 165.479 38.3628C165.504 38.2822 165.525 38.2188 165.543 38.1651C165.552 38.1382 165.56 38.1094 165.572 38.0768C165.579 37.808 165.614 37.495 165.72 37.1015C165.828 36.7002 165.96 36.4084 166.087 36.1761C166.095 36.1435 166.101 36.1147 166.107 36.0878C166.132 35.9745 166.164 35.819 166.238 35.5522C166.653 34.0163 168.237 33.1082 169.777 33.521C171.317 33.9356 172.227 35.5157 171.812 37.0516C171.777 37.1783 171.763 37.2435 171.748 37.3088C171.723 37.4221 171.69 37.5776 171.617 37.8445C171.532 38.1612 171.43 38.4089 171.33 38.6143C171.313 38.8428 171.275 39.1039 171.192 39.4149C171.121 39.6817 171.07 39.8334 171.034 39.9448C171.013 40.0062 170.994 40.0696 170.959 40.1943C170.841 40.6301 170.68 40.9604 170.518 41.2195C170.57 41.5978 170.566 42.0585 170.426 42.5788C170.333 42.9167 170.252 43.1279 170.183 43.2987L170.174 43.3218C170.15 43.5426 170.114 43.7979 170.018 44.1531C169.885 44.6465 169.671 45.0304 169.461 45.3165C169.485 45.6506 169.461 46.046 169.34 46.4953C169.244 46.8485 169.148 47.0866 169.057 47.2882C168.93 47.7393 168.749 48.0888 168.561 48.3633C168.591 48.7127 168.576 49.1351 168.445 49.6208C168.424 49.6995 168.422 49.711 168.411 49.7782C168.382 49.9414 168.345 50.1238 168.268 50.4137C168.187 50.7132 168.122 50.8937 168.064 51.053C168.043 51.1087 168.039 51.1183 168.026 51.1663C168.003 51.3698 167.97 51.6194 167.87 51.9899C167.781 52.3163 167.675 52.5716 167.569 52.7828C167.552 53.0036 167.512 53.2551 167.431 53.5546C167.315 53.9827 167.156 54.3129 166.994 54.5721C166.969 54.7084 166.934 54.8697 166.875 55.0885C166.765 55.4955 166.632 55.7874 166.505 56.0197C166.424 56.2884 166.347 56.4727 166.278 56.6282C166.268 56.6628 166.266 56.6763 166.261 56.705C166.343 57.1159 166.372 57.6535 166.203 58.2755C166.101 58.6499 165.955 58.9609 165.797 59.2143C165.778 59.3986 165.741 59.6002 165.681 59.8171C165.61 60.0801 165.56 60.2337 165.51 60.3816C165.485 60.4545 165.473 60.4871 165.445 60.5966C165.379 60.8385 165.296 61.0516 165.206 61.2397C165.208 61.5219 165.175 61.8387 165.083 62.1805C164.981 62.5606 164.867 62.8236 164.757 63.0444C164.698 63.2556 164.655 63.3842 164.623 63.484C164.603 63.5435 164.584 63.6011 164.551 63.7202L164.544 63.7547C164.519 63.9429 164.484 64.1713 164.39 64.5169C164.265 64.9777 164.09 65.3232 163.914 65.592C163.912 65.6016 163.911 65.6093 163.907 65.6189C163.891 65.6784 163.876 65.7379 163.855 65.8186C163.853 66.1008 163.822 66.4425 163.71 66.8591C163.624 67.1797 163.551 67.3717 163.485 67.5426L163.47 67.5829C163.466 67.5925 163.462 67.6098 163.456 67.6309C163.437 67.7 163.437 67.7058 163.426 67.7711C163.397 67.9381 163.362 68.1262 163.281 68.4238C163.168 68.8404 163.008 69.1687 162.846 69.4298C162.827 69.5431 162.802 69.6717 162.763 69.8234C162.752 70.0442 162.725 70.2957 162.652 70.6048C162.642 70.8716 162.608 71.1807 162.502 71.5781C162.427 71.8527 162.332 72.0907 162.225 72.2981C162.219 72.5553 162.184 72.8414 162.099 73.1505C162.005 73.498 161.872 73.7917 161.726 74.0355C161.72 74.0931 161.714 74.1526 161.707 74.2141C161.834 75.6828 161.081 76.5908 160.598 77.0132C159.549 77.9347 158.454 77.9079 157.996 77.8714C157.7 77.9002 157.445 77.8944 157.23 77.8733C157.051 77.9232 156.841 77.9712 156.562 78.0115C156.385 78.0365 156.296 78.0518 156.208 78.0653C156.094 78.0845 155.979 78.1018 155.75 78.1344C155.415 78.1824 155.12 78.1843 154.866 78.1632C154.655 78.2362 154.41 78.2995 154.123 78.3398C154.096 78.3437 154.077 78.3475 154.06 78.3494L154.014 78.3609C153.839 78.4051 153.64 78.4512 153.315 78.4972C152.901 78.5568 152.539 78.5414 152.228 78.4915C152.064 78.5376 151.881 78.5779 151.673 78.6067C151.402 78.6451 151.234 78.6604 151.077 78.67C150.815 78.7814 150.488 78.8889 150.066 78.9484C149.985 78.9599 149.974 78.9619 149.906 78.9791C149.745 79.0175 149.56 79.0578 149.262 79.1001C148.936 79.1462 148.64 79.1462 148.372 79.1154C148.155 79.1961 147.908 79.2633 147.633 79.3017C147.306 79.3477 147.012 79.3497 146.75 79.3228C146.532 79.4015 146.286 79.4668 146.007 79.5071C145.628 79.5608 145.324 79.5608 145.071 79.5416C144.898 79.5896 144.683 79.6415 144.377 79.6856C144.161 79.7164 143.967 79.7279 143.792 79.7298C143.511 79.8623 143.174 79.9736 142.771 80.0312C142.631 80.0504 142.562 80.0638 142.492 80.0773C142.36 80.1022 142.229 80.1272 141.963 80.1656C141.595 80.2174 141.274 80.2136 140.997 80.1829C140.849 80.229 140.685 80.2712 140.498 80.3038C140.248 80.4017 139.944 80.4958 139.534 80.5534C139.039 80.6244 138.61 80.5841 138.27 80.5112C137.912 80.7108 137.521 80.8414 137.101 80.9028C136.568 80.9796 136.125 80.9335 135.775 80.8548C135.646 80.8625 135.538 80.8625 135.442 80.8644H135.44C135.29 80.8855 135.215 80.899 135.14 80.9124C135.013 80.9355 134.886 80.9585 134.632 80.995C134.532 81.0084 134.507 81.0142 134.432 81.0315C134.272 81.066 134.106 81.1006 133.825 81.1409L133.82 81.1428C133.629 81.1985 133.396 81.2618 133.023 81.3137C132.696 81.3597 132.49 81.3713 132.307 81.377L132.261 81.3789C132.247 81.3809 132.228 81.3828 132.205 81.3866C132.037 81.4097 131.883 81.4231 131.743 81.4289C131.441 81.5882 131.063 81.7284 130.607 81.7936C130.305 81.8359 130.116 81.8493 129.949 81.8589C129.88 81.8627 129.87 81.8627 129.791 81.8743C129.566 81.9069 129.452 81.9203 129.339 81.9357C129.256 81.9453 129.173 81.9568 129.019 81.9779C128.804 82.0471 128.55 82.1162 128.178 82.1699C127.788 82.2256 127.441 82.216 127.141 82.1718C126.964 82.2256 126.766 82.2717 126.542 82.3024C126.383 82.3254 126.302 82.3389 126.221 82.3523C126.098 82.3734 125.976 82.3945 125.732 82.4291C125.42 82.4733 125.139 82.4771 124.889 82.4541C124.664 82.5385 124.406 82.6077 124.111 82.6499C124.042 82.6595 124.038 82.6614 123.973 82.6768C123.805 82.7171 123.617 82.7593 123.307 82.8035C123.172 82.8342 123.034 82.8438 122.897 82.8438ZM158.202 77.8541C158.2 77.8541 158.2 77.8541 158.198 77.8541C158.2 77.8541 158.2 77.8541 158.202 77.8541ZM161.611 74.7036V74.7055C161.611 74.7055 161.611 74.7056 161.611 74.7036Z" fill="#F0DDE6"/>
<path d="M136.304 182.13C134.71 182.13 133.417 180.84 133.417 179.251C133.417 178.934 133.456 178.654 133.511 178.408C133.459 178.174 133.427 177.907 133.427 177.607C133.427 177.312 133.459 177.049 133.508 176.82C133.45 176.572 133.411 176.288 133.411 175.964C133.411 175.785 133.409 175.695 133.407 175.605C133.406 175.49 133.404 175.373 133.404 175.142C133.404 175.054 133.402 175.037 133.396 174.966C133.382 174.802 133.369 174.618 133.369 174.32C133.369 173.854 133.444 173.48 133.54 173.178C133.534 173.074 133.529 172.94 133.529 172.742C133.486 172.512 133.452 172.241 133.452 171.859C133.452 171.694 133.45 171.612 133.448 171.529C133.446 171.446 133.444 171.366 133.442 171.247C133.373 170.974 133.317 170.648 133.317 170.218C133.317 169.822 133.381 169.479 133.469 169.187C133.448 169.054 133.432 168.912 133.427 168.761C133.363 168.496 133.311 168.179 133.311 167.758C133.311 167.444 133.327 167.25 133.344 167.077C133.35 167.012 133.35 167.008 133.35 166.937L133.348 166.91C133.323 166.718 133.294 166.484 133.294 166.117C133.294 165.8 133.332 165.52 133.39 165.272C133.338 165.038 133.305 164.773 133.305 164.475C133.305 164.09 133.338 163.84 133.369 163.637C133.371 163.241 133.415 162.947 133.467 162.711C133.465 162.661 133.463 162.627 133.461 162.59C133.457 162.513 133.452 162.419 133.448 162.287C133.367 162.001 133.3 161.646 133.3 161.194C133.3 160.805 133.355 160.475 133.431 160.198C133.404 160.012 133.386 159.801 133.386 159.553C133.386 159.157 133.432 158.85 133.492 158.599C133.473 158.428 133.454 158.217 133.454 157.912L133.452 157.875C133.427 157.685 133.4 157.455 133.4 157.092C133.4 157.067 133.4 157.049 133.4 157.034L133.396 156.99C133.377 156.81 133.357 156.604 133.357 156.272C133.357 155.947 133.398 155.66 133.458 155.41C133.409 155.18 133.377 154.922 133.377 154.632C133.377 154.162 133.465 153.765 133.577 153.448C133.565 153.313 133.558 153.166 133.558 152.993C133.558 152.809 133.556 152.716 133.556 152.624C133.556 152.567 133.554 152.509 133.554 152.434C133.473 152.15 133.407 151.799 133.407 151.351C133.407 150.933 133.467 150.593 133.544 150.315C133.527 150.155 133.513 149.963 133.513 149.712C133.513 149.474 133.531 149.266 133.558 149.082C133.477 148.798 133.419 148.464 133.419 148.074C133.419 147.658 133.471 147.341 133.533 147.082C133.533 147.064 133.531 147.045 133.529 147.024C133.523 146.945 133.519 146.863 133.515 146.767C133.421 146.463 133.344 146.089 133.344 145.615C133.344 145.335 133.375 145.081 133.425 144.853C133.365 144.743 133.304 144.622 133.25 144.49C133.227 144.432 133.203 144.377 133.184 144.321C133.04 144.213 132.93 144.121 132.838 144.037C132.701 143.948 132.634 143.908 132.566 143.866C132.522 143.839 132.48 143.812 132.428 143.781C132.141 143.703 131.812 143.576 131.444 143.349C131.219 143.259 130.961 143.14 130.63 142.927C130.411 142.787 130.305 142.712 130.197 142.635C130.135 142.593 130.074 142.549 129.949 142.468C129.664 142.286 129.489 142.144 129.348 142.027C129.121 141.938 128.865 141.817 128.544 141.612C128.261 141.43 128.095 141.299 127.951 141.182L127.916 141.155C127.909 141.149 127.893 141.14 127.876 141.128C127.531 140.905 127.3 140.702 127.123 140.523C127.023 140.454 126.933 140.387 126.852 140.32C126.521 140.241 126.147 140.101 125.762 139.853C125.433 139.64 125.22 139.458 125.045 139.291C124.846 139.157 124.679 139.02 124.536 138.886C124.284 138.801 124.009 138.677 123.724 138.494C123.538 138.41 123.31 138.302 122.987 138.095C122.546 137.811 122.25 137.502 122.044 137.233C122.004 137.202 121.967 137.169 121.93 137.139C121.63 137.054 121.301 136.918 120.956 136.695C120.637 136.49 120.448 136.332 120.296 136.2C120.035 136.031 119.838 135.872 119.678 135.724C119.449 135.637 119.195 135.516 118.905 135.328C118.524 135.083 118.264 134.835 118.071 134.62C117.923 134.516 117.815 134.434 117.717 134.355C117.671 134.318 117.671 134.318 117.621 134.286C117.382 134.132 117.249 134.036 117.151 133.965C117.099 133.929 117.047 133.89 116.942 133.821C116.795 133.727 116.722 133.683 116.649 133.637C116.547 133.576 116.447 133.512 116.247 133.384C116.147 133.318 116.095 133.289 116.043 133.261C115.964 133.216 115.883 133.17 115.785 133.111C115.496 133.025 115.155 132.888 114.77 132.641C114.516 132.477 114.322 132.32 114.164 132.172C113.929 132.086 113.664 131.963 113.373 131.775C113.057 131.571 112.871 131.416 112.721 131.287L112.715 131.283C112.569 131.189 112.445 131.101 112.341 131.02C112.008 130.94 111.633 130.797 111.239 130.542C111 130.389 110.865 130.291 110.769 130.22C110.719 130.183 110.667 130.147 110.561 130.078C110.055 129.751 109.724 129.363 109.508 129.022C109.243 128.933 108.937 128.803 108.596 128.582C108.336 128.415 108.13 128.244 107.965 128.083C107.736 127.996 107.482 127.877 107.21 127.701C106.995 127.563 106.839 127.444 106.712 127.34C106.435 127.253 106.121 127.119 105.776 126.896C105.755 126.883 105.738 126.871 105.724 126.864L105.684 126.843C105.522 126.76 105.341 126.666 105.064 126.487C104.664 126.23 104.394 125.967 104.196 125.735C103.982 125.574 103.815 125.416 103.68 125.27C103.536 125.197 103.361 125.101 103.126 124.952C101.786 124.088 101.401 122.306 102.268 120.97C103.132 119.634 104.92 119.25 106.259 120.114C106.273 120.123 106.284 120.131 106.296 120.137L106.319 120.148C106.483 120.229 106.683 120.329 106.975 120.517C107.362 120.766 107.626 121.018 107.818 121.235C108.059 121.411 108.242 121.588 108.39 121.751C108.461 121.788 108.536 121.828 108.623 121.88C108.929 121.964 109.289 122.102 109.691 122.362C109.907 122.502 110.065 122.621 110.192 122.725C110.467 122.811 110.781 122.945 111.125 123.168C111.396 123.343 111.61 123.521 111.781 123.692C112.001 123.777 112.241 123.894 112.503 124.063C112.717 124.201 112.834 124.283 112.957 124.37C113.013 124.41 113.069 124.449 113.184 124.523C113.643 124.819 113.958 125.165 114.174 125.481C114.488 125.564 114.836 125.704 115.202 125.94C115.515 126.142 115.715 126.311 115.883 126.461C116.102 126.605 116.256 126.722 116.38 126.823C116.641 126.912 116.943 127.042 117.282 127.261C117.53 127.42 117.723 127.576 117.879 127.72C118.118 127.806 118.387 127.931 118.681 128.121C118.78 128.185 118.832 128.213 118.884 128.242C119.018 128.317 119.159 128.398 119.386 128.545C119.528 128.638 119.603 128.682 119.677 128.728C119.779 128.791 119.881 128.853 120.083 128.983C120.321 129.137 120.454 129.233 120.55 129.304C120.602 129.34 120.654 129.379 120.76 129.448C121.033 129.624 121.191 129.747 121.332 129.859C121.378 129.897 121.378 129.897 121.428 129.928C121.709 130.108 121.925 130.291 122.094 130.46C122.306 130.544 122.539 130.659 122.802 130.828C123.153 131.055 123.389 131.266 123.568 131.45C123.653 131.508 123.728 131.562 123.795 131.612C124.134 131.69 124.515 131.834 124.919 132.093C125.301 132.339 125.557 132.579 125.749 132.794C126.009 132.986 126.209 133.184 126.367 133.368C126.378 133.374 126.392 133.382 126.405 133.387C126.769 133.46 127.2 133.602 127.664 133.902C128.086 134.173 128.37 134.461 128.576 134.72C128.929 134.793 129.337 134.937 129.756 135.207C130.134 135.451 130.388 135.687 130.58 135.9C130.815 136.067 130.986 136.223 131.125 136.363C131.342 136.507 131.481 136.618 131.604 136.718L131.606 136.72C131.835 136.809 132.095 136.929 132.42 137.139C132.724 137.335 132.903 137.48 133.048 137.603L133.082 137.63C133.302 137.772 133.407 137.845 133.515 137.92C133.565 137.955 133.613 137.989 133.696 138.043C133.844 138.103 134.008 138.175 134.197 138.279C134.508 138.364 134.874 138.502 135.284 138.767C135.425 138.857 135.496 138.901 135.567 138.943C135.671 139.007 135.777 139.07 135.983 139.203C136.273 139.391 136.458 139.54 136.604 139.667C136.883 139.784 137.215 139.951 137.605 140.26C137.84 140.447 138.046 140.667 138.213 140.915C138.589 141.474 138.716 142.036 138.756 142.472C138.879 142.693 139.001 142.967 139.085 143.292C139.193 143.559 139.405 144.102 139.405 144.795C139.405 145.202 139.338 145.555 139.245 145.851C139.27 146.028 139.287 146.22 139.287 146.435C139.287 146.55 139.289 146.586 139.295 146.665C139.305 146.821 139.314 146.982 139.314 147.254C139.314 147.483 139.299 147.683 139.274 147.857C139.361 148.147 139.42 148.491 139.42 148.894C139.42 149.289 139.372 149.6 139.309 149.86C139.33 150.032 139.347 150.244 139.347 150.534C139.347 150.87 139.309 151.154 139.253 151.397C139.297 151.62 139.326 151.876 139.326 152.173C139.326 152.357 139.328 152.45 139.328 152.542C139.33 152.642 139.33 152.739 139.332 152.914C139.376 153.148 139.414 153.425 139.414 153.813C139.414 154.158 139.366 154.465 139.297 154.728C139.339 154.943 139.366 155.185 139.366 155.452C139.366 155.936 139.278 156.337 139.162 156.66C139.17 156.779 139.176 156.917 139.176 157.092L139.178 157.128C139.203 157.318 139.23 157.549 139.23 157.912L139.234 157.958C139.257 158.144 139.284 158.374 139.284 158.731C139.284 159.075 139.249 159.351 139.201 159.584C139.241 159.803 139.27 160.058 139.27 160.373C139.27 160.724 139.226 161.027 139.162 161.285C139.201 161.496 139.226 161.736 139.226 162.014C139.226 162.137 139.23 162.199 139.234 162.258C139.241 162.379 139.251 162.546 139.251 162.834C139.251 163.243 139.205 163.546 139.151 163.792C139.147 163.932 139.141 164.053 139.13 164.161C139.232 164.47 139.307 164.846 139.307 165.297C139.307 165.768 139.224 166.159 139.114 166.476C139.124 166.605 139.132 166.754 139.132 166.939C139.132 167.253 139.116 167.447 139.099 167.62V167.622C139.133 167.778 139.166 167.952 139.184 168.154C139.295 168.475 139.393 168.885 139.393 169.4C139.393 169.857 139.309 170.245 139.197 170.563C139.212 170.707 139.222 170.867 139.222 171.041C139.222 171.206 139.224 171.289 139.226 171.372C139.23 171.483 139.232 171.594 139.232 171.798C139.274 172.028 139.309 172.299 139.309 172.681C139.309 172.806 139.312 172.867 139.316 172.93C139.324 173.051 139.332 173.217 139.332 173.503C139.332 173.96 139.259 174.328 139.166 174.626C139.176 174.76 139.184 174.919 139.184 175.144C139.184 175.323 139.185 175.413 139.187 175.503C139.187 175.518 139.187 175.532 139.187 175.547C139.303 175.872 139.397 176.281 139.397 176.787C139.397 177.083 139.366 177.342 139.318 177.571C139.378 177.82 139.416 178.104 139.416 178.431C139.416 179.03 139.284 179.494 139.137 179.844C138.856 181.149 137.696 182.13 136.304 182.13ZM139.191 179.251V179.253C139.191 179.253 139.191 179.253 139.191 179.251ZM133.461 144.607C133.461 144.609 133.461 144.609 133.461 144.611C133.461 144.609 133.461 144.607 133.461 144.607ZM103.838 125.36H103.84H103.838Z" fill="#F0DDE6"/>
<path d="M65.6729 187.52C64.2486 187.52 63.0187 186.47 62.8166 185.039C62.7454 184.807 62.6742 184.533 62.6318 184.141C62.5895 183.759 62.5972 183.486 62.6126 183.252C62.5991 183.104 62.5914 182.97 62.5914 182.845C62.4451 182.54 62.3142 182.156 62.2642 181.695C62.2161 181.252 62.243 180.896 62.2873 180.614C62.2834 180.57 62.2777 180.53 62.2757 180.493C62.1121 180.173 61.9659 179.764 61.9101 179.247C61.8542 178.74 61.9139 178.305 62.0063 177.957C61.987 177.848 61.9697 177.725 61.9543 177.587C61.9255 177.325 61.9158 177.195 61.9081 177.064V177.062C61.7869 176.776 61.6752 176.421 61.6252 175.966C61.5886 175.638 61.5867 175.433 61.5848 175.25V175.204C61.5848 175.189 61.5829 175.169 61.579 175.145C61.5501 174.876 61.5405 174.711 61.5347 174.557C61.4269 174.286 61.3288 173.952 61.2826 173.522C61.2537 173.25 61.2441 173.088 61.2364 172.933C61.2326 172.852 61.2306 172.818 61.2191 172.702C61.1767 172.322 61.1844 172.052 61.1998 171.819C61.1575 171.385 61.1883 171.036 61.2364 170.76C61.2306 170.633 61.2287 170.518 61.2326 170.412C61.1228 170.141 61.0285 169.813 60.9862 169.416C60.9746 169.312 60.9689 169.283 60.9554 169.208C60.9265 169.049 60.8977 168.884 60.8669 168.602C60.8418 168.371 60.8303 168.256 60.8207 168.141C60.813 168.051 60.8053 167.962 60.7841 167.784C60.7417 167.402 60.7533 167.097 60.7841 166.843C60.7379 166.657 60.6936 166.436 60.6609 166.142L60.6166 165.745C60.6051 165.639 60.5935 165.534 60.5705 165.325C60.5628 165.25 60.5608 165.24 60.5474 165.175C60.5127 165.008 60.4781 164.82 60.4453 164.51C60.4068 164.167 60.4145 163.883 60.4396 163.639C60.3761 163.426 60.3202 163.178 60.2875 162.871C60.2625 162.65 60.2586 162.447 60.2683 162.259C60.147 161.976 60.045 161.64 60.0027 161.247C59.993 161.157 59.9892 161.139 59.9757 161.068C59.9449 160.909 59.9122 160.726 59.8795 160.431C59.8256 159.939 59.866 159.546 59.9314 159.233C59.9276 159.052 59.9353 158.889 59.9488 158.741C59.8814 158.524 59.8237 158.269 59.789 157.958C59.7659 157.741 59.7544 157.634 59.7428 157.524C59.7332 157.438 59.7255 157.351 59.7082 157.194C59.6427 156.971 59.5792 156.708 59.5388 156.33C59.5042 156.015 59.5042 155.767 59.5176 155.554C59.4426 155.322 59.3752 155.048 59.3367 154.698C59.2693 154.086 59.3521 153.598 59.4676 153.226C59.4503 152.857 59.4849 152.408 59.6658 151.864C59.7775 151.53 59.8833 151.304 59.9834 151.112C60.0181 150.899 60.07 150.651 60.1817 150.315L60.1874 150.288C60.224 150.1 60.2721 149.87 60.3876 149.524C60.48 149.246 60.5916 149.01 60.711 148.808C60.7321 148.562 60.7841 148.292 60.8784 148C60.915 147.781 60.965 147.528 61.0824 147.178C61.2268 146.746 61.4019 146.431 61.5636 146.193C61.6406 146.001 61.7253 145.836 61.808 145.692C61.8369 145.462 61.8889 145.199 61.989 144.901C61.9947 144.882 62.0005 144.867 62.0044 144.853L62.0121 144.817C62.0486 144.644 62.0967 144.433 62.2045 144.114C62.3142 143.788 62.4509 143.515 62.601 143.287C62.6299 143.07 62.6799 142.835 62.7646 142.582C62.884 142.227 62.986 142.008 63.0745 141.831L63.0764 141.827C63.1669 141.555 63.2362 141.386 63.2997 141.24C63.3209 140.964 63.3709 140.643 63.5018 140.251C63.6096 139.925 63.702 139.725 63.777 139.562L63.7943 139.526C63.7943 139.524 63.7982 139.51 63.804 139.493C63.9272 139.122 64.0677 138.848 64.2043 138.627C64.239 138.456 64.289 138.249 64.3833 137.967C64.4718 137.7 64.5315 137.55 64.5758 137.439C64.5989 137.379 64.622 137.32 64.6624 137.201C64.7529 136.928 64.8318 136.744 64.9011 136.594C64.9222 136.323 64.9742 136.01 65.1012 135.63C65.1628 135.446 65.2302 135.283 65.3014 135.137C65.3033 134.816 65.3495 134.444 65.4842 134.041C65.6613 133.511 65.9269 133.113 66.1925 132.821C66.2002 132.791 66.2099 132.762 66.2195 132.729C66.2464 132.474 66.2965 132.176 66.4177 131.802C66.4485 131.618 66.4889 131.41 66.5717 131.14C66.5967 130.875 66.6487 130.568 66.7777 130.18C66.8893 129.848 66.999 129.611 67.1068 129.416C67.1414 129.204 67.1934 128.959 67.3012 128.636C67.4244 128.27 67.5456 128.02 67.663 127.813C67.7939 127.444 67.9479 127.164 68.0922 126.943C68.1115 126.868 68.1327 126.789 68.1596 126.699C68.1654 126.382 68.2116 126.004 68.3598 125.555C68.4464 125.298 68.5484 125.075 68.66 124.881C68.6773 124.614 68.7293 124.317 68.8352 123.998C68.9815 123.56 69.1643 123.238 69.3414 122.988C69.351 122.959 69.3587 122.934 69.3683 122.907C69.401 122.806 69.4338 122.706 69.5011 122.502C69.5704 122.293 69.607 122.187 69.6436 122.082C69.6743 121.994 69.7051 121.907 69.7629 121.73C70.2652 120.221 71.9012 119.404 73.4141 119.907C74.9269 120.408 75.7449 122.04 75.2425 123.549C75.1733 123.758 75.1367 123.863 75.1001 123.969C75.0693 124.057 75.0385 124.144 74.9808 124.32C74.9192 124.505 74.8884 124.597 74.8595 124.689C74.8268 124.791 74.7941 124.891 74.7267 125.092C74.6594 125.296 74.5824 125.474 74.5035 125.634C74.4958 125.939 74.4476 126.292 74.3206 126.672C74.2051 127.02 74.0569 127.304 73.8991 127.54C73.8683 127.74 73.8183 127.958 73.7393 128.197C73.7028 128.304 73.6893 128.36 73.6739 128.413C73.6335 128.563 73.5911 128.719 73.5065 128.976C73.3621 129.408 73.185 129.725 73.0214 129.967C72.9425 130.168 72.8655 130.328 72.7885 130.468C72.7539 130.681 72.7019 130.925 72.5941 131.249C72.4941 131.552 72.392 131.773 72.2958 131.959C72.2669 132.192 72.215 132.459 72.1091 132.779C72.0783 132.965 72.036 133.175 71.9513 133.451C71.9243 133.71 71.8743 134.012 71.7492 134.39C71.7145 134.59 71.6664 134.832 71.5471 135.194C71.4374 135.527 71.2911 135.805 71.1333 136.039C71.1063 136.252 71.0582 136.481 70.9774 136.723C70.8734 137.037 70.7503 137.291 70.6271 137.498C70.5982 137.721 70.5443 137.972 70.4481 138.264C70.3384 138.593 70.2479 138.794 70.169 138.959L70.1517 138.996C70.1517 138.996 70.1478 139.009 70.1421 139.024C70.0535 139.291 69.9938 139.441 69.9496 139.552C69.9265 139.612 69.9034 139.671 69.863 139.791L69.861 139.8C69.8245 139.992 69.7783 140.228 69.659 140.581C69.5223 140.992 69.3645 141.286 69.2143 141.518C69.1527 141.685 69.0969 141.814 69.0469 141.923C69.0257 142.194 68.9738 142.507 68.8467 142.887C68.7524 143.171 68.6812 143.342 68.6158 143.494C68.5888 143.557 68.583 143.571 68.5561 143.649C68.4906 143.843 68.431 143.997 68.3752 144.124C68.3713 144.442 68.3232 144.819 68.1827 145.241C68.0249 145.713 67.8074 146.072 67.5841 146.349C67.5745 146.385 67.5629 146.424 67.5514 146.462C67.5379 146.756 67.4898 147.113 67.3474 147.539C67.1992 147.981 67.0163 148.303 66.8489 148.547C66.7507 148.783 66.6468 148.979 66.5448 149.14C66.5351 149.192 66.5236 149.248 66.5101 149.305C66.5294 149.672 66.4966 150.119 66.3234 150.636C66.181 151.062 65.9924 151.394 65.8038 151.651C65.773 151.776 65.7345 151.924 65.6748 152.101C65.6401 152.323 65.5882 152.579 65.4708 152.932C65.4034 153.133 65.338 153.297 65.2745 153.437C65.2745 153.573 65.2668 153.725 65.2494 153.888C65.234 154.038 65.2109 154.176 65.184 154.303C65.2263 154.472 65.261 154.662 65.286 154.881C65.3245 155.238 65.3206 155.508 65.3014 155.741C65.3572 155.944 65.4111 156.186 65.4477 156.518C65.4708 156.735 65.4823 156.843 65.4939 156.952C65.4996 157.008 65.5054 157.061 65.5131 157.134C65.6113 157.397 65.7017 157.716 65.7479 158.14C65.798 158.597 65.7672 158.96 65.721 159.244C65.7345 159.54 65.7133 159.795 65.6767 160.016C65.8788 160.358 66.0713 160.819 66.1367 161.408C66.1791 161.794 66.1598 162.128 66.1156 162.408C66.1637 162.593 66.206 162.802 66.233 163.051C66.2792 163.468 66.2599 163.796 66.2214 164.071C66.2522 164.23 66.2869 164.413 66.3176 164.699L66.3619 165.094C66.3735 165.196 66.385 165.296 66.4062 165.488C66.4658 165.705 66.5255 165.956 66.5659 166.327C66.6121 166.755 66.5929 167.087 66.5544 167.36C66.5659 167.467 66.5717 167.544 66.5794 167.619C66.5871 167.709 66.5948 167.797 66.616 167.976C66.6275 168.079 66.6333 168.108 66.6468 168.183C66.6583 168.248 66.6699 168.316 66.6833 168.392C66.8277 168.696 66.9624 169.087 67.0163 169.587C67.0606 169.994 67.0471 170.301 67.0202 170.548C67.051 170.946 67.0221 171.268 66.9778 171.528C66.9913 171.768 66.9855 171.96 66.974 172.13C66.999 172.367 67.0067 172.516 67.0144 172.658C67.1222 172.929 67.2223 173.267 67.2685 173.697C67.2993 173.977 67.307 174.144 67.3127 174.306C67.3166 174.382 67.3166 174.413 67.3281 174.519C67.3551 174.764 67.3628 174.941 67.3666 175.091C67.4802 175.369 67.5822 175.709 67.6303 176.141C67.6592 176.402 67.6669 176.533 67.6765 176.663C67.6803 176.732 67.6861 176.799 67.6996 176.924C67.7612 177.143 67.8208 177.398 67.8613 177.771C67.8998 178.126 67.8824 178.447 67.8362 178.727C67.8998 178.932 67.9479 179.159 67.9767 179.414C67.9998 179.629 68.0114 179.737 68.0229 179.846C68.0326 179.942 68.0422 180.04 68.0634 180.234C68.0845 180.434 68.0922 180.614 68.0884 180.779C68.2212 181.071 68.3347 181.43 68.3809 181.856C68.4252 182.267 68.4117 182.578 68.3829 182.832C68.406 183.102 68.404 183.315 68.3925 183.5C68.456 183.717 68.5157 183.974 68.5542 184.325C68.7274 185.907 67.5822 187.328 65.9962 187.501C65.8827 187.514 65.7768 187.52 65.6729 187.52Z" fill="#F0DDE6"/>
<path d="M123.553 83.6786C123.236 83.6786 122.959 83.646 122.722 83.6037C120.899 83.5346 119.331 82.1773 119.061 80.3131C118.759 78.2147 120.218 76.268 122.323 75.9666C122.564 75.932 122.789 75.9167 122.997 75.9147C123.27 75.8149 123.584 75.7304 123.938 75.6786C124.41 75.6114 124.835 75.6229 125.205 75.6748C125.322 75.6498 125.447 75.6268 125.582 75.6076C125.825 75.573 125.944 75.5576 126.065 75.5442C126.106 75.5384 126.146 75.5346 126.196 75.5269C126.46 75.4367 126.775 75.3522 127.193 75.2908C127.667 75.2236 128.076 75.2293 128.421 75.2697C128.536 75.2466 128.671 75.2236 128.835 75.2006L128.848 75.1986C129.037 75.1506 129.27 75.0969 129.637 75.0431C129.934 75.0009 130.117 74.9836 130.28 74.9702C130.323 74.9663 130.367 74.9625 130.452 74.951C130.507 74.9433 130.555 74.9356 130.598 74.9299C130.971 74.7379 131.45 74.5593 132.039 74.4748C132.324 74.4345 132.496 74.4173 132.661 74.4038C132.709 74.4 132.757 74.3961 132.854 74.3808C133.285 74.3193 133.675 74.3232 134.02 74.3635C134.168 74.327 134.324 74.2963 134.493 74.2733C135.036 74.1945 135.502 74.2176 135.889 74.279C135.918 74.2752 135.949 74.2694 135.983 74.2656C136.235 74.183 136.539 74.1043 136.944 74.0448C137.211 74.0064 137.373 73.9891 137.527 73.9757C137.579 73.9699 137.633 73.9661 137.729 73.9527C137.918 73.9027 138.135 73.849 138.433 73.8029C138.587 73.7549 138.761 73.7069 138.965 73.6647C139.274 73.538 139.661 73.417 140.156 73.346C140.676 73.2711 141.138 73.2922 141.524 73.3556C141.736 73.2769 141.986 73.2001 142.281 73.1386C142.57 73.0292 142.929 72.9217 143.397 72.8545C143.799 72.7969 144.167 72.7969 144.494 72.8295C144.662 72.7873 144.841 72.7489 145.033 72.722C145.391 72.6702 145.703 72.6606 145.974 72.6721C146.173 72.6184 146.398 72.5684 146.665 72.53C146.823 72.507 146.904 72.4936 146.983 72.4801C147.106 72.459 147.227 72.4398 147.474 72.4033C147.662 72.3765 147.841 72.3611 148.011 72.3553C148.349 72.2152 148.707 72.1173 149.081 72.0635C149.348 72.0251 149.581 72.0098 149.787 72.0059C150.045 71.9176 150.345 71.8408 150.7 71.7909C151.025 71.7448 151.321 71.7333 151.589 71.7448C151.808 71.6795 152.053 71.622 152.326 71.5836L153.14 71.4684C153.725 71.3839 154.22 71.4165 154.618 71.4856C154.711 71.4818 154.797 71.4799 154.878 71.4799C155.038 71.4588 155.176 71.4453 155.302 71.4357C155.502 71.357 155.731 71.2821 155.991 71.2226C156.304 71.094 156.697 70.9673 157.203 70.8962C157.719 70.8233 158.135 70.8348 158.466 70.8694C160.398 70.8137 162.109 72.2075 162.39 74.1619C162.692 76.2603 161.232 78.207 159.128 78.5084C158.826 78.5526 158.558 78.568 158.321 78.5622C158.233 78.591 158.14 78.616 158.04 78.6409C157.7 78.7964 157.263 78.9481 156.71 79.0268C156.341 79.0786 156.081 79.0921 155.856 79.0978C155.486 79.1478 155.221 79.1593 154.992 79.1593C154.524 79.2188 154.116 79.2054 153.769 79.1574C153.462 79.2821 153.084 79.3973 152.628 79.4607C152.28 79.5106 151.966 79.5183 151.685 79.5048C151.481 79.5624 151.254 79.6124 151 79.6488C150.909 79.6623 150.823 79.6719 150.74 79.6796C150.324 79.885 149.88 80.0213 149.408 80.0904C148.871 80.1672 148.411 80.1461 148.028 80.0885C148.013 80.0904 147.995 80.0942 147.978 80.0962C147.709 80.1883 147.385 80.2786 146.96 80.34C146.708 80.3765 146.479 80.3918 146.271 80.3937C146.003 80.4878 145.695 80.5684 145.343 80.6203C144.858 80.6894 144.423 80.676 144.05 80.6222C143.769 80.7316 143.42 80.8391 142.978 80.9102C142.75 80.9755 142.483 81.0427 142.1 81.0964C141.657 81.1598 141.257 81.154 140.909 81.1118C140.808 81.1348 140.705 81.1559 140.593 81.1751C140.354 81.25 140.069 81.3229 139.688 81.3786C139.473 81.4362 139.221 81.4957 138.853 81.5495C138.585 81.5879 138.424 81.6052 138.27 81.6186C138.243 81.6205 138.218 81.6244 138.187 81.6263C137.937 81.7069 137.637 81.7856 137.24 81.8413C137.059 81.8682 136.969 81.8816 136.878 81.8951C136.767 81.9123 136.655 81.9296 136.432 81.9623C136.083 82.0122 135.768 82.0218 135.483 82.0045C135.279 82.064 135.052 82.1139 134.803 82.1504C134.297 82.2234 133.845 82.2042 133.46 82.1446C133.15 82.2714 132.784 82.3808 132.363 82.4422C132.132 82.4749 132.014 82.4902 131.899 82.5056C131.812 82.5171 131.724 82.5286 131.551 82.5536C131.254 82.5958 131.071 82.6131 130.908 82.6265C130.865 82.6304 130.821 82.6342 130.736 82.6457L130.721 82.6496C130.532 82.6976 130.3 82.7513 129.932 82.8051L129.861 82.8185C129.684 82.8607 129.468 82.9087 129.125 82.9567C128.725 83.0143 128.369 83.0182 128.061 82.9932C127.894 83.0335 127.707 83.0719 127.493 83.1027C127.255 83.1372 127.135 83.1506 127.018 83.166C126.72 83.2831 126.352 83.3925 125.89 83.4597C125.53 83.5116 125.197 83.5173 124.897 83.4943C124.701 83.55 124.489 83.598 124.26 83.6306C124.002 83.6632 123.769 83.6786 123.553 83.6786ZM154.231 79.069L154.22 79.071C154.226 79.071 154.229 79.069 154.231 79.069ZM157.503 78.7465C157.501 78.7465 157.501 78.7465 157.5 78.7465C157.501 78.7465 157.503 78.7465 157.503 78.7465ZM138.562 73.7818C138.56 73.7818 138.56 73.7818 138.562 73.7818C138.56 73.7818 138.56 73.7818 138.562 73.7818ZM153.979 71.5471C153.977 71.5471 153.977 71.5471 153.975 71.5471C153.977 71.5471 153.977 71.5471 153.979 71.5471Z" fill="#5FA3DF"/>
<path d="M30.1315 118.957C29.531 118.957 27.9392 118.778 27.127 117.002C27.0577 116.904 26.998 116.808 26.9461 116.716C26.7093 116.547 26.463 116.324 26.2243 116.027C26.0376 115.793 25.9318 115.639 25.8413 115.503C25.8028 115.445 25.797 115.437 25.7489 115.376C25.7354 115.359 25.7239 115.345 25.7143 115.334L25.6854 115.305C25.5584 115.176 25.4159 115.028 25.21 114.771C24.9155 114.403 24.7365 114.036 24.6268 113.719C24.5402 113.627 24.4478 113.521 24.3477 113.395C24.2457 113.266 24.1572 113.143 24.0821 113.026C23.7934 112.848 23.4874 112.596 23.2044 112.243C22.9696 111.949 22.8426 111.74 22.7406 111.567C22.6309 111.429 22.577 111.364 22.5231 111.298C22.4519 111.212 22.3807 111.125 22.2402 110.949C22.013 110.665 21.8552 110.381 21.7436 110.118C21.5934 109.985 21.4414 109.828 21.2913 109.641C21.093 109.394 20.966 109.196 20.864 109.021C20.6831 108.868 20.4829 108.674 20.2615 108.397C20.0056 108.079 19.8535 107.81 19.7419 107.581C19.5994 107.395 19.509 107.261 19.4301 107.138L19.405 107.098C19.3954 107.084 19.3839 107.069 19.3666 107.048L19.3377 107.015C19.2568 106.936 19.1683 106.848 19.0605 106.729C18.7911 106.55 18.4889 106.303 18.1867 105.925C17.975 105.662 17.8557 105.473 17.7594 105.318C17.5804 105.166 17.3841 104.976 17.1512 104.684C16.7778 104.216 16.5892 103.746 16.493 103.36C16.4641 103.323 16.4314 103.281 16.389 103.229C16.1677 102.953 16.0406 102.749 15.9425 102.58C15.7789 102.432 15.5941 102.252 15.3728 101.975C15.2188 101.782 15.1437 101.684 15.0706 101.584C15.0379 101.54 15.0052 101.495 14.9532 101.43C14.7646 101.275 14.5471 101.071 14.3007 100.764C14.2487 100.699 14.2372 100.687 14.191 100.637C14.1179 100.559 14.0389 100.474 13.9408 100.359C13.704 100.188 13.4365 99.9558 13.1594 99.6083C12.9226 99.3126 12.7956 99.1014 12.6936 98.9286C12.4857 98.6637 12.3356 98.4026 12.2278 98.1607C12.068 98.0244 11.9064 97.8631 11.7485 97.6673C11.5869 97.5195 11.4059 97.3409 11.1788 97.0568L11.1423 97.0165C11.0114 96.8878 10.8535 96.7285 10.6361 96.4559L10.5956 96.4117C10.4667 96.2831 10.3088 96.1256 10.0933 95.8549C9.84692 95.5478 9.70257 95.3001 9.59093 95.0812C9.46968 94.9277 9.40231 94.8355 9.33494 94.7414C9.29838 94.6896 9.25988 94.6397 9.18674 94.5456C9.02507 94.3978 8.84414 94.2192 8.61703 93.9351C8.39761 93.6606 8.27443 93.4647 8.17627 93.3035C8.00689 93.1537 7.82019 92.9694 7.59308 92.6853C7.49299 92.5605 7.44103 92.4971 7.38906 92.4357C7.31015 92.3435 7.23316 92.2514 7.0811 92.0613C6.79432 91.7042 6.62687 91.3817 6.51331 91.1129C6.34586 90.871 6.22846 90.6445 6.14184 90.4448C6.12645 90.4275 6.10912 90.4103 6.09373 90.393C5.77807 90.2087 5.422 89.9399 5.0871 89.5194C4.76567 89.1182 4.58283 88.7285 4.47312 88.3906C4.46349 88.379 4.45579 88.3695 4.44617 88.3579C4.19403 88.1832 3.9111 87.9452 3.62624 87.5861C3.32984 87.2156 3.15084 86.8451 3.04113 86.5283C2.95644 86.4381 2.86406 86.3325 2.76397 86.2077C2.62154 86.0311 2.55225 85.9408 2.48489 85.8506C2.431 85.7796 2.37518 85.7105 2.26547 85.5703C2.2058 85.4954 2.15384 85.4282 2.10764 85.3668C1.76889 85.1844 1.3878 84.906 1.04135 84.4741C0.746871 84.1151 0.58327 83.806 0.467787 83.5391C-0.336743 82.3104 -0.0865304 80.6478 1.08755 79.7148C2.33476 78.7241 4.15169 78.9276 5.14484 80.1717C5.24685 80.3003 5.33346 80.4213 5.40853 80.5365C5.69916 80.715 6.00904 80.9684 6.29582 81.3255C6.48637 81.5636 6.59223 81.7191 6.68461 81.8573C6.72118 81.913 6.72696 81.9207 6.77315 81.9802C6.91558 82.1568 6.98294 82.247 7.05223 82.3373C7.10228 82.4006 7.15039 82.4659 7.24278 82.5811C7.41023 82.7309 7.59885 82.9152 7.83174 83.2051C8.07426 83.5084 8.23978 83.8117 8.35142 84.0863C8.48615 84.2111 8.62472 84.357 8.7633 84.5297C8.86339 84.6545 8.91536 84.7141 8.9654 84.7755C9.04431 84.8696 9.12323 84.9617 9.27528 85.1518C9.46967 85.3937 9.6121 85.6317 9.71989 85.8583C9.90466 86.008 10.0933 86.1923 10.2761 86.4208C10.3165 86.4726 10.3185 86.4746 10.3627 86.5206C10.4821 86.6435 10.6149 86.7856 10.8093 87.0294C11.1057 87.4018 11.2789 87.7397 11.3905 88.022C11.5503 88.2581 11.6619 88.4731 11.7428 88.6632C11.762 88.6843 11.7774 88.7054 11.7947 88.7246C11.8659 88.8072 11.9352 88.8917 12.0603 89.0472C12.2336 89.1988 12.428 89.387 12.6628 89.6807C12.8899 89.9648 13.015 90.1664 13.1132 90.3315C13.2729 90.4774 13.4519 90.656 13.6752 90.9344C13.8426 91.1436 13.9215 91.2511 14.0005 91.3606C14.0409 91.4163 14.0813 91.47 14.166 91.5775C14.4008 91.8732 14.5451 92.1112 14.6549 92.3224C14.7819 92.4472 14.9339 92.6046 15.1437 92.8657L15.1803 92.9061C15.3073 93.0309 15.4613 93.1864 15.6711 93.4475C15.75 93.5185 15.8328 93.5972 15.9232 93.6932C16.2312 93.8756 16.5796 94.1424 16.9106 94.5571C17.284 95.0237 17.4707 95.4883 17.5689 95.8511C17.5746 95.8607 17.5804 95.8703 17.5862 95.8799C17.7998 96.0431 18.0366 96.26 18.2791 96.5634C18.3311 96.6286 18.3407 96.6402 18.3888 96.6901C18.4831 96.7899 18.587 96.9013 18.7276 97.0741C18.9162 97.2296 19.1375 97.435 19.3858 97.746C19.5398 97.938 19.6129 98.0378 19.688 98.1357C19.7284 98.1914 19.7707 98.2452 19.8458 98.3412C20.0171 98.4928 20.2077 98.6771 20.4425 98.9689C20.6792 99.2646 20.8082 99.4777 20.9083 99.6524C21.0449 99.8252 21.1123 99.9116 21.1796 99.998C21.2335 100.067 21.2855 100.136 21.3952 100.273C21.707 100.664 21.8899 101.054 21.9976 101.398C22.0708 101.478 22.1497 101.568 22.2305 101.67C22.3768 101.853 22.4788 101.998 22.5597 102.121C22.8022 102.294 23.0678 102.525 23.3315 102.857L23.3603 102.887C23.4931 103.016 23.6548 103.177 23.8742 103.454C24.0763 103.705 24.186 103.872 24.2823 104.02L24.3073 104.06C24.3169 104.074 24.3285 104.089 24.3458 104.11C24.5537 104.369 24.6942 104.596 24.7981 104.796C24.9655 104.942 25.1484 105.124 25.3486 105.375C25.4717 105.529 25.568 105.665 25.6469 105.788C25.9106 105.965 26.1954 106.207 26.4668 106.547C26.8229 106.992 27.0096 107.437 27.1116 107.806C27.1501 107.854 27.1963 107.912 27.254 107.983C27.3233 108.069 27.383 108.15 27.4369 108.223C27.7641 108.405 28.1259 108.678 28.4551 109.088C28.6918 109.384 28.8458 109.653 28.9574 109.887C29.0921 110.016 29.2423 110.173 29.4155 110.39C29.6291 110.659 29.7831 110.926 29.8928 111.173C29.9409 111.093 29.9948 111.014 30.0526 110.933C30.0988 110.87 30.1045 110.859 30.1411 110.801C30.2258 110.659 30.3259 110.5 30.5029 110.256C30.6338 110.075 30.7012 109.985 30.7686 109.895C30.8225 109.822 30.8783 109.749 30.9861 109.601C31.2035 109.304 31.371 109.123 31.5115 108.979C31.6097 108.787 31.7328 108.57 31.9407 108.284C32.2621 107.843 32.6067 107.556 32.905 107.361C33.0532 107.199 33.1976 107.073 33.3284 106.967C33.3708 106.909 33.4054 106.863 33.4381 106.819C33.4882 106.752 33.5382 106.683 33.6287 106.56C33.7038 106.408 33.7923 106.239 33.9251 106.04C34.0136 105.802 34.1407 105.527 34.3447 105.22C34.4486 104.974 34.591 104.694 34.8336 104.36C35.0876 104.01 35.3667 103.755 35.6323 103.565C35.7074 103.427 35.7998 103.283 35.9075 103.131C36.0769 102.899 36.1866 102.766 36.2925 102.642C36.3368 102.588 36.3522 102.571 36.4022 102.501C36.4946 102.323 36.6139 102.104 36.8372 101.797C37.0624 101.486 37.251 101.288 37.4223 101.125C37.6533 100.818 37.8708 100.605 38.0671 100.441C38.0709 100.434 38.0767 100.426 38.0825 100.417C38.1133 100.367 38.146 100.317 38.1826 100.261C38.2807 99.9404 38.4424 99.5583 38.7369 99.1552C38.937 98.8787 39.1449 98.6656 39.3412 98.4967C39.4067 98.3584 39.4875 98.2125 39.5857 98.0589C39.6896 97.7902 39.8378 97.4849 40.0976 97.1297C40.3113 96.8341 40.5461 96.6056 40.7732 96.4271C40.8618 96.2447 40.9734 96.0546 41.1139 95.8588C41.1678 95.7839 41.1793 95.7647 41.2178 95.7033C41.3006 95.5689 41.3968 95.4172 41.5662 95.183C41.8337 94.8144 42.1301 94.5475 42.4035 94.3575C42.4381 94.2999 42.4747 94.2384 42.5151 94.177C42.6171 93.9082 42.7691 93.5914 43.029 93.2344C43.3215 92.8293 43.6237 92.5624 43.8913 92.3723C43.9529 92.2975 44.0087 92.2341 44.0606 92.1784C44.128 92.0133 44.2146 91.8309 44.332 91.6351C44.4321 91.326 44.5919 90.9632 44.8806 90.5658C45.0961 90.2682 45.3309 90.0378 45.5561 89.8593C45.6447 89.6807 45.7563 89.4926 45.8987 89.2967C46.0354 89.1067 46.1778 88.9473 46.3203 88.8091C46.4184 88.5307 46.5666 88.2331 46.786 87.9317C47.0305 87.5958 47.2999 87.3443 47.554 87.158C47.6329 87.0102 47.7291 86.8566 47.8465 86.6934C47.9928 86.4918 48.1333 86.3306 48.2661 86.1962C48.3662 85.9312 48.5144 85.6394 48.7377 85.3322C49.0091 84.9579 49.2882 84.7006 49.5384 84.5144C49.6057 84.4146 49.6789 84.307 49.8194 84.1112C49.9156 83.9788 49.9618 83.9116 50.008 83.8444C50.0215 83.8232 50.035 83.804 50.0503 83.7829C50.1466 83.4585 50.3102 83.0783 50.6047 82.6733C50.7702 82.4448 50.876 82.3162 50.98 82.1933C51.0281 82.1357 51.0454 82.1146 51.1051 82.032C51.3207 81.7344 51.4958 81.5482 51.6517 81.3908C51.8865 81.0721 52.0944 80.8628 52.2734 80.7016C52.3215 80.6401 52.3677 80.5825 52.4139 80.5288C52.5044 80.1717 52.6699 79.7724 52.9624 79.3692C53.2665 78.9526 53.6053 78.6665 53.9055 78.4726C53.9594 78.3901 54.023 78.296 54.1019 78.1904C55.0373 76.9022 56.8427 76.6142 58.1341 77.5473C59.4256 78.4803 59.7143 80.2811 58.7789 81.5693C58.7674 81.5866 58.7578 81.6001 58.7481 81.6116L58.7289 81.6442C58.6384 81.8036 58.5326 81.9821 58.3362 82.2509C58.1938 82.4467 58.0437 82.6137 57.8916 82.7558C57.7935 83.0265 57.6491 83.3145 57.4374 83.6044C57.1814 83.9557 56.9427 84.188 56.733 84.3627C56.5463 84.5969 56.3769 84.764 56.2268 84.8984C56.0478 85.1326 55.8976 85.2938 55.7629 85.4282C55.6532 85.578 55.5704 85.6836 55.4973 85.7738C55.3972 86.0848 55.2374 86.4419 54.9622 86.8201C54.8679 86.9507 54.8217 87.0179 54.7755 87.0851C54.7062 87.1868 54.6369 87.2867 54.4945 87.4844C54.4098 87.6015 54.3694 87.6629 54.3271 87.7244C54.2558 87.8319 54.1827 87.9413 54.0307 88.1506C53.8594 88.3867 53.6861 88.5749 53.5187 88.7304C53.4205 88.9627 53.2858 89.2161 53.0952 89.4772C52.9239 89.7114 52.7623 89.8938 52.6102 90.0397C52.5101 90.272 52.3735 90.5312 52.1695 90.8115C52.0078 91.0342 51.8346 91.2204 51.6633 91.374C51.5651 91.6198 51.4304 91.8809 51.2379 92.1439C51.0377 92.4203 50.826 92.6354 50.622 92.8062C50.5296 93.004 50.4083 93.2132 50.2486 93.4321C50.0234 93.7431 49.777 93.9793 49.5441 94.1597C49.4941 94.2576 49.4383 94.3594 49.3709 94.4631C49.2689 94.7376 49.1149 95.062 48.8493 95.4287C48.6338 95.7263 48.4702 95.901 48.3354 96.0431L48.3277 96.0527C48.1179 96.3407 47.9062 96.5595 47.7041 96.7304C47.631 96.8782 47.5424 97.0376 47.4289 97.2046C47.325 97.4484 47.1825 97.7268 46.9419 98.0589C46.6532 98.4583 46.3299 98.7347 46.0392 98.9286C45.9411 99.2569 45.7794 99.6294 45.4945 100.021C45.2251 100.392 44.9268 100.658 44.6477 100.85C44.6246 100.891 44.5996 100.931 44.5726 100.973C44.4706 101.261 44.3147 101.601 44.0414 101.977C43.8643 102.221 43.6815 102.417 43.5044 102.576C43.4062 102.801 43.2754 103.045 43.0906 103.298C43.0251 103.388 43.0078 103.415 42.9674 103.481C42.8846 103.613 42.7961 103.749 42.6344 103.972C42.3765 104.327 42.1321 104.563 41.9165 104.74C41.7625 104.934 41.6259 105.076 41.5008 105.199C41.4103 105.37 41.2929 105.577 41.087 105.861C40.9426 106.059 40.8425 106.184 40.7501 106.295C40.6481 106.577 40.4941 106.9 40.2382 107.253C39.9533 107.645 39.6376 107.919 39.3412 108.115C39.3201 108.152 39.297 108.186 39.2739 108.225C39.1757 108.489 39.0314 108.799 38.785 109.146C38.683 109.352 38.556 109.586 38.3346 109.891C38.2076 110.066 38.1421 110.154 38.0786 110.24C38.0228 110.317 37.9651 110.392 37.8554 110.546C37.584 110.92 37.3145 111.17 37.0855 111.35C36.8815 111.592 36.6717 111.778 36.4753 111.922C36.4003 112.049 36.3098 112.191 36.1905 112.354C35.9653 112.665 35.7921 112.848 35.6477 112.993C35.5226 113.164 35.4591 113.251 35.3956 113.335C35.3417 113.408 35.2859 113.481 35.1781 113.629C35.1338 113.69 35.1261 113.702 35.0953 113.752C35.0203 114.145 34.8547 114.639 34.491 115.138C34.4005 115.263 34.3582 115.326 34.3158 115.389C34.2446 115.495 34.1734 115.601 34.0252 115.804C33.8558 116.036 33.6787 116.228 33.5017 116.386C33.417 116.595 33.3015 116.816 33.1494 117.041C32.3218 118.642 30.9553 118.92 30.2123 118.943C30.1931 118.955 30.1623 118.957 30.1315 118.957ZM42.6671 93.9716C42.6671 93.9716 42.6671 93.9735 42.6671 93.9716C42.6671 93.9735 42.6671 93.9716 42.6671 93.9716Z" fill="#F0DDE6"/>
<path d="M30.1443 119.867C29.3609 119.867 28.5718 119.629 27.8885 119.135C26.1678 117.891 25.7829 115.489 27.0301 113.773C27.2072 113.529 27.3823 113.33 27.5479 113.162C27.5883 113.082 27.6325 113.001 27.6807 112.917C27.8058 112.565 28.0002 112.147 28.3274 111.696C28.5468 111.394 28.7181 111.198 28.8701 111.035C29.0895 110.738 29.2647 110.542 29.4244 110.377C29.7055 110.004 29.9961 109.724 30.2675 109.511C30.3926 109.206 30.5716 108.858 30.8372 108.491C31.0431 108.209 31.2549 107.977 31.4589 107.787C31.559 107.603 31.6783 107.407 31.8284 107.201C31.8804 107.13 31.9304 107.063 31.9805 107.002C32.121 106.562 32.3327 106.147 32.6118 105.761C32.9294 105.326 33.2623 105.009 33.5722 104.777C33.5799 104.767 33.5857 104.757 33.5934 104.746C33.7127 104.489 33.8725 104.197 34.1246 103.849C34.2728 103.646 34.4191 103.473 34.5615 103.323C34.6789 103.068 34.8348 102.791 35.0427 102.505C35.3275 102.112 35.6374 101.812 35.9358 101.582C36.0512 101.305 36.2148 100.985 36.4689 100.626C36.5805 100.419 36.7172 100.18 36.9443 99.8694C37.2061 99.5085 37.489 99.2263 37.7604 99.0055C37.8124 98.921 37.8682 98.8347 37.9278 98.7444C38.0414 98.5217 38.1838 98.2683 38.4071 97.9573C38.5149 97.7634 38.6477 97.5407 38.8632 97.2431C39.0211 97.0262 39.1212 96.8994 39.2174 96.7785C39.2328 96.7593 39.2482 96.7401 39.2655 96.7171C39.381 96.4828 39.533 96.2141 39.7679 95.8896C39.8756 95.7418 39.9276 95.6688 39.9796 95.5939C40.045 95.5018 40.1085 95.4116 40.2413 95.2292C40.4473 94.947 40.659 94.7146 40.8669 94.5227C40.965 94.3364 41.0863 94.1425 41.2326 93.939C41.5309 93.5282 41.8562 93.2191 42.1661 92.9849C42.2892 92.6758 42.4644 92.3417 42.7107 92.0019C42.8474 91.8138 42.9167 91.7197 42.9879 91.6275C43.0399 91.5584 43.0918 91.4893 43.1938 91.3492C43.369 91.1092 43.4845 90.9652 43.5884 90.8385C43.6154 90.8058 43.6423 90.7732 43.6924 90.706L43.6981 90.6983C43.7963 90.5294 43.9175 90.324 44.137 90.0245L44.1735 89.9688C44.2659 89.8133 44.3833 89.6251 44.5854 89.3468C44.8222 89.0223 45.0647 88.765 45.2976 88.5615C45.3842 88.4137 45.4862 88.2563 45.6113 88.0835C45.7479 87.8953 45.8211 87.7994 45.8904 87.7053C46.0136 87.4096 46.1906 87.0698 46.4639 86.6935C46.6757 86.4017 46.9009 86.1598 47.126 85.9621C47.2204 85.7835 47.3339 85.6011 47.4686 85.4168C47.7304 85.0578 47.9999 84.7833 48.252 84.5682C48.2751 84.5298 48.3001 84.4914 48.3271 84.4511C48.4483 84.1651 48.6235 83.8291 48.9006 83.449C48.993 83.3203 49.0373 83.257 49.0835 83.1917C49.1547 83.09 49.224 82.9863 49.3703 82.7866C49.5416 82.5524 49.7167 82.3527 49.8899 82.1819C49.9862 81.986 50.1036 81.7806 50.2479 81.5714C50.3615 81.3487 50.5058 81.0972 50.7407 80.7727C50.9543 80.479 51.1083 80.3004 51.2353 80.1583L51.2488 80.1411C51.5741 79.6937 51.9109 79.3789 52.2054 79.1523C52.2997 79.0448 52.3863 78.9527 52.4652 78.872C52.5537 78.7511 52.6076 78.6781 52.6634 78.6033C52.6769 78.5841 52.6904 78.5649 52.7058 78.5457C52.827 78.2711 52.9964 77.9505 53.2582 77.5896C54.5054 75.8732 56.9132 75.4893 58.6339 76.7333C60.2545 77.9044 60.6895 80.0988 59.6963 81.7845C59.5732 82.0763 59.3961 82.4238 59.1093 82.8212C58.9765 83.0036 58.9091 83.0938 58.8418 83.186C58.7879 83.2589 58.734 83.3299 58.6281 83.4759C58.3933 83.8003 58.1912 84.0211 58.018 84.1939C57.7235 84.5778 57.4233 84.8581 57.1557 85.0655C57.1076 85.1231 57.0614 85.1749 57.0191 85.2229C56.9902 85.2805 56.9575 85.34 56.9228 85.4015C56.7997 85.8008 56.5956 86.2654 56.2396 86.755C55.9297 87.1812 55.6044 87.4903 55.3041 87.7206C55.1906 87.9817 55.0308 88.2851 54.7922 88.623C54.6825 88.8303 54.5439 89.0665 54.3187 89.3755C54.1782 89.5695 54.0338 89.7403 53.8914 89.8881C53.774 90.1531 53.6162 90.4353 53.4083 90.7214C53.1292 91.1053 52.8251 91.4029 52.5326 91.6314C52.469 91.7312 52.3998 91.8349 52.3228 91.9405C52.1803 92.1344 52.1091 92.2304 52.036 92.3264C52.0129 92.3571 51.9879 92.3897 51.959 92.4281C51.8397 92.6777 51.6818 92.9657 51.4355 93.3036C51.1564 93.6875 50.8658 93.9774 50.5982 94.1963C50.5347 94.2923 50.4596 94.4036 50.3653 94.5342L50.3596 94.5419C50.2614 94.7108 50.1401 94.9162 49.9227 95.2157C49.7475 95.4557 49.632 95.5997 49.5281 95.7264C49.5011 95.7591 49.4742 95.7917 49.4242 95.8608C49.3934 95.903 49.3664 95.9395 49.3414 95.9722C49.2201 96.3715 49.0161 96.8419 48.6677 97.3199C48.4984 97.5522 48.3906 97.6866 48.2866 97.8133C48.2558 97.8498 48.227 97.8862 48.1712 97.963C47.9171 98.3144 47.6438 98.5908 47.3743 98.8097C47.2993 98.9383 47.2127 99.0708 47.1145 99.2052C46.7931 99.6487 46.4524 99.9654 46.1387 100.202C46.1233 100.223 46.1079 100.244 46.0905 100.267C45.9731 100.505 45.8211 100.778 45.5824 101.106C45.4246 101.325 45.3245 101.449 45.2283 101.57C45.1956 101.611 45.1628 101.651 45.107 101.728C45.0127 101.897 44.9011 102.087 44.7298 102.331C44.6586 102.473 44.5719 102.628 44.4622 102.801C44.3371 103.112 44.1562 103.473 43.8636 103.876C43.5576 104.299 43.2227 104.611 42.909 104.846C42.8205 105.049 42.703 105.278 42.5452 105.525C42.424 105.808 42.2507 106.142 41.9736 106.522C41.7368 106.848 41.4809 107.111 41.2306 107.324C41.146 107.472 41.0497 107.624 40.9362 107.779C40.7264 108.069 40.5166 108.298 40.3222 108.484C40.224 108.662 40.1028 108.856 39.9469 109.071C39.8545 109.2 39.8083 109.265 39.764 109.33C39.6928 109.432 39.6235 109.534 39.4772 109.736C39.3675 109.887 39.2559 110.024 39.1423 110.146C39.0076 110.486 38.8286 110.809 38.6073 111.114C38.4533 111.327 38.3032 111.504 38.1626 111.653C38.0472 111.897 37.8932 112.166 37.6853 112.454C37.4928 112.719 37.2965 112.938 37.1041 113.12C37.0001 113.322 36.8712 113.535 36.7095 113.756L36.2302 114.414C35.8838 114.892 35.5162 115.224 35.187 115.461C35.1274 115.528 35.0716 115.587 35.0157 115.645C34.9234 115.772 34.8387 115.877 34.7598 115.971C34.6789 116.169 34.5731 116.382 34.4383 116.607C34.3132 116.922 34.1304 117.29 33.8301 117.703C33.5241 118.125 33.2258 118.415 32.9698 118.628C32.2403 119.435 31.199 119.867 30.1443 119.867ZM33.2643 118.279C33.2643 118.281 33.2623 118.281 33.2623 118.283C33.2643 118.281 33.2643 118.281 33.2643 118.279ZM30.0173 109.895C30.0153 109.897 30.0134 109.899 30.0115 109.901L30.0173 109.895ZM59.5039 82.0916L59.5019 82.0936C59.5039 82.0936 59.5039 82.0916 59.5039 82.0916ZM50.3249 81.4677C50.3249 81.4696 50.3249 81.4696 50.3249 81.4677C50.3249 81.4696 50.3249 81.4696 50.3249 81.4677ZM51.8724 79.5805L51.8705 79.5824L51.8724 79.5805Z" fill="#5FA3DF"/>
<path d="M136.252 148.635C134.271 148.635 132.641 147.143 132.426 145.225C132.268 145.095 132.127 144.962 132.002 144.83C131.85 144.753 131.692 144.664 131.529 144.561C131.456 144.515 131.419 144.494 131.381 144.471C131.238 144.39 131.076 144.298 130.824 144.137C130.459 143.9 130.203 143.685 130.004 143.497C129.785 143.347 129.625 143.221 129.487 143.104C129.381 143.035 129.296 142.979 129.223 142.927C128.952 142.844 128.651 142.724 128.332 142.547C128.041 142.439 127.693 142.284 127.294 142.027C126.904 141.775 126.6 141.499 126.365 141.239C126.247 141.176 126.124 141.101 125.989 141.015C125.678 140.813 125.45 140.633 125.27 140.472C125.1 140.387 124.898 140.278 124.625 140.101C124.507 140.026 124.4 139.949 124.299 139.873C123.901 139.755 123.52 139.581 123.156 139.346C122.841 139.143 122.583 138.928 122.373 138.719C122.198 138.634 122.009 138.531 121.811 138.402C121.37 138.118 121.058 137.832 120.825 137.574C120.773 137.534 120.723 137.494 120.675 137.454C120.539 137.402 120.394 137.338 120.248 137.265C119.896 137.16 119.47 136.989 119.005 136.689C118.727 136.511 118.512 136.344 118.337 136.188C118.127 136.092 117.892 135.969 117.625 135.797C117.138 135.484 116.782 135.129 116.522 134.802C116.476 134.773 116.425 134.741 116.372 134.706C116.273 134.643 116.189 134.585 116.114 134.533C115.754 134.428 115.33 134.257 114.89 133.973C114.499 133.721 114.201 133.456 113.971 133.211C113.612 133.105 113.211 132.936 112.799 132.671C112.57 132.523 112.437 132.431 112.31 132.341C112.262 132.306 112.216 132.274 112.118 132.21C111.735 131.965 111.45 131.715 111.231 131.489C111.115 131.423 110.98 131.343 110.8 131.226C110.673 131.145 110.555 131.06 110.447 130.978C110.059 130.861 109.687 130.688 109.335 130.46C109.056 130.279 108.838 130.11 108.663 129.953C108.457 129.859 108.226 129.736 107.961 129.565C107.699 129.396 107.479 129.221 107.295 129.052C107.073 128.956 106.835 128.831 106.584 128.67C106.063 128.334 105.701 127.968 105.441 127.639C105.412 127.616 105.385 127.591 105.36 127.568C105.276 127.532 105.187 127.491 105.097 127.445C104.739 127.34 104.308 127.169 103.84 126.866C103.526 126.664 103.32 126.503 103.149 126.359C102.837 126.155 102.629 125.988 102.454 125.838C100.724 124.671 100.239 122.333 101.376 120.574C102.529 118.793 104.912 118.282 106.698 119.432C107.023 119.641 107.239 119.814 107.42 119.969C107.554 120.058 107.67 120.14 107.77 120.215C107.974 120.286 108.195 120.38 108.43 120.505C108.752 120.613 109.131 120.776 109.56 121.052C109.985 121.325 110.286 121.597 110.509 121.836C110.669 121.956 110.809 122.081 110.934 122.204C111.125 122.292 111.325 122.402 111.535 122.536C111.862 122.747 112.124 122.966 112.334 123.174C112.497 123.256 112.678 123.356 112.876 123.485C112.944 123.529 113.007 123.571 113.069 123.613C113.529 123.729 113.966 123.92 114.378 124.185C114.782 124.447 115.086 124.721 115.319 124.973C115.419 125.03 115.534 125.101 115.681 125.197C116.029 125.422 116.295 125.646 116.506 125.858C116.901 125.961 117.351 126.136 117.813 126.436C118.146 126.651 118.369 126.829 118.552 126.99C118.729 127.109 118.887 127.23 119.026 127.351C119.291 127.455 119.58 127.595 119.875 127.785C120.15 127.962 120.313 128.085 120.458 128.194L120.494 128.223C120.508 128.232 120.523 128.242 120.546 128.257C120.602 128.294 120.602 128.294 120.658 128.325C120.812 128.409 120.985 128.505 121.253 128.678C121.672 128.949 121.996 129.25 122.244 129.538C122.338 129.592 122.436 129.649 122.538 129.717C122.744 129.849 122.914 129.976 123.06 130.095C123.164 130.135 123.274 130.181 123.387 130.235C123.778 130.337 124.244 130.513 124.748 130.84C125.162 131.107 125.456 131.371 125.678 131.602C125.82 131.709 125.947 131.815 126.059 131.917C126.268 132.011 126.498 132.132 126.744 132.291C126.873 132.374 126.992 132.46 127.104 132.546C127.489 132.664 127.854 132.834 128.205 133.059C128.59 133.307 128.886 133.568 129.115 133.813C129.231 133.879 129.363 133.956 129.517 134.055C129.793 134.232 130 134.395 130.17 134.539C130.382 134.635 130.622 134.762 130.901 134.942C131.242 135.161 131.515 135.399 131.737 135.628C132.112 135.733 132.549 135.908 133.018 136.209C133.263 136.367 133.403 136.467 133.538 136.567C133.577 136.595 133.615 136.622 133.696 136.676C134.012 136.879 134.218 137.043 134.393 137.187C134.722 137.402 134.959 137.599 135.147 137.774C135.149 137.774 135.149 137.776 135.151 137.776C135.18 137.791 135.209 137.809 135.24 137.826C135.607 137.932 136.036 138.104 136.498 138.402C136.897 138.659 137.209 138.943 137.451 139.22C137.653 139.335 137.867 139.475 138.086 139.648C138.4 139.896 138.673 140.189 138.897 140.521C139.229 141.015 139.43 141.47 139.591 141.858C139.836 142.445 139.919 142.963 139.963 143.242L139.976 143.321C140.092 143.895 140.101 144.384 140.101 144.797C140.101 146.916 138.377 148.635 136.252 148.635ZM115.698 134.238C115.7 134.238 115.7 134.24 115.702 134.24C115.7 134.24 115.698 134.24 115.698 134.238ZM125.37 131.387L125.372 131.389C125.372 131.389 125.372 131.389 125.37 131.387ZM102.519 125.888H102.521H102.519ZM110.176 121.609C110.178 121.609 110.178 121.609 110.176 121.609C110.178 121.609 110.178 121.609 110.176 121.609ZM108.79 120.722C108.79 120.722 108.792 120.722 108.792 120.724L108.79 120.722Z" fill="#5FA3DF"/>
<path d="M62.1183 157.386C61.7121 157.386 61.3003 157.321 60.8941 157.186C58.879 156.512 57.7915 154.337 58.4671 152.325C58.5691 152.022 58.6441 151.837 58.7134 151.674C58.7231 151.653 58.7288 151.64 58.7327 151.628C58.775 151.396 58.8366 151.129 58.9579 150.766C59.0907 150.371 59.2254 150.087 59.3486 149.86C59.4718 149.53 59.6065 149.261 59.7355 149.04C59.7451 148.652 59.8067 148.19 59.9818 147.668C60.0915 147.343 60.2205 147.065 60.3552 146.825C60.3745 146.723 60.3976 146.615 60.4245 146.506C60.4515 146.182 60.5169 145.788 60.6747 145.32C60.7864 144.989 60.9307 144.68 61.1078 144.392C61.1444 144.202 61.1963 144.004 61.2656 143.797C61.2849 143.741 61.2849 143.741 61.2983 143.686C61.3426 143.515 61.3926 143.321 61.4966 143.014C61.6506 142.559 61.8526 142.183 62.0644 141.877C62.0913 141.553 62.1587 141.167 62.3107 140.71C62.4897 140.178 62.7226 139.769 62.944 139.46C62.9459 139.454 62.9478 139.449 62.9517 139.443C62.969 139.295 62.994 139.136 63.0325 138.965C63.044 138.589 63.1056 138.128 63.2827 137.596C63.404 137.235 63.556 136.926 63.7177 136.661C63.7562 136.477 63.8062 136.281 63.8755 136.076C63.9429 135.878 64.018 135.693 64.0988 135.526C64.1296 135.183 64.2008 134.841 64.3144 134.503C64.4549 134.087 64.6377 133.735 64.8302 133.443C64.8648 133.301 64.9052 133.154 64.9572 132.998C65.0265 132.791 65.1016 132.608 65.1766 132.445C65.2094 132.14 65.2748 131.8 65.3999 131.428C65.5577 130.957 65.7579 130.585 65.9542 130.291C65.9831 130.199 66.0177 130.088 66.0697 129.932C66.1043 129.828 66.1255 129.763 66.1428 129.707C66.1505 129.314 66.2121 128.847 66.3892 128.319C66.4893 128.024 66.5605 127.845 66.6259 127.688C66.651 127.626 66.6529 127.622 66.6741 127.557C66.7992 127.183 66.9185 126.924 67.0301 126.707C67.1591 126.342 67.2957 126.065 67.4247 125.841C67.4247 125.372 67.4998 124.908 67.6557 124.449C67.8347 123.915 68.0829 123.493 68.3312 123.163C68.3486 123.105 68.3697 123.044 68.3909 122.978C68.4891 122.687 68.5622 122.506 68.6276 122.349C68.6681 122.089 68.7316 121.79 68.8586 121.416C69.5342 119.405 71.7168 118.323 73.732 118.995C75.6817 119.647 76.7634 121.705 76.2187 123.66C76.1783 123.932 76.1148 124.251 75.9801 124.654C75.88 124.954 75.8068 125.134 75.7395 125.294C75.7144 125.351 75.7144 125.355 75.6952 125.411C75.6529 125.607 75.597 125.845 75.4758 126.204C75.4046 126.415 75.3218 126.611 75.2333 126.787C75.2025 127.116 75.1313 127.444 75.0215 127.768C74.8695 128.223 74.6905 128.567 74.5269 128.832C74.423 129.091 74.3152 129.298 74.2151 129.475C74.1208 129.729 74.0284 129.922 73.9437 130.091C73.9148 130.176 73.8879 130.251 73.8629 130.318C73.8456 130.687 73.7801 131.115 73.6204 131.593C73.5722 131.735 73.5511 131.808 73.528 131.879C73.4895 132.002 73.4529 132.126 73.3701 132.37C73.3297 132.491 73.3105 132.553 73.2932 132.614C73.2547 132.748 73.2142 132.883 73.1257 133.148C73.0372 133.409 72.9371 133.641 72.8312 133.845C72.7947 134.108 72.7311 134.392 72.6272 134.699C72.5406 134.954 72.4482 135.175 72.3539 135.365C72.3173 135.63 72.2519 135.928 72.1422 136.254C72.0575 136.506 71.9593 136.732 71.8515 136.936C71.815 137.229 71.7495 137.521 71.6514 137.809C71.5417 138.134 71.4089 138.416 71.2684 138.658C71.2299 138.871 71.1721 139.099 71.0913 139.341C70.9642 139.719 70.8026 140.042 70.6313 140.315C70.6236 140.355 70.6139 140.395 70.6043 140.435C70.5812 140.775 70.5158 141.186 70.3522 141.674C70.2309 142.033 70.1212 142.279 70.0211 142.486C69.9114 142.799 69.7844 143.068 69.6535 143.296C69.6304 143.419 69.5996 143.549 69.5611 143.686C69.5265 143.978 69.4611 144.335 69.3167 144.765C69.1646 145.216 68.9645 145.59 68.7547 145.894C68.7335 146.241 68.6681 146.642 68.5218 147.078C68.3871 147.481 68.2004 147.856 67.9636 148.196C67.9386 148.53 67.8732 148.931 67.7192 149.39C67.6268 149.666 67.519 149.91 67.4035 150.125C67.365 150.376 67.3034 150.647 67.2053 150.939C67.1803 151.016 67.1764 151.027 67.1591 151.093C67.1167 151.252 67.0667 151.432 66.9705 151.72C66.8146 152.183 66.6336 152.531 66.4643 152.801C66.395 152.976 66.3257 153.124 66.2583 153.252C66.216 153.458 66.1563 153.694 66.0562 153.997C65.9542 154.301 65.8792 154.485 65.8099 154.648C65.7868 154.704 65.7868 154.704 65.7675 154.761C65.2286 156.37 63.7273 157.386 62.1183 157.386ZM67.8385 148.57V148.572V148.57ZM62.1798 141.524V141.526C62.1779 141.526 62.1779 141.526 62.1798 141.524Z" fill="#5FA3DF"/>
<path d="M9.81187 83.4693C9.81187 83.7554 9.86384 84.076 9.72911 84.3064C9.59053 84.5444 9.36534 84.8017 9.12667 84.9399C8.89571 85.0743 8.56081 85.0993 8.27402 85.0993C7.98724 85.0993 7.77552 84.8651 7.54263 84.7326C7.30397 84.5944 7.07493 84.4792 6.93635 84.2392C6.80162 84.0088 6.80162 83.7554 6.80162 83.4693C6.80162 83.1833 6.65534 82.8454 6.78815 82.6131C6.92672 82.375 7.19234 82.1523 7.431 82.0141C7.66197 81.8797 7.98724 82.0774 8.27402 82.0774C8.56081 82.0774 8.80717 82.0141 9.04006 82.1466C9.27873 82.2848 9.59438 82.3904 9.73296 82.6304C9.86576 82.8607 9.81187 83.1833 9.81187 83.4693Z" fill="#ECDEE6"/>
<path d="M126.346 77.3955L126.037 78.7816L126.545 80.185L125.961 81.5519L126.293 82.963L126.504 84.3779L125.709 85.7026L125.455 87.0696L125.935 88.5344L125.23 89.838L124.805 91.1723L124.535 92.5296L124.333 93.9023L124.349 95.3268L123.804 96.6247L123.989 98.1125L123.303 99.3681L122.67 100.628L122.343 101.983L121.696 103.227L121.369 104.586L120.847 105.873L120.126 107.072L119.608 108.359L119.618 109.904L118.726 111.022L118.214 112.331L116.898 113.183L116.265 114.414L115.753 115.731L115.431 117.194L113.976 117.874L113.686 119.396L112.912 120.575L111.977 121.625L110.966 122.604L109.628 123.257L108.689 124.28L107.428 124.952L106.466 125.948L105.432 126.872L104.512 127.972L103.206 128.525L102.134 129.441L101.1 130.472L99.6987 130.817L98.2321 130.94L96.9368 131.412L95.8128 132.426L94.3211 132.271L93.0277 132.827L91.6227 132.839L90.2831 133.282L88.8857 133.2L87.5038 132.987L86.1161 133.298L84.7283 133.215L83.3656 132.946L82.0337 132.555L80.5151 132.923L79.1967 132.413L77.782 132.188L76.5945 131.36L75.2433 130.944L74.0462 130.199L72.6969 129.732L71.7365 128.619L70.3911 128.112L69.167 127.402L68.1623 126.405L67.5483 124.981L66.3146 124.278L65.2522 123.376L64.5824 122.097L63.6161 121.109L62.4806 120.254L61.9455 118.91L61.1256 117.799L60.2306 116.741L59.3125 115.689L58.533 114.539L57.8998 113.302L57.074 112.174L56.256 111.031L55.9134 109.647L55.4958 108.311L54.7913 107.111L53.7655 106.034L53.3921 104.68L52.8974 103.377L52.8916 101.906L51.6752 100.839L51.783 99.347L50.8919 98.149L50.9977 96.6784L50.6571 95.3288L49.916 94.0655L49.9237 92.6371L49.7409 91.2548L49.6601 89.8591L49.483 88.4787L49.5138 87.0753L48.869 85.7487L48.8016 84.3549L48.5072 82.9784L48.792 81.5654L48.3301 80.1908L48.3513 78.7931L48.6053 77.3955L48.7862 76.0074L48.4629 74.6078L48.6881 73.2217L49.1481 71.8586L48.7304 70.4322L49.4137 69.1017L49.2154 67.6829L49.1481 66.268L49.5022 64.9126L49.5099 63.4996L50.4299 62.2536L50.6609 60.8886L50.7879 59.4948L51.4058 58.2181L51.323 56.7628L51.2826 55.2999L52.2411 54.1326L52.857 52.8752L52.9051 51.4199L53.7231 50.2392L53.8232 48.782L54.6682 47.6263L55.3611 46.4149L55.7152 45.046L56.7757 44.0266L57.0452 42.6001L57.8632 41.4655L58.8101 40.4192L59.2817 39.0791L59.8168 37.764L60.5405 36.5622L61.397 35.4564L62.2034 34.3064L63.2197 33.3311L64.2571 32.3884L65.3041 31.4631L66.2684 30.459L66.9882 29.1708L68.1065 28.3145L69.3018 27.5619L70.3238 26.5771L71.4728 25.7592L72.8394 25.2946L74.3156 25.0949L75.5494 24.4844L76.4886 23.1732L77.8706 22.8353L79.3622 22.9025L80.5902 22.148L81.9356 21.7602L83.3656 21.8427L84.7033 21.3109L86.1026 21.238L87.5038 21.0729L88.9204 20.9097L90.2677 21.6718L91.6265 21.9368L93.0084 22.0731L94.427 22.1173L95.7377 22.6107L97.0446 23.0925L98.3649 23.5437L99.743 23.8893L100.675 25.1295L101.912 25.7362L103.102 26.4331L104.586 26.723L105.313 28.0803L106.693 28.5718L107.561 29.6949L108.497 30.7182L109.555 31.6128L110.866 32.2848L111.459 33.6229L112.429 34.6193L113.79 35.322L114.13 36.8118L115.152 37.7909L115.493 39.2327L116.859 40.016L117.191 41.4424L117.658 42.7691L118.428 43.9267L119.533 44.9308L120.101 46.2094L120.339 47.6263L120.963 48.8723L121.64 50.1029L121.531 51.6234L122.33 52.8118L122.674 54.1614L122.876 55.5476L123.367 56.8473L123.673 58.1989L124.16 59.5063L124.886 60.7696L124.63 62.2421L125.126 63.561L125.167 64.9625L125.546 66.3083L126.035 67.6503L126.431 69.0115L126.167 70.4398L125.865 71.8567L126.656 73.2044L126.239 74.6155L126.654 75.9997L126.346 77.3955Z" fill="#A4C9ED"/>
<path d="M111.341 34.1888C111.027 34.4442 110.844 34.041 110.438 34.041C110.032 34.041 110.032 34.1351 109.626 34.1351C109.22 34.1351 109.22 34.1063 108.813 34.1063C108.407 34.1063 108.407 34.185 108.003 34.185C107.597 34.185 107.597 34.2311 107.193 34.2311C106.787 34.2311 106.787 33.9777 106.383 33.9777C105.976 33.9777 105.976 33.9777 105.57 33.9777C105.164 33.9777 105.164 34.0026 104.758 34.0026C104.352 34.0026 104.352 34.1351 103.948 34.1351C103.542 34.1351 103.542 34.162 103.138 34.162C102.731 34.162 102.731 33.9623 102.327 33.9623C101.921 33.9623 101.921 34.0007 101.515 34.0007C101.109 34.0007 101.109 34.2637 100.705 34.2637C100.299 34.2637 100.299 34.0161 99.8944 34.0161C99.4902 34.0161 99.4902 34.1409 99.0841 34.1409C98.6799 34.1409 98.6799 34.0756 98.2738 34.0756C97.8676 34.0756 97.8676 34.0813 97.4635 34.0813C97.0573 34.0813 97.0573 34.2311 96.6532 34.2311C96.247 34.2311 96.247 34.1428 95.8428 34.1428C95.4367 34.1428 95.4367 34.0602 95.0306 34.0602C94.6245 34.0602 94.6245 34.0391 94.2203 34.0391C93.8142 34.0391 93.8142 34.0871 93.41 34.0871C93.0039 34.0871 93.0039 34.0487 92.5997 34.0487C92.1936 34.0487 92.1936 33.9834 91.7894 33.9834C91.3833 33.9834 91.3833 34.0717 90.9772 34.0717C90.571 34.0717 90.571 34.0909 90.1649 34.0909C89.7588 34.0909 89.7588 34.1984 89.3546 34.1984C88.9485 34.1984 88.9485 34.1831 88.5443 34.1831C88.1382 34.1831 88.1382 34.0583 87.734 34.0583C87.3279 34.0583 87.3279 34.1677 86.9218 34.1677C86.5157 34.1677 86.5157 34.1504 86.1115 34.1504C85.7054 34.1504 85.7054 33.993 85.3012 33.993C84.8951 33.993 84.8951 33.9316 84.489 33.9316C84.0828 33.9316 84.0828 34.2196 83.6767 34.2196C83.2706 34.2196 83.2706 33.922 82.8645 33.922C82.4584 33.922 82.4584 33.9565 82.0523 33.9565C81.6461 33.9565 81.6461 33.9565 81.24 33.9565C80.8339 33.9565 80.8339 34.0852 80.4278 34.0852C80.0217 34.0852 80.0217 33.9297 79.6156 33.9297C79.2095 33.9297 79.2095 34.1466 78.8033 34.1466C78.3972 34.1466 78.3972 34.0084 77.9911 34.0084C77.585 34.0084 77.585 33.9815 77.1789 33.9815C76.7728 33.9815 76.7728 34.0621 76.3667 34.0621C75.9605 34.0621 75.9605 33.9181 75.5544 33.9181C75.1483 33.9181 75.1483 33.9066 74.7422 33.9066C74.3361 33.9066 74.3361 33.9949 73.9319 33.9949C73.5258 33.9949 73.5258 34.0775 73.1197 34.0775C72.7135 34.0775 72.7135 34.1274 72.3074 34.1274C71.9013 34.1274 71.9013 34.0122 71.4952 34.0122C71.0891 34.0122 71.0891 34.0525 70.683 34.0525C70.2769 34.0525 70.2769 34.2042 69.8707 34.2042C69.4646 34.2042 69.4646 34.0986 69.0585 34.0986C68.6524 34.0986 68.6524 33.9489 68.2463 33.9489C67.8402 33.9489 67.8402 34.1447 67.4341 34.1447C67.0279 34.1447 67.0279 33.9239 66.6218 33.9239C66.2157 33.9239 66.2157 33.9469 65.8096 33.9469C65.4035 33.9469 65.4035 33.9969 64.9974 33.9969C64.5913 33.9969 64.5913 33.8951 64.1832 33.8951C63.7752 33.8951 63.7578 34.2484 63.4422 33.993C63.1285 33.7396 63.1997 33.705 63.1188 33.3115C63.0361 32.9179 63.2459 32.8738 63.1631 32.4802C63.0804 32.0847 63.1169 32.0789 63.0342 31.6834C62.9514 31.288 62.7782 31.3244 62.6954 30.9309C62.6126 30.5373 62.7955 30.4989 62.7147 30.1034C62.6319 29.7098 62.4856 29.7386 62.4029 29.3451C62.3201 28.9515 62.4741 28.9189 62.3913 28.5253C62.3085 28.1317 62.1584 28.1624 62.0776 27.767C61.9948 27.3715 62.0506 27.3599 61.9698 26.9664C61.887 26.5709 61.6715 26.617 61.5887 26.2215C61.5059 25.826 61.7176 25.7837 61.6368 25.3883C61.554 24.9947 61.5059 25.0043 61.4251 24.6088C61.3423 24.2133 61.1422 24.2555 61.0613 23.8601C60.9786 23.4646 61.3231 23.3935 61.2403 23C61.1576 22.6045 60.9266 22.6525 60.8458 22.2589C60.763 21.8634 60.7957 21.8577 60.713 21.4641C60.6302 21.0686 60.8438 21.0244 60.763 20.6309C60.6802 20.2354 60.609 20.2507 60.5282 19.8553C60.4454 19.4598 60.43 19.4636 60.3492 19.0681C60.2664 18.6726 60.1933 18.688 60.1105 18.2944C60.0278 17.8989 60.0316 17.8989 59.9488 17.5034C59.8661 17.108 59.7602 17.131 59.6794 16.7355C59.5966 16.34 59.5062 16.3592 59.4234 15.9637C59.3406 15.5682 59.3849 15.5606 59.3041 15.1651C59.2213 14.7696 59.3426 14.7446 59.2617 14.351C59.179 13.9556 59.3137 13.9287 59.2309 13.5332C59.1482 13.1377 58.9037 13.1895 58.821 12.7941C58.7382 12.3986 58.9865 12.3486 58.9056 11.9532C58.8229 11.5577 58.7748 11.5692 58.692 11.1737C58.6092 10.7801 58.5149 10.7993 58.4341 10.4038C58.3513 10.0084 58.232 10.0333 58.1492 9.63974C58.0665 9.24425 58.3071 9.19625 58.2243 8.80077C58.1415 8.40528 58.1858 8.39568 58.105 8.00211C58.0222 7.60662 58.0241 7.60662 57.9414 7.21305C57.8586 6.81756 57.541 6.88284 57.4602 6.48927C57.3774 6.09378 57.5429 6.05922 57.4621 5.66565C57.3793 5.27016 57.5718 5.23177 57.491 4.83628C57.4082 4.44079 57.0964 4.50607 57.0136 4.11058C56.9309 3.71509 57.1484 3.67093 57.0656 3.27544C56.9829 2.87995 56.7885 2.92027 56.7057 2.52478C56.6229 2.12929 56.6345 2.12737 56.5517 1.73188C56.469 1.33639 56.4536 1.34023 56.3708 0.942825C56.288 0.547337 55.9262 0.238241 56.2842 0.0462561C56.6441 -0.147649 56.7115 0.313115 57.0079 0.595333C57.3043 0.875631 57.1542 1.03306 57.4506 1.31528C57.747 1.59557 57.7932 1.54758 58.0915 1.82788C58.3879 2.10817 58.3186 2.18305 58.615 2.46335C58.9114 2.74364 58.9846 2.66877 59.281 2.94907C59.5774 3.22937 59.5081 3.30424 59.8045 3.58454C60.1009 3.86484 60.0682 3.89939 60.3646 4.18161C60.661 4.46191 60.7976 4.31792 61.094 4.59822C61.3905 4.87852 61.352 4.91883 61.6484 5.19913C61.9448 5.47943 61.9736 5.44871 62.27 5.72901C62.5665 6.00931 62.5895 5.98627 62.886 6.26849C63.1824 6.54878 63.0207 6.71773 63.3171 6.99803C63.6135 7.27833 63.7463 7.1401 64.0427 7.42231C64.3391 7.70261 64.2217 7.82548 64.5181 8.1077C64.8145 8.388 64.7972 8.4072 65.0955 8.6875C65.3919 8.96779 65.5902 8.76045 65.8866 9.04075C66.183 9.32104 66.0059 9.50727 66.3023 9.78949C66.5987 10.0717 66.5853 10.0851 66.8817 10.3674C67.1781 10.6496 67.3821 10.4346 67.6785 10.7168C67.9749 10.9971 67.8036 11.1775 68.1 11.4578C68.3964 11.7381 68.5735 11.5538 68.8699 11.836C69.1663 12.1183 69.0758 12.2123 69.3722 12.4946C69.6686 12.7768 69.5493 12.9016 69.8457 13.1838C70.1441 13.466 70.3442 13.2529 70.6426 13.5351C70.9409 13.8173 70.7503 14.0496 71.1603 14.0573C71.5703 14.065 71.474 13.9229 71.782 13.6522C72.0899 13.3815 72.0457 13.3316 72.3517 13.0628C72.6597 12.7921 72.7193 12.8612 73.0273 12.5905C73.3352 12.3198 73.3256 12.3103 73.6336 12.0396C73.9415 11.7689 73.9896 11.8245 74.2957 11.5538C74.6036 11.2831 74.6113 11.2927 74.9193 11.022C75.2272 10.7513 75.2522 10.7821 75.5602 10.5114C75.8682 10.2407 75.7719 10.1331 76.0799 9.86244C76.3878 9.59174 76.486 9.70502 76.792 9.43432C77.0981 9.16362 76.9056 8.94476 77.2116 8.67598C77.5196 8.40528 77.5715 8.46671 77.8795 8.19601C78.1874 7.92532 78.1047 7.83316 78.4126 7.56246C78.7206 7.29176 78.8187 7.40504 79.1267 7.13626C79.4347 6.86556 79.4501 6.88284 79.7561 6.61406C80.064 6.34336 79.9967 6.26849 80.3046 5.99779C80.6126 5.72709 80.5702 5.68101 80.8782 5.41031C81.1861 5.13962 81.1765 5.13002 81.4825 4.85932C81.7905 4.58862 81.8367 4.64237 82.1447 4.37168C82.4526 4.10098 82.4488 4.09714 82.7567 3.82644C83.0647 3.55574 83.0974 3.59414 83.4053 3.32344C83.7133 3.05274 83.6709 3.00666 83.9789 2.73596C84.2869 2.46527 84.3542 2.54206 84.6622 2.27136C84.9701 2.00066 85.0048 2.04098 85.3127 1.77028C85.6207 1.49958 85.5052 1.36903 85.8132 1.09833C86.1211 0.827635 86.302 1.03114 86.61 0.76044C86.9179 0.489741 86.737 0.172966 87.147 0.159527C87.555 0.146088 87.5108 0.320795 87.8322 0.572295C88.1536 0.823795 87.99 1.02922 88.3114 1.28072C88.6329 1.53222 88.7195 1.42087 89.039 1.67237C89.3604 1.92387 89.2873 2.01602 89.6087 2.2656C89.9301 2.5171 89.9763 2.45759 90.2977 2.70717C90.6192 2.95867 90.6211 2.95483 90.9425 3.20633C91.264 3.45783 91.2524 3.47127 91.5738 3.72085C91.8953 3.97235 91.851 4.02802 92.1724 4.27952C92.4938 4.53102 92.4938 4.5291 92.8153 4.7806C93.1367 5.0321 93.3195 4.7998 93.639 5.04938C93.9605 5.30088 93.8642 5.42183 94.1857 5.67141C94.5071 5.92099 94.5745 5.8346 94.8959 6.08418C95.2173 6.33568 95.0691 6.52191 95.3905 6.77149C95.712 7.02299 95.7601 6.96155 96.0796 7.21305C96.401 7.46455 96.4684 7.37816 96.7898 7.62774C97.1112 7.87924 97.1305 7.85236 97.4519 8.10386C97.7733 8.35536 97.8061 8.3112 98.1275 8.56271C98.4489 8.81421 98.3257 8.97163 98.6472 9.22313C98.9686 9.47463 98.9686 9.47463 99.29 9.72421C99.6114 9.97571 99.7693 9.77605 100.089 10.0256C100.41 10.2771 100.349 10.3539 100.67 10.6054C100.991 10.8569 100.861 11.022 101.182 11.2735C101.503 11.525 101.553 11.4598 101.875 11.7113C102.196 11.9628 102.329 11.7938 102.651 12.0453C102.972 12.2968 102.839 12.4638 103.161 12.7153C103.482 12.9668 103.486 12.963 103.807 13.2126C104.129 13.4641 104.167 13.4142 104.491 13.6657C104.812 13.9172 104.731 14.3242 105.139 14.2973C105.54 14.2704 105.513 13.9824 105.786 13.6887C106.059 13.3969 106.021 13.3585 106.294 13.0667C106.567 12.7749 106.619 12.8209 106.893 12.5291C107.166 12.2373 107.008 12.0875 107.281 11.7957C107.555 11.5039 107.734 11.669 108.007 11.3753C108.28 11.0835 108.021 10.8396 108.296 10.5478C108.569 10.256 108.74 10.4134 109.014 10.1216C109.287 9.82981 109.173 9.72229 109.447 9.43048C109.72 9.13866 109.843 9.25193 110.117 8.96011C110.39 8.6683 110.382 8.6587 110.655 8.36688C110.929 8.07506 110.84 7.99059 111.114 7.69877C111.389 7.40696 111.522 7.52983 111.797 7.23801C112.07 6.94619 111.953 6.83484 112.226 6.5411C112.501 6.24737 112.522 6.27041 112.798 5.97667C113.071 5.68485 112.946 5.56582 113.219 5.274C113.494 4.98027 113.683 5.15689 113.958 4.86508C114.234 4.57134 114.16 4.50415 114.436 4.21233C114.711 3.91859 114.655 3.86676 114.928 3.57494C115.202 3.28312 115.331 3.40215 115.604 3.10842C115.879 2.81468 115.946 2.87995 116.222 2.58622C116.497 2.29248 116.487 2.2848 116.763 1.99298C117.038 1.69925 116.886 1.5591 117.161 1.26728C117.436 0.973543 117.509 1.04266 117.785 0.748921C118.06 0.455184 117.86 0.0884929 118.216 0.274718C118.574 0.460944 118.166 0.50894 118.085 0.904429C118.002 1.298 118.168 1.33256 118.087 1.72804C118.004 2.12353 117.985 2.11969 117.904 2.51326C117.821 2.90875 117.735 2.88955 117.654 3.28504C117.571 3.67861 117.531 3.67093 117.448 4.06642C117.365 4.45999 117.484 4.48495 117.403 4.88044C117.321 5.274 117.361 5.2836 117.28 5.67717C117.198 6.07074 117.096 6.04962 117.013 6.44511C116.93 6.8406 116.857 6.82524 116.774 7.21881C116.691 7.6143 116.766 7.62966 116.686 8.02323C116.603 8.41872 116.624 8.42256 116.543 8.81612C116.46 9.20969 116.487 9.21545 116.406 9.61094C116.324 10.0064 116.26 9.99299 116.177 10.3866C116.095 10.7821 116.272 10.8185 116.191 11.2121C116.108 11.6076 115.739 11.5308 115.658 11.9244C115.575 12.3198 115.588 12.3218 115.508 12.7173C115.425 13.1127 115.483 13.1243 115.4 13.5178C115.317 13.9133 115.319 13.9133 115.236 14.3069C115.154 14.7024 115.333 14.7389 115.25 15.1324C115.167 15.5279 114.959 15.4838 114.876 15.8792C114.794 16.2747 114.857 16.2863 114.774 16.6817C114.692 17.0772 114.715 17.0811 114.632 17.4766C114.549 17.8721 114.678 17.897 114.595 18.2925C114.513 18.688 114.426 18.6688 114.343 19.0643C114.26 19.4598 114.366 19.4809 114.285 19.8764C114.203 20.2719 113.962 20.2219 113.881 20.6174C113.799 21.0129 113.935 21.0398 113.854 21.4353C113.772 21.8308 113.683 21.8116 113.6 22.2071C113.517 22.6026 113.735 22.6467 113.652 23.0422C113.569 23.4358 113.442 23.4108 113.36 23.8044C113.277 24.1999 113.477 24.2402 113.396 24.6357C113.313 25.0312 112.975 24.9601 112.892 25.3556C112.809 25.7511 112.888 25.7665 112.805 26.162C112.723 26.5574 112.802 26.5728 112.721 26.9683C112.638 27.3638 112.802 27.3964 112.719 27.7919C112.636 28.1874 112.365 28.1317 112.284 28.5253C112.201 28.9208 112.367 28.9553 112.284 29.3489C112.201 29.7444 112.026 29.7079 111.943 30.1034C111.86 30.4989 112.016 30.5296 111.933 30.9251C111.851 31.3206 111.966 31.3436 111.885 31.7391C111.803 32.1346 111.481 32.0674 111.398 32.4629C111.316 32.8584 111.52 32.8795 111.543 33.2846C111.57 33.7569 111.656 33.9335 111.341 34.1888Z" fill="#373B74"/>
<path d="M117.219 37.5852C116.813 37.5852 116.813 37.3836 116.409 37.3836C116.003 37.3836 116.003 37.5967 115.599 37.5967C115.192 37.5967 115.192 37.4009 114.788 37.4009C114.382 37.4009 114.382 37.4662 113.978 37.4662C113.572 37.4662 113.572 37.4816 113.168 37.4816C112.762 37.4816 112.762 37.4451 112.357 37.4451C111.951 37.4451 111.951 37.6793 111.547 37.6793C111.141 37.6793 111.141 37.4739 110.737 37.4739C110.331 37.4739 110.331 37.3376 109.926 37.3376C109.52 37.3376 109.52 37.5084 109.116 37.5084C108.71 37.5084 108.71 37.4931 108.306 37.4931C107.9 37.4931 107.9 37.5756 107.496 37.5756C107.089 37.5756 107.089 37.3222 106.685 37.3222C106.281 37.3222 106.279 37.6121 105.875 37.6121C105.469 37.6121 105.469 37.3779 105.065 37.3779C104.658 37.3779 104.658 37.5891 104.254 37.5891C103.848 37.5891 103.848 37.4489 103.444 37.4489C103.038 37.4489 103.038 37.5123 102.634 37.5123C102.228 37.5123 102.228 37.6639 101.823 37.6639C101.417 37.6639 101.417 37.4393 101.013 37.4393C100.607 37.4393 100.607 37.5545 100.203 37.5545C99.7967 37.5545 99.7967 37.351 99.3925 37.351C98.9864 37.351 98.9864 37.4412 98.5822 37.4412C98.1761 37.4412 98.1761 37.5545 97.7719 37.5545C97.3657 37.5545 97.3657 37.6102 96.9616 37.6102C96.5554 37.6102 96.5554 37.687 96.1512 37.687C95.7451 37.687 95.7451 37.495 95.3409 37.495C94.9368 37.495 94.9368 37.5833 94.5306 37.5833C94.1265 37.5833 94.1264 37.6659 93.7203 37.6659C93.3161 37.6659 93.3161 37.4048 92.91 37.4048C92.5058 37.4048 92.5058 37.6083 92.0997 37.6083C91.6955 37.6083 91.6955 37.5871 91.2894 37.5871C90.8833 37.5871 90.8833 37.5007 90.4791 37.5007C90.073 37.5007 90.073 37.5871 89.6688 37.5871C89.2627 37.5871 89.2627 37.6006 88.8585 37.6006C88.4543 37.6006 88.4543 37.5718 88.0482 37.5718C87.644 37.5718 87.644 37.351 87.2379 37.351C86.8318 37.351 86.8318 37.3299 86.4276 37.3299C86.0215 37.3299 86.0215 37.4451 85.6173 37.4451C85.2112 37.4451 85.2112 37.6063 84.807 37.6063C84.4009 37.6063 84.4009 37.4988 83.9967 37.4988C83.5906 37.4988 83.5906 37.6332 83.1864 37.6332C82.7803 37.6332 82.7803 37.3913 82.3761 37.3913C81.97 37.3913 81.97 37.4508 81.5638 37.4508C81.1577 37.4508 81.1577 37.3548 80.7535 37.3548C80.3474 37.3548 80.3474 37.4873 79.9432 37.4873C79.5371 37.4873 79.5371 37.6908 79.1329 37.6908C78.7268 37.6908 78.7268 37.5622 78.3226 37.5622C77.9165 37.5622 77.9165 37.5315 77.5123 37.5315C77.1062 37.5315 77.1062 37.4662 76.702 37.4662C76.2959 37.4662 76.2959 37.6716 75.8898 37.6716C75.4837 37.6716 75.4837 37.328 75.0795 37.328C74.6734 37.328 74.6734 37.4892 74.2673 37.4892C73.8611 37.4892 73.8611 37.6255 73.4569 37.6255C73.0508 37.6255 73.0508 37.5948 72.6447 37.5948C72.2386 37.5948 72.2386 37.399 71.8344 37.399C71.4283 37.399 71.4283 37.6793 71.0222 37.6793C70.6161 37.6793 70.6161 37.4201 70.21 37.4201C69.8038 37.4201 69.8038 37.3241 69.3977 37.3241C68.9916 37.3241 68.9916 37.3529 68.5874 37.3529C68.1813 37.3529 68.1813 37.5353 67.7752 37.5353C67.3691 37.5353 67.3691 37.3971 66.9649 37.3971C66.5588 37.3971 66.5588 37.4835 66.1527 37.4835C65.7465 37.4835 65.7465 37.4681 65.3424 37.4681C64.9362 37.4681 64.9362 37.5103 64.5301 37.5103C64.124 37.5103 64.124 37.3644 63.7179 37.3644C63.3118 37.3644 63.3118 37.5526 62.9057 37.5526C62.4996 37.5526 62.4996 37.4009 62.0934 37.4009C61.6873 37.4009 61.6873 37.6697 61.2812 37.6697C60.8751 37.6697 60.8751 37.3472 60.469 37.3472C60.0629 37.3472 60.0629 37.3587 59.6568 37.3587C59.2506 37.3587 59.2506 37.4528 58.8445 37.4528C58.4384 37.4528 58.4384 37.5603 58.0323 37.5603C57.7648 37.5603 57.5011 37.4892 57.2451 37.4528C56.9814 37.4144 56.7216 37.3664 56.4713 37.2934C56.2173 37.2185 55.9575 37.1513 55.7188 37.0419C55.4782 36.9325 55.2299 36.8211 55.0105 36.6791C54.7891 36.537 54.5255 36.4256 54.3272 36.2528C54.129 36.0801 53.9173 35.8919 53.744 35.6942C53.5708 35.4964 53.413 35.2622 53.2686 35.0414C53.1262 34.8206 53.0223 34.5615 52.9106 34.3215C52.8009 34.0834 52.9645 33.7494 52.8914 33.494C52.8182 33.2444 52.595 33.0371 52.5584 32.7741C52.5218 32.5168 52.5777 32.2557 52.5777 31.9889C52.5777 31.722 52.3756 31.4398 52.4141 31.1825C52.4525 30.9195 52.6104 30.6718 52.6835 30.4223C52.7586 30.1688 52.8875 29.9327 52.9953 29.6946C53.105 29.4547 53.2109 29.2108 53.3533 28.9901C53.4957 28.7693 53.7229 28.6118 53.8942 28.4141C54.0674 28.2164 54.1232 27.8919 54.3214 27.7191C54.5197 27.5463 54.8969 27.6116 55.1183 27.4695C55.3396 27.3275 55.4378 26.9646 55.6784 26.8552C55.917 26.7458 56.2 26.717 56.454 26.6421C56.7042 26.5691 56.9891 26.6536 57.2528 26.6171C57.5107 26.5806 57.759 26.3791 58.0265 26.3791C58.4326 26.3791 58.4326 26.3157 58.8368 26.3157C59.2429 26.3157 59.2429 26.3464 59.6471 26.3464C60.0532 26.3464 60.0532 26.308 60.4574 26.308C60.8635 26.308 60.8635 26.5269 61.2677 26.5269C61.6739 26.5269 61.6739 26.3963 62.078 26.3963C62.4842 26.3963 62.4842 26.4923 62.8883 26.4923C63.2945 26.4923 63.2945 26.5327 63.6987 26.5327C64.1048 26.5327 64.1048 26.2831 64.509 26.2831C64.9151 26.2831 64.9151 26.5019 65.3193 26.5019C65.7254 26.5019 65.7254 26.3599 66.1296 26.3599C66.5357 26.3599 66.5357 26.3368 66.9399 26.3368C67.346 26.3368 67.346 26.4059 67.7502 26.4059C68.1563 26.4059 68.1563 26.5787 68.5605 26.5787C68.9666 26.5787 68.9666 26.4962 69.3708 26.4962C69.7769 26.4962 69.7769 26.5672 70.1811 26.5672C70.5872 26.5672 70.5872 26.3253 70.9914 26.3253C71.3975 26.3253 71.3975 26.356 71.8017 26.356C72.2078 26.356 72.2078 26.644 72.612 26.644C73.0181 26.644 73.0181 26.5096 73.4223 26.5096C73.8284 26.5096 73.8284 26.3579 74.2326 26.3579C74.6387 26.3579 74.6387 26.5192 75.0429 26.5192C75.449 26.5192 75.449 26.5864 75.8532 26.5864C76.2593 26.5864 76.2593 26.4405 76.6635 26.4405C77.0696 26.4405 77.0696 26.5442 77.4738 26.5442C77.8799 26.5442 77.8799 26.3714 78.2841 26.3714C78.6902 26.3714 78.6902 26.5614 79.0944 26.5614C79.5006 26.5614 79.5006 26.4789 79.9047 26.4789C80.3089 26.4789 80.3089 26.6056 80.715 26.6056C81.1192 26.6056 81.1192 26.3522 81.5254 26.3522C81.9295 26.3522 81.9295 26.5902 82.3357 26.5902C82.7398 26.5902 82.7398 26.4866 83.146 26.4866C83.5501 26.4866 83.5502 26.6114 83.9563 26.6114C84.3624 26.6114 84.3624 26.6286 84.7666 26.6286C85.1727 26.6286 85.1727 26.6133 85.5769 26.6133C85.983 26.6133 85.983 26.6517 86.3872 26.6517C86.7914 26.6517 86.7914 26.3503 87.1975 26.3503C87.6017 26.3503 87.6017 26.2984 88.0078 26.2984C88.4139 26.2984 88.4139 26.3733 88.8181 26.3733C89.2242 26.3733 89.2242 26.6171 89.6284 26.6171C90.0345 26.6171 90.0345 26.4597 90.4387 26.4597C90.8448 26.4597 90.8448 26.3272 91.249 26.3272C91.6551 26.3272 91.6551 26.5576 92.0593 26.5576C92.4654 26.5576 92.4654 26.596 92.8696 26.596C93.2757 26.596 93.2757 26.5749 93.6818 26.5749C94.088 26.5749 94.088 26.5461 94.4921 26.5461C94.8983 26.5461 94.8983 26.3272 95.3025 26.3272C95.7086 26.3272 95.7086 26.4463 96.1128 26.4463C96.5189 26.4463 96.5189 26.3003 96.9231 26.3003C97.3292 26.3003 97.3292 26.3541 97.7334 26.3541C98.1395 26.3541 98.1395 26.3752 98.5437 26.3752C98.9498 26.3752 98.9498 26.5019 99.3559 26.5019C99.762 26.5019 99.762 26.5039 100.166 26.5039C100.572 26.5039 100.572 26.3618 100.978 26.3618C101.385 26.3618 101.385 26.5173 101.789 26.5173C102.195 26.5173 102.195 26.5365 102.601 26.5365C103.007 26.5365 103.007 26.4117 103.411 26.4117C103.817 26.4117 103.817 26.4309 104.223 26.4309C104.63 26.4309 104.63 26.6114 105.036 26.6114C105.442 26.6114 105.442 26.2754 105.848 26.2754C106.254 26.2754 106.254 26.3119 106.658 26.3119C107.064 26.3119 107.064 26.5634 107.47 26.5634C107.877 26.5634 107.877 26.2965 108.281 26.2965C108.687 26.2965 108.687 26.5058 109.093 26.5058C109.499 26.5058 109.499 26.2792 109.903 26.2792C110.309 26.2792 110.309 26.4328 110.716 26.4328C111.122 26.4328 111.122 26.5634 111.528 26.5634C111.934 26.5634 111.934 26.5154 112.34 26.5154C112.746 26.5154 112.746 26.5614 113.152 26.5614C113.558 26.5614 113.558 26.6075 113.964 26.6075C114.371 26.6075 114.371 26.4175 114.777 26.4175C115.183 26.4175 115.183 26.5461 115.589 26.5461C115.995 26.5461 115.995 26.5768 116.401 26.5768C116.807 26.5768 116.807 26.4923 117.213 26.4923C117.481 26.4923 117.748 26.4482 118.006 26.4847C118.27 26.5231 118.555 26.5058 118.805 26.5787C119.059 26.6536 119.223 26.9685 119.461 27.076C119.702 27.1854 119.918 27.3044 120.139 27.4465C120.36 27.5886 120.766 27.4964 120.965 27.6673C121.163 27.8401 121.115 28.2663 121.286 28.464C121.459 28.6618 121.844 28.7021 121.989 28.9229C122.131 29.1436 122.266 29.3913 122.375 29.6313C122.485 29.8693 122.356 30.1996 122.431 30.4549C122.504 30.7045 122.479 30.9598 122.518 31.2228C122.554 31.4801 122.672 31.7162 122.672 31.9831C122.672 32.25 122.655 32.5015 122.618 32.7587C122.579 33.0217 122.785 33.3443 122.712 33.5939C122.637 33.8473 122.526 34.1161 122.416 34.3541C122.306 34.5941 122.162 34.8456 122.021 35.0664C121.879 35.2872 121.629 35.4523 121.455 35.65C121.282 35.8478 121.046 35.9937 120.847 36.1665C120.649 36.3392 120.383 36.4141 120.16 36.5562C119.939 36.6982 119.771 36.9344 119.531 37.0438C119.292 37.1533 119.048 37.2684 118.792 37.3433C118.541 37.4163 118.257 37.3491 117.993 37.3875C117.741 37.4316 117.487 37.5852 117.219 37.5852Z" fill="#5FA3DF"/>
</svg>
