<svg width="150" height="170" viewBox="0 0 150 170" fill="none" xmlns="http://www.w3.org/2000/svg">
<path d="M146.338 113.568C144.744 113.568 143.451 112.278 143.451 110.688C143.451 110.283 143.505 109.957 143.572 109.694C143.568 109.656 143.564 109.615 143.56 109.573C143.426 109.231 143.316 108.797 143.316 108.256C143.316 107.982 143.324 107.822 143.329 107.705C143.333 107.64 143.335 107.576 143.335 107.446C143.335 107.07 143.366 106.83 143.393 106.634C143.393 106.357 143.401 106.196 143.408 106.079C143.41 106.056 143.41 106.031 143.412 106.004C143.349 105.741 143.299 105.426 143.299 105.017C143.299 104.628 143.36 104.286 143.449 103.996C143.42 103.815 143.404 103.616 143.404 103.397C143.404 103.286 143.401 103.228 143.397 103.172C143.387 103.019 143.378 102.857 143.378 102.587C143.378 102.189 143.42 101.903 143.47 101.659C143.476 101.366 143.497 101.168 143.52 101.001L143.522 100.966C143.522 100.765 143.526 100.625 143.533 100.504C143.449 100.243 143.378 99.9277 143.358 99.5534C143.293 99.2846 143.239 98.9659 143.239 98.5416C143.239 98.1058 143.31 97.7391 143.408 97.4377C143.393 97.2899 143.383 97.1209 143.383 96.9232C143.383 96.5507 143.418 96.2858 143.458 96.0592V96.0573C143.437 95.8749 143.412 95.6522 143.412 95.3047C143.412 95.13 143.422 94.9707 143.441 94.8209C143.329 94.5042 143.25 94.126 143.25 93.6863C143.25 93.3215 143.299 93.0086 143.368 92.7437C143.335 92.5478 143.316 92.3251 143.316 92.0679C143.316 91.6052 143.387 91.2443 143.468 90.962C143.478 90.8238 143.493 90.6971 143.51 90.58C143.466 90.4072 143.43 90.2133 143.41 90.0002C143.314 89.6969 143.233 89.3167 143.233 88.8329C143.233 88.4989 143.264 88.234 143.304 88.017C143.266 87.8039 143.237 87.5447 143.237 87.2164C143.237 86.6885 143.349 86.2527 143.482 85.9186C143.478 85.8284 143.476 85.7247 143.476 85.598C143.476 85.4252 143.48 85.2908 143.487 85.1756C143.376 84.855 143.289 84.4595 143.289 83.9815C143.289 83.49 143.372 83.1041 143.474 82.7969C143.474 82.795 143.474 82.7931 143.474 82.7912C143.351 82.4629 143.252 82.0482 143.252 81.5548C143.252 81.286 143.258 81.1516 143.266 81.0172C143.27 80.95 143.272 80.8828 143.272 80.7465C143.272 80.3203 143.331 79.9805 143.404 79.7098C143.397 79.585 143.389 79.4564 143.387 79.2683C143.345 79.2433 143.302 79.2164 143.258 79.1876C142.987 79.0129 142.773 78.8324 142.602 78.6616C142.382 78.5771 142.14 78.4581 141.876 78.2891C141.426 77.9992 141.124 77.6786 140.914 77.3983C140.816 77.3196 140.731 77.2428 140.654 77.1679C140.519 77.1161 140.373 77.0508 140.219 76.9683C139.907 76.8838 139.54 76.7437 139.128 76.4787C138.828 76.2848 138.65 76.1408 138.506 76.0199L138.464 75.9872C138.142 75.7799 137.954 75.6205 137.802 75.4881C137.386 75.2193 137.099 74.9256 136.893 74.6664L136.789 74.5992C136.489 74.5128 136.141 74.3746 135.752 74.1231C135.453 73.9311 135.224 73.7295 135.042 73.5356C134.843 73.453 134.628 73.3436 134.395 73.1919C134.274 73.1132 134.166 73.0364 134.07 72.9635C133.717 72.8886 133.313 72.7465 132.897 72.4777C132.48 72.209 132.191 71.9133 131.983 71.6484C131.914 71.6061 131.837 71.5581 131.723 71.4852C131.492 71.3969 131.215 71.2721 130.877 71.0532C130.644 70.9035 130.457 70.7537 130.303 70.6097C130.049 70.5233 129.77 70.3947 129.47 70.2008C129.083 69.9512 128.8 69.6671 128.594 69.4022C128.521 69.3657 128.444 69.3234 128.365 69.2774C128.095 69.1871 127.789 69.0566 127.424 68.8204C127.241 68.736 127.019 68.6304 126.698 68.423C126.34 68.1907 126.072 67.9316 125.87 67.6877C125.732 67.6225 125.584 67.5418 125.428 67.4439C125.216 67.3537 124.975 67.2385 124.658 67.0331L124.604 67.0023C124.436 66.9217 124.234 66.818 123.938 66.628C123.711 66.4821 123.599 66.4034 123.489 66.3246C123.443 66.292 123.397 66.2594 123.318 66.2075C123.097 66.1173 122.847 66.0002 122.521 65.789C122.363 65.6872 122.283 65.6373 122.202 65.5855C122.108 65.526 122.015 65.4665 121.828 65.3474C121.534 65.1574 121.303 64.9558 121.12 64.758C120.92 64.6755 120.702 64.5661 120.47 64.4163C120.027 64.1303 119.721 63.8 119.507 63.5005C119.18 63.4199 118.814 63.2778 118.429 63.0283C117.092 62.1643 116.709 60.3808 117.575 59.0465C118.308 57.9176 119.7 57.4703 120.922 57.8831C121.338 57.9368 121.848 58.0751 122.396 58.4283C122.637 58.5838 122.772 58.6817 122.868 58.7528C122.918 58.7892 122.968 58.8257 123.074 58.8929C123.422 59.1175 123.686 59.371 123.886 59.6129C124.044 59.6858 124.211 59.776 124.386 59.8893C124.808 60.1619 125.099 60.4595 125.306 60.7283C125.381 60.7763 125.462 60.8262 125.593 60.9107C125.814 61.0009 126.067 61.1199 126.392 61.3292C126.619 61.4751 126.729 61.5538 126.84 61.6325C126.898 61.6728 126.954 61.7132 127.073 61.79L127.127 61.8207C127.287 61.8975 127.479 61.9954 127.753 62.1701C127.912 62.2392 128.091 62.3218 128.307 62.4485C128.582 62.5368 128.909 62.6712 129.285 62.9131C129.704 63.1857 130.003 63.4967 130.211 63.777C130.263 63.8058 130.316 63.8365 130.374 63.8711C130.601 63.9479 130.857 64.0535 131.15 64.2282C131.41 64.3184 131.706 64.4489 132.062 64.6774C132.391 64.8905 132.645 65.1267 132.842 65.357C133.015 65.4338 133.2 65.5298 133.392 65.6546C133.696 65.8504 133.923 66.0482 134.1 66.2306C134.289 66.3131 134.503 66.4226 134.751 66.5819C134.897 66.676 134.97 66.722 135.043 66.7662C135.146 66.8296 135.248 66.891 135.448 67.0215C135.632 67.1406 135.794 67.2654 135.933 67.3902C136.231 67.4727 136.556 67.609 136.889 67.824C137.136 67.9834 137.326 68.1351 137.478 68.2752C137.719 68.3635 137.992 68.4883 138.294 68.6822C138.577 68.8646 138.797 69.0527 138.974 69.237C139.185 69.3215 139.416 69.4348 139.663 69.5941L140.352 70.0415C140.789 70.3237 141.083 70.6328 141.291 70.9016C141.416 70.9956 141.513 71.0782 141.597 71.1531C141.805 71.2874 141.955 71.3988 142.075 71.4948C142.298 71.5639 142.546 71.6618 142.817 71.8135C143.095 71.9018 143.426 72.0381 143.805 72.2819C144.184 72.5257 144.436 72.7638 144.627 72.975C144.831 73.1247 145 73.2802 145.141 73.4319C145.339 73.5145 145.552 73.6239 145.783 73.7717C146.109 73.981 146.349 74.196 146.534 74.3976C146.688 74.4686 146.857 74.5569 147.054 74.6779C147.756 75.0043 148.247 75.4689 148.645 76.1735C148.961 76.615 149.321 77.2582 149.321 78.3199C149.321 78.7691 149.252 79.13 149.163 79.4238C149.171 79.5582 149.179 79.7098 149.179 79.9383C149.179 80.3856 149.113 80.735 149.034 81.0134C149.034 81.0192 149.034 81.0268 149.034 81.0326C149.175 81.3743 149.292 81.8217 149.292 82.3631C149.292 82.7297 149.261 82.9832 149.227 83.2001C149.225 83.4554 149.2 83.682 149.163 83.8816C149.231 84.1427 149.275 84.4442 149.275 84.7878C149.275 85.0796 149.263 85.2601 149.25 85.4214C149.244 85.4924 149.242 85.5097 149.242 85.5961C149.242 85.6921 149.244 85.7132 149.25 85.7861C149.261 85.9493 149.273 86.1183 149.273 86.4043C149.273 86.867 149.186 87.2606 149.075 87.5754C149.086 87.7079 149.094 87.8557 149.094 88.0228C149.094 88.2877 149.075 88.5085 149.046 88.6966C149.084 88.8464 149.115 89.0134 149.136 89.1996C149.25 89.5202 149.348 89.933 149.348 90.4495C149.348 90.891 149.288 91.2251 149.217 91.4958C149.206 91.7242 149.175 91.9239 149.138 92.0986C149.181 92.3194 149.209 92.5728 149.209 92.8761C149.209 93.0604 149.198 93.2313 149.175 93.3907C149.281 93.7017 149.354 94.0703 149.354 94.4946C149.354 94.9285 149.288 95.2817 149.202 95.5697C149.215 95.7137 149.225 95.8865 149.225 96.113C149.225 96.4509 149.196 96.7005 149.161 96.9136C149.2 97.1305 149.231 97.3878 149.231 97.7314C149.231 98.1365 149.169 98.4802 149.082 98.7701C149.088 98.8123 149.094 98.8584 149.098 98.9045C149.213 99.227 149.311 99.6417 149.311 100.158C149.311 100.421 149.304 100.579 149.294 100.728C149.29 100.788 149.286 100.847 149.286 100.966C149.286 101.325 149.261 101.554 149.236 101.742L149.234 101.777C149.234 102.168 149.194 102.45 149.144 102.692C149.146 102.74 149.148 102.775 149.15 102.811C149.154 102.875 149.157 102.938 149.161 103.011C149.267 103.326 149.352 103.714 149.352 104.205C149.352 104.658 149.269 105.046 149.157 105.361C149.173 105.501 149.181 105.655 149.181 105.826C149.181 106.104 149.173 106.265 149.165 106.384C149.161 106.448 149.157 106.511 149.157 106.636C149.157 107.012 149.127 107.252 149.1 107.448C149.1 107.615 149.096 107.74 149.092 107.838C149.209 108.164 149.302 108.569 149.302 109.064L149.306 109.126C149.327 109.306 149.35 109.529 149.35 109.874C149.35 110.347 149.277 110.712 149.194 110.994C149.053 112.443 147.827 113.568 146.338 113.568Z" fill="#F0DDE6"/>
<path d="M119.65 168.115C119.126 168.115 118.603 167.975 118.137 167.689C117.858 167.581 117.54 167.424 117.197 167.159C116.941 167.032 116.655 166.859 116.326 166.575C116.064 166.35 115.912 166.187 115.789 166.053L115.762 166.024C115.762 166.024 115.752 166.016 115.739 166.005C115.467 165.771 115.311 165.602 115.184 165.462L115.157 165.435C114.99 165.289 114.905 165.216 114.822 165.141C114.768 165.093 114.715 165.047 114.628 164.97C114.416 164.851 114.166 164.692 113.866 164.434C113.623 164.225 113.435 164.012 113.285 163.803C113.079 163.69 112.863 163.546 112.644 163.355C112.23 162.998 111.97 162.626 111.799 162.296C111.779 162.278 111.762 162.259 111.745 162.242C111.743 162.24 111.741 162.238 111.737 162.234C111.514 162.123 111.258 161.973 110.981 161.747C110.763 161.628 110.505 161.466 110.199 161.201C109.926 160.965 109.735 160.748 109.589 160.558C109.418 160.451 109.223 160.314 108.99 160.113C108.869 160.007 108.806 159.957 108.744 159.907C108.648 159.829 108.552 159.752 108.365 159.591C108.134 159.391 108.001 159.257 107.884 159.138C107.836 159.09 107.83 159.082 107.772 159.034C107.682 158.955 107.634 158.919 107.585 158.882C107.466 158.79 107.341 158.692 107.141 158.519C106.906 158.316 106.769 158.18 106.652 158.055C106.606 158.007 106.604 158.005 106.552 157.959C106.481 157.897 106.463 157.886 106.406 157.842C106.279 157.748 106.134 157.64 105.915 157.45C105.63 157.204 105.453 157.008 105.309 156.832C105.151 156.692 105.02 156.557 104.908 156.429C104.639 156.304 104.346 156.129 104.05 155.872C103.853 155.701 103.757 155.613 103.663 155.524C103.609 155.474 103.555 155.425 103.443 155.329C103.205 155.123 103.068 154.983 102.949 154.858C102.905 154.812 102.903 154.81 102.855 154.768C102.677 154.616 102.531 154.463 102.406 154.313C102.139 154.19 101.85 154.017 101.565 153.77C101.332 153.57 101.199 153.434 101.082 153.313C101.034 153.265 101.03 153.259 100.974 153.211C100.918 153.163 100.912 153.159 100.859 153.121C100.722 153.023 100.568 152.91 100.335 152.708C100.044 152.456 99.8288 152.197 99.6691 151.952C99.5478 151.875 99.4208 151.786 99.288 151.681C99.0532 151.556 98.7876 151.391 98.4777 151.122C98.1255 150.817 97.8964 150.525 97.7348 150.276C97.7117 150.253 97.6905 150.229 97.6674 150.208C97.3286 150.085 96.9552 149.89 96.5895 149.573C96.3047 149.325 96.1257 149.127 95.9794 148.949C95.76 148.753 95.5849 148.55 95.4444 148.354C95.2365 148.241 95.0209 148.097 94.8034 147.908C94.7842 147.891 94.7688 147.878 94.7553 147.868L94.7168 147.841C94.5705 147.739 94.407 147.622 94.1606 147.409C93.7988 147.098 93.5639 146.791 93.3983 146.522C93.3714 146.499 93.3484 146.478 93.3233 146.457C93.2887 146.426 93.256 146.396 93.2117 146.359C92.9557 146.234 92.6689 146.061 92.3436 145.781C92.0587 145.535 91.8971 145.357 91.7662 145.207L91.7643 145.205C91.6065 145.069 91.4929 144.961 91.3986 144.867C91.1061 144.743 90.775 144.554 90.4324 144.259C90.1514 144.015 89.9416 143.765 89.7819 143.527C89.6144 143.426 89.4374 143.299 89.2526 143.138C88.8657 142.804 88.6231 142.473 88.4538 142.183C88.3171 142.045 88.2113 141.917 88.1208 141.799C88.0765 141.763 88.0458 141.74 88.015 141.715C87.9534 141.667 87.8898 141.619 87.8167 141.559C87.424 141.377 86.9506 141.076 86.506 140.509C86.1307 140.029 85.917 139.446 85.8958 138.839C85.8246 138.718 85.7554 138.582 85.6938 138.434C85.6476 138.323 85.6052 138.207 85.5628 138.092C85.5571 138.079 85.5533 138.063 85.5475 138.05C85.2126 137.468 85.0913 136.787 85.2087 136.121L85.2299 135.994C85.3107 135.514 85.38 135.249 85.5975 134.719C85.7977 134.229 86.069 133.867 86.325 133.606C86.3577 133.515 86.3963 133.414 86.4444 133.294C86.5714 132.985 86.6677 132.801 86.7562 132.64L86.7774 132.601C86.7812 132.592 86.7889 132.575 86.7966 132.555C86.8236 132.49 86.8255 132.484 86.8447 132.419C86.8505 132.402 86.8563 132.384 86.8601 132.367C86.8486 131.979 86.8967 131.476 87.1257 130.92C87.2662 130.578 87.4414 130.296 87.6223 130.069C87.6647 129.871 87.7281 129.66 87.8205 129.436C87.9957 129.009 88.1997 128.7 88.3845 128.468C88.4057 128.424 88.4249 128.382 88.4442 128.343C88.4615 128 88.5308 127.596 88.7156 127.149C88.7425 127.082 88.7444 127.074 88.7656 127.011C88.8156 126.848 88.8753 126.665 88.9927 126.377C89.1448 126.009 89.291 125.761 89.4277 125.558C89.5624 125.248 89.6914 125.03 89.8126 124.845L90.0879 124.173C90.2034 123.895 90.3304 123.666 90.4555 123.476C90.4979 123.231 90.571 122.958 90.6942 122.655C90.8404 122.3 90.9771 122.061 91.1061 121.862C91.2216 121.589 91.3409 121.378 91.4563 121.203C91.4968 121.004 91.5564 120.781 91.6565 120.522C91.7027 120.276 91.7739 119.992 91.926 119.621C91.9914 119.462 92.0241 119.379 92.0549 119.299C92.0818 119.232 92.1069 119.162 92.1454 119.07C92.1839 118.786 92.2551 118.458 92.4207 118.057C92.5458 117.751 92.6939 117.5 92.844 117.291C92.8864 117.066 92.9557 116.82 93.0673 116.553C93.2483 116.116 93.4831 115.78 93.7083 115.528C93.7121 115.16 93.7795 114.731 93.9681 114.271C94.1856 113.743 94.4839 113.363 94.7476 113.1C94.7726 112.852 94.8266 112.574 94.9344 112.263C94.9728 111.98 95.046 111.65 95.2115 111.245C95.429 110.717 95.7254 110.339 95.9852 110.078C96.0122 110.02 96.0411 109.953 96.0892 109.838C96.197 109.577 96.2758 109.415 96.3471 109.275C96.3856 108.999 96.4587 108.671 96.6165 108.287C96.7801 107.891 96.9707 107.592 97.1574 107.357C97.1516 106.966 97.2112 106.497 97.4268 105.971C97.5365 105.706 97.6077 105.557 97.6597 105.447C97.6866 105.391 97.7117 105.338 97.7598 105.224C97.7944 105.142 97.8003 105.123 97.8214 105.055C97.8715 104.902 97.9291 104.729 98.0408 104.456C98.0754 104.374 98.0813 104.355 98.1024 104.288C98.1525 104.134 98.2101 103.961 98.3218 103.688C98.47 103.328 98.6586 103.034 98.8511 102.798C98.8934 102.615 98.9531 102.421 99.0378 102.216C99.6422 100.743 101.33 100.041 102.804 100.644C104.1 101.173 104.8 102.535 104.544 103.854C104.544 104.228 104.487 104.696 104.265 105.236C104.05 105.758 103.753 106.138 103.474 106.409C103.447 106.478 103.418 106.555 103.382 106.641C103.347 106.724 103.341 106.743 103.32 106.81C103.27 106.964 103.212 107.137 103.101 107.409C103.049 107.536 103.005 107.638 102.968 107.718C102.962 108.089 102.897 108.525 102.699 109.01C102.693 109.026 102.687 109.037 102.683 109.049L102.677 109.074C102.629 109.25 102.566 109.463 102.433 109.784C102.298 110.11 102.144 110.371 101.99 110.585C101.946 110.792 101.877 111.024 101.771 111.282C101.657 111.556 101.575 111.723 101.5 111.869C101.467 111.932 101.461 111.946 101.428 112.024C101.328 112.266 101.274 112.385 101.22 112.504C101.19 112.572 101.159 112.639 101.103 112.775C100.941 113.169 100.733 113.48 100.531 113.722C100.52 113.762 100.508 113.8 100.497 113.843C100.478 114.182 100.41 114.587 100.216 115.062C100.091 115.365 99.9982 115.545 99.9116 115.703L99.8885 115.745C99.8808 115.761 99.8731 115.778 99.8635 115.803C99.775 116.02 99.671 116.21 99.5632 116.379C99.5344 116.674 99.4612 117.001 99.3188 117.346C99.1841 117.675 99.0744 117.876 98.982 118.037L98.9589 118.084C98.8164 118.427 98.6413 118.709 98.4623 118.936C98.418 119.13 98.3545 119.341 98.2621 119.566C98.1177 119.915 97.9446 120.195 97.7713 120.422C97.7271 120.61 97.6616 120.817 97.5673 121.05C97.5019 121.211 97.4692 121.292 97.4384 121.374C97.4037 121.464 97.3691 121.557 97.3056 121.708C97.2671 121.916 97.2112 122.148 97.1034 122.436C97.0611 122.705 96.9879 123.014 96.8301 123.4C96.6704 123.787 96.503 124.06 96.3509 124.271C96.2778 124.434 96.2084 124.569 96.1411 124.688C96.1045 124.97 96.0314 125.294 95.8793 125.663C95.7061 126.084 95.506 126.391 95.3193 126.623L95.1153 127.118C94.9651 127.483 94.8227 127.727 94.6879 127.93C94.5532 128.243 94.4223 128.464 94.2991 128.65C94.2953 128.664 94.2895 128.679 94.2818 128.702C94.2665 128.75 94.2511 128.798 94.2337 128.852C94.2299 129.224 94.1683 129.674 93.9585 130.18C93.8334 130.484 93.741 130.662 93.6543 130.822L93.6313 130.864C93.6236 130.879 93.6158 130.897 93.6062 130.922C93.5081 131.16 93.4023 131.361 93.2945 131.532C93.2579 131.81 93.1848 132.121 93.0462 132.461C92.9249 132.755 92.7806 133.003 92.6266 133.21C92.5862 133.446 92.5188 133.701 92.4071 133.97C92.3802 134.036 92.3783 134.041 92.359 134.107C92.309 134.27 92.2494 134.454 92.132 134.742C92.0049 135.051 91.9087 135.235 91.8201 135.397L91.799 135.435C91.7932 135.445 91.7874 135.462 91.7797 135.483C91.7701 135.504 91.7644 135.522 91.7586 135.537L91.747 135.579C91.697 135.754 91.6354 135.952 91.5103 136.259C91.4583 136.387 91.4005 136.506 91.339 136.62C91.4198 136.785 91.4948 136.969 91.5526 137.175C91.6661 137.263 91.7874 137.357 91.976 137.52C92.2802 137.781 92.4688 138.002 92.6208 138.2C92.8306 138.392 92.9942 138.58 93.125 138.76C93.3194 138.872 93.5274 139.014 93.7448 139.202C94.0008 139.423 94.1991 139.649 94.3511 139.868C94.5417 139.977 94.7437 140.116 94.9497 140.292C95.1941 140.504 95.3347 140.648 95.4559 140.778C95.4944 140.818 95.4944 140.818 95.5368 140.855C95.7543 141.043 95.9005 141.191 96.016 141.318C96.2546 141.44 96.5203 141.606 96.8167 141.863C96.9861 142.009 97.0688 142.082 97.1535 142.157C97.2228 142.218 97.2901 142.277 97.4307 142.398C97.7559 142.679 97.9792 142.957 98.1409 143.207C98.5085 143.326 98.93 143.531 99.3554 143.9C99.7268 144.22 99.9771 144.564 100.145 144.869C100.477 144.992 100.843 145.186 101.201 145.495C101.55 145.797 101.777 146.083 101.936 146.326C102.102 146.49 102.235 146.647 102.341 146.795C102.448 146.86 102.562 146.937 102.685 147.029C102.966 147.154 103.291 147.338 103.646 147.645C104.021 147.97 104.269 148.306 104.44 148.613C104.527 148.68 104.625 148.759 104.745 148.863C104.839 148.945 104.918 149.014 104.985 149.078C105.33 149.197 105.736 149.398 106.134 149.744C106.515 150.072 106.762 150.408 106.927 150.694C107.002 150.767 107.064 150.83 107.12 150.89C107.164 150.936 107.166 150.938 107.214 150.98C107.343 151.091 107.428 151.168 107.499 151.234C107.83 151.358 108.203 151.556 108.584 151.884C108.921 152.176 109.143 152.451 109.3 152.683C109.479 152.852 109.608 152.998 109.718 153.13C109.762 153.169 109.783 153.182 109.83 153.217C109.957 153.311 110.101 153.418 110.32 153.608C110.557 153.812 110.692 153.95 110.811 154.073C110.857 154.121 110.859 154.123 110.911 154.169C111.002 154.248 111.05 154.284 111.098 154.321C111.217 154.413 111.342 154.509 111.543 154.682C111.774 154.881 111.906 155.016 112.024 155.135C112.072 155.183 112.078 155.19 112.135 155.238C112.257 155.344 112.32 155.394 112.382 155.444C112.468 155.515 112.555 155.584 112.707 155.714C112.909 155.834 113.136 155.983 113.427 156.233C113.687 156.457 113.873 156.663 114.016 156.849C114.147 156.928 114.289 157.022 114.449 157.145C114.711 157.27 115.017 157.448 115.354 157.74C115.561 157.918 115.679 158.034 115.791 158.143C115.846 158.197 115.869 158.22 115.952 158.293C116.187 158.494 116.372 158.702 116.518 158.903C116.732 159.019 116.955 159.166 117.18 159.362C117.519 159.656 117.756 159.959 117.923 160.241C118.042 160.324 118.171 160.424 118.31 160.545C118.479 160.691 118.562 160.764 118.645 160.839C118.714 160.9 118.783 160.961 118.924 161.082C119.195 161.317 119.353 161.486 119.478 161.628L119.507 161.654C119.732 161.848 119.875 161.994 119.99 162.117C120.138 162.194 120.296 162.288 120.468 162.411C120.781 162.536 121.141 162.73 121.526 163.062C122.733 164.102 122.864 165.92 121.821 167.124C121.264 167.777 120.46 168.115 119.65 168.115ZM85.6629 138.223C85.6629 138.223 85.663 138.225 85.6649 138.225L85.6629 138.223ZM104.39 104.401C104.39 104.401 104.39 104.403 104.388 104.403C104.39 104.403 104.39 104.401 104.39 104.401Z" fill="#F0DDE6"/>
<path d="M69.1507 168.26C68.7426 168.26 68.3308 168.174 67.9363 167.991C66.5293 167.341 65.898 165.703 66.4812 164.286C66.537 164.046 66.6216 163.758 66.7929 163.391L66.7949 163.386C66.8526 163.197 66.9258 162.969 67.0836 162.631C67.2279 162.32 67.3415 162.13 67.4377 161.976L67.4589 161.944C67.4589 161.944 67.4646 161.932 67.4704 161.917C67.5743 161.694 67.6283 161.585 67.6841 161.475C67.7207 161.404 67.7553 161.333 67.8227 161.189C67.8996 161.024 67.9805 160.876 68.0652 160.744C68.0999 160.418 68.1884 160.049 68.3712 159.657C68.5521 159.268 68.7388 158.999 68.9082 158.788C69.016 158.586 69.1314 158.411 69.2508 158.26C69.3027 158.025 69.3836 157.772 69.5087 157.505C69.5934 157.325 69.6762 157.171 69.757 157.039C69.7975 156.726 69.8878 156.369 70.0688 155.981C70.2227 155.649 70.3575 155.432 70.4807 155.249C70.6751 154.842 70.9157 154.527 71.1525 154.289C71.1544 154.286 71.1544 154.284 71.1563 154.28C71.189 153.946 71.2756 153.535 71.4912 153.072C71.6163 152.803 71.7491 152.585 71.8781 152.406C71.932 152.166 72.0166 151.897 72.1571 151.596C72.3245 151.235 72.4881 150.987 72.6344 150.791C72.7403 150.571 72.8231 150.429 72.8981 150.3C72.9308 150.244 72.9327 150.242 72.9597 150.183L72.9674 150.164C73.0251 149.979 73.0983 149.757 73.2522 149.426C73.4351 149.035 73.6257 148.76 73.8028 148.545C73.8432 148.461 73.874 148.397 73.9029 148.336C73.9067 148.326 73.9125 148.317 73.9163 148.307C73.9586 147.996 74.0472 147.629 74.2416 147.211C74.3917 146.888 74.511 146.693 74.6111 146.535L74.6304 146.499C74.665 146.422 74.6707 146.408 74.6958 146.343C74.7516 146.191 74.8171 146.021 74.9422 145.752C75.1019 145.41 75.2424 145.185 75.3733 144.999C75.5446 144.644 75.7428 144.368 75.9353 144.151C75.9718 144.041 76.0162 143.924 76.072 143.792C76.1278 143.529 76.2124 143.227 76.3876 142.853C76.5704 142.459 76.7784 142.167 76.9785 141.941C76.9862 141.922 76.992 141.903 76.9997 141.881C77.0266 141.524 77.1113 141.096 77.3345 140.616C77.4385 140.394 77.5444 140.209 77.6483 140.054C77.6368 140.011 77.6271 139.973 77.6175 139.935C77.6002 139.866 77.5829 139.795 77.5405 139.656C77.4712 139.424 77.4405 139.307 77.4077 139.19C77.3866 139.113 77.3654 139.034 77.3211 138.881C77.2691 138.704 77.2325 138.558 77.2056 138.43C77.015 138.161 76.8322 137.819 76.7033 137.383C76.5916 137.009 76.5493 136.732 76.5262 136.49C76.4781 136.32 76.4454 136.172 76.4223 136.037C76.2587 135.786 76.0989 135.469 75.9795 135.072C75.9507 134.978 75.943 134.955 75.9161 134.884C75.8603 134.734 75.8025 134.576 75.7217 134.308C75.6716 134.139 75.6447 134.054 75.6177 133.97C75.5831 133.862 75.5504 133.755 75.4849 133.538C75.3964 133.242 75.3541 132.966 75.3425 132.712C75.2251 132.503 75.1192 132.263 75.0364 131.988C74.9094 131.56 74.8709 131.205 74.8671 130.919C74.8267 130.76 74.7997 130.633 74.7804 130.522C74.6534 130.297 74.5245 130.023 74.4148 129.652C74.307 129.289 74.2646 128.959 74.2627 128.665C74.205 128.544 74.1492 128.41 74.0972 128.264C73.9721 128.047 73.8432 127.786 73.7315 127.435C73.6199 127.221 73.5025 126.966 73.3909 126.594C73.2831 126.235 73.2446 125.995 73.2157 125.799C73.0906 125.369 73.054 125.021 73.0463 124.743C73.0136 124.616 72.9925 124.507 72.9732 124.409C72.8231 124.167 72.6768 123.866 72.5613 123.48C72.4497 123.107 72.4074 122.781 72.3997 122.501C72.3265 122.337 72.2514 122.145 72.1802 121.911C72.1321 121.748 72.1052 121.665 72.0782 121.583C72.0474 121.487 72.0166 121.389 71.9646 121.216C71.8568 121.007 71.7433 120.757 71.6355 120.391C71.5566 120.126 71.5201 119.966 71.4854 119.813C71.4681 119.738 71.4623 119.709 71.4315 119.609C71.3218 119.239 71.2776 118.949 71.2564 118.711C71.2506 118.693 71.2429 118.674 71.2333 118.647C71.2063 118.576 71.1775 118.501 71.1447 118.411C70.9561 118.142 70.7655 117.795 70.625 117.327C70.4537 116.753 70.4556 116.25 70.5018 115.877C70.4999 115.86 70.496 115.843 70.4941 115.827C70.4056 115.675 70.3171 115.501 70.2362 115.299C70.0572 115.036 69.8725 114.694 69.7339 114.232C69.6454 113.938 69.6069 113.752 69.5723 113.585C69.5588 113.521 69.5587 113.516 69.5395 113.448C69.4182 113.041 69.3778 112.717 69.3663 112.45C69.2989 112.191 69.2662 111.987 69.245 111.807C69.2162 111.711 69.195 111.628 69.1758 111.555C68.9506 111.271 68.7177 110.884 68.5657 110.377C68.4175 109.879 68.3943 109.455 68.4116 109.119C68.377 108.933 68.3596 108.762 68.3519 108.609C68.3269 108.551 68.3 108.489 68.2731 108.424C68.0652 108.146 67.8496 107.773 67.7014 107.276C67.6514 107.107 67.6244 107.023 67.5975 106.938C67.5628 106.831 67.5301 106.723 67.4647 106.506C67.3627 106.165 67.3223 105.938 67.2915 105.754L67.2838 105.721C67.2645 105.66 67.2645 105.658 67.2414 105.6C67.1759 105.441 67.1067 105.26 67.0162 104.961C66.97 104.809 66.947 104.734 66.9219 104.659C66.8835 104.542 66.8449 104.427 66.7756 104.193C66.3214 102.668 67.1914 101.065 68.7196 100.612C70.2478 100.159 71.8549 101.027 72.3092 102.551C72.3534 102.703 72.3785 102.778 72.4035 102.853C72.442 102.97 72.4805 103.085 72.5497 103.319C72.5671 103.381 72.569 103.381 72.5921 103.44C72.6576 103.6 72.7268 103.78 72.8173 104.082C72.9193 104.423 72.9597 104.648 72.9905 104.834L72.9982 104.867C73.0483 105.036 73.0752 105.12 73.1022 105.205C73.106 105.216 73.1099 105.228 73.1137 105.239C73.3043 105.502 73.4987 105.844 73.6392 106.289C73.7412 106.495 73.8508 106.739 73.9586 107.1C74.0914 107.547 74.1261 107.915 74.128 108.211C74.1531 108.326 74.1704 108.436 74.1839 108.541C74.3378 108.785 74.4841 109.079 74.5899 109.434C74.6689 109.699 74.7074 109.86 74.742 110.014C74.7593 110.087 74.7651 110.116 74.794 110.214C74.8998 110.571 74.9422 110.828 74.971 111.052C75.0807 111.436 75.1193 111.744 75.1308 111.999C75.1674 112.135 75.1923 112.245 75.2135 112.343C75.329 112.523 75.4445 112.736 75.5446 112.995C75.7178 113.255 75.8987 113.591 76.0335 114.046C76.147 114.426 76.1894 114.721 76.2105 114.961C76.2914 115.267 76.3221 115.549 76.3279 115.8C76.4145 115.977 76.4954 116.178 76.5647 116.409C76.5897 116.491 76.5955 116.507 76.6205 116.574C76.6782 116.724 76.7417 116.893 76.8245 117.173C76.9381 117.551 76.9804 117.845 76.9997 118.085C77.0574 118.285 77.0882 118.417 77.1171 118.548C77.1286 118.599 77.1363 118.63 77.1498 118.676C77.2576 118.885 77.3692 119.135 77.4789 119.5C77.5289 119.665 77.554 119.747 77.581 119.828C77.6098 119.916 77.6386 120.007 77.6829 120.154C77.7984 120.368 77.9236 120.636 78.0371 121.016C78.1295 121.328 78.1737 121.606 78.1911 121.854C78.2969 122.053 78.397 122.287 78.4798 122.566C78.5876 122.927 78.628 123.169 78.655 123.366C78.7801 123.793 78.8166 124.14 78.8223 124.417C78.8724 124.614 78.8994 124.77 78.9205 124.904C79.0072 125.073 79.0957 125.267 79.1823 125.524C79.2747 125.686 79.369 125.87 79.4575 126.098C79.6385 126.363 79.8233 126.705 79.9618 127.168C80.085 127.579 80.1216 127.947 80.1139 128.268C80.1755 128.41 80.2332 128.569 80.289 128.752C80.3833 129.07 80.4257 129.28 80.4565 129.452L80.4642 129.493C80.4661 129.5 80.4699 129.516 80.4757 129.535C80.5238 129.696 80.5585 129.846 80.5835 129.986C80.7798 130.259 80.9684 130.602 81.0954 131.03C81.2648 131.599 81.2649 132.102 81.209 132.499C81.2244 132.547 81.2398 132.601 81.259 132.664C81.2879 132.76 81.2956 132.783 81.3226 132.852C81.3437 132.91 81.3649 132.968 81.388 133.033C81.5862 133.305 81.7903 133.666 81.9327 134.146C82.0405 134.509 82.0828 134.776 82.1097 135.006C82.1559 135.17 82.1887 135.312 82.2137 135.442C82.3927 135.705 82.564 136.034 82.6872 136.446C82.7949 136.809 82.8353 137.053 82.8642 137.251C82.9316 137.477 82.9624 137.591 82.9913 137.702C83.0124 137.781 83.0336 137.857 83.0798 138.011C83.1549 138.261 83.1857 138.387 83.2184 138.514C83.2357 138.583 83.253 138.654 83.2954 138.792L83.332 138.911C83.5225 139.522 83.5668 139.933 83.5187 140.603C83.4706 141.263 83.3608 141.676 83.0837 142.24C83.0683 142.273 83.049 142.311 83.026 142.359C82.9278 142.571 82.8277 142.747 82.7276 142.899C82.6814 143.187 82.5909 143.513 82.4273 143.865L82.4043 143.922C82.3485 144.095 82.2753 144.304 82.129 144.617C81.9712 144.957 81.7941 145.22 81.6209 145.431C81.5727 145.596 81.5073 145.779 81.4168 145.982C81.3572 146.211 81.2764 146.474 81.1147 146.821C80.8933 147.297 80.6239 147.635 80.3795 147.879C80.3025 148.011 80.2313 148.121 80.162 148.221C80.1447 148.261 80.1369 148.28 80.1177 148.33C80.0618 148.482 79.9964 148.653 79.8713 148.921C79.7712 149.137 79.6847 149.294 79.6096 149.423C79.5634 149.716 79.4729 150.054 79.2939 150.438C79.1977 150.646 79.1476 150.747 79.0976 150.851C79.0591 150.93 79.0206 151.01 78.9455 151.17C78.78 151.525 78.6068 151.786 78.4432 151.991C78.3912 152.153 78.3181 152.347 78.1968 152.608C78.064 152.892 77.9678 153.059 77.8812 153.209C77.8485 153.264 77.8465 153.266 77.8196 153.326C77.7041 153.573 77.5905 153.767 77.4827 153.928C77.4308 154.188 77.3442 154.483 77.1883 154.815C77.0767 155.055 76.9593 155.255 76.8438 155.422C76.8053 155.628 76.7437 155.854 76.6474 156.096C76.5955 156.374 76.5089 156.697 76.326 157.092C76.0855 157.611 75.7679 157.977 75.4753 158.235C75.4311 158.534 75.3406 158.87 75.1712 159.233C75.0904 159.408 75.0095 159.556 74.9325 159.684C74.894 160.005 74.8036 160.366 74.6188 160.761C74.3994 161.232 74.128 161.573 73.8662 161.825C73.8335 162.161 73.745 162.543 73.5564 162.948C73.3562 163.378 73.1272 163.687 72.9135 163.919C72.8885 163.969 72.8673 164.012 72.8462 164.054C72.8096 164.125 72.7749 164.196 72.7075 164.342C72.5632 164.653 72.4497 164.843 72.3534 164.996L72.3323 165.029C72.3323 165.029 72.3265 165.041 72.3207 165.056L72.3188 165.062C72.2688 165.229 72.2033 165.426 72.0801 165.703C72.0243 165.939 71.9396 166.227 71.7722 166.588C71.2814 167.642 70.2401 168.26 69.1507 168.26Z" fill="#F0DDE6"/>
<path d="M88.831 142.607C86.9005 142.607 85.303 141.191 85.0239 139.342C84.9797 139.196 84.9239 139 84.8777 138.772C84.8719 138.745 84.8661 138.716 84.8603 138.689C84.8565 138.679 84.8526 138.67 84.8469 138.658C84.3753 137.904 84.1828 137.009 84.2983 136.128C84.3118 135.669 84.3772 135.082 84.6794 134.344C84.9065 133.791 85.228 133.31 85.6399 132.901C85.688 132.784 85.713 132.716 85.74 132.649C85.7688 132.576 85.7977 132.501 85.8381 132.398C85.8554 132.309 85.8766 132.217 85.9016 132.119C85.9189 131.701 86.0017 131.157 86.2461 130.56C86.3539 130.297 86.4771 130.065 86.6041 129.862C86.658 129.604 86.7389 129.33 86.8563 129.04C86.9814 128.735 87.1161 128.481 87.2508 128.268C87.3047 128.047 87.3817 127.803 87.4934 127.533C87.6955 127.041 87.9245 126.68 88.1382 126.404C88.1824 126.321 88.2267 126.243 88.271 126.168C88.3249 125.901 88.4076 125.611 88.5327 125.306C88.7367 124.812 88.9811 124.432 89.2159 124.138C89.2679 123.827 89.3584 123.468 89.5259 123.061C89.626 122.818 89.6799 122.699 89.7338 122.578C89.7626 122.51 89.7934 122.443 89.8492 122.309C90.007 121.923 90.1629 121.645 90.3015 121.426C90.3939 121.211 90.467 121.065 90.5344 120.932L90.5556 120.892C90.5614 120.879 90.569 120.861 90.5787 120.84C90.7192 120.497 90.8308 120.285 90.9232 120.113L90.9252 120.107C90.929 120.095 90.9309 120.086 90.9347 120.074C90.9463 119.635 91.0272 119.082 91.2774 118.473C91.4044 118.166 91.5468 117.903 91.6931 117.678C91.747 117.459 91.8221 117.223 91.9241 116.972L92.2339 116.215C92.411 115.785 92.6266 115.436 92.8383 115.159C92.8787 115.035 92.9288 114.902 92.9884 114.756C93.0269 114.664 93.0443 114.616 93.0597 114.568C93.1135 114.414 93.1694 114.255 93.2791 113.994C93.3773 113.754 93.4312 113.635 93.4831 113.518C93.5062 113.464 93.5312 113.41 93.5678 113.324C93.6256 113.092 93.7063 112.821 93.8545 112.462C93.9431 112.249 93.9874 112.141 94.0336 112.036C94.0663 111.959 94.099 111.882 94.1587 111.738C94.2183 111.523 94.2934 111.275 94.4358 110.932C94.5821 110.575 94.7515 110.277 94.9247 110.028C94.9517 109.546 95.0594 109.073 95.25 108.615C95.427 108.185 95.6195 107.862 95.7908 107.614C95.8697 107.442 95.9371 107.313 95.9949 107.2L96.0141 107.159C96.1258 106.887 96.2373 106.668 96.3413 106.485C96.3971 106.242 96.4799 105.959 96.6127 105.639C96.7128 105.395 96.7667 105.276 96.8206 105.155C96.8514 105.088 96.8803 105.021 96.9361 104.886C96.9611 104.825 96.963 104.821 96.9822 104.76C97.0361 104.594 97.0996 104.41 97.219 104.118C97.3287 103.853 97.4384 103.636 97.5442 103.452C97.6 103.201 97.6829 102.916 97.8138 102.596C97.8677 102.463 97.8927 102.398 97.9177 102.331C97.9639 102.206 98.0101 102.081 98.1121 101.836C98.9185 99.8735 101.167 98.9347 103.134 99.7391C105.101 100.544 106.042 102.786 105.235 104.748C105.182 104.879 105.157 104.946 105.132 105.013C105.11 105.072 105.087 105.13 105.06 105.203C105.008 105.512 104.918 105.881 104.741 106.313C104.585 106.691 104.429 106.971 104.283 107.198C104.231 107.353 104.169 107.53 104.059 107.799C103.959 108.042 103.905 108.163 103.852 108.282C103.844 108.298 103.838 108.313 103.83 108.329C103.777 108.611 103.688 108.949 103.522 109.348C103.365 109.732 103.209 110.01 103.07 110.229C102.966 110.471 102.882 110.636 102.808 110.774L102.789 110.813C102.754 110.897 102.72 110.976 102.685 111.053C102.652 111.514 102.545 111.965 102.364 112.406C102.273 112.627 102.227 112.735 102.179 112.844C102.144 112.923 102.112 113.001 102.046 113.161C101.867 113.595 101.655 113.942 101.446 114.219C101.405 114.338 101.355 114.47 101.294 114.62C101.205 114.835 101.161 114.94 101.115 115.046C101.086 115.113 101.057 115.18 101.011 115.294C100.953 115.528 100.872 115.797 100.724 116.158C100.626 116.398 100.574 116.515 100.52 116.634C100.489 116.703 100.458 116.77 100.402 116.908C100.364 117.002 100.347 117.05 100.329 117.098C100.285 117.225 100.239 117.354 100.164 117.544C100.106 117.795 100.021 118.087 99.8693 118.458C99.6711 118.938 99.4247 119.318 99.1918 119.61C99.1418 119.926 99.0494 120.297 98.882 120.706C98.7934 120.921 98.6972 121.115 98.5971 121.288C98.5451 121.579 98.4605 121.896 98.3238 122.232C98.268 122.426 98.1968 122.664 98.0505 123.017C97.91 123.361 97.7984 123.572 97.706 123.745L97.7001 123.758C97.575 124.064 97.4846 124.248 97.4019 124.409L97.3807 124.449C97.3749 124.463 97.3672 124.48 97.3576 124.501C97.1998 124.885 97.0458 125.162 96.9072 125.381C96.8591 125.494 96.8244 125.575 96.7917 125.647C96.7436 125.974 96.6512 126.354 96.4703 126.792C96.3587 127.06 96.2816 127.224 96.2123 127.37C96.1931 127.412 96.172 127.454 96.1373 127.54C96.0411 127.777 95.9332 127.986 95.8235 128.172C95.7716 128.449 95.6869 128.752 95.5561 129.069C95.3213 129.639 95.0287 130.059 94.7554 130.372C94.7207 130.434 94.6841 130.491 94.6494 130.547C94.5955 130.76 94.5205 130.994 94.4127 131.253C94.3396 131.432 94.2626 131.593 94.1856 131.737C94.1375 132.062 94.0471 132.423 93.8892 132.807C93.7757 133.085 93.6448 133.329 93.5081 133.542C93.4696 133.717 93.4196 133.899 93.3522 134.089C93.2964 134.373 93.2098 134.703 93.0404 135.112C92.9769 135.266 92.948 135.343 92.9172 135.42C92.8729 135.533 92.8287 135.646 92.7363 135.871C92.6497 136.082 92.6035 136.187 92.5592 136.293C92.5246 136.376 92.488 136.458 92.4207 136.625C92.3918 136.698 92.359 136.769 92.3263 136.838C92.3533 136.946 92.3744 137.048 92.3956 137.144C92.4899 137.435 92.6747 138.023 92.6747 138.768C92.6805 140.887 90.9578 142.607 88.831 142.607ZM84.9815 138.768C84.9815 138.77 84.9815 138.772 84.9815 138.772C84.9815 138.772 84.9815 138.77 84.9815 138.768ZM84.895 138.77C84.895 138.77 84.895 138.772 84.895 138.77C84.895 138.772 84.895 138.77 84.895 138.77ZM84.92 138.768C84.92 138.768 84.92 138.77 84.92 138.768C84.92 138.77 84.92 138.768 84.92 138.768ZM92.4284 137.264C92.4284 137.266 92.4284 137.266 92.4284 137.268C92.4284 137.266 92.4284 137.266 92.4284 137.264ZM99.0513 119.88L99.0494 119.882C99.0514 119.882 99.0513 119.882 99.0513 119.88Z" fill="#5FA3DF"/>
<path d="M80.7782 144.384C79.4444 144.384 78.1933 143.687 77.4946 142.547C77.2001 142.194 76.846 141.658 76.6266 140.915C76.4784 140.414 76.4322 139.98 76.4245 139.632C76.3975 139.508 76.3783 139.396 76.361 139.293C76.3071 139.17 76.2513 139.032 76.1935 138.868C76.0396 138.596 75.8779 138.25 75.7451 137.797C75.6969 137.632 75.6585 137.473 75.6315 137.317C75.4371 136.998 75.2831 136.651 75.1734 136.277C75.0848 135.975 75.031 135.697 75.0021 135.447C74.904 135.238 74.8096 134.996 74.7269 134.72C74.6403 134.426 74.5844 134.132 74.5594 133.838C74.4555 133.621 74.3669 133.395 74.2977 133.159C74.1995 132.825 74.1475 132.512 74.1244 132.228C74.0378 132.038 73.957 131.826 73.8896 131.594C73.7395 131.083 73.6952 130.625 73.6991 130.246C73.676 130.171 73.649 130.087 73.6201 129.987C73.6009 129.918 73.597 129.912 73.5739 129.851C73.5239 129.718 73.472 129.569 73.4027 129.35C73.3007 129.137 73.1948 128.885 73.0908 128.551C72.9908 128.334 72.8849 128.077 72.7752 127.704C72.6539 127.294 72.602 126.969 72.5731 126.7C72.5057 126.434 72.4673 126.192 72.4442 125.973C72.3652 125.79 72.2883 125.583 72.2151 125.335C72.1882 125.247 72.167 125.168 72.1477 125.097C71.9322 124.775 71.7147 124.358 71.5626 123.842C71.4413 123.433 71.3874 123.087 71.3643 122.799C71.3162 122.663 71.2604 122.504 71.1911 122.266C71.1064 121.976 71.0622 121.793 71.0256 121.63C71.0102 121.565 71.0082 121.555 70.9871 121.48C70.8716 121.089 70.8197 120.782 70.7889 120.532C70.7157 120.254 70.6734 120.008 70.6484 119.791C70.6099 119.701 70.5695 119.601 70.531 119.493C70.3654 119.211 70.1941 118.852 70.0555 118.382C69.9824 118.13 69.9323 117.894 69.9035 117.673C69.7764 117.431 69.661 117.155 69.5686 116.842C69.4704 116.512 69.4242 116.295 69.3896 116.116L69.3742 116.057C69.2798 115.734 69.2337 115.523 69.1971 115.35L69.1778 115.272C69.1547 115.191 69.1393 115.153 69.1259 115.114C69.07 114.961 69.0084 114.788 68.9257 114.504C68.8217 114.148 68.7679 113.828 68.7409 113.548C68.6658 113.373 68.5927 113.171 68.5234 112.937C68.4368 112.645 68.3849 112.392 68.3541 112.171C68.2521 111.954 68.1481 111.699 68.0577 111.39C67.9845 111.138 67.9344 110.908 67.9036 110.697C67.8209 110.537 67.742 110.361 67.6689 110.165C67.5207 109.896 67.3609 109.556 67.2281 109.105C67.1165 108.725 67.0606 108.379 67.0413 108.074C66.9836 107.932 66.9259 107.775 66.872 107.596C66.7777 107.385 66.6757 107.135 66.5698 106.77C66.4621 106.406 66.4159 106.16 66.3812 105.96C66.3119 105.724 66.2792 105.603 66.2484 105.482C66.2292 105.413 66.2118 105.342 66.1714 105.204C66.0001 104.624 65.9635 104.129 65.9732 103.739C65.7595 101.915 66.8855 100.149 68.7121 99.6133C70.7504 99.0143 72.8907 100.18 73.4912 102.213C73.6394 102.714 73.6856 103.15 73.6894 103.511C73.6913 103.518 73.6933 103.528 73.6971 103.536C73.7164 103.605 73.7337 103.676 73.7741 103.814C73.8742 104.152 73.9224 104.386 73.9551 104.578C74.0244 104.734 74.0955 104.912 74.1706 105.141C74.2996 105.392 74.4363 105.697 74.5575 106.11C74.6634 106.469 74.7172 106.795 74.7403 107.085C74.7422 107.089 74.7442 107.093 74.7461 107.097C74.9656 107.421 75.1927 107.848 75.3563 108.402C75.4544 108.736 75.5083 109.036 75.5372 109.299C75.6219 109.489 75.7047 109.708 75.7797 109.963C75.8702 110.27 75.9221 110.535 75.9548 110.764C76.0511 110.971 76.1454 111.215 76.234 111.514C76.3648 111.958 76.4168 112.346 76.4322 112.672C76.4707 112.785 76.5149 112.922 76.5688 113.102C76.6631 113.425 76.7094 113.636 76.746 113.809L76.7651 113.887C76.7921 113.976 76.8133 114.056 76.8345 114.131C77.0501 114.454 77.2656 114.868 77.4177 115.381C77.5254 115.75 77.5813 116.087 77.6024 116.393C77.6544 116.516 77.7045 116.65 77.7526 116.794C77.8681 117.03 77.9912 117.316 78.1067 117.708C78.2395 118.157 78.2915 118.528 78.3108 118.829C78.3704 119.073 78.4031 119.28 78.4243 119.459C78.484 119.668 78.5167 119.816 78.5475 119.948C78.5629 120.015 78.5648 120.023 78.5859 120.096C78.609 120.175 78.6244 120.215 78.6379 120.254C78.6937 120.407 78.7554 120.58 78.8401 120.866C78.8901 121.039 78.9306 121.2 78.9594 121.35C79.1269 121.634 79.2866 121.978 79.4059 122.385C79.4868 122.659 79.5291 122.836 79.5657 122.991C79.6889 123.235 79.8159 123.529 79.9314 123.919C80.0777 124.412 80.1258 124.827 80.1354 125.168C80.1681 125.324 80.1931 125.466 80.2085 125.595C80.2759 125.752 80.3452 125.932 80.4164 126.159C80.5261 126.389 80.6435 126.668 80.7551 127.048C80.7744 127.117 80.7783 127.123 80.8014 127.184C80.8591 127.342 80.9245 127.522 81.0111 127.816C81.04 127.912 81.0555 127.958 81.0728 128.004C81.1267 128.156 81.1825 128.315 81.2614 128.586C81.3519 128.889 81.4018 129.177 81.4288 129.438C81.5289 129.647 81.6194 129.882 81.6983 130.143C81.7599 130.35 81.8022 130.548 81.833 130.738C81.9985 131.03 82.1313 131.343 82.2295 131.675C82.3642 132.128 82.4239 132.583 82.4085 133.038C82.4355 133.117 82.4624 133.199 82.4874 133.285C82.5124 133.368 82.5337 133.447 82.5529 133.525C82.8147 133.902 83.0148 134.32 83.1495 134.779C83.2746 135.203 83.3266 135.595 83.3362 135.939C83.3767 136.044 83.4171 136.159 83.4556 136.282C83.5557 136.499 83.6616 136.757 83.7713 137.129C83.8829 137.509 83.9348 137.789 83.9675 138.033C84.0099 138.191 84.0445 138.342 84.0676 138.486C84.2216 138.759 84.3679 139.082 84.4776 139.456C85.0782 141.491 83.9098 143.624 81.8715 144.223C81.5039 144.332 81.1382 144.384 80.7782 144.384ZM70.4135 119.125V119.127V119.125ZM76.9499 114.65L76.9576 114.676C76.9557 114.667 76.9518 114.657 76.9499 114.65ZM66.1059 104.378C66.1059 104.38 66.1059 104.38 66.1059 104.382C66.1059 104.38 66.1059 104.378 66.1059 104.378Z" fill="#5FA3DF"/>
<path d="M129.358 169.791C128.954 169.791 128.954 169.981 128.548 169.981C128.141 169.981 128.141 169.677 127.737 169.677C127.331 169.677 127.331 169.893 126.927 169.893C126.521 169.893 126.521 169.898 126.115 169.898C125.709 169.898 125.709 169.802 125.304 169.802C124.898 169.802 124.898 169.868 124.494 169.868C124.088 169.868 124.088 169.864 123.682 169.864C123.276 169.864 123.276 169.923 122.87 169.923C122.464 169.923 122.464 169.967 122.058 169.967C121.651 169.967 121.651 169.658 121.245 169.658C120.839 169.658 120.839 169.979 120.433 169.979C120.027 169.979 120.027 169.749 119.621 169.749C119.215 169.749 119.215 169.818 118.809 169.818C118.402 169.818 118.403 169.72 117.996 169.72C117.671 169.72 117.398 169.656 117.134 169.505C116.863 169.347 116.499 169.238 116.343 168.967C116.191 168.704 116.11 168.339 116.11 168.015C116.11 167.56 116.258 167.56 116.258 167.103C116.258 166.646 116.31 166.646 116.31 166.191C116.31 165.734 116.337 165.734 116.337 165.279C116.337 164.824 115.902 164.745 116.049 164.313C116.308 164.459 116.784 164.505 117.038 164.613C117.311 164.73 117.498 165.056 117.765 165.133C118.05 165.214 118.353 165.222 118.63 165.26C118.918 165.298 119.213 165.3 119.498 165.296C119.786 165.293 120.073 165.241 120.356 165.197C120.639 165.152 120.882 164.957 121.161 164.878C121.434 164.799 121.767 164.895 122.038 164.788C122.302 164.682 122.581 164.331 122.841 164.198C123.226 164.296 123.062 164.711 123.411 164.899C123.759 165.087 123.844 164.932 124.192 165.12C124.54 165.308 124.602 165.195 124.952 165.383C125.303 165.571 125.266 165.634 125.616 165.822C125.965 166.011 125.978 165.988 126.326 166.176C126.675 166.364 126.702 166.316 127.05 166.504C127.399 166.692 127.393 166.706 127.741 166.892C128.09 167.08 128.066 167.122 128.417 167.31C128.767 167.498 128.73 167.564 129.081 167.752C129.431 167.94 129.366 168.059 129.716 168.247C129.982 168.391 130.058 168.522 130.103 168.764C130.151 169.025 130.336 169.37 130.17 169.578C130.016 169.766 129.66 169.791 129.358 169.791Z" fill="#5FA3DF"/>
<path d="M78.8817 169.994C78.4775 169.994 78.4775 169.764 78.0714 169.764C77.6653 169.764 77.6653 169.852 77.2611 169.852C76.855 169.852 76.855 169.758 76.4508 169.758C76.0446 169.758 76.0447 169.937 75.6386 169.937C75.2325 169.937 75.2324 169.697 74.8282 169.697C74.4221 169.697 74.4221 169.816 74.0179 169.816C73.6118 169.816 73.6118 169.658 73.2057 169.658C72.7996 169.658 72.7995 169.816 72.3934 169.816C71.9873 169.816 71.9873 169.651 71.5812 169.651C71.1751 169.651 71.1751 169.668 70.7689 169.668C70.3628 169.668 70.3629 169.706 69.9568 169.706C69.5506 169.706 69.5506 169.697 69.1445 169.697C68.7384 169.697 68.7383 169.666 68.3322 169.666C67.9261 169.666 67.9261 169.812 67.52 169.812C67.1947 169.812 66.8829 169.724 66.6192 169.572C66.3478 169.414 66.0918 169.199 65.934 168.929C65.7819 168.666 65.8724 168.341 65.8724 168.015C65.8724 167.56 65.5645 167.56 65.5645 167.103C65.5645 166.646 65.8859 166.646 65.8859 166.191C65.8859 165.734 65.7628 165.734 65.7628 165.279C65.7628 164.822 65.5703 164.795 65.7185 164.363C65.9783 164.509 66.1765 164.805 66.4306 164.914C66.7039 165.031 67.035 165.001 67.3025 165.076C67.5874 165.156 67.8973 165.035 68.1764 165.072C68.467 165.11 68.7326 165.131 69.0155 165.127C69.3042 165.124 69.566 165.068 69.8508 165.024C70.1338 164.98 70.4052 164.966 70.6843 164.885C70.9576 164.807 71.2174 164.718 71.4869 164.609C71.7506 164.503 72.0527 164.523 72.3126 164.39C72.6975 164.488 72.7322 164.434 73.0806 164.622C73.429 164.811 73.3077 165.037 73.656 165.223C74.0044 165.412 74.1122 165.214 74.4625 165.4C74.8128 165.586 74.7108 165.774 75.0592 165.963C75.4076 166.151 75.3749 166.214 75.7233 166.4C76.0716 166.588 76.0774 166.579 76.4258 166.767C76.7741 166.955 76.8857 166.75 77.2341 166.938C77.5825 167.126 77.6403 167.022 77.9887 167.21C78.339 167.399 78.1907 167.671 78.541 167.859C78.8913 168.047 78.9567 167.925 79.307 168.113C79.5727 168.257 79.8113 168.474 79.8556 168.716C79.9037 168.977 79.6747 169.221 79.5092 169.428C79.3591 169.622 79.1839 169.994 78.8817 169.994Z" fill="#5FA3DF"/>
<path d="M144.945 106.793C144.945 107.079 144.725 107.284 144.59 107.517C144.452 107.755 144.371 108.033 144.132 108.17C143.901 108.304 143.622 108.352 143.335 108.352C143.049 108.352 142.804 108.244 142.573 108.112C142.335 107.974 141.959 107.905 141.821 107.667C141.686 107.436 141.871 107.079 141.871 106.793C141.871 106.507 141.809 106.221 141.942 105.99C142.081 105.752 142.398 105.722 142.637 105.583C142.868 105.449 143.049 105.328 143.335 105.328C143.622 105.328 143.867 105.342 144.098 105.474C144.336 105.612 144.635 105.726 144.773 105.964C144.908 106.196 144.945 106.507 144.945 106.793Z" fill="#ECDEE6"/>
<path d="M123.104 58.0978L123.378 59.4878L123.926 60.895L123.016 62.2485L123.545 63.6711L123.212 65.0419L123.204 66.4396L122.7 67.7815L122.529 69.1581L123.031 70.6402L122.359 71.9438L122.502 73.3875L122.228 74.7602L121.774 76.0906L120.879 77.3059L120.731 78.7016L120.1 79.963L119.992 81.3817L119.782 82.7794L118.793 83.9063L118.943 85.448L118.368 86.7228L117.165 87.723L117.357 89.3338L116.383 90.4146L115.442 91.4955L115.492 93.0966L114.048 93.88L113.596 95.2219L113.33 96.7041L112.574 97.8867L111.14 98.5778L110.357 99.7221L109.383 100.713L108.965 102.178L107.922 103.118L107.108 104.274L106.094 105.242L104.979 106.098L103.747 106.801L102.55 107.519L101.526 108.467L100.55 109.513L99.2666 110.095L98.0521 110.78L96.8261 111.45L95.3691 111.589L94.0565 112.001L92.9266 112.979L91.512 113.094L90.2147 113.654L88.7865 113.564L87.4469 114.021L86.0669 114.319L84.6638 113.839L83.253 114.422L81.8537 114.253L80.466 114.027L79.1765 113.334L77.8792 112.84L76.5358 112.543L75.0807 112.514L73.8623 111.808L72.4207 111.608L71.4815 110.381L69.9725 110.237L69.0659 109.058L67.7109 108.586L66.7852 107.501L65.6091 106.756L64.3735 106.061L63.4997 104.956L62.0888 104.397L61.6712 102.865L60.3566 102.176L59.9294 100.718L58.3934 100.162L58.2684 98.5145L57.2289 97.5546L56.1973 96.5697L55.9221 95.1029L54.5921 94.2754L53.9069 93.0544L53.7145 91.58L52.9619 90.4031L52.217 89.2166L51.7262 87.9111L50.8043 86.7861L50.7253 85.3155L49.9304 84.1252L49.7477 82.7122L48.9758 81.4969L48.9046 80.0609L48.8141 78.644L47.8672 77.4537L47.4226 76.1233L47.1569 74.7506L46.8105 73.3932L46.8952 71.9591L47.0299 70.5269L46.5988 69.1888L46.5468 67.793L46.6527 66.3877L45.8463 65.0669L45.929 63.6634L45.4766 62.2927L45.4209 60.895L45.5671 59.4935L45.6441 58.0978L45.5537 56.704L45.7153 55.3121L45.9655 53.9298L45.9348 52.536L46.0021 51.1441L46.5795 49.8041L46.3023 48.3757L46.951 47.0606L46.5565 45.5977L47.3341 44.3171L46.7624 42.7966L47.3783 41.4969L48.1289 40.2394L47.8652 38.7438L48.9238 37.5861L49.149 36.2096L48.945 34.6929L50.1518 33.6236L50.3385 32.2202L50.939 30.9627L51.4741 29.684L51.3413 28.1174L52.0245 26.8887L52.4942 25.5621L53.8838 24.702L54.1283 23.2602L54.8904 22.091L55.8643 21.0562L56.1222 19.5741L57.3233 18.7025L57.8796 17.3951L58.5455 16.1491L59.6271 15.2257L60.3836 14.0392L61.3035 12.9852L62.6624 12.3612L63.2572 10.9809L64.3908 10.1477L65.6785 9.51795L66.4791 8.28733L67.7495 7.65762L69.0602 7.12198L70.2285 6.39052L71.1812 5.24245L72.6075 4.97175L73.6718 3.92735L75.2289 4.08094L76.3125 2.93479L77.8753 3.33412L79.0648 2.31276L80.5488 2.69097L81.8422 1.81552L83.2742 2.16109L84.6638 1.90959L86.0554 2.11885L87.4874 1.79248L88.7788 2.68905L90.2686 2.2878L91.6659 2.51818L92.8574 3.44163L94.2143 3.77184L95.3537 4.65498L96.7722 4.87L97.9502 5.6149L99.0973 6.39628L100.35 7.00103L101.536 7.72289L102.65 8.55035L103.609 9.56979L105.154 9.90576L105.768 11.3034L106.821 12.2115L107.835 13.1637L109.01 13.9874L109.366 15.504L110.505 16.3661L111.337 17.4796L112.518 18.3531L112.998 19.7123L114.073 20.6838L114.204 22.2293L115.505 23.0951L116.154 24.3373L116.019 25.9615L116.862 27.0942L117.698 28.2442L117.798 29.7071L118.369 30.9703L118.847 32.2701L119.626 33.4681L120.385 34.6891L120.827 36.0157L120.86 37.4575L121.049 38.8456L121.324 40.2087L121.345 41.6217L122.446 42.8177L122.176 44.2826L122.74 45.5996L123.229 46.9396L122.785 48.4026L122.975 49.7791L123.449 51.1326L123.716 52.511L123.337 53.9298L123.164 55.3275L123.585 56.7059L123.104 58.0978Z" fill="#A4C9ED"/>
<path d="M54.3764 20.4824L53.7239 21.7188L52.8598 22.7824L52.3612 24.0552L51.7049 25.2455L50.96 26.4166L51.2603 27.9487L50.8754 29.2235L50.6618 30.5424L50.219 31.8133L49.4376 33.0574L49.4568 34.4262L49.2471 35.7663L49.5184 37.4251L50.5058 38.9225L51.7549 38.5117L52.2438 37.4212L52.8058 36.5035L54.2552 35.6857L54.6016 34.288L55.2233 33.0363L55.9605 31.844L56.1818 30.3811L57.2751 29.3751L58.0681 28.2136L58.7089 26.9696L58.7821 25.4989L59.6097 24.42L60.0736 23.1663L60.4604 21.8935L61.467 20.7838L61.2977 19.367L61.3515 18.3283L60.5663 18.766L59.2363 18.0576L57.8813 18.3398L56.5513 18.7238L55.6448 19.8604L54.3764 20.4824Z" fill="#C9B863"/>
<path d="M118.957 20.8277L119.871 21.7896L120.43 23.0202L121.211 24.1222L121.696 25.3759L121.956 26.7083L123.136 27.7296L123.505 29.0428L123.931 30.3464L124.015 31.7191L123.659 33.1417L124.002 34.451L124.025 35.7968L124.044 37.3865L122.999 38.2734L122.021 38.3867L120.811 37.9317L120.127 36.9084L120.27 35.2535L119.309 34.1784L118.626 32.9593L118.058 31.6787L116.973 30.6689L116.759 29.2021L116.245 27.8909L115.579 26.6622L114.411 25.7618L114.045 24.4428L113.408 23.2583L112.835 22.0334L113.085 20.5763L112.409 19.3667L112.785 18.8004L113.077 18.0171L114.407 18.7351L115.675 18.9021L116.859 19.3879L118.33 19.5607L118.957 20.8277Z" fill="#C9B863"/>
<path d="M53.9342 22.6191L55.2449 22.1986L56.4537 21.2387L57.9761 21.8761L59.2175 20.8835L60.6091 20.8087L61.9911 20.6992L63.3692 20.513L64.7799 21.1139L66.1446 20.5591L67.5265 20.8125L68.9103 20.6551L70.2692 21.1638L71.6936 20.4631L73.0332 21.0966L74.3862 21.4211L75.7739 21.4038L77.1943 21.1466L78.5416 21.496L79.9486 21.4192L81.2728 21.9203L82.6182 22.2543L84.0213 22.2121L85.3666 22.5365L86.7255 22.7861L88.0671 23.1298L89.5048 22.8879L90.7713 23.7076L92.1782 23.6462L93.5948 23.5041L94.9518 23.7422L96.2855 24.155L97.5828 24.8999L99.0418 24.3182L100.353 25.0458L101.794 24.4314L103.145 24.802L104.491 25.4317L105.873 25.6256L107.272 24.7328L108.648 25.2704L110.024 25.0419L111.422 25.3626L112.786 25.0189L114.116 24.4737L115.475 24.3105L117.001 24.8116L118.414 24.4909L119.869 24.4084L121.27 24.0014L122.558 23.172L124.021 23.0799L125.314 22.4194L126.863 22.3829L128.149 21.6764L129.187 20.6013L130.257 19.7835L131.523 19.3112L132.588 18.453L134.116 18.5663L135.342 18.0287L136.329 17.0189L137.613 16.562L138.552 15.5617L139.54 14.6805L140.152 13.4787L141.334 12.6493L142.167 11.5243L143.17 10.549L144.325 9.35101L142.66 9.13215L141.253 9.25502L139.99 8.60611L138.543 8.7405L137.284 8.13767L135.937 7.87465L134.63 7.4638L133.383 6.71122L131.939 6.97808L130.563 6.52883L129.098 6.87825L127.708 6.51347L126.28 6.59603L124.881 6.23126L123.472 5.9644L122.021 6.50963L120.602 6.45012L119.195 6.15446L117.765 6.23702L116.403 5.39228L114.965 5.58427L113.577 5.23678L112.251 5.0064L110.881 5.11967L109.551 4.90272L108.209 4.77025L106.852 4.73761L105.49 4.73186L104.235 4.05415L102.912 3.80265L101.59 3.54923L100.16 3.89096L98.9436 3.06735L97.5059 3.40524L96.3222 2.453L94.9075 2.65074L93.666 1.85976L92.1782 2.24757L90.8963 1.6409L89.5472 1.35868L88.1633 1.27613L86.8026 1.07454L85.4533 0.773128L84.0694 0.809604L82.6971 0.807684L81.3286 0.755849L79.9467 0.642578L78.6417 1.27037L77.2174 1.0995L75.7662 1.03807L74.415 1.44315L73.0582 1.84056L72.0804 3.09998L70.5329 3.08847L69.4396 4.00615L68.3253 4.84321L66.8818 5.1907L66.0849 6.46932L64.907 7.21038L63.7233 7.96296L63.0978 9.25502L61.9102 9.93273L61.0537 10.9541L60.2877 12.0561L59.2906 12.9431L58.0223 13.5977L57.6469 15.0414L56.5172 15.8228L55.6222 16.8115L54.3673 17.4739L53.6147 18.6181L53.3183 19.9755L53.249 21.2234L53.786 22.4079L53.9342 22.6191Z" fill="#DDCD6B"/>
<path d="M3.11254 115.395C3.50235 115.395 3.89952 115.312 4.27476 115.134C4.76476 114.903 5.11262 114.601 5.35124 114.33C5.40771 114.305 5.47513 114.272 5.56257 114.232C5.66275 114.185 5.75196 114.14 5.83029 114.098C6.18367 114.08 6.60814 113.998 7.06171 113.785C7.38776 113.633 7.63553 113.467 7.82679 113.313C7.99802 113.26 8.1929 113.188 8.43517 113.073C8.86505 112.871 9.18199 112.623 9.41879 112.379C9.51351 112.341 9.62099 112.296 9.7485 112.234C9.89969 112.163 10.0163 112.103 10.1128 112.05C10.4352 112.018 10.8105 111.93 11.224 111.736C11.5901 111.563 11.8579 111.376 12.0583 111.207C12.0692 111.204 12.0782 111.2 12.0873 111.194C12.1912 111.153 12.3333 111.095 12.5756 110.98C12.7286 110.907 12.8615 110.837 12.9799 110.764C13.2914 110.729 13.6557 110.644 14.0401 110.462C14.4317 110.277 14.7305 110.055 14.9582 109.834C15.3043 109.812 15.7178 109.73 16.1604 109.523C16.2296 109.49 16.2405 109.487 16.3006 109.463C16.4481 109.408 16.6139 109.345 16.8726 109.223C17.0657 109.132 17.1604 109.087 17.2569 109.04C17.3352 109.001 17.4136 108.963 17.5702 108.889C17.8872 108.74 18.0857 108.614 18.2424 108.509C18.4391 108.451 18.6632 108.375 18.9692 108.233C19.4374 108.013 19.7652 107.744 19.9984 107.501C20.1751 107.39 20.3208 107.279 20.4428 107.175C20.5048 107.146 20.554 107.123 20.6013 107.099C20.6742 107.065 20.747 107.028 20.88 106.966C21.0367 106.923 21.2097 106.87 21.421 106.781C21.6597 106.741 21.9383 106.67 22.2608 106.534C22.5085 106.479 22.7944 106.398 23.1497 106.231C23.5194 106.056 23.8091 105.842 24.0331 105.627C24.177 105.582 24.3282 105.522 24.4885 105.446C24.7362 105.329 24.8784 105.251 25.015 105.173C25.0733 105.14 25.0933 105.129 25.1662 105.095C25.3501 105.04 25.5723 104.968 25.9002 104.813C26.2299 104.659 26.4485 104.517 26.6288 104.388C26.9567 104.228 27.1935 104.063 27.3811 103.91C27.3902 103.907 27.3994 103.903 27.4085 103.899C27.4613 103.879 27.5141 103.858 27.5724 103.834C27.8894 103.799 28.2737 103.716 28.7017 103.514C28.9968 103.376 29.2337 103.222 29.4249 103.067C29.5652 103.031 29.7164 102.982 29.8767 102.916C30.1445 102.867 30.4559 102.784 30.833 102.606C31.1463 102.459 31.4031 102.281 31.6089 102.101C31.7419 102.064 31.8822 102.019 32.0261 101.961C32.4797 101.857 33.1081 101.634 33.7256 101.005C34.0681 100.656 34.5563 99.993 34.6054 99.0264C34.6237 98.9937 34.6401 98.961 34.6583 98.9265C34.8295 98.7157 35.0171 98.4413 35.1865 98.0579C35.3778 97.6273 35.4525 97.2549 35.4816 96.9442C35.5126 96.8606 35.5363 96.7879 35.5581 96.7189C35.6619 96.5862 35.7676 96.43 35.8732 96.2428C36.0791 96.0139 36.2995 95.7123 36.4889 95.2853C36.6292 94.9673 36.7075 94.6657 36.7458 94.3986C36.8496 94.2424 36.9498 94.0643 37.0409 93.8572C37.1301 93.6573 37.1939 93.4647 37.2394 93.2848C37.4197 93.0723 37.5928 92.8106 37.7349 92.4908C37.8934 92.1311 37.9717 91.7931 38.0026 91.497C38.0846 91.3643 38.1648 91.2135 38.2413 91.0409C38.336 90.8265 38.4015 90.6376 38.4471 90.4668C38.6147 90.2596 38.7841 89.9998 38.928 89.6746C39.1047 89.2748 39.183 88.926 39.2158 88.6317C39.265 88.5299 39.3196 88.4209 39.4107 88.2156C39.4726 88.0757 39.5054 88.0066 39.5382 87.9376C39.5473 87.9176 39.5565 87.8976 39.5674 87.8776C39.7878 87.6432 40.0209 87.3289 40.2121 86.8965C40.3196 86.6548 40.3743 86.5058 40.4253 86.3641C40.449 86.2987 40.4581 86.2733 40.4963 86.1879C40.6366 85.8717 40.7077 85.6391 40.7605 85.4375C40.908 85.0959 40.9809 84.827 41.0264 84.6035C41.0537 84.5381 41.0774 84.4745 41.0993 84.4127C41.347 84.1692 41.5966 83.844 41.786 83.4134C41.9827 82.9682 42.0556 82.5558 42.0702 82.2178C42.1121 82.1343 42.1576 82.0398 42.2068 81.9271C42.3161 81.6819 42.3708 81.5329 42.4218 81.3893C42.4363 81.3493 42.4454 81.3257 42.4581 81.293C42.5875 81.1077 42.726 80.8824 42.8735 80.5499C43.0192 80.221 43.0921 79.9739 43.1431 79.7595C43.1941 79.6414 43.2342 79.5306 43.2688 79.4288C43.4874 79.1963 43.7133 78.891 43.8899 78.4913C44.0594 78.1079 44.1376 77.7827 44.1759 77.5138C44.1868 77.4883 44.1977 77.4647 44.2069 77.4411C44.4455 77.1994 44.695 76.8742 44.8936 76.4254C45.0885 75.9875 45.1595 75.5806 45.1759 75.2408C45.2214 75.1518 45.2688 75.0536 45.3198 74.9428C45.4145 74.7284 45.4601 74.6139 45.5038 74.5049C45.6951 74.2833 45.8954 73.9962 46.0703 73.6037C46.1978 73.3166 46.2579 73.1349 46.3107 72.9714L46.3235 72.9315C46.3272 72.9205 46.3345 72.906 46.3418 72.8878C46.4401 72.6662 46.4947 72.5226 46.5421 72.39C46.7151 72.1774 46.8991 71.9049 47.0631 71.536C47.1669 71.3017 47.2215 71.1581 47.2725 71.0218C47.298 70.9528 47.309 70.9237 47.3509 70.8293C47.4966 70.5004 47.5677 70.2569 47.6205 70.0443C47.779 69.67 47.85 69.3503 47.8864 69.0886C47.9229 68.9887 47.9538 68.8942 47.9793 68.807C48.1542 68.5962 48.3308 68.3291 48.4802 67.9894C48.5185 67.904 48.5294 67.8822 48.5622 67.8204C48.6333 67.6859 48.7061 67.546 48.8136 67.3026C48.901 67.1045 48.9429 67.0046 48.9848 66.9047C49.0176 66.8283 49.0486 66.752 49.116 66.6012C49.2599 66.276 49.3364 65.9998 49.3819 65.7636C49.4748 65.6128 49.5768 65.4293 49.6861 65.1822L49.8354 64.8479C49.8755 64.757 49.9174 64.6662 49.9976 64.4845C50.0249 64.4245 50.0267 64.4191 50.0577 64.3664C50.136 64.2265 50.2216 64.0666 50.34 63.7995C50.5167 63.3998 50.5932 63.0655 50.6315 62.7965C51.065 61.4811 50.4348 60.0275 49.1396 59.457C47.7589 58.8483 46.145 59.4715 45.5366 60.847C45.3781 61.2031 45.3016 61.5065 45.2579 61.7591C45.185 61.8899 45.1049 62.0425 44.9992 62.2824L44.7024 62.9474C44.5876 63.1236 44.4619 63.3344 44.3198 63.6523C44.1559 64.023 44.0794 64.3264 44.0356 64.5826C43.9974 64.6698 43.9719 64.7316 43.9446 64.7952C43.9118 64.8715 43.8808 64.9478 43.8134 65.1004C43.7751 65.1858 43.7642 65.2076 43.7315 65.2694C43.7041 65.3221 43.6768 65.3748 43.6458 65.4329C43.429 65.6655 43.1941 65.9798 43.0028 66.4123C42.848 66.7629 42.7714 67.0427 42.7241 67.2753C42.5856 67.6169 42.5201 67.9131 42.4873 68.1583C42.409 68.3618 42.3616 68.5326 42.3252 68.6853C42.2414 68.876 42.1941 69.0032 42.1485 69.1231C41.9737 69.3357 41.7896 69.6083 41.6239 69.9807C41.5164 70.2224 41.4618 70.3714 41.4107 70.5131C41.3871 70.5803 41.378 70.6021 41.3398 70.6893C41.2487 70.8928 41.1922 71.0455 41.1485 71.1763C40.9663 71.3925 40.7787 71.6687 40.6148 72.0393C40.5146 72.2646 40.4709 72.3791 40.4253 72.4918C40.4035 72.5481 40.3798 72.6044 40.336 72.7062C40.2195 72.8842 40.0919 73.095 39.9499 73.4166C39.8151 73.7218 39.7386 74.0107 39.7004 74.2742C39.5893 74.4377 39.4818 74.6248 39.3852 74.8392C39.3033 75.0228 39.2632 75.1154 39.2231 75.2081C39.1867 75.2917 39.152 75.3734 39.0773 75.5388C39.0045 75.7041 38.948 75.8604 38.9043 76.0039C38.7021 76.2274 38.5 76.5163 38.3378 76.8815C38.1812 77.2376 38.1047 77.521 38.0573 77.7572C37.9644 77.9826 37.9079 78.1679 37.866 78.3314C37.7476 78.5058 37.6237 78.7166 37.4908 79.0164C37.3815 79.2617 37.3269 79.4107 37.2759 79.5542C37.2522 79.6196 37.2448 79.6414 37.2066 79.7268C37.1993 79.7432 37.192 79.7577 37.1866 79.7704L37.1683 79.8013C37.0845 79.9449 36.9844 80.1229 36.8569 80.41C36.764 80.6189 36.7002 80.8188 36.6547 81.0096C36.4798 81.2185 36.314 81.4729 36.1774 81.7818C36.0117 82.1561 35.9352 82.4631 35.8915 82.7175C35.7895 82.9791 35.733 83.1972 35.6929 83.3825C35.5855 83.6387 35.5271 83.8367 35.4798 84.0112C35.4105 84.1692 35.3632 84.2855 35.325 84.3873C35.1173 84.6162 34.9006 84.9178 34.722 85.3212C34.6601 85.4593 34.6273 85.5283 34.5945 85.5974C34.5453 85.7009 34.4961 85.8045 34.4014 86.0153C34.3468 86.1406 34.3159 86.2024 34.2849 86.2642C34.2302 86.375 34.1774 86.484 34.0772 86.7093C33.9661 86.9601 33.8932 87.1908 33.8476 87.3998C33.7037 87.5905 33.5635 87.8195 33.4397 88.0993C33.3285 88.3482 33.2593 88.5662 33.2101 88.7588C33.0662 88.9496 32.9205 89.1858 32.7893 89.4838C32.6837 89.72 32.6145 89.9489 32.5708 90.1597C32.4159 90.3559 32.2684 90.5903 32.1446 90.8701C32.0134 91.1645 31.9369 91.4388 31.895 91.6877C31.7784 91.8567 31.6636 92.053 31.5616 92.2837C31.4141 92.6144 31.3375 92.9269 31.3011 93.2031C31.2465 93.2885 31.1918 93.3811 31.1372 93.4829C30.9605 93.6973 30.7674 93.9771 30.5944 94.3677C30.4523 94.6875 30.3867 94.9037 30.3357 95.08L30.3321 95.0891C30.1973 95.3961 30.1189 95.6723 30.0752 95.9176C29.9896 96.0466 29.9022 96.1938 29.8184 96.3646C29.7037 96.5172 29.5834 96.6989 29.4632 96.9333C29.3357 96.9751 29.2045 97.0277 29.0679 97.0913C28.6745 97.2767 28.3739 97.5056 28.1462 97.7327C28.1043 97.7473 28.0587 97.7636 28.015 97.7818C27.729 97.8254 27.3848 97.9108 26.9841 98.0997C26.7218 98.2233 26.5068 98.3577 26.3283 98.494C26.1006 98.5449 25.8511 98.6248 25.5833 98.752C25.4886 98.7974 25.4594 98.8084 25.3902 98.8356C25.2518 98.8901 25.1097 98.9483 24.8747 99.0573C24.4976 99.2353 24.2354 99.4207 24.0313 99.5896C23.8219 99.6986 23.6633 99.8004 23.5286 99.8967C23.3537 99.9494 23.1388 100.022 22.8364 100.166C22.6233 100.266 22.4885 100.338 22.3701 100.404C22.0895 100.449 21.7617 100.534 21.3864 100.711C20.9711 100.905 20.6578 101.152 20.4246 101.392C20.3864 101.407 20.3463 101.421 20.3062 101.437C20.0421 101.483 19.7288 101.563 19.3609 101.73C19.1514 101.788 18.9109 101.864 18.5867 102.017C18.3991 102.104 18.3061 102.15 18.2132 102.195C18.1331 102.233 18.053 102.273 17.8909 102.35C17.4938 102.537 17.2132 102.742 17.0055 102.922C16.7432 103.069 16.532 103.231 16.3626 103.389C16.2296 103.436 16.0821 103.496 15.9072 103.578C15.5775 103.732 15.3771 103.861 15.2149 103.97C15.031 104.057 14.9399 104.101 14.8489 104.147C14.7705 104.185 14.6922 104.223 14.5355 104.297C14.4699 104.328 14.4572 104.334 14.4008 104.354C14.0201 104.355 13.5318 104.423 13.0018 104.672C12.8706 104.733 12.8032 104.762 12.7358 104.792C12.6247 104.839 12.5136 104.886 12.2968 104.99C12.0491 105.106 11.8414 105.237 11.6629 105.373C11.4243 105.422 11.1639 105.502 10.8906 105.629C10.5372 105.794 10.2895 105.963 10.0946 106.118C10.0654 106.131 10.0417 106.14 10.0162 106.151C9.91239 106.192 9.77037 106.251 9.5281 106.363C9.32408 106.459 9.14919 106.559 9.00164 106.659C8.72841 106.705 8.42239 106.79 8.09451 106.945C7.83585 107.066 7.68288 107.154 7.54627 107.232C7.48798 107.264 7.477 107.272 7.40778 107.304C7.38775 107.313 7.37135 107.321 7.3586 107.326L7.31857 107.341C7.15645 107.397 6.97422 107.462 6.69188 107.595C6.28385 107.786 5.97971 108.018 5.74837 108.249C5.63361 108.291 5.50791 108.344 5.36583 108.411C5.2201 108.48 5.09079 108.549 4.97421 108.62C4.65362 108.653 4.28568 108.736 3.89586 108.92C3.5698 109.072 3.37303 109.198 3.21456 109.303C3.06155 109.376 2.98323 109.41 2.90673 109.445C2.80836 109.488 2.70997 109.534 2.51689 109.625C1.88845 109.921 1.49501 110.331 1.26003 110.648C0.392972 111.432 0.099748 112.717 0.624356 113.829C1.10525 114.817 2.087 115.395 3.11254 115.395ZM50.5441 63.0491H50.5423H50.5441Z" fill="#F0DDE6"/>
<path d="M100.558 108.329C100.558 108.615 100.631 108.974 100.498 109.206C100.36 109.444 99.9729 109.502 99.7342 109.638C99.5033 109.773 99.2627 109.901 98.9759 109.901C98.6892 109.901 98.3292 109.978 98.0983 109.844C97.8596 109.705 97.8923 109.27 97.7538 109.032C97.619 108.801 97.3438 108.613 97.3438 108.327C97.3438 108.041 97.3534 107.701 97.4881 107.471C97.6267 107.233 97.9674 107.137 98.208 106.999C98.4389 106.864 98.6891 106.63 98.9778 106.63C99.2646 106.63 99.5417 106.82 99.7727 106.954C100.011 107.093 100.121 107.352 100.26 107.59C100.392 107.822 100.558 108.043 100.558 108.329Z" fill="#ECDEE6"/>
</svg>
