<svg width="188" height="186" viewBox="0 0 188 186" fill="none" xmlns="http://www.w3.org/2000/svg">
<path d="M159.036 86.7953C158.603 86.7953 158.103 86.7089 157.593 86.442C157.4 86.4286 157.189 86.3998 156.956 86.346C156.729 86.2942 156.584 86.2539 156.451 86.2174C156.138 86.2404 155.764 86.227 155.318 86.1253C155.15 86.0869 155.064 86.0696 154.979 86.0523C154.864 86.0293 154.746 86.0043 154.515 85.9506C153.984 85.8277 153.572 85.6107 153.268 85.3957C153.243 85.39 153.216 85.3861 153.189 85.3804C152.9 85.388 152.563 85.3708 152.138 85.2728C151.824 85.1999 151.588 85.1193 151.389 85.0367C151.149 85.0309 150.872 85.0021 150.533 84.9254C150.312 84.8754 150.113 84.8082 149.934 84.7353C149.63 84.7564 149.286 84.7391 148.908 84.6527C148.423 84.5414 148.062 84.3705 147.779 84.1977C147.723 84.1824 147.673 84.1689 147.625 84.1555C147.557 84.1363 147.49 84.1171 147.353 84.0864C147.132 84.0365 147.022 84.0077 146.913 83.9808C146.847 83.9654 146.782 83.9482 146.682 83.9251C146.431 83.9213 146.127 83.8982 145.731 83.808C145.344 83.7197 145.074 83.616 144.849 83.5123L144.437 83.4164C144.129 83.4356 143.76 83.424 143.313 83.3204C142.857 83.2148 142.517 83.0631 142.255 82.9153C142.078 82.8654 141.945 82.8212 141.831 82.779L141.793 82.7655C141.789 82.7655 141.775 82.7617 141.758 82.7578C141.508 82.7002 141.367 82.6619 141.221 82.6196C141.219 82.6196 141.217 82.6177 141.215 82.6177C140.917 82.6331 140.559 82.6177 140.128 82.5179C139.666 82.4123 139.318 82.2529 139.05 82.0993C138.948 82.0725 138.873 82.0513 138.809 82.0321C138.75 82.0149 138.69 81.9976 138.569 81.9688C138.405 81.9304 138.323 81.915 138.24 81.8978C138.12 81.8728 138.001 81.8498 137.764 81.7941C137.541 81.7422 137.429 81.7154 137.318 81.6866C137.275 81.677 137.235 81.6654 137.183 81.6539C136.896 81.6616 136.558 81.6443 136.134 81.5483C136.078 81.5349 136.078 81.5349 136.023 81.5291C135.844 81.5061 135.643 81.4792 135.326 81.4063C135.122 81.3583 134.941 81.3026 134.779 81.2431C134.463 81.268 134.102 81.2527 133.697 81.1586C133.366 81.0818 133.16 81.0146 132.993 80.9551L132.953 80.9417C132.945 80.9397 132.928 80.9359 132.906 80.9301L132.104 80.7458C131.73 80.6594 131.43 80.5385 131.184 80.4118C130.991 80.3964 130.774 80.3676 130.52 80.3081C130.123 80.2179 129.84 80.1046 129.615 80.0009C129.521 79.9779 129.436 79.9529 129.357 79.928C129.007 79.976 128.578 79.9779 128.093 79.8665C127.821 79.8051 127.667 79.761 127.554 79.7283C127.49 79.711 127.427 79.6918 127.298 79.663C126.763 79.5402 126.374 79.3443 126.081 79.1524C124.801 78.6244 124.053 77.2364 124.374 75.8445C124.732 74.2951 126.283 73.3275 127.837 73.6846C128.295 73.7902 128.643 73.9477 128.918 74.1108C129.282 74.0552 129.736 74.0417 130.254 74.1608C130.624 74.2452 130.874 74.3393 131.088 74.4276C131.386 74.4987 131.617 74.5831 131.809 74.6638C132.042 74.6714 132.312 74.7002 132.643 74.777C133.108 74.8845 133.461 75.0458 133.736 75.209L134.206 75.3165C134.354 75.3511 134.475 75.3818 134.579 75.4125C134.937 75.3645 135.362 75.3645 135.853 75.4759C136.255 75.568 136.565 75.6966 136.808 75.8195C136.919 75.8349 137.043 75.8521 137.199 75.8829C137.491 75.8733 137.832 75.8886 138.263 75.9885C138.488 76.0403 138.6 76.0672 138.711 76.096C138.8 76.1171 138.886 76.1401 139.064 76.1804C139.227 76.2188 139.308 76.2342 139.391 76.2515C139.51 76.2764 139.629 76.2995 139.866 76.3551C140.145 76.4185 140.305 76.4646 140.422 76.4991C140.482 76.5164 140.542 76.5337 140.663 76.5625C140.981 76.6354 141.242 76.7314 141.464 76.837C141.697 76.8428 141.962 76.8716 142.262 76.9407C142.513 76.9983 142.653 77.0367 142.799 77.0789C142.863 77.0962 142.928 77.1154 143.059 77.1461C143.394 77.2229 143.606 77.294 143.775 77.3554L143.814 77.3688C143.818 77.3688 143.831 77.3727 143.85 77.3765C144.154 77.4456 144.407 77.5378 144.618 77.6338C144.861 77.6376 145.138 77.6645 145.452 77.7374L146.252 77.9217C146.578 77.9966 146.818 78.0811 147.02 78.1675C147.247 78.1771 147.519 78.204 147.856 78.2808C148.077 78.3307 148.187 78.3595 148.298 78.3863C148.387 78.4075 148.477 78.4305 148.656 78.4708C148.92 78.5323 149.051 78.5687 149.182 78.6033C149.249 78.6225 149.316 78.6417 149.453 78.6724C149.638 78.7146 149.807 78.7665 149.959 78.8241C150.289 78.7914 150.668 78.801 151.087 78.897C151.499 78.9911 151.834 79.137 152.105 79.2944C152.271 79.3117 152.456 79.3405 152.664 79.3885C152.958 79.4557 153.185 79.5325 153.376 79.6112C153.63 79.6131 153.922 79.64 154.276 79.7206C154.371 79.7418 154.392 79.7456 154.467 79.7571C154.631 79.7821 154.802 79.8109 155.085 79.8742C155.622 79.9971 156.036 80.2179 156.34 80.4348C156.652 80.4137 157.023 80.4271 157.466 80.5289C157.712 80.5846 157.862 80.6268 158.001 80.6671C158.043 80.6652 158.087 80.6633 158.132 80.6614C158.226 80.5001 158.341 80.3312 158.486 80.1545L159.004 79.5191C159.223 79.2503 159.404 79.0737 159.566 78.9297C159.675 78.7377 159.814 78.5188 160.035 78.2462C160.053 78.2251 160.066 78.2097 160.076 78.1963L160.103 78.156C160.201 78.0043 160.314 77.8373 160.522 77.5838C160.705 77.3611 160.896 77.1788 161.082 77.0309C161.192 76.7948 161.342 76.5471 161.544 76.2995C161.704 76.1036 161.8 75.9942 161.9 75.8829C161.946 75.8329 161.991 75.7811 162.077 75.6755C162.362 75.3261 162.662 75.0804 162.943 74.9037C163.024 74.7828 163.119 74.6503 163.238 74.5044C163.288 74.443 163.294 74.4353 163.332 74.3777C163.427 74.2395 163.534 74.084 163.729 73.8459C163.939 73.5867 164.098 73.4293 164.231 73.3026C164.343 73.0914 164.493 72.8418 164.733 72.5481L164.758 72.5116C164.859 72.3523 164.984 72.1584 165.211 71.88C165.517 71.5037 165.836 71.2503 166.121 71.0736C166.19 70.9796 166.273 70.8701 166.393 70.7242C166.495 70.5975 166.591 70.4919 166.679 70.3998C166.793 70.0772 166.978 69.7048 167.28 69.3343C167.621 68.9157 167.994 68.645 168.313 68.4684C168.325 68.453 168.336 68.4377 168.348 68.4223C168.465 68.1555 168.637 67.8425 168.918 67.497C169.072 67.3069 169.191 67.1783 169.295 67.0708C169.412 66.7943 169.584 66.4833 169.857 66.1473C170.049 65.9131 170.252 65.723 170.45 65.5714C170.554 65.3582 170.688 65.1336 170.866 64.9109C170.979 64.7113 171.12 64.4866 171.358 64.1929C171.597 63.9011 171.789 63.7187 171.961 63.567C172.19 63.2906 172.359 63.1293 172.502 62.9988C172.79 62.6436 173.071 62.4113 173.312 62.2443C173.422 62.1214 173.516 62.0273 173.601 61.9467C173.716 61.7105 173.874 61.4475 174.118 61.1461C174.349 60.862 174.565 60.6623 174.759 60.5087C174.85 60.3551 174.961 60.1843 175.117 59.9846C175.233 59.7619 175.383 59.5123 175.637 59.2013C176.644 57.9668 178.462 57.7825 179.698 58.7847C180.903 59.7638 181.111 61.5109 180.189 62.7415C180.081 62.9508 179.943 63.1831 179.715 63.4691C179.602 63.6803 179.456 63.9164 179.209 64.2198C179.001 64.4751 178.807 64.6613 178.63 64.8073C178.52 65.0127 178.378 65.2392 178.17 65.4926C177.937 65.7787 177.766 65.9438 177.623 66.0782L177.608 66.0936C177.317 66.4506 177.036 66.6849 176.794 66.8538C176.642 67.0247 176.517 67.1418 176.409 67.2416C176.187 67.5123 176.006 67.6889 175.843 67.8329C175.82 67.8713 175.797 67.9116 175.772 67.952C175.675 68.3436 175.483 68.8389 175.081 69.3304C174.821 69.6491 174.54 69.8833 174.278 70.0561C174.188 70.2059 174.08 70.3614 173.947 70.5246C173.77 70.7415 173.641 70.8797 173.527 70.993C173.412 71.2464 173.245 71.5363 172.985 71.855C172.912 71.9453 172.877 71.9932 172.842 72.0412C172.752 72.166 172.657 72.2966 172.486 72.5078C172.294 72.7439 172.09 72.934 171.891 73.0856C171.784 73.3064 171.639 73.5406 171.449 73.7749C171.204 74.0744 171.004 74.2625 170.823 74.4161C170.785 74.4641 170.765 74.491 170.731 74.539C170.64 74.6676 170.542 74.8001 170.369 75.0132C170.078 75.3683 169.778 75.6141 169.503 75.7907C169.443 75.8771 169.374 75.975 169.285 76.0864C169.172 76.3071 169.018 76.5682 168.762 76.8812C168.533 77.1615 168.365 77.3247 168.227 77.4552L168.202 77.4821C168.152 77.5435 168.146 77.5531 168.106 77.6107C168.023 77.7336 167.928 77.868 167.774 78.06C167.659 78.2788 167.511 78.5246 167.261 78.8318C166.956 79.2061 166.635 79.4595 166.339 79.6381C166.227 79.976 166.04 80.3657 165.725 80.7516C165.397 81.1528 165.039 81.4197 164.728 81.5963C164.678 81.6654 164.618 81.7422 164.549 81.8286C164.435 82.0321 164.293 82.2644 164.05 82.562C163.812 82.8558 163.617 83.0381 163.444 83.1898L163.163 83.5335C163.045 83.8272 162.868 84.1651 162.57 84.5299C162.36 84.7871 162.137 84.9887 161.925 85.1481C161.404 86.0792 160.555 86.4708 160.135 86.6129C159.897 86.6935 159.506 86.7953 159.036 86.7953ZM126.532 79.2964H126.534H126.532Z" fill="#F0DDE6"/>
<path d="M126.672 184.232C125.078 184.232 123.785 182.941 123.785 181.352V146.896C123.785 146.704 123.729 146.52 123.621 146.361L106.51 120.942C105.621 119.621 105.973 117.832 107.298 116.947C108.622 116.06 110.416 116.411 111.303 117.732L128.414 143.151C129.163 144.262 129.557 145.558 129.557 146.896V181.352C129.559 182.941 128.266 184.232 126.672 184.232Z" fill="#373B74"/>
<path d="M159.184 87.8759C158.897 87.8759 158.606 87.8432 158.316 87.776C157.748 87.6455 157.307 87.4439 156.968 87.2442H156.966C156.718 87.2404 156.437 87.2173 156.129 87.1578C155.854 87.1444 155.529 87.1118 155.113 87.0158C154.741 86.9313 154.509 86.8526 154.32 86.7873C153.837 86.676 153.452 86.5166 153.15 86.3592C152.798 86.3726 152.384 86.3438 151.916 86.2363C151.67 86.1806 151.456 86.1154 151.271 86.0462C150.986 86.0386 150.663 86.004 150.303 85.9195C149.887 85.8235 149.583 85.7122 149.339 85.6085C148.99 85.5164 148.704 85.4031 148.465 85.2879C148.326 85.2649 148.163 85.2341 147.941 85.1842C147.851 85.1631 147.805 85.1554 147.759 85.1478C147.635 85.1266 147.503 85.1036 147.316 85.0633C147.043 85.0498 146.723 85.0153 146.315 84.9231C145.944 84.8367 145.626 84.7215 145.357 84.5968C145.166 84.5756 144.958 84.543 144.729 84.4892C144.671 84.4758 144.671 84.4758 144.614 84.4681C144.437 84.4412 144.238 84.4086 143.921 84.3357C143.682 84.28 143.565 84.2512 143.445 84.2224C143.364 84.2013 143.284 84.1821 143.122 84.1437C142.864 84.0842 142.647 84.017 142.458 83.9498C142.244 83.9421 142.009 83.9191 141.748 83.8711C141.459 83.8615 141.118 83.8307 140.687 83.7309C140.231 83.6253 139.883 83.4909 139.613 83.3642C139.53 83.3393 139.451 83.3143 139.376 83.2874C139.076 83.2913 138.743 83.2663 138.383 83.1914C138.141 83.1722 137.858 83.1377 137.471 83.0494C137.009 82.9438 136.58 82.771 136.187 82.5348C135.889 82.5291 135.529 82.4984 135.092 82.3985C134.563 82.2776 134.149 82.0971 133.831 81.9224C133.745 81.8955 133.664 81.8667 133.589 81.8399C133.344 81.8226 133.063 81.7861 132.721 81.7074C132.267 81.6037 131.914 81.4655 131.635 81.3311C131.591 81.3215 131.552 81.3119 131.514 81.3023C131.427 81.2812 131.339 81.2601 131.173 81.2217C130.96 81.1986 130.711 81.166 130.369 81.0873C130.253 81.0758 130.126 81.0604 129.982 81.0374C129.63 81.0508 129.197 81.0297 128.688 80.9126C128.207 80.8012 127.805 80.6323 127.478 80.448C127.135 80.4576 126.735 80.4307 126.296 80.3289C124.225 79.8528 122.932 77.7928 123.407 75.7271C123.815 73.9608 125.384 72.7609 127.126 72.7475C127.555 72.6822 128.161 72.6515 128.873 72.8147C129.016 72.8473 129.089 72.8626 129.16 72.8761C129.289 72.901 129.42 72.9279 129.676 72.9874C130.086 73.0815 130.438 73.2197 130.736 73.3714C130.886 73.3906 131.046 73.4175 131.214 73.454C131.431 73.477 131.683 73.5096 132.034 73.5903C132.255 73.6133 132.513 73.6479 132.875 73.7323C133.09 73.7823 133.198 73.8072 133.306 73.8341C133.398 73.8552 133.491 73.8782 133.673 73.9205C134.018 73.9992 134.305 74.099 134.545 74.2008C134.755 74.2219 134.99 74.2565 135.265 74.3198C135.662 74.41 135.939 74.508 136.174 74.602C136.476 74.6788 136.74 74.7748 136.967 74.8766C137.071 74.8862 137.178 74.9015 137.294 74.9207C137.615 74.9265 138 74.9476 138.47 75.057C138.886 75.153 139.274 75.3009 139.634 75.5024C139.996 75.4871 140.414 75.5101 140.872 75.6157C141.411 75.7405 141.832 75.9248 142.154 76.1053C142.264 76.1417 142.364 76.1782 142.456 76.2166C142.566 76.2262 142.685 76.2397 142.81 76.2589C143.153 76.2493 143.567 76.2742 144.065 76.3894C144.485 76.4854 144.796 76.6006 145.049 76.71C145.162 76.7369 145.241 76.758 145.32 76.7772C145.401 76.7983 145.482 76.8175 145.643 76.8559C145.701 76.8694 145.701 76.8694 145.759 76.8771C145.874 76.8943 145.997 76.9135 146.157 76.9462C146.461 76.95 146.831 76.9788 147.279 77.0825C147.685 77.1765 148.026 77.3052 148.309 77.4434C148.475 77.4645 148.655 77.4972 148.86 77.5432C148.95 77.5644 148.996 77.572 149.042 77.5797C149.202 77.6066 149.381 77.6392 149.666 77.7045C149.689 77.7103 149.708 77.7141 149.726 77.7179L149.77 77.7256C149.949 77.7525 150.151 77.7851 150.474 77.8581C150.971 77.9714 151.35 78.1288 151.648 78.2824C151.714 78.3016 151.776 78.3227 151.835 78.3419C152.134 78.3457 152.478 78.3803 152.865 78.4686C153.079 78.5185 153.267 78.5742 153.437 78.6318C153.746 78.6337 154.097 78.6663 154.485 78.7566C154.797 78.8276 154.986 78.8852 155.153 78.9351C155.215 78.9543 155.217 78.9543 155.282 78.9697C155.792 79.0868 156.195 79.2577 156.505 79.4247C156.589 79.4496 156.666 79.4746 156.736 79.4976C156.863 79.5053 157.001 79.5188 157.153 79.5399C157.519 79.5207 157.971 79.538 158.5 79.6608C158.922 79.7587 159.232 79.872 159.478 79.9776C160.009 80.1216 160.419 80.327 160.733 80.5209C162.392 81.2485 163.355 83.0705 162.933 84.8982C162.521 86.674 160.935 87.8759 159.184 87.8759ZM160.044 80.2944C160.046 80.2944 160.046 80.2944 160.048 80.2944C160.046 80.2944 160.044 80.2944 160.044 80.2944ZM159.282 79.9296C159.284 79.9296 159.284 79.9296 159.282 79.9296C159.284 79.9296 159.284 79.9296 159.282 79.9296Z" fill="#DF856A"/>
<path d="M34.4454 96.3717C34.3453 96.3717 34.2568 96.3678 34.1836 96.3621C33.127 96.2776 32.2859 95.8053 31.6776 94.9548C31.5063 94.784 31.3754 94.6227 31.2677 94.4749C31.081 94.3577 30.875 94.2061 30.6441 93.9949C30.3861 93.7588 30.1937 93.5226 30.0474 93.3037C29.8665 93.1905 29.6721 93.0465 29.47 92.8603C29.3815 92.7796 29.3352 92.7412 29.2871 92.7028C29.1697 92.6068 29.0465 92.5051 28.8502 92.3265C28.55 92.052 28.3575 91.812 28.2132 91.6066C28.115 91.5125 28.0342 91.4281 27.9629 91.3513C27.6665 91.2169 27.3374 91.0191 27.0064 90.7158C26.6599 90.399 26.427 90.0746 26.2673 89.7789C26.1672 89.7002 26.0536 89.6061 25.9208 89.4832C25.6898 89.2721 25.557 89.13 25.4416 89.0033C25.3049 88.9246 25.1567 88.8324 24.997 88.7115C24.6833 88.579 24.3137 88.3717 23.9345 88.0242C23.5977 87.717 23.3687 87.3925 23.2089 87.0969C23.0934 87.0124 22.9722 86.9126 22.8432 86.7955C22.722 86.6841 22.6604 86.6303 22.5988 86.5766C22.516 86.5036 22.4313 86.4326 22.2831 86.2963C22.0849 86.1715 21.8616 86.016 21.5787 85.7568C21.4882 85.6743 21.4401 85.6359 21.3939 85.5975C21.2996 85.5207 21.1726 85.417 20.9628 85.225C20.6259 84.9159 20.4027 84.6164 20.2449 84.3457C20.1409 84.2632 20.0197 84.1614 19.8561 84.0136C19.7252 83.8926 19.6578 83.835 19.5905 83.7755C19.5808 83.7678 19.5712 83.7582 19.5616 83.7506C19.244 83.6162 18.8764 83.4108 18.503 83.069C18.2874 82.8713 18.118 82.6735 17.9814 82.4854C17.7581 82.3606 17.5233 82.1974 17.2847 81.9805C16.994 81.7155 16.7861 81.4467 16.6302 81.1952C16.4782 81.0916 16.3166 80.9668 16.1433 80.8074C15.897 80.5828 15.7449 80.412 15.6256 80.268C15.4235 80.1451 15.1887 79.9819 14.9134 79.7323C14.5054 79.358 14.2552 78.9759 14.0954 78.6418C14.0531 78.5958 14.0146 78.5516 13.9799 78.5113C13.7547 78.3827 13.5045 78.2137 13.2216 77.9545C12.9983 77.751 12.8309 77.559 12.6981 77.3843C12.5922 77.3229 12.4806 77.2519 12.3651 77.1693C12.0379 77.0369 11.653 76.8257 11.2584 76.4667C10.9928 76.2248 10.7946 75.9713 10.6444 75.7333C10.5001 75.643 10.3499 75.5336 10.1979 75.405C9.98232 75.2783 9.72825 75.1093 9.428 74.8348C9.09502 74.5295 8.87755 74.2415 8.7255 73.9939C8.62926 73.9017 8.55805 73.8269 8.48876 73.7539C8.43487 73.6982 8.41562 73.6771 8.3367 73.6042C8.1731 73.4544 8.05763 73.3392 7.96332 73.2394C7.68039 73.105 7.3628 72.9111 7.03175 72.6078C6.72764 72.3294 6.51015 72.0395 6.35425 71.7707C6.21182 71.6728 6.05975 71.5557 5.90385 71.4117C5.80954 71.3253 5.76142 71.285 5.71138 71.2447C5.61899 71.1698 5.49197 71.0661 5.2841 70.8741C4.1081 69.799 4.0292 67.9771 5.10704 66.806C6.18488 65.6349 8.01141 65.5542 9.18548 66.6293C9.27979 66.7157 9.32791 66.7561 9.37795 66.7964C9.4357 66.8424 9.50501 66.9 9.59932 66.9826C9.86686 67.1151 10.1748 67.307 10.5097 67.6123C10.7888 67.8676 10.9947 68.1326 11.1468 68.3802C11.3123 68.4878 11.4836 68.6164 11.6607 68.7777C11.8916 68.9888 12.0225 69.129 12.138 69.2557C12.1823 69.3056 12.1861 69.3095 12.2381 69.3574C12.444 69.5475 12.5614 69.6665 12.6712 69.7817C12.725 69.8374 12.7443 69.8585 12.8232 69.9296C13.0907 70.1753 13.2832 70.4095 13.4275 70.6188C13.4968 70.6649 13.57 70.7148 13.645 70.7724C13.9703 70.9048 14.3495 71.1141 14.7402 71.4712C15.0058 71.7131 15.2041 71.9646 15.3542 72.2027C15.4562 72.266 15.5601 72.339 15.666 72.4215C15.9393 72.5559 16.2588 72.7479 16.6052 73.0647C16.8535 73.2912 17.0325 73.5005 17.1692 73.6906C17.3616 73.8096 17.5714 73.9612 17.8043 74.1744C18.0719 74.4182 18.2259 74.5948 18.3471 74.7407L18.3702 74.7657C18.6878 75.0556 18.9091 75.3512 19.067 75.6258C19.194 75.7179 19.3325 75.8293 19.4827 75.9656C19.704 76.1672 19.8484 76.3265 19.9619 76.459C20.191 76.5876 20.447 76.7585 20.7318 77.0196C20.9647 77.2327 21.1456 77.4477 21.2881 77.6531C21.4959 77.7741 21.7134 77.9277 21.9328 78.1292C22.1503 78.327 22.3197 78.5267 22.4563 78.7148C22.6777 78.8396 22.9125 79.0009 23.1493 79.2178C23.2821 79.3388 23.3475 79.3983 23.4148 79.4559C23.5015 79.5327 23.5881 79.6075 23.7574 79.763C23.821 79.8206 23.8325 79.8302 23.8884 79.8725C24.0173 79.9723 24.1636 80.0875 24.383 80.2891C24.7275 80.6039 24.9527 80.9111 25.1105 81.1857C25.1894 81.2509 25.2914 81.3354 25.4339 81.464C25.6321 81.5888 25.8554 81.7443 26.1383 82.0016C26.2596 82.1129 26.3212 82.1667 26.3847 82.2204C26.4463 82.2742 26.5059 82.326 26.5925 82.4028C26.8408 82.5353 27.1199 82.7158 27.4356 83.0037C27.7262 83.2687 27.9379 83.5471 28.0919 83.8101C28.2016 83.883 28.3152 83.9656 28.4287 84.0616C28.6674 84.1941 28.9368 84.3688 29.2467 84.6529C29.4777 84.8641 29.6105 85.0081 29.7279 85.1367C29.7722 85.1847 29.7741 85.1885 29.8241 85.2327L29.8415 85.2461C30.0012 85.3556 30.1918 85.4938 30.4631 85.7415C30.696 85.9546 30.8769 86.1696 31.0194 86.3788C31.2253 86.4998 31.4428 86.6534 31.6603 86.8511C31.9432 87.1103 32.1068 87.3023 32.2339 87.4616C32.5226 87.7285 32.7093 87.9589 32.8478 88.1547C32.8825 88.1854 32.9095 88.2065 32.9364 88.2296C33.0057 88.2872 33.0788 88.3448 33.1654 88.4216C33.4311 88.554 33.739 88.7441 34.072 89.0494C34.353 89.3047 34.5551 89.562 34.7071 89.7981C34.788 89.7635 34.8688 89.7309 34.9458 89.704C35.1132 89.537 35.3134 89.37 35.5578 89.2125C35.9543 88.9572 36.3373 88.8151 36.6645 88.7364C36.7704 88.6539 36.8936 88.5656 37.0379 88.4715C37.1938 88.3697 37.2708 88.3198 37.3478 88.268C37.3959 88.2353 37.446 88.2027 37.5076 88.1624C37.7039 87.9416 37.9637 87.6939 38.339 87.452C38.6913 87.2236 39.0108 87.0892 39.2879 87.0028C39.4131 86.901 39.567 86.7859 39.7806 86.6476C39.9827 86.5171 40.1675 86.4192 40.3369 86.3424C40.5313 86.1197 40.7834 85.8893 41.1106 85.6762C41.4609 85.4496 41.7573 85.321 42.0075 85.2327C42.0229 85.2212 42.0383 85.2097 42.0557 85.1981C42.1192 85.1501 42.1866 85.1021 42.2655 85.0465C42.4676 84.8026 42.7428 84.5339 43.1412 84.2766C43.4992 84.0443 43.8495 83.9061 44.1594 83.8254C44.2017 83.7909 44.2441 83.7544 44.2903 83.7199C44.4962 83.4645 44.7772 83.1823 45.1968 82.9116C45.6568 82.614 46.1052 82.47 46.4863 82.4048C46.5576 82.3529 46.6365 82.2992 46.725 82.2416C47.0464 82.0342 47.2736 81.9248 47.4603 81.8422C47.5969 81.7539 47.6623 81.7098 47.7278 81.6637C47.7701 81.6349 47.8124 81.6061 47.8625 81.5715C48.053 81.3431 48.3033 81.0954 48.6613 80.8535C48.8364 80.6865 49.0501 80.5003 49.3811 80.2872C49.6005 80.1451 49.7141 80.0798 49.8257 80.0126C49.8912 79.9742 49.9547 79.9358 50.0817 79.8552C50.3665 79.6709 50.5667 79.5691 50.7323 79.4885C50.9055 79.3196 51.121 79.1352 51.4425 78.9279C51.7254 78.7455 51.9121 78.6495 52.0776 78.5651L52.1161 78.5459C52.1238 78.5401 52.1392 78.5324 52.1565 78.5209C52.501 78.2982 52.784 78.1715 53.0188 78.0832C53.1227 78.0198 53.2228 77.9661 53.3171 77.9181C53.525 77.6493 53.806 77.3671 54.189 77.1194C54.5201 76.9063 54.7741 76.7873 54.9993 76.697C55.2033 76.5703 55.3977 76.4743 55.5806 76.4014C55.7615 76.2056 55.9886 76.0078 56.2716 75.8216C56.4256 75.6853 56.6161 75.524 56.9394 75.3147C57.3802 75.0306 57.7844 74.8885 58.1154 74.8098C58.1597 74.7868 58.2039 74.7657 58.2482 74.7445C58.4484 74.5065 58.7082 74.2646 59.0528 74.0419C60.3904 73.1779 62.1785 73.56 63.0446 74.8943C63.7818 76.0289 63.6143 77.488 62.727 78.4307C62.5076 78.782 62.1746 79.1813 61.6357 79.5307C61.2527 79.7784 60.9293 79.9109 60.6541 79.9992C60.3731 80.1566 60.1094 80.2584 59.8746 80.3256C59.8631 80.3352 59.8515 80.3448 59.8399 80.3544C59.6244 80.6558 59.3164 80.9898 58.8545 81.2874C58.433 81.56 58.0538 81.7002 57.7324 81.7827C57.5207 82.0726 57.2224 82.3856 56.8028 82.6563C56.4236 82.9001 56.1041 83.0345 55.8308 83.1209C55.5806 83.2648 55.3669 83.3589 55.1822 83.428C54.9608 83.5663 54.803 83.6469 54.6606 83.7179H54.6586C54.4835 83.8888 54.266 84.0769 53.9407 84.2862C53.6386 84.482 53.4307 84.5857 53.2594 84.6663L53.2209 84.6875C53.0015 84.8295 52.8879 84.8967 52.7763 84.9639C52.7243 84.9946 52.6743 85.0254 52.5915 85.0772C52.476 85.1885 52.3413 85.3076 52.1681 85.4362C51.9641 85.6858 51.6869 85.9603 51.2769 86.2253C51.1364 86.3155 51.0671 86.3635 50.9998 86.4096C50.8997 86.4787 50.7977 86.5478 50.5918 86.6803C50.278 86.8818 50.0567 86.9894 49.8738 87.0738C49.7102 87.2197 49.5139 87.381 49.2117 87.5768C48.8383 87.8187 48.4726 87.9589 48.1435 88.0376C48.0934 88.0798 48.0415 88.1202 47.9876 88.1624C47.7894 88.3928 47.5219 88.65 47.1292 88.9034C46.7866 89.1242 46.4517 89.2605 46.1534 89.3431C46.0186 89.4602 45.8647 89.5792 45.6838 89.6963C45.5856 89.7597 45.5567 89.7808 45.4932 89.8288C45.3681 89.921 45.2353 90.017 45.0063 90.1648C44.8138 90.2896 44.6367 90.3856 44.475 90.4605C44.2768 90.6908 44.0208 90.927 43.682 91.1478C43.3491 91.3628 43.0584 91.4914 42.8082 91.5797C42.6754 91.6911 42.5061 91.8216 42.2597 91.981C41.9768 92.1634 41.7169 92.2862 41.4821 92.3726C41.3185 92.53 41.1183 92.6932 40.8662 92.8564C40.7103 92.9563 40.6333 93.0081 40.5563 93.0599C40.4735 93.1156 40.3908 93.1713 40.2407 93.2673C40.0674 93.4324 39.8557 93.6128 39.5285 93.824C39.2341 94.0141 38.9511 94.1408 38.6874 94.2272C38.5296 94.3789 38.341 94.5325 38.1177 94.6764C37.7097 94.9395 37.3247 95.0834 36.9898 95.1622C36.9879 95.1641 36.9879 95.1641 36.986 95.166C36.1545 96.2008 35.0747 96.3717 34.4454 96.3717Z" fill="#F0DDE6"/>
<path d="M8.21688 72.3818C7.11594 72.3818 6.04002 71.827 5.42411 70.821C5.3375 70.6789 5.2663 70.5503 5.20664 70.4351C4.9314 70.2009 4.64655 69.8918 4.39056 69.4713C4.2462 69.2371 4.16728 69.0931 4.09222 68.953C4.06335 68.8992 4.03445 68.8455 3.96901 68.7399C3.64566 68.2138 3.49937 67.7089 3.43778 67.2846C3.23761 67.0811 3.02204 66.8239 2.81225 66.4821C2.64865 66.2153 2.53126 65.9676 2.44657 65.743C2.27335 65.5568 2.09628 65.3302 1.92305 65.048C1.7941 64.8387 1.70171 64.664 1.62857 64.5085C1.41107 64.2974 1.18011 64.0267 0.956841 63.6619C0.945292 63.6446 0.937567 63.6292 0.929868 63.6177L0.908723 63.5889C0.797089 63.443 0.662362 63.2626 0.479514 62.965C-0.461674 61.4272 0.0252611 59.4171 1.56696 58.4783C3.10866 57.5395 5.12387 58.0252 6.06505 59.563C6.0766 59.5803 6.08428 59.5937 6.09198 59.6052L6.11317 59.634C6.17669 59.7166 6.24788 59.8126 6.33064 59.9335C6.58278 60.1601 6.85804 60.4615 7.12172 60.8915C7.25068 61.1008 7.34307 61.2774 7.41621 61.4329C7.6337 61.6441 7.86467 61.9148 8.08601 62.2777C8.25731 62.558 8.37856 62.8172 8.46517 63.0514C8.62685 63.2318 8.79624 63.4488 8.96177 63.7195C9.11189 63.9633 9.19081 64.1092 9.25047 64.2148C9.28319 64.2743 9.31591 64.3338 9.38712 64.449C9.67775 64.9232 9.82594 65.3801 9.89715 65.7756C10.1435 66.0003 10.3957 66.2863 10.6247 66.6588C10.8287 66.9928 10.9442 67.2424 11.0346 67.4613C11.9354 68.9933 11.4447 70.9707 9.92027 71.8999C9.38713 72.2282 8.79814 72.3818 8.21688 72.3818ZM2.07511 64.8906H2.07704H2.07511Z" fill="#DF856A"/>
<path d="M34.338 97.2377C33.0753 97.2377 31.8397 96.6195 31.1025 95.4829C29.9477 93.7032 30.4577 91.3245 32.242 90.1726C32.7443 89.8482 33.2313 89.6677 33.6509 89.5679C33.6836 89.5467 33.7182 89.5237 33.7548 89.4987C33.9126 89.3701 34.1089 89.2146 34.4323 89.0053L34.4669 88.9804C34.5593 88.9074 34.6633 88.8268 34.8018 88.7289C35.0251 88.4947 35.3177 88.2336 35.7238 87.9705L35.7603 87.9437C35.9086 87.8265 36.0914 87.6845 36.3936 87.4906C36.7651 87.2506 37.1269 87.0893 37.4618 86.9818C37.7101 86.69 38.0334 86.3905 38.4511 86.1198C38.7494 85.9278 38.9515 85.8184 39.119 85.732L39.1632 85.707C39.502 85.4882 39.7618 85.3576 39.9909 85.2559C40.3161 85.0543 40.5895 84.9257 40.8224 84.8316C40.934 84.7663 41.0398 84.7087 41.1418 84.6569C41.3613 84.4303 41.6327 84.2 41.9676 83.983C42.4295 83.6835 42.8741 83.5088 43.2494 83.4051C43.2687 83.3917 43.2879 83.3802 43.3072 83.3667C43.5073 83.1805 43.7537 82.9751 44.1059 82.7466C44.4754 82.5086 44.8007 82.355 45.076 82.2513C45.3262 81.9518 45.6668 81.6216 46.1249 81.324C46.2731 81.228 46.4059 81.1493 46.5272 81.0821C46.7601 80.8306 47.0546 80.5695 47.4357 80.3238C47.9245 80.0089 48.3922 79.8304 48.7791 79.7286C48.8234 79.6998 48.8754 79.6672 48.9427 79.623C49.2603 79.4176 49.5432 79.2775 49.7877 79.1757C49.9378 79.0528 50.1168 78.9204 50.3516 78.7687C50.3651 78.761 50.3766 78.7514 50.3901 78.7437C50.7038 78.3041 51.0965 77.9297 51.57 77.6245C51.8529 77.4421 52.0357 77.3423 52.1993 77.2539L52.2378 77.2328C52.2474 77.2271 52.261 77.2175 52.2802 77.2059C52.7152 76.9256 53.1367 76.7529 53.5062 76.6473C53.7353 76.4034 54.0221 76.1519 54.3858 75.9177C54.613 75.7699 54.8285 75.6547 55.0287 75.5626C55.2269 75.3744 55.4636 75.1824 55.7485 74.9962C56.2162 74.6948 56.7166 74.4874 57.2479 74.378C57.3518 74.2859 57.4692 74.1879 57.6059 74.0862C57.8349 73.8385 58.1371 73.564 58.5625 73.2895C60.3467 72.1375 62.7295 72.6463 63.8862 74.426C64.9544 76.0732 64.5984 78.2292 63.1279 79.456C62.9239 79.6825 62.6582 79.934 62.2945 80.1875C62.0943 80.3756 61.8441 80.583 61.488 80.8133L60.7971 81.2607C60.4564 81.4795 60.0984 81.6485 59.725 81.7675C59.6095 81.8597 59.4825 81.9499 59.3439 82.0401C59.1495 82.1649 58.9647 82.2686 58.7915 82.3531C58.5778 82.5681 58.318 82.785 58.0005 82.9924C57.7541 83.1517 57.5982 83.242 57.4596 83.3207C57.4192 83.3437 57.3768 83.3667 57.2979 83.4186C56.9572 83.6394 56.6243 83.791 56.3202 83.8985C56.0315 84.2595 55.6831 84.5724 55.277 84.8354C54.9786 85.0274 54.7265 85.158 54.5109 85.2539C54.3492 85.3903 54.1529 85.54 53.8835 85.7128C53.5043 85.9585 53.1733 86.1102 52.898 86.2158C52.8403 86.2523 52.7922 86.283 52.746 86.3118C52.669 86.3598 52.592 86.4078 52.4399 86.5057C52.1647 86.6823 51.8972 86.8167 51.645 86.9185C51.4718 87.074 51.2735 87.2276 51.0426 87.3773C50.9232 87.4541 50.8135 87.5213 50.7115 87.5789C50.4709 87.8515 50.1572 88.1414 49.7472 88.4063C49.5163 88.5561 49.3989 88.6252 49.2796 88.6962C49.2199 88.7308 49.1622 88.7673 49.0467 88.8402C48.7503 89.0322 48.4808 89.1685 48.244 89.2684C48.0824 89.4047 47.8899 89.5506 47.6493 89.708C47.5492 89.7733 47.5011 89.8078 47.4511 89.8424C47.326 89.9307 47.1951 90.0229 46.968 90.1707C46.7043 90.3416 46.4464 90.4721 46.2039 90.57C46.0249 90.7332 45.8189 90.8945 45.5783 91.05C45.1664 91.3168 44.8046 91.4762 44.5024 91.5818C44.2734 91.7104 44.0713 91.8026 43.8942 91.8755C43.644 92.0272 43.438 92.127 43.2533 92.2096C43.2417 92.2172 43.2321 92.223 43.2206 92.2288C42.9569 92.5686 42.5969 92.9314 42.1004 93.252L42.0715 93.2732C41.9214 93.3922 41.7366 93.5362 41.4306 93.732C40.9628 94.0353 40.5067 94.212 40.1044 94.3156C39.8966 94.5211 39.6329 94.7438 39.2864 94.9684L39.2518 94.9934C39.1055 95.1085 38.9246 95.2487 38.6282 95.4407C38.4703 95.5712 38.274 95.7267 37.9487 95.936C37.8852 95.9782 37.8756 95.984 37.8217 96.0243C37.6851 96.1261 37.5311 96.2393 37.2731 96.4064C36.5379 96.8806 35.8373 97.0476 35.3292 97.1033C35.0039 97.1935 34.669 97.2377 34.338 97.2377ZM40.6337 84.9487C40.6337 84.9487 40.6318 84.9487 40.6318 84.9506C40.6337 84.9487 40.6337 84.9487 40.6337 84.9487ZM62.7526 79.7401C62.7526 79.7401 62.7506 79.7401 62.7506 79.7421C62.7506 79.7421 62.7506 79.7401 62.7526 79.7401Z" fill="#DF856A"/>
<path d="M123.223 161.132C123.356 160.771 123.431 161.034 123.903 161.032C124.126 161.032 124.386 161.143 124.672 161.143C124.913 161.142 125.173 161.023 125.442 161.021C125.693 161.019 125.954 161.257 126.216 161.253C126.472 161.249 126.73 161.13 126.986 161.126C127.248 161.122 127.506 161.071 127.756 161.065C128.025 161.059 128.283 160.976 128.524 160.969C128.809 160.959 129.067 160.928 129.292 160.915C129.673 160.892 129.915 160.832 130.023 160.798C130.079 160.781 129.973 161.182 129.979 161.702C129.983 161.931 130.035 162.201 130.029 162.512C130.025 162.76 130.071 163.033 130.064 163.326C130.058 163.582 129.923 163.85 129.915 164.137C129.908 164.398 129.929 164.67 129.919 164.951C129.91 165.214 129.923 165.486 129.912 165.765C129.902 166.029 130.112 166.31 130.1 166.588C130.089 166.855 129.873 167.118 129.861 167.393C129.85 167.659 130.133 167.944 130.119 168.218C130.108 168.487 129.861 168.748 129.848 169.021C129.836 169.291 129.804 169.562 129.792 169.833C129.781 170.103 129.865 170.38 129.854 170.651C129.842 170.923 129.642 171.186 129.631 171.457C129.619 171.73 129.694 172.006 129.682 172.275C129.671 172.547 129.55 172.814 129.538 173.085C129.527 173.359 129.627 173.636 129.615 173.905C129.604 174.181 129.609 174.454 129.598 174.721C129.586 174.997 129.5 175.268 129.488 175.533C129.477 175.811 129.609 176.089 129.6 176.353C129.59 176.635 129.638 176.909 129.631 177.168C129.621 177.455 129.432 177.721 129.426 177.979C129.419 178.272 129.617 178.549 129.613 178.798C129.607 179.111 129.669 179.382 129.673 179.611C129.679 180.138 129.561 180.403 129.615 180.375C129.975 180.54 129.952 180.588 130.3 180.776C130.649 180.964 130.679 180.908 131.028 181.096C131.376 181.285 131.28 181.463 131.628 181.651C131.977 181.839 132.033 181.74 132.381 181.926C132.729 182.114 132.824 181.941 133.172 182.129C133.52 182.317 133.384 182.569 133.734 182.757C134.082 182.945 134.181 182.763 134.531 182.951C134.879 183.139 134.764 183.354 135.114 183.54C135.464 183.729 135.572 183.529 135.922 183.717C136.273 183.905 136.176 184.082 136.527 184.27C136.792 184.414 137.083 184.51 137.127 184.752C137.175 185.013 136.935 185.234 136.769 185.439C136.615 185.631 136.465 185.785 136.163 185.785C135.759 185.785 135.759 185.8 135.353 185.8C134.947 185.8 134.947 185.764 134.542 185.764C134.136 185.764 134.136 185.998 133.732 185.998C133.326 185.998 133.326 185.792 132.92 185.792C132.514 185.792 132.514 185.656 132.11 185.656C131.703 185.656 131.703 185.827 131.299 185.827C130.893 185.827 130.893 185.812 130.487 185.812C130.081 185.812 130.081 185.894 129.675 185.894C129.269 185.894 129.269 185.641 128.863 185.641C128.456 185.641 128.456 185.931 128.05 185.931C127.644 185.931 127.644 185.696 127.238 185.696C126.832 185.696 126.832 185.908 126.426 185.908C126.02 185.908 126.02 185.767 125.614 185.767C125.207 185.767 125.208 185.831 124.801 185.831C124.476 185.831 124.093 185.875 123.829 185.723C123.558 185.566 123.469 185.172 123.314 184.902C123.162 184.639 122.967 184.37 122.967 184.043C122.969 183.635 123.173 183.634 123.175 183.226C123.177 182.817 123.086 182.815 123.088 182.406C123.09 181.997 122.977 181.995 122.981 181.586C122.983 181.177 122.927 181.177 122.931 180.766C122.932 180.357 122.856 180.355 122.857 179.946C122.859 179.538 123.054 179.538 123.056 179.129C123.058 178.72 122.969 178.718 122.971 178.309C122.973 177.9 122.89 177.898 122.892 177.489C122.894 177.08 123.158 177.08 123.16 176.671C123.162 176.262 122.959 176.26 122.961 175.851C122.963 175.443 122.984 175.443 122.986 175.032C122.988 174.623 123.075 174.623 123.077 174.212C123.079 173.803 122.992 173.801 122.994 173.392C122.996 172.983 122.983 172.981 122.986 172.572C122.988 172.163 123.017 172.163 123.019 171.754C123.021 171.346 123.242 171.346 123.244 170.937C123.246 170.528 123.267 170.528 123.269 170.117C123.271 169.706 123.156 169.706 123.158 169.297C123.16 168.888 122.998 168.886 123 168.477C123.002 168.068 123.11 168.068 123.111 167.658C123.113 167.247 122.979 167.247 122.981 166.836C122.983 166.425 123.225 166.427 123.227 166.018C123.229 165.607 123.169 165.607 123.171 165.198C123.173 164.787 123.269 164.789 123.271 164.378C123.273 163.968 123.14 163.968 123.142 163.559C123.144 163.148 122.94 163.148 122.944 162.737C122.946 162.326 123.092 162.328 123.079 161.919C123.067 161.522 123.083 161.516 123.223 161.132Z" fill="#DF856A"/>
<path d="M179.442 52.1423C179.442 52.4284 179.452 52.7912 179.317 53.0216C179.179 53.2597 178.861 53.4421 178.622 53.5803C178.391 53.7147 178.076 53.6033 177.789 53.6033C177.502 53.6033 177.183 53.7243 176.95 53.5899C176.711 53.4517 176.501 53.2002 176.363 52.9621C176.228 52.7317 176.053 52.4265 176.053 52.1404C176.053 51.8543 176.315 51.6009 176.449 51.3686C176.588 51.1306 176.765 50.9232 177.005 50.785C177.236 50.6506 177.502 50.4932 177.789 50.4932C178.076 50.4932 178.414 50.5239 178.647 50.6564C178.886 50.7946 179.136 51.0442 179.275 51.2822C179.409 51.5184 179.442 51.8563 179.442 52.1423Z" fill="#DF856A"/>
<path d="M178.02 64.3662C177.533 64.3662 177.041 64.2587 176.575 64.0283C175.006 63.2565 174.333 61.3981 175.016 59.8142C175.083 59.5608 175.181 59.2671 175.362 58.9023C175.428 58.7718 175.482 58.6662 175.532 58.5759C175.584 58.2285 175.691 57.8291 175.907 57.3933C176.155 56.8922 176.448 56.5351 176.717 56.274C176.756 56.2145 176.792 56.1589 176.831 56.107C176.896 55.8805 176.989 55.6271 177.133 55.3333C177.218 55.1605 177.295 55.0223 177.366 54.9052C177.426 54.5942 177.532 54.239 177.724 53.8493C177.926 53.4423 178.159 53.1274 178.39 52.8817C178.402 52.8529 178.415 52.8222 178.428 52.7914C178.488 52.49 178.594 52.1329 178.8 51.7163C178.956 51.3996 179.11 51.1634 179.252 50.9733C179.316 50.7852 179.4 50.5702 179.533 50.3033C179.599 50.1708 179.654 50.0653 179.705 49.975C179.757 49.6294 179.864 49.232 180.08 48.7982C180.267 48.4199 180.453 48.1531 180.623 47.9419C180.665 47.8574 180.696 47.796 180.729 47.7346C180.769 47.6558 180.809 47.579 180.886 47.4216C181.685 45.8051 183.648 45.1408 185.269 45.9376C186.89 46.7343 187.556 48.6926 186.757 50.3091C186.657 50.5107 186.607 50.6086 186.555 50.7084C186.514 50.7852 186.476 50.8639 186.397 51.0194C186.306 51.2037 186.214 51.3612 186.125 51.4994C186.066 51.7989 185.96 52.1329 185.783 52.49C185.65 52.7588 185.556 52.9201 185.473 53.0621C185.454 53.0929 185.444 53.1101 185.434 53.1274C185.367 53.3463 185.277 53.5997 185.111 53.9338C184.99 54.1795 184.869 54.3792 184.755 54.5443C184.695 54.767 184.611 55.0165 184.48 55.293C184.412 55.5195 184.32 55.7787 184.151 56.1224C184.002 56.4219 183.837 56.6715 183.668 56.8807C183.606 57.0842 183.523 57.3031 183.41 57.5315C183.285 57.785 183.179 57.9635 183.086 58.1094C183.021 58.3609 182.923 58.6489 182.755 58.9868C182.569 59.365 182.384 59.6319 182.218 59.8392C182.12 60.0178 182.014 60.1771 181.908 60.3173C181.845 60.5572 181.752 60.8164 181.616 61.0909C181.483 61.3597 181.389 61.521 181.304 61.6631C181.3 61.6688 181.298 61.6746 181.294 61.6784C181.227 61.9222 181.131 62.2025 180.959 62.5462C180.388 63.6962 179.227 64.3662 178.02 64.3662ZM175.089 59.6568C175.087 59.6587 175.087 59.6587 175.089 59.6568C175.087 59.6587 175.087 59.6587 175.089 59.6568Z" fill="#DF856A"/>
<path d="M5.72949 60.7813C5.72949 61.0674 5.75646 61.3688 5.8912 61.6011C6.02979 61.8392 6.32622 61.939 6.5649 62.0753C6.79588 62.2097 7.02685 62.3902 7.31365 62.3902C7.60045 62.3902 7.81412 62.179 8.04511 62.0446C8.28379 61.9064 8.42044 61.7355 8.55903 61.4974C8.69377 61.267 8.74188 61.0655 8.74188 60.7794C8.74188 60.4933 8.70341 60.286 8.57059 60.0556C8.432 59.8176 8.2992 59.6275 8.06052 59.4893C7.82954 59.3549 7.60045 59.1514 7.31365 59.1514C7.02685 59.1514 6.79203 59.3453 6.56105 59.4797C6.32236 59.6179 6.05671 59.7388 5.91812 59.9769C5.78338 60.2092 5.72949 60.4953 5.72949 60.7813Z" fill="#DF856A"/>
<path d="M63.6763 184.208C63.6666 184.208 63.6589 184.208 63.6493 184.208C62.0556 184.193 60.7738 182.893 60.7892 181.301L61.0548 152.262C61.0586 151.914 61.1241 151.569 61.2511 151.244L74.0927 118.292C74.6701 116.81 76.3427 116.076 77.8305 116.65C79.3164 117.226 80.0535 118.895 79.4761 120.379L66.825 152.842L66.5652 181.353C66.5498 182.937 65.2584 184.208 63.6763 184.208Z" fill="#373B74"/>
<path d="M67.6564 160.99C67.5198 160.625 67.206 160.968 66.7268 160.968C66.5016 160.968 66.236 161.059 65.9454 161.057C65.7009 161.055 65.4392 160.917 65.1639 160.915C64.9099 160.913 64.6481 160.922 64.3825 160.92C64.1227 160.917 63.859 161.038 63.5991 161.032C63.3335 161.028 63.0737 160.926 62.8196 160.92C62.5463 160.915 62.2827 160.936 62.0382 160.926C61.7495 160.917 61.4858 160.892 61.2587 160.878C60.8718 160.855 60.5773 160.93 60.4676 160.895C60.4118 160.878 60.3599 161.126 60.3522 161.646C60.3483 161.875 60.3118 162.151 60.3156 162.462C60.3195 162.71 60.2098 162.986 60.2175 163.28C60.2232 163.535 60.5581 163.798 60.5677 164.084C60.5754 164.345 60.5793 164.616 60.5889 164.898C60.5985 165.161 60.4176 165.44 60.4292 165.72C60.4388 165.985 60.5023 166.256 60.5138 166.532C60.5254 166.799 60.5312 167.07 60.5427 167.344C60.5543 167.611 60.6293 167.88 60.6428 168.154C60.6544 168.423 60.6563 168.696 60.6678 168.968C60.6794 169.239 60.714 169.51 60.7275 169.781C60.739 170.051 60.8276 170.32 60.8391 170.591C60.8526 170.863 60.6466 171.144 60.6582 171.414C60.6717 171.687 60.6832 171.96 60.6967 172.228C60.7083 172.501 60.8796 172.766 60.8911 173.035C60.9027 173.309 60.7314 173.59 60.7429 173.858C60.7545 174.135 61.0162 174.396 61.0278 174.663C61.0393 174.939 61.097 175.21 61.1086 175.475C61.1201 175.753 61.0874 176.028 61.0989 176.291C61.1105 176.573 61.0874 176.846 61.0951 177.107C61.1047 177.393 61.0316 177.667 61.0393 177.925C61.047 178.218 61.0412 178.491 61.045 178.74C61.0508 179.053 61.1971 179.328 61.1933 179.556C61.1875 180.084 61.0585 180.493 61.0027 180.464C60.6389 180.63 60.5678 180.484 60.2155 180.672C59.8614 180.86 59.9692 181.063 59.6169 181.25C59.2628 181.438 59.1685 181.261 58.8144 181.449C58.4602 181.638 58.3928 181.511 58.0387 181.697C57.6845 181.883 57.7403 181.989 57.3862 182.177C57.032 182.365 56.9685 182.246 56.6163 182.434C56.2622 182.622 56.3758 182.834 56.0216 183.022C55.6675 183.21 55.5616 183.01 55.2075 183.198C54.8533 183.386 54.9592 183.584 54.6031 183.772C54.2489 183.961 54.2932 184.045 53.9391 184.233C53.6696 184.377 53.6061 184.5 53.5618 184.742C53.5137 185.003 53.5484 185.155 53.7178 185.362C53.8737 185.552 53.9949 185.959 54.3009 185.959C54.7109 185.959 54.7109 185.761 55.1227 185.761C55.5346 185.761 55.5346 185.788 55.9446 185.788C56.3565 185.788 56.3565 185.805 56.7664 185.805C57.1783 185.805 57.1783 185.702 57.5883 185.702C58.0002 185.702 58.0002 185.853 58.4101 185.853C58.822 185.853 58.822 185.642 59.232 185.642C59.6439 185.642 59.6439 185.955 60.0558 185.955C60.4677 185.955 60.4677 185.923 60.8795 185.923C61.2914 185.923 61.2914 185.89 61.7033 185.89C62.1152 185.89 62.1152 185.913 62.5252 185.913C62.9371 185.913 62.9371 185.654 63.347 185.654C63.7589 185.654 63.7589 185.606 64.1708 185.606C64.5826 185.606 64.5826 185.784 64.9945 185.784C65.4064 185.784 65.4064 185.648 65.8183 185.648C66.1474 185.648 66.4073 185.608 66.6729 185.458C66.9481 185.302 67.1579 185.12 67.3177 184.849C67.4736 184.586 67.8123 184.32 67.8123 183.991C67.8104 183.582 67.6853 183.582 67.6833 183.173C67.6814 182.764 67.4966 182.764 67.4947 182.356C67.4928 181.947 67.5352 181.945 67.5332 181.536C67.5313 181.127 67.7969 181.125 67.795 180.716C67.7931 180.307 67.4427 180.309 67.4408 179.898C67.4389 179.489 67.4909 179.487 67.487 179.078C67.4851 178.669 67.7469 178.668 67.7449 178.259C67.743 177.85 67.5602 177.85 67.5582 177.441C67.5563 177.032 67.7642 177.03 67.7623 176.621C67.7603 176.212 67.6295 176.212 67.6276 175.803C67.6256 175.394 67.616 175.394 67.6141 174.983C67.6121 174.574 67.5198 174.574 67.5178 174.164C67.5159 173.755 67.4043 173.755 67.4023 173.344C67.4004 172.935 67.5082 172.933 67.5063 172.524C67.5043 172.115 67.5833 172.115 67.5814 171.704C67.5794 171.295 67.41 171.295 67.4081 170.886C67.4062 170.477 67.5582 170.476 67.5563 170.067C67.5544 169.656 67.5544 169.656 67.5525 169.247C67.5505 168.838 67.6371 168.836 67.6352 168.427C67.6333 168.018 67.7219 168.016 67.7199 167.607C67.718 167.196 67.6795 167.198 67.6776 166.787C67.6757 166.377 67.4427 166.379 67.4389 165.968C67.437 165.557 67.4793 165.557 67.4774 165.148C67.4755 164.737 67.6237 164.737 67.6218 164.328C67.6198 163.917 67.4043 163.919 67.4023 163.508C67.4004 163.098 67.6949 163.096 67.693 162.687C67.691 162.276 67.3254 162.245 67.412 161.844C67.5063 161.397 67.7988 161.374 67.6564 160.99Z" fill="#DF856A"/>
<path d="M131.4 74.0976L131.09 75.4837L131.598 76.8871L131.015 78.2541L131.346 79.6652L131.558 81.0801L130.765 82.4048L130.509 83.7717L130.988 85.2366L130.284 86.5401L129.858 87.8744L129.589 89.2318L129.387 90.6045L129.402 92.029L128.858 93.3268L129.042 94.8147L128.357 96.0703L127.724 97.3297L127.397 98.6851L126.75 99.9292L126.423 101.288L125.901 102.575L125.179 103.775L124.662 105.061L124.671 106.606L123.78 107.724L123.268 109.033L121.952 109.886L121.318 111.116L120.806 112.433L120.485 113.896L119.03 114.576L118.739 116.098L117.968 117.277L117.03 118.327L116.02 119.306L114.682 119.959L113.743 120.982L112.482 121.654L111.52 122.651L110.486 123.574L109.566 124.674L108.259 125.227L107.187 126.143L106.154 127.174L104.752 127.519L103.286 127.642L101.99 128.114L100.866 129.128L99.3748 128.973L98.0814 129.529L96.6764 129.541L95.3368 129.984L93.9394 129.902L92.5574 129.689L91.1697 130L89.782 129.917L88.4193 129.648L87.0874 129.257L85.5688 129.625L84.2504 129.115L82.8358 128.89L81.6482 128.063L80.297 127.646L79.0998 126.901L77.7506 126.435L76.7902 125.321L75.4448 124.814L74.2207 124.104L73.216 123.108L72.602 121.683L71.3683 120.98L70.3058 120.078L69.636 118.799L68.6698 117.811L67.5343 116.956L66.9992 115.612L66.1793 114.501L65.2842 113.443L64.3661 112.391L63.5867 111.241L62.9534 110.005L62.1277 108.876L61.3097 107.733L60.9671 106.349L60.5495 105.013L59.845 103.813L58.8192 102.736L58.4457 101.382L57.9511 100.079L57.9453 98.6083L56.7289 97.5409L56.8367 96.0492L55.9455 94.8512L56.0514 93.3806L55.7107 92.0309L54.9697 90.7677L54.9774 89.3393L54.7945 87.957L54.7137 86.5613L54.5367 85.1809L54.5674 83.7775L53.9226 82.4509L53.8553 81.0571L53.5608 79.6805L53.8457 78.2675L53.3818 76.8929L53.4049 75.4953L53.659 74.0976L53.8399 72.7096L53.5166 71.31L53.7417 69.9239L54.2018 68.5608L53.7841 67.1343L54.4674 65.8039L54.2691 64.3851L54.2018 62.9702L54.5559 61.6148L54.5636 60.2017L55.4836 58.9558L55.7146 57.5907L55.8416 56.1969L56.4595 54.9202L56.3767 53.465L56.3362 52.0021L57.2947 50.8348L57.9107 49.5773L57.9588 48.1221L58.7768 46.9413L58.8769 45.4842L59.7218 44.3284L60.4147 43.117L60.7689 41.7482L61.8294 40.7287L62.0988 39.3023L62.9168 38.1676L63.8638 37.1213L64.3354 35.7813L64.8704 34.4662L65.5941 33.2643L66.4506 32.1585L67.2571 31.0085L68.2733 30.0332L69.3108 29.0906L70.3578 28.1652L71.3221 27.1611L72.0419 25.8729L73.1602 25.0167L74.3554 24.2641L75.3775 23.2792L76.5265 22.4614L77.893 21.9968L79.3693 21.7971L80.6031 21.1866L81.5423 19.8753L82.9243 19.5374L84.4159 19.6046L85.6439 18.8501L86.9893 18.4623L88.4193 18.5449L89.757 18.0131L91.1563 17.9401L92.5574 17.775L93.9741 17.6118L95.3214 18.374L96.6802 18.6389L98.0621 18.7752L99.4807 18.8194L100.791 19.3128L102.098 19.7947L103.419 20.2458L104.797 20.5914L105.728 21.8316L106.966 22.4383L108.155 23.1352L109.639 23.4251L110.367 24.7825L111.747 25.2739L112.615 26.397L113.55 27.4203L114.609 28.315L115.92 28.9869L116.512 30.3251L117.482 31.3215L118.843 32.0241L119.184 33.5139L120.206 34.493L120.547 35.9349L121.913 36.7182L122.244 38.1446L122.712 39.4712L123.482 40.6289L124.587 41.633L125.154 42.9116L125.393 44.3284L126.017 45.5744L126.694 46.805L126.584 48.3256L127.383 49.5139L127.728 50.8636L127.93 52.2497L128.421 53.5495L128.727 54.901L129.214 56.2085L129.939 57.4717L129.683 58.9442L130.18 60.2632L130.22 61.6647L130.599 63.0105L131.088 64.3525L131.485 65.7136L131.221 67.142L130.919 68.5588L131.71 69.9066L131.292 71.3177L131.708 72.7019L131.4 74.0976Z" fill="#A4C9ED"/>
<path d="M65.0559 32.673C65.0559 32.4061 65.2138 32.074 65.2234 31.8033C65.233 31.5365 65.0328 31.2562 65.0521 30.9855C65.0713 30.7186 65.2889 30.4671 65.3177 30.1964C65.3447 29.9295 65.3119 29.6569 65.3485 29.3881C65.3851 29.1232 65.4082 28.8544 65.4524 28.5856C65.4967 28.3207 65.5795 28.0634 65.6295 27.7966C65.6795 27.5336 65.5044 27.2206 65.564 26.9557C65.6218 26.6927 65.8836 26.4757 65.949 26.2127C66.0144 25.9516 66.2127 25.727 66.2839 25.4659C66.3551 25.2067 66.2647 24.9034 66.3416 24.6423C66.4186 24.385 66.5149 24.1316 66.5976 23.8743C66.6804 23.619 66.69 23.3368 66.7786 23.0814C66.8671 22.828 67.1981 22.661 67.2944 22.4076C67.3887 22.1561 67.2155 21.8009 67.3156 21.5494C67.4157 21.2998 67.7352 21.1405 67.841 20.8909C67.9469 20.6432 67.8602 20.3111 67.9719 20.0654C68.0816 19.8196 68.3241 19.6334 68.4396 19.3896C68.5551 19.1458 68.6167 18.877 68.7379 18.6351C68.8592 18.3951 68.8477 18.0841 68.9728 17.8441C69.0979 17.606 69.425 17.4736 69.5559 17.2374C69.6868 17.0013 69.7176 16.7095 69.8543 16.4752C69.989 16.241 70.3027 16.1143 70.4432 15.882C70.5837 15.6516 70.6473 15.3771 70.7916 15.1486C70.936 14.9202 70.988 14.6322 71.1362 14.4076C71.2844 14.1829 71.3902 13.9276 71.5442 13.7049C71.6982 13.4822 71.7925 13.2153 71.9503 12.9965C72.1081 12.7776 72.4257 12.672 72.5874 12.457C72.749 12.242 72.8434 11.9732 73.0108 11.7601C73.1783 11.547 73.2841 11.284 73.4554 11.0747C73.6267 10.8654 74.002 10.8251 74.1772 10.6197C74.3523 10.4143 74.3774 10.0783 74.5564 9.87672C74.7373 9.67514 74.9356 9.48892 75.1203 9.29117C75.3051 9.09343 75.5534 8.95712 75.742 8.76321C75.9306 8.56931 76.0596 8.31589 76.254 8.12774C76.4464 7.93768 76.6351 7.74185 76.8314 7.55563C77.0296 7.37132 77.2491 7.20814 77.4511 7.02959C77.6532 6.84912 78.0017 6.83952 78.2076 6.66482C78.4135 6.49011 78.6329 6.33652 78.8427 6.16758C79.0525 5.99671 79.1911 5.74137 79.4067 5.57818C79.6223 5.41308 79.7416 5.12318 79.961 4.96383C80.1804 4.80449 80.4634 4.73537 80.6866 4.5837C80.9099 4.43011 81.062 4.16901 81.2891 4.02311C81.5162 3.8772 81.8742 3.93863 82.1052 3.8004C82.3381 3.66026 82.5382 3.47403 82.773 3.34156C83.0098 3.20909 83.2889 3.16493 83.5294 3.04014C83.77 2.91535 83.949 2.67537 84.1915 2.55826C84.436 2.44115 84.5977 2.14166 84.844 2.03222C85.0923 1.92279 85.3945 1.93431 85.6447 1.83448C85.8949 1.73273 86.1605 1.66553 86.4146 1.57338C86.6687 1.48123 86.9458 1.45435 87.2018 1.3718C87.4598 1.28924 87.6599 1.01278 87.9198 0.93983C88.1796 0.866875 88.528 1.12989 88.7917 1.06462C89.0553 1.00126 89.2786 0.784322 89.5442 0.730566C89.8098 0.67681 90.0523 0.492505 90.3199 0.450268C90.5874 0.406112 90.8626 0.398432 91.1321 0.365795C91.3996 0.333158 91.6884 0.500184 91.9578 0.479066C92.2273 0.457948 92.4813 0.160371 92.7508 0.150772C93.0202 0.139253 93.2974 0.392673 93.5688 0.392673C93.8402 0.392673 94.1039 0.494425 94.3734 0.504024C94.6447 0.515543 94.9084 0.502104 95.1779 0.523222C95.4473 0.544341 95.7322 0.390753 96.0017 0.42339C96.2711 0.456028 96.5175 0.630734 96.7831 0.67489C97.0507 0.719047 97.3297 0.68065 97.5934 0.734406C97.859 0.788162 98.1188 0.861116 98.3806 0.924471C98.6443 0.987826 98.9157 1.01662 99.1755 1.08958C99.4354 1.16253 99.649 1.37947 99.9069 1.46395C100.165 1.5465 100.479 1.45627 100.735 1.54842C100.989 1.64057 101.185 1.87864 101.437 1.98039C101.687 2.08214 102.043 1.93815 102.29 2.04758C102.536 2.15701 102.646 2.56402 102.89 2.68113C103.133 2.79824 103.375 2.90767 103.616 3.03246C103.855 3.15725 104.136 3.20141 104.37 3.33388C104.605 3.46635 104.894 3.50859 105.125 3.64874C105.356 3.78696 105.558 3.97511 105.785 4.12294C106.012 4.26885 106.241 4.41092 106.464 4.5645C106.688 4.71617 106.924 4.85056 107.144 5.00991C107.363 5.16734 107.592 5.31325 107.808 5.47835C108.022 5.64154 108.279 5.75673 108.489 5.9276C108.699 6.09654 108.92 6.25973 109.126 6.43444C109.332 6.60914 109.529 6.79921 109.731 6.97775C109.933 7.15822 110.11 7.36556 110.308 7.55179C110.504 7.73609 110.512 8.11814 110.705 8.30629C110.897 8.49443 111.209 8.56355 111.398 8.75745C111.586 8.95136 111.717 9.1971 111.902 9.39484C112.087 9.59259 112.433 9.64442 112.612 9.84601C112.791 10.0476 112.893 10.3202 113.068 10.5256C113.243 10.7311 113.388 10.9634 113.559 11.1726C113.73 11.3819 113.919 11.5777 114.084 11.7889C114.252 12.002 114.346 12.2689 114.508 12.4839C114.67 12.6989 114.983 12.8064 115.141 13.0253C115.299 13.2441 115.226 13.6243 115.38 13.847C115.534 14.0697 115.909 14.1407 116.059 14.3672C116.207 14.5919 116.296 14.8607 116.44 15.0872C116.585 15.3157 116.604 15.6209 116.743 15.8513C116.883 16.0817 117.177 16.2218 117.312 16.456C117.447 16.6903 117.638 16.8957 117.768 17.1318C117.899 17.368 118.001 17.6233 118.128 17.8614C118.253 18.1014 118.413 18.326 118.534 18.566C118.656 18.8079 118.577 19.1477 118.692 19.3915C118.808 19.6353 119.041 19.8273 119.15 20.0711C119.262 20.3188 119.281 20.6048 119.387 20.8525C119.493 21.1021 119.558 21.3651 119.658 21.6147C119.759 21.8662 120.092 22.0274 120.186 22.2809C120.282 22.5343 120.169 22.8645 120.257 23.1179C120.348 23.3733 120.569 23.5844 120.652 23.8398C120.736 24.097 120.84 24.3505 120.917 24.6077C120.996 24.8669 121.004 25.1472 121.075 25.4064C121.146 25.6675 121.048 25.9727 121.112 26.2319C121.177 26.4949 121.318 26.7368 121.375 26.9999C121.433 27.2648 121.418 27.5413 121.47 27.8043C121.522 28.0711 121.806 28.2938 121.851 28.5588C121.895 28.8276 121.905 29.1021 121.939 29.367C121.976 29.6358 121.722 29.9372 121.749 30.2041C121.776 30.4748 121.934 30.7282 121.953 30.9951C121.972 31.2658 122.138 31.5288 122.147 31.7956C122.157 32.0663 122.037 32.289 122.037 32.5578C121.651 32.6845 121.647 32.4868 121.241 32.4868C120.834 32.4868 120.834 32.6327 120.426 32.6327C120.02 32.6327 120.02 32.529 119.612 32.529C119.204 32.529 119.206 32.7018 118.798 32.7018C118.392 32.7018 118.392 32.5117 117.984 32.5117C117.578 32.5117 117.578 32.5943 117.17 32.5943C116.764 32.5943 116.764 32.4676 116.356 32.4676C115.948 32.4676 115.95 32.721 115.541 32.721C115.135 32.721 115.135 32.4829 114.727 32.4829C114.321 32.4829 114.321 32.5866 113.913 32.5866C113.505 32.5866 113.507 32.4618 113.099 32.4618C112.693 32.4618 112.693 32.4445 112.285 32.4445C111.879 32.4445 111.879 32.4599 111.471 32.4599C111.063 32.4599 111.065 32.4215 110.657 32.4215C110.25 32.4215 110.25 32.7229 109.842 32.7229C109.436 32.7229 109.436 32.7748 109.028 32.7748C108.622 32.7748 108.622 32.6999 108.214 32.6999C107.808 32.6999 107.808 32.4561 107.4 32.4561C106.994 32.4561 106.994 32.6135 106.586 32.6135C106.18 32.6135 106.18 32.746 105.772 32.746C105.365 32.746 105.365 32.5156 104.957 32.5156C104.549 32.5156 104.551 32.4772 104.143 32.4772C103.737 32.4772 103.737 32.4983 103.329 32.4983C102.923 32.4983 102.923 32.5271 102.515 32.5271C102.109 32.5271 102.109 32.746 101.703 32.746C101.297 32.746 101.297 32.6269 100.89 32.6269C100.484 32.6269 100.484 32.7728 100.078 32.7728C99.6721 32.7728 99.6721 32.7191 99.266 32.7191C98.8599 32.7191 98.8599 32.698 98.4518 32.698C98.0457 32.698 98.0457 32.5713 97.6377 32.5713C97.2316 32.5713 97.2316 32.5693 96.8235 32.5693C96.4174 32.5693 96.4174 32.7114 96.0094 32.7114C95.6033 32.7114 95.6033 32.5559 95.1952 32.5559C94.7891 32.5559 94.7891 32.5367 94.3811 32.5367C93.975 32.5367 93.9749 32.6615 93.5669 32.6615C93.1608 32.6615 93.1608 32.6423 92.7527 32.6423C92.3466 32.6423 92.3466 32.4618 91.9386 32.4618C91.5324 32.4618 91.5324 32.7978 91.1244 32.7978C90.7183 32.7978 90.7183 32.7613 90.3102 32.7613C89.9041 32.7613 89.9041 32.5098 89.4961 32.5098C89.0881 32.5098 89.0881 32.7767 88.6819 32.7767C88.2758 32.7767 88.2758 32.5674 87.8678 32.5674C87.4617 32.5674 87.4617 32.794 87.0536 32.794C86.6475 32.794 86.6475 32.6404 86.2395 32.6404C85.8314 32.6404 85.8314 32.5098 85.4253 32.5098C85.0192 32.5098 85.0192 32.5578 84.6112 32.5578C84.205 32.5578 84.2051 32.5117 83.797 32.5117C83.389 32.5117 83.3889 32.4657 82.9828 32.4657C82.5767 32.4657 82.5767 32.6557 82.1687 32.6557C81.7606 32.6557 81.7606 32.5271 81.3545 32.5271C80.9465 32.5271 80.9465 32.4964 80.5403 32.4964C80.1323 32.4964 80.1323 32.5809 79.7262 32.5809C79.3201 32.5809 79.3182 32.6442 78.912 32.6442C78.504 32.6442 78.504 32.721 78.0979 32.721C77.6898 32.721 77.6898 32.4829 77.2837 32.4829C76.8757 32.4829 76.8757 32.4829 76.4696 32.4829C76.0635 32.4829 76.0635 32.8016 75.6554 32.8016C75.2474 32.8016 75.2474 32.4637 74.8413 32.4637C74.4351 32.4637 74.4351 32.7498 74.0271 32.7498C73.6191 32.7498 73.619 32.7498 73.2129 32.7498C72.8049 32.7498 72.8049 32.5137 72.3987 32.5137C71.9907 32.5137 71.9907 32.4349 71.5846 32.4349C71.1765 32.4349 71.1766 32.5348 70.7704 32.5348C70.3624 32.5348 70.3624 32.5348 69.9563 32.5348C69.5482 32.5348 69.5482 32.8036 69.1421 32.8036C68.7341 32.8036 68.7341 32.792 68.328 32.792C67.9199 32.792 67.9199 32.7882 67.5138 32.7882C67.1058 32.7882 67.1058 32.6884 66.6977 32.6884C66.2897 32.6884 66.2858 32.5617 65.8836 32.6231C65.4717 32.6807 65.4428 32.7997 65.0559 32.673Z" fill="#DF856A"/>
<path d="M123.167 40.8017C122.761 40.8017 122.761 40.7959 122.357 40.7959C121.951 40.7959 121.951 41.0493 121.547 41.0493C121.14 41.0493 121.141 41.032 120.736 41.032C120.33 41.032 120.33 41.0359 119.926 41.0359C119.52 41.0359 119.52 40.986 119.116 40.986C118.71 40.986 118.71 41.128 118.305 41.128C117.899 41.128 117.899 40.8228 117.495 40.8228C117.089 40.8228 117.089 40.9514 116.685 40.9514C116.279 40.9514 116.279 40.9668 115.874 40.9668C115.468 40.9668 115.468 41.0935 115.064 41.0935C114.658 41.0935 114.658 40.8458 114.254 40.8458C113.848 40.8458 113.848 40.9821 113.444 40.9821C113.039 40.9821 113.037 41.0666 112.633 41.0666C112.227 41.0666 112.227 40.7748 111.823 40.7748C111.417 40.7748 111.417 41.1011 111.013 41.1011C110.607 41.1011 110.607 40.8381 110.202 40.8381C109.796 40.8381 109.796 40.8612 109.392 40.8612C108.986 40.8612 108.986 41.0263 108.582 41.0263C108.176 41.0263 108.176 41.1376 107.771 41.1376C107.365 41.1376 107.365 41.0627 106.961 41.0627C106.555 41.0627 106.555 40.8631 106.151 40.8631C105.745 40.8631 105.745 40.8669 105.341 40.8669C104.934 40.8669 104.934 40.7844 104.53 40.7844C104.126 40.7844 104.124 41.1357 103.72 41.1357C103.314 41.1357 103.314 41.0954 102.91 41.0954C102.503 41.0954 102.503 41.0954 102.099 41.0954C101.693 41.0954 101.693 40.9572 101.289 40.9572C100.885 40.9572 100.885 40.9591 100.479 40.9591C100.074 40.9591 100.075 40.8496 99.6684 40.8496C99.2623 40.8496 99.2642 40.9303 98.8581 40.9303C98.4539 40.9303 98.4539 40.8439 98.0477 40.8439C97.6436 40.8439 97.6436 40.84 97.2374 40.84C96.8313 40.84 96.8313 41.0301 96.4272 41.0301C96.023 41.0301 96.021 40.9744 95.6169 40.9744C95.2107 40.9744 95.2107 41.0493 94.8066 41.0493C94.4024 41.0493 94.4024 41.0282 93.9963 41.0282C93.5901 41.0282 93.592 41.0704 93.1859 41.0704C92.7798 41.0704 92.7798 40.9514 92.3756 40.9514C91.9695 40.9514 91.9695 40.938 91.5653 40.938C91.1592 40.938 91.1592 40.9303 90.755 40.9303C90.3489 40.9303 90.3489 41.0532 89.9447 41.0532C89.5386 41.0532 89.5386 40.89 89.1344 40.89C88.7283 40.89 88.7283 40.8804 88.3241 40.8804C87.918 40.8804 87.918 40.9821 87.5119 40.9821C87.1057 40.9821 87.1057 41.0301 86.7016 41.0301C86.2954 41.0301 86.2955 40.7901 85.8913 40.7901C85.4851 40.7901 85.4852 41.1549 85.081 41.1549C84.6748 41.1549 84.6749 41.1453 84.2707 41.1453C83.8645 41.1453 83.8646 40.8592 83.4604 40.8592C83.0543 40.8592 83.0542 40.8554 82.65 40.8554C82.2439 40.8554 82.2439 40.865 81.8378 40.865C81.4317 40.865 81.4317 40.9284 81.0275 40.9284C80.6214 40.9284 80.6214 40.9956 80.2153 40.9956C79.8092 40.9956 79.8092 40.8017 79.405 40.8017C78.9989 40.8017 78.9989 40.9168 78.5928 40.9168C78.1866 40.9168 78.1866 41.0532 77.7805 41.0532C77.3744 41.0532 77.3744 41.0666 76.9683 41.0666C76.5621 41.0666 76.5621 41.1261 76.156 41.1261C75.7499 41.1261 75.7499 41.0128 75.3438 41.0128C74.9396 41.0128 74.9396 40.9111 74.5335 40.9111C74.1274 40.9111 74.1274 40.8381 73.7213 40.8381C73.3152 40.8381 73.3152 40.9533 72.911 40.9533C72.5049 40.9533 72.5049 40.8017 72.0988 40.8017C71.6927 40.8017 71.6926 41.1415 71.2884 41.1415C70.8823 41.1415 70.8823 40.8266 70.4762 40.8266C70.0701 40.8266 70.0701 41.1472 69.664 41.1472C69.2579 41.1472 69.2579 40.9476 68.8517 40.9476C68.4456 40.9476 68.4456 40.8804 68.0395 40.8804C67.6334 40.8804 67.6334 41.0224 67.2273 41.0224C66.8212 41.0224 66.8212 41.1453 66.4151 41.1453C66.009 41.1453 66.009 40.7805 65.6029 40.7805C65.1967 40.7805 65.1967 40.9092 64.7906 40.9092C64.3845 40.9092 64.3845 41.0647 63.9784 41.0647C63.7108 41.0647 63.4606 40.8554 63.2027 40.8189C62.9391 40.7805 62.6677 40.8208 62.4174 40.746C62.1634 40.6711 61.8516 40.7172 61.6129 40.6097C61.3723 40.5002 61.2953 40.0913 61.0759 39.9512C60.8546 39.8091 60.639 39.692 60.4388 39.5192C60.2406 39.3464 59.9423 39.2811 59.769 39.0815C59.5958 38.8837 59.5689 38.5823 59.4264 38.3615C59.284 38.1407 58.978 38.0121 58.8683 37.7721C58.7586 37.5341 58.7355 37.2557 58.6604 37.0023C58.5873 36.7527 58.4929 36.4993 58.4564 36.2362C58.4198 35.979 58.6334 35.7102 58.6334 35.4434C58.6334 35.1765 58.595 34.9327 58.6315 34.6754C58.67 34.4124 58.5815 34.134 58.6546 33.8825C58.7297 33.6291 58.9279 33.4294 59.0376 33.1914C59.1473 32.9514 59.1935 32.6864 59.336 32.4657C59.4784 32.2449 59.6516 32.0491 59.8249 31.8513C59.9981 31.6536 60.0385 31.3061 60.2367 31.1333C60.435 30.9605 60.7449 30.9087 60.9662 30.7647C61.1875 30.6226 61.4089 30.4633 61.6495 30.3519C61.8881 30.2425 62.1345 30.1139 62.3885 30.039C62.6388 29.966 62.9159 29.9372 63.1796 29.8988C63.4375 29.8624 63.7108 29.824 63.9784 29.824C64.3845 29.824 64.3845 29.9449 64.7887 29.9449C65.1948 29.9449 65.1948 29.7644 65.599 29.7644C66.0051 29.7644 66.0051 30.0505 66.4093 30.0505C66.8154 30.0505 66.8154 29.7644 67.2196 29.7644C67.6257 29.7644 67.6257 29.7798 68.0299 29.7798C68.436 29.7798 68.436 30.0678 68.8402 30.0678C69.2463 30.0678 69.2463 29.8124 69.6505 29.8124C70.0566 29.8124 70.0566 30.0313 70.4608 30.0313C70.8669 30.0313 70.8669 30.1004 71.2711 30.1004C71.6772 30.1004 71.6772 29.7856 72.0814 29.7856C72.4875 29.7856 72.4875 29.7952 72.8917 29.7952C73.2978 29.7952 73.2978 29.8182 73.702 29.8182C74.1062 29.8182 74.1081 29.8086 74.5123 29.8086C74.9184 29.8086 74.9185 29.9891 75.3227 29.9891C75.7288 29.9891 75.7288 29.7971 76.133 29.7971C76.5391 29.7971 76.5391 29.9545 76.9433 29.9545C77.3475 29.9545 77.3494 29.9411 77.7536 29.9411C78.1597 29.9411 78.1597 29.7376 78.5639 29.7376C78.97 29.7376 78.97 29.751 79.3742 29.751C79.7803 29.751 79.7803 30.0889 80.1845 30.0889C80.5906 30.0889 80.5906 29.8086 80.9948 29.8086C81.4009 29.8086 81.4009 29.7395 81.8051 29.7395C82.2112 29.7395 82.2112 29.9334 82.6154 29.9334C83.0196 29.9334 83.0215 30.0697 83.4257 30.0697C83.8318 30.0697 83.8318 29.728 84.236 29.728C84.6421 29.728 84.6421 29.9795 85.0463 29.9795C85.4524 29.9795 85.4524 29.7702 85.8566 29.7702C86.2608 29.7702 86.2608 29.8182 86.6669 29.8182C87.0711 29.8182 87.0711 30.0947 87.4772 30.0947C87.8833 30.0947 87.8814 29.7337 88.2875 29.7337C88.6917 29.7337 88.6917 29.8816 89.0978 29.8816C89.502 29.8816 89.502 29.8412 89.9082 29.8412C90.3143 29.8412 90.3143 29.7568 90.7185 29.7568C91.1227 29.7568 91.1246 30.0774 91.5288 30.0774C91.9349 30.0774 91.9349 29.8297 92.3391 29.8297C92.7432 29.8297 92.7432 29.7241 93.1494 29.7241C93.5555 29.7241 93.5535 29.9065 93.9597 29.9065C94.3658 29.9065 94.3658 30.0121 94.77 30.0121C95.1761 30.0121 95.1761 30.0198 95.5803 30.0198C95.9864 30.0198 95.9864 29.847 96.3906 29.847C96.7967 29.847 96.7967 29.9545 97.2009 29.9545C97.6051 29.9545 97.607 29.774 98.0112 29.774C98.4173 29.774 98.4173 29.8681 98.8215 29.8681C99.2276 29.8681 99.2276 29.7932 99.6337 29.7932C100.04 29.7932 100.04 30.062 100.444 30.062C100.85 30.062 100.85 29.7548 101.254 29.7548C101.66 29.7548 101.66 29.9142 102.065 29.9142C102.471 29.9142 102.471 29.8624 102.877 29.8624C103.283 29.8624 103.283 29.8336 103.687 29.8336C104.093 29.8336 104.093 29.7472 104.497 29.7472C104.904 29.7472 104.904 29.9641 105.31 29.9641C105.716 29.9641 105.716 29.9334 106.12 29.9334C106.526 29.9334 106.526 29.822 106.932 29.822C107.338 29.822 107.338 30.0351 107.743 30.0351C108.149 30.0351 108.149 29.8259 108.555 29.8259C108.961 29.8259 108.961 29.7606 109.365 29.7606C109.771 29.7606 109.771 29.9276 110.177 29.9276C110.583 29.9276 110.583 29.8067 110.99 29.8067C111.396 29.8067 111.396 30.0831 111.802 30.0831C112.208 30.0831 112.208 29.9814 112.612 29.9814C113.018 29.9814 113.018 29.8297 113.424 29.8297C113.83 29.8297 113.83 29.7836 114.235 29.7836C114.641 29.7836 114.641 29.8585 115.047 29.8585C115.453 29.8585 115.453 29.799 115.857 29.799C116.263 29.799 116.263 29.7318 116.669 29.7318C117.075 29.7318 117.075 29.9391 117.482 29.9391C117.888 29.9391 117.888 29.7817 118.294 29.7817C118.7 29.7817 118.7 29.8758 119.106 29.8758C119.512 29.8758 119.512 30.0371 119.918 30.0371C120.324 30.0371 120.324 29.9756 120.731 29.9756C121.137 29.9756 121.137 29.8201 121.543 29.8201C121.949 29.8201 121.949 29.8854 122.355 29.8854C122.761 29.8854 122.761 29.8105 123.167 29.8105C123.435 29.8105 123.693 29.9699 123.951 30.0063C124.214 30.0447 124.518 29.9295 124.769 30.0025C125.023 30.0774 125.215 30.3404 125.454 30.4498C125.694 30.5593 125.972 30.6053 126.193 30.7474C126.414 30.8895 126.614 31.0738 126.813 31.2466C127.011 31.4193 127.261 31.5557 127.434 31.7553C127.608 31.9531 127.813 32.1508 127.958 32.3735C128.1 32.5943 128.006 32.9495 128.116 33.1894C128.225 33.4275 128.312 33.6598 128.387 33.9152C128.46 34.1647 128.537 34.4047 128.576 34.6677C128.612 34.925 128.762 35.1765 128.762 35.4434C128.762 35.7102 128.77 35.9848 128.732 36.242C128.693 36.505 128.443 36.7181 128.37 36.9677C128.295 37.2211 128.245 37.4688 128.135 37.7069C128.025 37.9468 128.123 38.3097 127.981 38.5305C127.838 38.7513 127.475 38.8204 127.303 39.02C127.13 39.2178 127.032 39.4942 126.834 39.6651C126.636 39.8379 126.381 39.9454 126.158 40.0875C125.937 40.2295 125.71 40.362 125.467 40.4714C125.229 40.5809 125.025 40.817 124.769 40.8919C124.518 40.9648 124.226 40.938 123.962 40.9764C123.708 41.0109 123.435 40.8017 123.167 40.8017Z" fill="#373B74"/>
</svg>
