<svg width="197" height="187" viewBox="0 0 197 187" fill="none" xmlns="http://www.w3.org/2000/svg">
<path d="M175.346 86.6537C175.115 86.6537 174.878 86.6307 174.626 86.5827L174.587 86.575C174.306 86.5443 174.06 86.4867 173.844 86.4176C173.625 86.4445 173.379 86.4541 173.109 86.4329C172.853 86.4579 172.551 86.4694 172.155 86.4253C172.001 86.408 171.925 86.4022 171.848 86.3965C171.723 86.3869 171.596 86.3773 171.348 86.3485C170.992 86.3081 170.767 86.2582 170.584 86.2122L170.549 86.2064C170.097 86.1565 169.733 86.0394 169.443 85.9088C169.406 85.9069 169.368 85.905 169.327 85.9031C169.008 85.9703 168.615 86.0086 168.13 85.9549C167.76 85.9127 167.527 85.8589 167.337 85.8109L167.331 85.809C166.96 85.7668 166.704 85.7053 166.486 85.6439C166.367 85.6285 166.255 85.6112 166.149 85.5882C165.747 85.6976 165.329 85.7284 164.9 85.6804C164.45 85.6304 164.032 85.498 163.649 85.2868C163.549 85.283 163.443 85.2753 163.33 85.2638C163.128 85.2714 162.881 85.2753 162.504 85.233C162.323 85.2138 162.233 85.2042 162.142 85.1946C162.069 85.187 161.996 85.1812 161.89 85.1697C161.619 85.2042 161.297 85.2215 160.881 85.1754C160.614 85.1447 160.373 85.089 160.158 85.018C159.892 85.0564 159.594 85.0679 159.267 85.0314C158.743 84.9739 158.335 84.8241 158.025 84.6705C157.992 84.6628 157.962 84.6571 157.931 84.6494C157.629 84.7051 157.273 84.73 156.861 84.684C156.48 84.6417 156.214 84.5745 155.989 84.5073C155.827 84.4901 155.735 84.4785 155.642 84.467C155.583 84.4593 155.523 84.4517 155.438 84.4421C155.169 84.4747 154.851 84.49 154.441 84.444C153.966 84.3902 153.6 84.2731 153.317 84.1483C153.119 84.1138 152.961 84.0734 152.819 84.0331C152.559 84.0024 152.409 83.9775 152.297 83.9583C152.238 83.9487 152.178 83.9371 152.057 83.9237C151.955 83.9122 151.928 83.9103 151.853 83.9083C151.843 83.9083 151.833 83.9083 151.824 83.9064C151.466 84.012 150.986 84.0926 150.413 84.0293C149.988 83.9813 149.674 83.893 149.422 83.8008C149.048 83.7413 148.75 83.6415 148.509 83.5378C148.4 83.5205 148.309 83.5052 148.223 83.4879C148.167 83.4783 148.142 83.4725 148.092 83.4668C147.965 83.4745 147.826 83.4802 147.663 83.4764C147.328 83.5551 146.906 83.6069 146.392 83.5493C146.088 83.5148 145.817 83.4476 145.58 83.3612C145.339 83.3881 145.074 83.3938 144.785 83.3612C144.498 83.3285 144.321 83.2978 144.165 83.2671C144.113 83.2575 144.09 83.2518 144.046 83.2479C143.815 83.2633 143.547 83.2671 143.172 83.2268C142.862 83.1922 142.602 83.1308 142.379 83.0578C142.142 83.0809 141.873 83.0828 141.561 83.0482C141.392 83.029 141.307 83.0214 141.222 83.0137C141.105 83.0041 140.99 82.9926 140.757 82.9657C140.164 82.9004 139.702 82.7046 139.373 82.5145C139.09 82.5587 138.757 82.576 138.364 82.5318C138.035 82.4953 137.777 82.4339 137.562 82.3686C137.408 82.3801 137.234 82.384 137.038 82.3744C136.746 82.4224 136.384 82.4512 135.933 82.3993C135.76 82.3801 135.673 82.3725 135.585 82.3648C135.469 82.3533 135.356 82.3437 135.127 82.3187C134.734 82.2745 134.447 82.1997 134.218 82.1248C134.037 82.1037 133.918 82.0845 133.797 82.0653C133.731 82.0557 133.664 82.0442 133.531 82.0288C131.947 81.8522 130.806 80.4276 130.983 78.8457C131.16 77.2657 132.588 76.1253 134.174 76.3038C134.442 76.3345 134.576 76.3557 134.709 76.3768C134.777 76.3883 134.842 76.3979 134.977 76.4132C135.369 76.4574 135.654 76.5323 135.883 76.6052C135.987 76.6168 136.055 76.6225 136.12 76.6283C136.18 76.634 136.241 76.6398 136.318 76.6475C136.57 76.6072 136.873 76.5841 137.236 76.611C137.498 76.5822 137.808 76.5688 138.214 76.6148C138.464 76.6436 138.674 76.6839 138.855 76.7319C139.132 76.6916 139.454 76.6763 139.833 76.7185C140.216 76.7607 140.485 76.8299 140.712 76.899C141.213 76.9662 141.617 77.1255 141.919 77.2906C142.216 77.2388 142.579 77.21 143.026 77.2599C143.411 77.3021 143.723 77.3885 143.975 77.4826C144.156 77.4788 144.365 77.4845 144.627 77.5152C144.731 77.5268 144.822 77.5383 144.901 77.5498C145.262 77.4442 145.722 77.3751 146.265 77.4365C146.654 77.4807 146.987 77.5786 147.266 77.6995C147.43 77.6919 147.607 77.6957 147.797 77.7149C148.028 77.7015 148.298 77.6957 148.675 77.7379C148.958 77.7706 149.125 77.7994 149.287 77.8282C149.36 77.8416 149.381 77.8455 149.478 77.857C149.957 77.9107 150.324 78.0317 150.609 78.1565C150.663 78.1661 150.715 78.1776 150.767 78.1891C151.081 78.1238 151.458 78.0912 151.889 78.1392C151.989 78.1507 152.018 78.1507 152.091 78.1546C152.251 78.1622 152.418 78.1699 152.698 78.2006C152.979 78.2313 153.14 78.2582 153.26 78.2793C153.319 78.2889 153.379 78.3005 153.5 78.3139C153.868 78.3542 154.122 78.4156 154.337 78.4771C154.674 78.5174 154.953 78.5923 155.186 78.6748C155.392 78.6633 155.625 78.6671 155.902 78.6979C156.118 78.7209 156.224 78.7343 156.331 78.7478C156.424 78.7593 156.52 78.7708 156.707 78.7919C156.907 78.815 157.076 78.8438 157.224 78.8764C157.534 78.8169 157.904 78.7881 158.333 78.8361C158.737 78.8822 159.034 78.9609 159.269 79.0396C159.417 79.0626 159.557 79.0914 159.686 79.126C159.994 79.0646 160.35 79.0396 160.751 79.0838C161.197 79.1337 161.57 79.2565 161.871 79.3986C162.013 79.3986 162.171 79.4082 162.342 79.4274C162.523 79.4485 162.614 79.4562 162.706 79.4658C162.814 79.4773 162.924 79.4869 163.135 79.51C163.285 79.5042 163.462 79.5004 163.701 79.5176C163.986 79.4735 164.34 79.4485 164.781 79.4965C165.058 79.5272 165.322 79.5887 165.574 79.6808C165.841 79.6463 166.113 79.6444 166.392 79.6751C166.873 79.7288 167.241 79.8498 167.527 79.9765C167.724 80.011 167.882 80.0514 168.022 80.0917C168.232 80.1166 168.396 80.1454 168.532 80.1762C168.827 80.1262 169.177 80.1032 169.598 80.1493C169.624 80.1512 169.641 80.155 169.656 80.155H169.699C169.879 80.155 170.083 80.1608 170.409 80.1953C170.923 80.2529 171.325 80.3969 171.631 80.5467C171.758 80.5697 171.862 80.5947 171.956 80.6177L171.991 80.6235C172.143 80.6408 172.218 80.6465 172.295 80.6523C172.397 80.66 172.499 80.6676 172.67 80.6849C172.805 80.6715 172.951 80.6638 173.115 80.6638C173.465 80.5736 173.906 80.514 174.445 80.5736C174.451 80.5736 174.455 80.5755 174.46 80.5755C174.807 80.1723 175.182 79.9112 175.513 79.7423C175.519 79.7346 175.527 79.725 175.532 79.7173C175.64 79.485 175.792 79.2162 176.025 78.9244C176.148 78.694 176.308 78.4329 176.57 78.1238C176.87 77.7706 177.161 77.5402 177.417 77.3751C177.455 77.3309 177.49 77.2925 177.523 77.2561C177.576 77.1946 177.63 77.1351 177.728 77.0199C177.844 76.8279 177.986 76.6091 178.227 76.3269C178.373 76.156 178.521 76.0101 178.668 75.8872C178.789 75.6088 178.96 75.3151 179.209 75.0233C179.466 74.7199 179.734 74.4972 179.99 74.3321C180.086 74.1805 180.202 74.0173 180.344 73.8502C180.529 73.6333 180.718 73.4586 180.9 73.3165C181.018 73.0842 181.172 72.8404 181.383 72.5927C181.593 72.3451 181.79 72.1627 181.971 72.0206C182.084 71.819 182.23 71.5963 182.44 71.3506C182.673 71.0761 182.842 70.9167 182.983 70.79L183.008 70.765C183.302 70.4176 183.587 70.1891 183.832 70.0278C183.913 69.9376 183.978 69.8685 184.043 69.8013C184.097 69.7456 184.122 69.7207 184.194 69.6343C184.348 69.4538 184.426 69.3655 184.505 69.2752C184.561 69.2119 184.619 69.1485 184.729 69.0199C184.85 68.8778 184.91 68.8049 184.969 68.7339C184.983 68.7166 184.996 68.7012 185.012 68.6839C185.135 68.3806 185.323 68.0235 185.637 67.6549C185.806 67.4552 185.955 67.3074 186.091 67.1845C186.213 66.9349 186.38 66.6585 186.632 66.3609C186.884 66.0633 187.142 65.8464 187.383 65.6851C187.481 65.5296 187.602 65.3607 187.758 65.1764C187.903 65.0074 187.976 64.9229 188.047 64.8404C188.108 64.7694 188.17 64.7002 188.289 64.5582C188.445 64.3739 188.599 64.2222 188.747 64.0974C188.869 63.8344 189.038 63.5503 189.284 63.2623C189.487 63.0242 189.623 62.8879 189.746 62.767C189.754 62.7593 189.76 62.7535 189.766 62.7478C189.883 62.5327 190.041 62.2793 190.295 61.9798C190.624 61.592 190.978 61.3367 191.296 61.1639C191.417 60.8414 191.606 60.4843 191.906 60.1329C192.938 58.9196 194.758 58.7698 195.975 59.7989C196.952 60.6244 197.241 61.9606 196.781 63.0818C196.7 63.508 196.506 64.0993 196.013 64.6791C195.8 64.9306 195.651 65.0746 195.519 65.2013L195.486 65.232C195.476 65.2416 195.465 65.2551 195.449 65.2724C195.139 65.6371 194.805 65.8867 194.502 66.0576C194.429 66.1613 194.343 66.2726 194.242 66.3897C194.133 66.5183 194.042 66.6182 193.963 66.7007C193.842 67.0233 193.65 67.3861 193.334 67.7566C193.04 68.1022 192.755 68.3307 192.508 68.4939C192.468 68.5399 192.435 68.5783 192.402 68.6167C192.362 68.6628 192.324 68.7089 192.266 68.7742C192.143 69.0122 191.979 69.281 191.713 69.592C191.492 69.8531 191.267 70.0509 191.053 70.2064C190.945 70.3964 190.807 70.598 190.628 70.8092C190.476 70.9878 190.339 71.1279 190.214 71.2431C190.093 71.51 189.916 71.8114 189.654 72.1205C189.535 72.2606 189.475 72.3336 189.415 72.4046C189.344 72.491 189.273 72.5755 189.129 72.7444C188.975 72.9249 188.896 73.0132 188.817 73.1034C188.761 73.1668 188.703 73.2301 188.593 73.3588C188.416 73.5661 188.305 73.6832 188.197 73.7965C188.143 73.8522 188.118 73.8771 188.047 73.9635C187.749 74.3129 187.462 74.5433 187.215 74.7065C187.11 74.8198 187.019 74.9081 186.936 74.9849C186.815 75.2191 186.653 75.4783 186.401 75.7759C186.263 75.9371 186.132 76.0715 186.007 76.1848C185.883 76.4708 185.704 76.7819 185.437 77.0967C185.198 77.377 184.954 77.5882 184.721 77.7475C184.619 77.9184 184.49 78.1008 184.328 78.2928C184.17 78.4771 184.011 78.6326 183.851 78.7612C183.732 79.0262 183.564 79.3045 183.329 79.581C183.035 79.9266 182.729 80.1666 182.448 80.3374C182.367 80.4507 182.271 80.5774 182.151 80.7195C182.001 80.8961 181.924 80.9825 181.847 81.0708C181.79 81.1361 181.732 81.2013 181.618 81.3357C181.38 81.618 181.145 81.8215 180.929 81.977C180.862 82.0883 180.783 82.2054 180.687 82.3302C180.564 82.5952 180.386 82.9062 180.096 83.2479C180.079 83.2671 180.067 83.2825 180.057 83.2959L180.032 83.3343C179.93 83.4821 179.815 83.6492 179.603 83.8968C179.247 84.3153 178.86 84.5822 178.521 84.7531C178.148 85.4999 177.549 86.0394 176.735 86.3638C176.239 86.5596 175.802 86.6537 175.346 86.6537ZM134.334 82.1402H134.336H134.334ZM167.173 79.9285C167.175 79.9285 167.175 79.9285 167.177 79.9285C167.175 79.9285 167.173 79.9285 167.173 79.9285Z" fill="#F0DDE6"/>
<path d="M127.54 186.803C127.383 186.803 127.223 186.789 127.061 186.763C125.489 186.5 124.426 185.016 124.69 183.447C124.728 183.213 124.78 183.013 124.836 182.838C124.803 182.547 124.803 182.209 124.867 181.825C124.911 181.56 124.981 181.324 125.063 181.114C125.038 180.844 125.042 180.542 125.098 180.214C125.169 179.79 125.277 179.483 125.383 179.235C125.437 178.987 125.512 178.768 125.596 178.574C125.589 178.352 125.602 178.104 125.648 177.831C125.712 177.447 125.797 177.181 125.881 176.954C125.904 176.825 125.927 176.716 125.951 176.622C125.891 176.284 125.872 175.881 125.951 175.409L126.083 174.606C126.145 174.234 126.224 173.978 126.301 173.761C126.361 173.433 126.455 173.155 126.559 172.919C126.557 172.736 126.568 172.535 126.603 172.31C126.597 172.07 126.605 171.792 126.67 171.41C126.722 171.097 126.772 170.907 126.817 170.738C126.834 170.676 126.834 170.676 126.844 170.615C126.869 170.463 126.878 170.388 126.89 170.311C126.907 170.187 126.923 170.06 126.965 169.81C127.044 169.346 127.179 168.991 127.317 168.716C127.344 168.591 127.367 168.491 127.392 168.401C127.409 168.334 127.413 168.321 127.427 168.24L127.521 167.685C127.494 167.42 127.486 167.1 127.542 166.714C127.535 166.47 127.542 166.188 127.608 165.8C127.633 165.65 127.642 165.573 127.652 165.498C127.669 165.372 127.685 165.247 127.727 164.995C127.771 164.736 127.798 164.606 127.825 164.477C127.841 164.408 127.854 164.337 127.879 164.197C127.931 163.891 128.012 163.627 128.106 163.398C128.095 163.158 128.104 162.891 128.154 162.596C128.181 162.436 128.193 162.354 128.204 162.273C128.222 162.152 128.237 162.033 128.278 161.793C128.316 161.561 128.339 161.444 128.36 161.328C128.376 161.246 128.393 161.161 128.42 160.994C128.476 160.666 128.56 160.392 128.653 160.161C128.649 159.963 128.659 159.745 128.693 159.495C128.686 159.251 128.693 158.967 128.759 158.579C128.824 158.195 128.907 157.926 128.992 157.702C129.036 157.471 129.096 157.266 129.165 157.084C129.142 156.817 129.149 156.517 129.205 156.185C129.244 155.959 129.265 155.845 129.286 155.732C129.301 155.646 129.319 155.557 129.348 155.385C129.425 154.926 129.557 154.574 129.696 154.3L129.779 153.81C129.79 153.739 129.792 153.732 129.796 153.666C129.81 153.497 129.825 153.307 129.877 153.004L129.881 152.96C129.889 152.774 129.902 152.545 129.96 152.196C130.002 151.948 130.039 151.783 130.073 151.643C130.041 151.351 130.037 151 130.108 150.575C130.175 150.168 130.302 149.827 130.447 149.548C130.379 149.433 130.316 149.306 130.258 149.168C130.216 149.068 130.181 148.97 130.152 148.876C130.014 148.732 129.875 148.561 129.736 148.356C129.465 147.951 129.315 147.555 129.234 147.204C129.171 147.123 129.103 147.037 129.038 146.941C128.882 146.776 128.707 146.578 128.499 146.267C128.358 146.058 128.289 145.949 128.224 145.841C127.987 145.647 127.727 145.386 127.475 145.014C127.223 144.639 127.082 144.315 126.994 144.048C126.934 143.946 126.882 143.844 126.838 143.746C126.601 143.554 126.362 143.309 126.149 142.988C125.87 142.573 125.72 142.184 125.637 141.848C125.356 141.644 125.061 141.364 124.802 140.978C124.572 140.638 124.438 140.346 124.347 140.097C124.257 139.982 124.155 139.851 124.012 139.646C123.853 139.479 123.674 139.279 123.464 138.966C123.402 138.876 123.383 138.851 123.337 138.789C123.242 138.667 123.144 138.538 122.992 138.313C122.8 138.029 122.669 137.749 122.58 137.49C122.43 137.338 122.278 137.158 122.136 136.944C121.918 136.622 121.787 136.344 121.695 136.102C121.583 135.973 121.453 135.81 121.291 135.57C121.206 135.443 121.16 135.382 121.116 135.318C121.05 135.228 120.987 135.14 120.875 134.977C120.71 134.808 120.525 134.602 120.311 134.285C120.107 133.982 119.978 133.717 119.888 133.489C119.757 133.345 119.612 133.168 119.447 132.924C119.218 132.586 119.079 132.275 118.989 132.007C118.902 131.905 118.806 131.784 118.698 131.628C118.527 131.459 118.327 131.241 118.105 130.912C118.067 130.857 118.065 130.853 118.025 130.803C117.917 130.67 117.797 130.521 117.624 130.265C117.418 129.958 117.282 129.659 117.193 129.386C117.06 129.244 116.924 129.079 116.793 128.883C116.677 128.71 116.618 128.624 116.56 128.536C116.506 128.455 116.452 128.374 116.344 128.213C116.186 127.979 116.102 127.837 116.042 127.735C116.011 127.683 115.981 127.631 115.913 127.531C115.684 127.192 115.551 126.906 115.461 126.666L115.409 126.589C115.099 126.383 114.741 126.076 114.431 125.613C114.277 125.383 114.162 125.162 114.075 124.953C113.883 124.778 113.69 124.561 113.509 124.293C113.326 124.02 113.228 123.841 113.143 123.68L113.124 123.642C113.118 123.632 113.109 123.619 113.097 123.601C112.208 122.281 112.56 120.491 113.885 119.604C115.209 118.717 117.003 119.069 117.892 120.39C117.98 120.52 118.05 120.631 118.105 120.727C118.386 120.933 118.683 121.215 118.954 121.618C119.097 121.831 119.206 122.037 119.289 122.231C119.495 122.411 119.707 122.638 119.899 122.926L120.35 123.594C120.581 123.937 120.713 124.224 120.806 124.467C120.904 124.619 120.966 124.721 121.012 124.801C121.043 124.853 121.073 124.905 121.141 125.005C121.258 125.18 121.316 125.268 121.376 125.354C121.381 125.362 121.387 125.37 121.391 125.377C121.647 125.577 121.924 125.848 122.188 126.241C122.475 126.667 122.625 127.08 122.704 127.422C122.744 127.476 122.788 127.537 122.836 127.606C123.004 127.771 123.2 127.985 123.414 128.301C123.552 128.451 123.718 128.639 123.93 128.954C124.151 129.284 124.29 129.586 124.38 129.851C124.494 129.981 124.617 130.137 124.755 130.342C124.955 130.64 125.084 130.899 125.173 131.125C125.31 131.273 125.458 131.452 125.623 131.699C125.708 131.826 125.754 131.889 125.798 131.951C125.872 132.053 125.945 132.154 126.085 132.362L126.091 132.369C126.22 132.513 126.376 132.694 126.582 133.001C126.707 133.187 126.803 133.358 126.88 133.518C127.109 133.709 127.346 133.955 127.565 134.284C127.866 134.731 128.018 135.167 128.093 135.526C128.131 135.579 128.174 135.639 128.22 135.708C128.38 135.873 128.559 136.075 128.768 136.388C128.816 136.459 128.826 136.47 128.868 136.526C128.969 136.653 129.08 136.795 129.244 137.039C129.328 137.163 129.4 137.282 129.459 137.394C129.742 137.597 130.041 137.879 130.302 138.269C130.529 138.607 130.66 138.885 130.753 139.118C130.835 139.252 130.907 139.383 130.964 139.509C131.203 139.701 131.444 139.949 131.659 140.272C131.975 140.74 132.125 141.18 132.202 141.542C132.231 141.6 132.258 141.656 132.281 141.711C132.468 141.884 132.662 142.103 132.853 142.385C132.999 142.602 133.066 142.714 133.136 142.823C133.168 142.877 133.201 142.931 133.263 143.023C133.384 143.149 133.515 143.297 133.665 143.501C133.878 143.689 134.113 143.933 134.356 144.292C134.604 144.66 134.75 145.023 134.835 145.35C134.931 145.461 135.026 145.586 135.122 145.726C135.37 146.094 135.511 146.465 135.593 146.766C135.838 147.087 136.107 147.544 136.227 148.141C136.352 148.765 136.281 149.279 136.236 149.571C136.281 149.886 136.3 150.28 136.217 150.775C136.15 151.182 136.021 151.524 135.878 151.804C135.872 151.973 135.857 152.155 135.822 152.357C135.774 152.645 135.732 152.82 135.693 152.975C135.676 153.044 135.672 153.063 135.657 153.152L135.653 153.196C135.645 153.382 135.632 153.611 135.574 153.96C135.563 154.031 135.561 154.039 135.557 154.104C135.543 154.273 135.528 154.463 135.476 154.766L135.339 155.567C135.262 156.028 135.128 156.379 134.989 156.656V156.657C135.066 157.02 135.101 157.46 135.012 157.982C134.924 158.51 134.748 158.915 134.569 159.22C134.539 159.336 134.506 159.439 134.471 159.533C134.473 159.689 134.467 159.862 134.444 160.069C134.477 160.365 134.487 160.728 134.412 161.177C134.335 161.641 134.198 161.995 134.057 162.273C134.048 162.325 134.038 162.371 134.031 162.415C134.015 162.5 133.998 162.582 133.971 162.751C133.944 162.912 133.932 162.993 133.921 163.074C133.919 163.081 133.919 163.091 133.917 163.099C133.984 163.448 134.015 163.878 133.93 164.391C133.842 164.915 133.667 165.32 133.484 165.631C133.48 165.644 133.478 165.658 133.474 165.673C133.459 165.742 133.445 165.813 133.42 165.953C133.395 166.103 133.386 166.18 133.376 166.255C133.363 166.364 133.347 166.474 133.316 166.662C133.322 166.842 133.318 167.046 133.289 167.299C133.322 167.591 133.33 167.952 133.255 168.397L133.12 169.198C133.07 169.494 133.026 169.674 132.985 169.833C132.968 169.901 132.964 169.914 132.951 169.995C132.876 170.442 132.747 170.786 132.616 171.056C132.616 171.062 132.614 171.068 132.614 171.074C132.597 171.198 132.581 171.325 132.539 171.575C132.487 171.888 132.437 172.078 132.393 172.247C132.387 172.27 132.383 172.285 132.379 172.297C132.383 172.462 132.379 172.646 132.356 172.871C132.395 173.176 132.408 173.55 132.329 174.011C132.241 174.541 132.063 174.946 131.884 175.251C131.848 175.391 131.809 175.51 131.771 175.62L131.725 175.9C131.798 176.255 131.829 176.691 131.742 177.208C131.686 177.542 131.628 177.753 131.58 177.924L131.569 177.964C131.569 177.97 131.565 177.983 131.563 178.002C131.525 178.227 131.48 178.413 131.434 178.573C131.469 178.868 131.473 179.22 131.405 179.625C131.321 180.131 131.153 180.527 130.976 180.834C131.038 181.172 131.059 181.573 130.982 182.026C130.922 182.382 130.818 182.685 130.699 182.942C130.703 183.149 130.687 183.376 130.647 183.622C130.572 184.063 130.456 184.386 130.343 184.641C130.008 185.916 128.845 186.803 127.54 186.803ZM131.642 176.355L131.64 176.361C131.642 176.359 131.642 176.357 131.642 176.355ZM129.636 154.607C129.636 154.609 129.636 154.611 129.634 154.613L129.636 154.607ZM136.202 149.832V149.834V149.832ZM136.225 149.471C136.225 149.473 136.225 149.473 136.225 149.475C136.225 149.473 136.225 149.473 136.225 149.471ZM115.093 126.132C115.095 126.134 115.095 126.136 115.097 126.138L115.093 126.132ZM114.991 125.56H114.993H114.991Z" fill="#F0DDE6"/>
<path d="M55.2035 177.019C55.2016 177.019 55.1996 177.019 55.1977 177.019C53.604 177.016 52.3126 175.723 52.3164 174.134C52.3164 173.773 52.3703 173.454 52.4492 173.178C52.4107 172.97 52.3876 172.74 52.3876 172.489C52.3876 172.247 52.4126 172.024 52.4511 171.822C52.3568 171.509 52.3106 171.185 52.3126 170.847C52.3126 170.463 52.3626 170.148 52.43 169.887C52.403 169.699 52.3838 169.478 52.3838 169.206C52.3838 169.184 52.3838 169.167 52.3838 169.152L52.3799 169.111C52.3607 168.927 52.3395 168.72 52.3414 168.384C52.3434 167.875 52.4492 167.447 52.5859 167.105C52.4704 166.783 52.3838 166.387 52.3857 165.923C52.3857 165.527 52.43 165.231 52.48 164.993C52.4781 164.942 52.4762 164.905 52.4742 164.869C52.4646 164.713 52.4569 164.552 52.4569 164.281C52.4569 163.88 52.5031 163.58 52.5551 163.339C52.5551 163.185 52.557 163.091 52.5589 162.999C52.5609 162.908 52.5628 162.82 52.5628 162.64C52.5628 162.279 52.5897 162.048 52.6147 161.86L52.6167 161.82C52.6167 161.628 52.6186 161.52 52.6186 161.422C52.5012 161.094 52.4069 160.683 52.4069 160.178C52.4069 159.902 52.4338 159.664 52.4704 159.455C52.4049 159.194 52.3607 158.89 52.3607 158.537C52.3607 158.282 52.3664 158.153 52.3703 158.024C52.3722 157.948 52.3761 157.871 52.3761 157.715C52.378 157.23 52.4684 156.826 52.5897 156.498C52.5878 156.477 52.5859 156.456 52.5859 156.433C52.4877 156.126 52.4069 155.742 52.4069 155.256C52.4069 154.943 52.4415 154.672 52.4935 154.438C52.4415 154.202 52.4088 153.929 52.4088 153.616C52.4088 153.265 52.4608 152.956 52.5339 152.685C52.4916 152.472 52.4665 152.236 52.4684 151.975C52.4684 151.641 52.5108 151.347 52.5762 151.092C52.532 150.869 52.5031 150.618 52.5031 150.335C52.5031 150.138 52.5166 149.955 52.5397 149.79C52.4396 149.483 52.3664 149.116 52.3684 148.694C52.3684 148.339 52.4165 148.032 52.4858 147.769C52.4473 147.559 52.4242 147.323 52.4242 147.056C52.4242 146.68 52.455 146.44 52.4839 146.244V146.236C52.4858 145.778 52.5551 145.419 52.6359 145.136C52.6417 145.015 52.6494 144.912 52.659 144.82C52.6013 144.608 52.5531 144.365 52.532 144.08C52.4473 143.789 52.3741 143.424 52.3761 142.957C52.378 142.497 52.4646 142.103 52.5839 141.779C52.5416 141.07 52.7475 140.471 52.9746 140.037C52.992 140.003 53.0055 139.974 53.0151 139.951C53.2499 139.442 53.5771 138.895 54.3681 138.348C54.678 138.133 54.9148 138.01 55.1226 137.914C55.2728 137.81 55.3536 137.755 55.4344 137.701C55.5133 137.647 55.5923 137.593 55.7482 137.486L55.7559 137.478C55.9002 137.346 56.0792 137.188 56.3833 136.977C56.6143 136.818 56.8433 136.697 57.0627 136.608C57.234 136.411 57.4458 136.215 57.7056 136.034C58.0501 135.794 58.3908 135.647 58.693 135.554C58.8142 135.443 58.9547 135.332 59.1183 135.218C59.384 135.034 59.5591 134.934 59.715 134.85C59.765 134.823 59.765 134.823 59.8093 134.79C60.0326 134.635 60.2193 134.527 60.3848 134.445C60.5619 134.245 60.7909 134.028 61.1046 133.811C61.3876 133.615 61.6474 133.483 61.8726 133.389C62.0246 133.239 62.2113 133.078 62.4539 132.911C62.6887 132.75 62.9139 132.629 63.1256 132.538C63.2969 132.346 63.5086 132.152 63.7742 131.968C63.8223 131.936 63.8223 131.936 63.8666 131.895C64.0013 131.782 64.1534 131.655 64.4171 131.471C64.5326 131.39 64.5884 131.348 64.6461 131.306C64.752 131.225 64.8578 131.146 65.0753 130.995C65.3679 130.791 65.6142 130.665 65.824 130.57C65.9742 130.428 66.157 130.271 66.4226 130.089C66.5747 129.983 66.6478 129.931 66.7229 129.877C66.8133 129.812 66.9038 129.749 67.0867 129.622C67.3696 129.426 67.5659 129.319 67.7256 129.232L67.7815 129.198C67.8026 129.182 67.82 129.171 67.8315 129.161L67.8681 129.131C68.0028 129.015 68.1568 128.887 68.4243 128.702C68.8343 128.418 69.225 128.263 69.5676 128.175C69.7678 127.898 70.043 127.604 70.4356 127.332C70.5088 127.282 70.5223 127.27 70.5781 127.224C70.7032 127.122 70.8437 127.009 71.0843 126.842C71.3942 126.627 71.6328 126.504 71.8426 126.408C72.2218 126.155 72.5798 126.009 72.8974 125.923C73.0994 125.635 73.3824 125.327 73.7885 125.045C74.0503 124.863 74.2851 124.74 74.4949 124.648C74.6565 124.481 74.8567 124.304 75.1204 124.12C75.3379 123.968 75.5438 123.855 75.7382 123.768C75.9134 123.567 76.1328 123.36 76.41 123.166C76.5582 123.025 76.7429 122.858 77.0567 122.642C77.3107 122.465 77.5783 122.329 77.8593 122.229C78.0113 122.067 78.1922 121.908 78.4078 121.758C78.5541 121.622 78.735 121.459 79.0468 121.244C79.3567 121.029 79.5742 120.916 79.7532 120.827C80.09 120.597 80.4057 120.453 80.6828 120.359C80.8079 120.247 80.9561 120.128 81.1428 120C81.4739 119.771 81.7337 119.643 81.9627 119.545C83.2619 118.723 84.9923 119.063 85.8776 120.336C86.788 121.641 86.4627 123.436 85.1539 124.344C84.8729 124.538 84.6439 124.661 84.4399 124.753C84.284 124.907 84.0934 125.074 83.8182 125.264C83.3928 125.558 82.9963 125.713 82.6672 125.802C82.5402 125.875 82.4343 125.93 82.3381 125.978C82.3169 125.997 82.2957 126.019 82.2726 126.038C82.0705 126.401 81.7453 126.831 81.214 127.199C80.8464 127.455 80.4499 127.629 80.0265 127.723C79.8283 127.99 79.5588 128.272 79.1815 128.535C78.8871 128.739 78.6138 128.875 78.3674 128.969C78.2211 129.113 78.0441 129.263 77.8208 129.419C77.6456 129.54 77.482 129.636 77.3319 129.714C77.1414 129.956 76.8892 130.206 76.5543 130.44C76.4003 130.547 76.3233 130.601 76.2464 130.655C76.1578 130.718 76.0693 130.78 75.8903 130.905C75.4264 131.225 74.9895 131.383 74.6238 131.465C74.5199 131.521 74.4256 131.567 74.337 131.609C74.2985 131.636 74.2812 131.651 74.2389 131.684C74.2081 131.709 74.1754 131.736 74.1407 131.763C73.9367 132.068 73.6403 132.406 73.1957 132.715L72.5278 133.176C72.1198 133.458 71.7329 133.613 71.3903 133.704C71.3037 133.771 71.2036 133.846 71.0766 133.932C70.7936 134.128 70.5973 134.235 70.4376 134.32L70.3818 134.355C70.2297 134.46 70.1566 134.512 70.0815 134.566C69.9987 134.625 69.9141 134.685 69.7582 134.794C69.5946 134.954 69.3982 135.13 69.0903 135.343C68.7669 135.568 68.4994 135.7 68.2742 135.794C68.2184 135.835 68.1799 135.864 68.1414 135.892C68.0355 135.973 67.9297 136.052 67.7122 136.203C67.6641 136.236 67.6641 136.236 67.6198 136.274C67.5755 136.311 67.5312 136.349 67.4812 136.391C67.2753 136.699 66.9808 137.038 66.5323 137.349C66.2071 137.574 65.8991 137.718 65.622 137.812C65.4911 137.933 65.3351 138.06 65.1446 138.192C64.8867 138.371 64.65 138.496 64.4402 138.586C64.2766 138.757 64.0745 138.937 63.8127 139.12C63.5028 139.333 63.268 139.456 63.0601 139.552C62.8619 139.688 62.7156 139.774 62.5905 139.845C62.4077 140.058 62.1671 140.295 61.8283 140.529C61.6301 140.665 61.4338 140.773 61.2451 140.857C61.0623 141.082 60.8294 141.306 60.5349 141.512C60.0826 141.825 59.6399 141.982 59.2608 142.061C59.1973 142.109 59.1241 142.161 59.0452 142.216C58.8681 142.339 58.7796 142.401 58.6891 142.46C58.6256 142.504 58.5602 142.548 58.4543 142.621C58.4177 142.888 58.3542 143.128 58.2772 143.337C58.2811 143.37 58.2849 143.405 58.2869 143.439C58.3831 143.743 58.462 144.123 58.4601 144.608C58.4601 144.966 58.4331 145.194 58.41 145.38L58.4062 145.428C58.4043 145.887 58.335 146.246 58.2522 146.528C58.2464 146.653 58.2368 146.759 58.2272 146.855C58.3042 147.135 58.3619 147.473 58.3619 147.888C58.3619 148.118 58.3408 148.327 58.308 148.519C58.3947 148.807 58.4524 149.145 58.4524 149.527C58.4524 149.821 58.4216 150.076 58.3754 150.299C58.4331 150.548 58.4736 150.838 58.4736 151.169C58.4736 151.464 58.4389 151.727 58.3869 151.961C58.4466 152.209 58.4832 152.491 58.4832 152.808C58.4832 153.215 58.4139 153.568 58.3196 153.866C58.3446 154.043 58.36 154.236 58.36 154.448C58.36 154.766 58.3234 155.043 58.2715 155.279C58.3196 155.509 58.3523 155.772 58.3523 156.076C58.3831 156.277 58.4139 156.525 58.412 156.909C58.41 157.45 58.2984 157.888 58.156 158.237C58.2522 158.541 58.3273 158.915 58.3254 159.37C58.3254 159.624 58.3023 159.846 58.2695 160.042C58.3446 160.317 58.3946 160.637 58.3946 161.012C58.3946 161.232 58.3927 161.342 58.3908 161.451C58.3889 161.547 58.3889 161.641 58.3889 161.831C58.3889 162.192 58.3619 162.423 58.3369 162.611L58.335 162.651C58.335 162.882 58.3331 162.997 58.3292 163.112C58.3273 163.202 58.3254 163.291 58.3254 163.471C58.3254 163.868 58.2792 164.166 58.2291 164.406C58.231 164.454 58.233 164.488 58.2349 164.525C58.2445 164.68 58.2522 164.842 58.2522 165.112C58.2522 165.264 58.2445 165.402 58.2349 165.527C58.3581 165.857 58.4524 166.266 58.4505 166.752C58.4505 166.98 58.4485 167.096 58.4466 167.209C58.4447 167.299 58.4428 167.391 58.4428 167.572C58.4408 168.134 58.3119 168.597 58.1541 168.956C58.156 169.004 58.156 169.056 58.1579 169.111C58.206 169.353 58.2464 169.638 58.2445 170.035C58.2445 170.189 58.2368 170.333 58.2214 170.465C58.3677 170.849 58.4408 171.254 58.4408 171.676C58.4408 172.022 58.3908 172.329 58.3196 172.594C58.3619 172.811 58.3889 173.053 58.3889 173.32C58.3869 174.063 58.1618 174.629 57.9597 174.998C57.592 176.171 56.4969 177.019 55.2035 177.019ZM69.2481 128.436C69.2462 128.438 69.2423 128.439 69.2404 128.441L69.2481 128.436Z" fill="#F0DDE6"/>
<path d="M175.704 87.7755C175.562 87.7755 175.418 87.7679 175.271 87.7506C174.863 87.7045 174.55 87.6316 174.292 87.5528C174.132 87.5452 173.951 87.5336 173.666 87.5029C173.235 87.4549 172.908 87.3743 172.642 87.2917C172.542 87.2802 172.471 87.2706 172.398 87.261C172.315 87.2495 172.232 87.2399 172.065 87.2207C171.695 87.1785 171.437 87.1247 171.218 87.0729C171.149 87.0652 171.093 87.0594 171.043 87.0537C170.662 87.1286 170.182 87.1708 169.628 87.1094C169.382 87.0825 169.16 87.0402 168.962 86.9903C168.679 87.0153 168.364 87.0153 168.013 86.9769C167.744 86.9462 167.609 86.927 167.474 86.9059C167.409 86.8963 167.341 86.8867 167.211 86.8713C166.739 86.8175 166.333 86.7023 165.994 86.5641C165.659 86.6102 165.261 86.6275 164.799 86.5776C164.503 86.5449 164.239 86.4892 164.002 86.4221C163.756 86.4355 163.484 86.4317 163.186 86.399C162.861 86.3625 162.545 86.2934 162.243 86.1897C162.035 86.1955 161.816 86.1897 161.581 86.1629C161.256 86.1264 160.965 86.0611 160.707 85.9805C160.482 85.9901 160.237 85.9824 159.974 85.9536C159.82 85.9363 159.673 85.9133 159.537 85.8864C159.148 85.9478 158.751 85.9574 158.347 85.9114C157.997 85.8711 157.683 85.7981 157.412 85.7098C157.206 85.7136 156.983 85.7059 156.742 85.6791C156.363 85.6368 156.097 85.5792 155.87 85.5236C155.395 85.464 155.016 85.3546 154.712 85.2356C154.692 85.2317 154.675 85.2298 154.658 85.226C154.467 85.249 154.255 85.2625 154.022 85.2586C153.676 85.3124 153.237 85.3431 152.712 85.2836C152.296 85.2375 151.901 85.1377 151.528 84.9841C151.17 85.0417 150.758 85.0647 150.296 85.0129C149.898 84.9687 149.603 84.9015 149.365 84.8343C149.23 84.819 149.145 84.8094 149.059 84.7979C148.98 84.7883 148.899 84.7787 148.758 84.7633C148.527 84.7691 148.26 84.7633 147.885 84.723C147.63 84.6942 147.384 84.6462 147.145 84.5771C146.859 84.602 146.568 84.5963 146.274 84.5636C145.835 84.5156 145.452 84.41 145.126 84.2833C144.986 84.2795 144.84 84.2699 144.682 84.2526C144.312 84.2123 144.079 84.1643 143.889 84.1221L143.879 84.1201C143.644 84.0933 143.444 84.0587 143.271 84.0222C142.984 84.0472 142.649 84.051 142.262 84.0088C141.924 83.9704 141.633 83.907 141.385 83.8341C141.171 83.8399 140.931 83.8322 140.659 83.8015C140.388 83.7707 140.141 83.7208 139.918 83.6613C139.654 83.6805 139.362 83.6805 139.046 83.644H139.031C138.838 83.6421 138.604 83.6363 138.238 83.596C138.12 83.5826 138.061 83.5788 138.001 83.5749C137.859 83.5653 137.716 83.5557 137.431 83.5231C137.085 83.4847 136.806 83.4252 136.571 83.3599C136.361 83.3618 136.121 83.3541 135.826 83.3215C135.649 83.3023 135.563 83.2927 135.476 83.285C135.362 83.2735 135.247 83.262 135.02 83.237C134.664 83.1967 134.415 83.1468 134.206 83.0988C134.013 83.0969 133.774 83.0911 133.413 83.0508C131.299 82.8147 129.779 80.914 130.015 78.8079C130.252 76.6999 132.156 75.1852 134.269 75.4194H134.279C134.473 75.4213 134.712 75.4271 135.079 75.4674C135.441 75.5077 135.691 75.5595 135.903 75.6075C136.065 75.6248 136.146 75.6325 136.227 75.6421C136.317 75.6517 136.407 75.6594 136.554 75.6747C136.808 75.6632 137.106 75.6651 137.495 75.7074C137.911 75.7534 138.228 75.8302 138.488 75.909C138.502 75.909 138.515 75.9109 138.527 75.9109C138.669 75.9205 138.811 75.9301 139.096 75.9627H139.114C139.133 75.9627 139.152 75.9627 139.171 75.9627C139.579 75.8667 140.109 75.8034 140.732 75.8725C141.14 75.9186 141.493 76.0069 141.795 76.1144C141.958 76.1163 142.137 76.1278 142.332 76.1489C142.63 76.1816 142.89 76.2353 143.117 76.2968C143.36 76.2833 143.633 76.2891 143.941 76.3236C144.341 76.3678 144.638 76.4369 144.876 76.5022C145.024 76.5214 145.148 76.5406 145.255 76.5598C145.563 76.5252 145.927 76.5156 146.356 76.5636C146.574 76.5886 146.778 76.6251 146.966 76.6731C147.296 76.6347 147.63 76.6347 147.971 76.6731C148.5 76.7326 148.997 76.8785 149.457 77.1108C149.488 77.1146 149.517 77.1165 149.549 77.1204C149.767 77.1453 149.877 77.1588 149.984 77.1703C150.077 77.1818 150.169 77.1933 150.354 77.2125C150.444 77.2221 150.529 77.2336 150.608 77.2452C150.985 77.1703 151.432 77.1338 151.936 77.1857C152.161 77.1818 152.425 77.1876 152.796 77.2279C153.216 77.2759 153.616 77.3776 153.992 77.5331C154.329 77.4871 154.733 77.466 155.206 77.5197C155.578 77.5619 155.834 77.6138 156.053 77.6675C156.544 77.727 156.933 77.8403 157.243 77.9593C157.266 77.9632 157.287 77.967 157.308 77.9709C157.624 77.9344 157.993 77.9229 158.419 77.9709C158.613 77.992 158.798 78.0246 158.969 78.0649C159.319 78.0189 159.677 78.0169 160.039 78.0573C160.309 78.088 160.551 78.136 160.769 78.1936C161.034 78.1744 161.329 78.1763 161.652 78.2128C161.929 78.2435 162.183 78.2972 162.414 78.3625C162.674 78.3433 162.959 78.3452 163.265 78.3798C163.65 78.422 164.019 78.5123 164.37 78.6467C164.526 78.6486 164.689 78.6582 164.861 78.6774C165.163 78.7119 165.434 78.7676 165.673 78.8367C165.886 78.8252 166.121 78.829 166.373 78.8521C166.614 78.8444 166.893 78.8463 167.28 78.8905C167.801 78.9481 168.242 79.0844 168.598 79.2399C168.914 79.2034 169.276 79.1938 169.686 79.2399C169.909 79.2648 170.109 79.3013 170.292 79.3436C170.59 79.3128 170.931 79.3052 171.304 79.3474C171.526 79.3724 171.637 79.3858 171.749 79.3992C171.84 79.4108 171.93 79.4223 172.111 79.4415C172.48 79.4837 172.738 79.5375 172.958 79.5893C173.164 79.6123 173.273 79.6277 173.381 79.6411C173.464 79.6527 173.547 79.6623 173.714 79.6815C174.124 79.7275 174.44 79.8024 174.7 79.8811C174.858 79.8888 175.038 79.9003 175.319 79.931C175.768 79.981 176.105 80.0654 176.374 80.1518C178.351 80.507 179.741 82.3366 179.513 84.3563C179.306 86.3241 177.639 87.7755 175.704 87.7755ZM134.248 83.0949H134.25H134.248ZM176.128 80.1192H176.13C176.13 80.1192 176.13 80.1192 176.128 80.1192Z" fill="#398967"/>
<path d="M133.286 153.314C131.159 153.314 129.436 151.596 129.436 149.475C129.436 149.452 129.436 149.427 129.436 149.404C129.423 149.335 129.411 149.265 129.402 149.194C129.363 149.146 129.325 149.093 129.282 149.037C129.061 148.828 128.811 148.551 128.553 148.169C128.343 147.858 128.193 147.555 128.083 147.276C127.762 147.027 127.415 146.687 127.105 146.226C126.878 145.888 126.722 145.574 126.611 145.291C126.507 145.165 126.397 145.017 126.278 144.838C126.128 144.614 126.01 144.406 125.916 144.218C125.733 144.03 125.541 143.802 125.35 143.517C125.108 143.156 124.944 142.819 124.832 142.517C124.744 142.404 124.648 142.275 124.542 142.118C124.236 141.663 124.055 141.239 123.943 140.876C123.928 140.851 123.914 140.828 123.901 140.805C123.88 140.77 123.858 140.734 123.814 140.666L123.785 140.628C123.668 140.486 123.527 140.309 123.333 140.019C123.291 139.958 123.287 139.95 123.244 139.898C123.142 139.766 123.029 139.618 122.86 139.367C122.846 139.347 122.836 139.332 122.827 139.321L122.8 139.288C122.688 139.148 122.565 138.988 122.382 138.718L122.253 138.528C121.945 138.282 121.616 137.95 121.308 137.495C121.233 137.383 121.195 137.33 121.154 137.276C121.075 137.167 120.996 137.057 120.846 136.834C120.656 136.552 120.513 136.274 120.406 136.011C120.261 135.853 120.119 135.675 119.982 135.471C119.77 135.156 119.651 134.938 119.559 134.757C119.464 134.617 119.416 134.548 119.368 134.477C119.305 134.385 119.241 134.293 119.118 134.108C118.973 133.893 118.856 133.682 118.762 133.478C118.569 133.287 118.375 133.058 118.192 132.787C118.113 132.67 118.073 132.615 118.032 132.557C117.955 132.451 117.878 132.344 117.732 132.127C117.54 131.841 117.432 131.649 117.343 131.491L117.311 131.438C117.274 131.384 117.274 131.384 117.235 131.334C117.13 131.198 117.012 131.044 116.837 130.785C116.743 130.645 116.695 130.576 116.647 130.507C116.608 130.451 116.57 130.395 116.518 130.32C116.314 130.119 116.09 129.863 115.848 129.506C115.621 129.168 115.48 128.896 115.374 128.667C115.197 128.389 115.078 128.159 114.987 127.961C114.812 127.69 114.697 127.466 114.608 127.274C114.443 127.018 114.341 126.834 114.26 126.678C114.106 126.45 114.023 126.316 113.946 126.185C113.938 126.173 113.933 126.162 113.925 126.15C113.854 126.076 113.779 125.995 113.702 125.905C113.382 125.657 113.03 125.313 112.701 124.824C112.333 124.277 112.145 123.772 112.043 123.359C111.365 121.708 111.919 119.753 113.463 118.721C115.228 117.538 117.62 118.008 118.804 119.769C118.97 120.015 119.099 120.251 119.199 120.475C119.326 120.608 119.453 120.758 119.578 120.928C119.772 121.126 119.986 121.372 120.225 121.725C120.379 121.954 120.463 122.092 120.544 122.226C120.571 122.272 120.6 122.318 120.66 122.407C120.869 122.718 120.985 122.931 121.077 123.107C121.299 123.44 121.435 123.699 121.535 123.916C121.72 124.204 121.843 124.442 121.936 124.643C122.057 124.833 122.151 125.002 122.228 125.154C122.398 125.334 122.58 125.555 122.775 125.841C122.869 125.981 122.917 126.051 122.965 126.12C123.033 126.216 123.1 126.312 123.231 126.508C123.266 126.561 123.268 126.561 123.306 126.611C123.412 126.747 123.529 126.901 123.704 127.16C123.895 127.444 124.005 127.636 124.091 127.796L124.124 127.849C124.141 127.876 124.157 127.899 124.172 127.919C124.515 128.172 124.9 128.531 125.242 129.04C125.554 129.502 125.737 129.948 125.845 130.318C125.877 130.366 125.916 130.424 125.964 130.495C126.026 130.587 126.08 130.672 126.128 130.748C126.418 130.988 126.732 131.307 127.017 131.731C127.296 132.146 127.473 132.549 127.587 132.914C127.831 133.137 128.083 133.415 128.322 133.768L128.774 134.438C128.788 134.458 128.797 134.473 128.807 134.484L128.834 134.517C128.946 134.657 129.069 134.817 129.252 135.087C129.294 135.149 129.298 135.156 129.34 135.208C129.442 135.341 129.556 135.49 129.725 135.742L129.754 135.78C129.871 135.922 130.012 136.099 130.206 136.389C130.372 136.635 130.466 136.792 130.549 136.932C130.57 136.969 130.591 137.003 130.635 137.071C130.888 137.445 131.053 137.798 131.167 138.113C131.247 138.217 131.334 138.338 131.43 138.48C131.613 138.752 131.752 139.012 131.856 139.253C132.004 139.417 132.156 139.609 132.308 139.833C132.51 140.135 132.653 140.403 132.756 140.64C132.885 140.789 133.022 140.966 133.174 141.194C133.278 141.35 133.369 141.502 133.446 141.646C133.65 141.832 133.859 142.056 134.056 142.327C134.24 142.519 134.446 142.759 134.677 143.101C134.91 143.446 135.072 143.784 135.184 144.09C135.278 144.205 135.374 144.333 135.472 144.475C135.617 144.642 135.778 144.84 135.982 145.143C136.379 145.731 136.554 146.278 136.648 146.574L136.658 146.603C136.885 147.177 136.958 147.676 136.999 147.95L137.008 148.012C137.122 148.592 137.137 149.098 137.137 149.477C137.135 151.594 135.413 153.314 133.286 153.314ZM129.452 149.484C129.452 149.486 129.452 149.486 129.452 149.484C129.452 149.486 129.452 149.486 129.452 149.484ZM136.627 146.522C136.627 146.524 136.629 146.526 136.629 146.528C136.629 146.528 136.627 146.526 136.627 146.522ZM121.932 138.044C121.932 138.046 121.934 138.046 121.934 138.048L121.932 138.044ZM112.412 124.044C112.412 124.046 112.414 124.046 112.414 124.048C112.414 124.046 112.414 124.046 112.412 124.044Z" fill="#398967"/>
<path d="M55.3022 145.025C54.082 145.025 52.8809 144.447 52.1341 143.37C50.9235 141.627 51.3604 139.234 53.1081 138.027C53.4641 137.781 53.8125 137.612 54.1378 137.493C54.2533 137.395 54.3803 137.297 54.5208 137.201C54.6497 137.113 54.7729 137.034 54.8923 136.967C55.1194 136.698 55.41 136.42 55.7815 136.165C56.0317 135.992 56.2742 135.857 56.4994 135.752C56.6745 135.583 56.8786 135.412 57.123 135.243C57.5156 134.972 57.9333 134.771 58.3741 134.642C58.4068 134.617 58.4395 134.594 58.4722 134.569C58.657 134.393 58.8841 134.197 59.2094 133.972C59.3576 133.87 59.4596 133.803 59.5443 133.747C59.7695 133.486 60.064 133.202 60.4624 132.928C60.882 132.638 61.2554 132.463 61.5652 132.348C61.5999 132.329 61.6345 132.309 61.6692 132.29C61.9059 132.02 62.1792 131.778 62.4853 131.567C62.8798 131.294 63.2648 131.115 63.6016 130.998C63.8557 130.691 64.154 130.42 64.4927 130.186C64.843 129.944 65.1587 129.783 65.4301 129.67C65.5205 129.597 65.6264 129.518 65.7631 129.42C65.9498 129.242 66.1788 129.04 66.5079 128.813C66.5753 128.767 66.5849 128.76 66.6388 128.717C66.7677 128.616 66.9159 128.501 67.1642 128.33C67.4529 128.13 67.7378 127.98 68.0092 127.869C68.1632 127.727 68.3364 127.587 68.5327 127.45C68.858 127.226 69.1544 127.07 69.4123 126.959C69.5451 126.848 69.7029 126.725 69.9089 126.583C70.0224 126.504 70.0783 126.462 70.1341 126.421C70.2168 126.36 70.2996 126.298 70.4324 126.206C70.621 126.02 70.8578 125.815 71.1927 125.582C71.4948 125.373 71.7682 125.227 72.0087 125.118C72.1569 124.987 72.334 124.847 72.5554 124.695C72.9037 124.455 73.2329 124.29 73.5235 124.175C73.5966 124.114 73.6794 124.05 73.7699 123.983C73.9662 123.783 74.2125 123.563 74.5667 123.319L74.609 123.286C74.7495 123.167 74.9247 123.025 75.2134 122.827C75.5291 122.609 75.8409 122.451 76.1315 122.336C76.2701 122.213 76.424 122.092 76.5973 121.971C76.7763 121.848 76.8648 121.787 76.9533 121.725C77.0323 121.672 77.1112 121.618 77.2671 121.51C77.5038 121.347 77.6482 121.257 77.7887 121.172C77.8291 121.148 77.8695 121.123 77.9484 121.069C78.2641 120.852 78.5451 120.702 78.7876 120.593C79.0359 120.255 79.3823 119.886 79.8616 119.554C80.0829 119.402 80.2966 119.279 80.5025 119.18C80.6911 118.988 80.9163 118.792 81.1819 118.609C82.9296 117.402 85.3278 117.838 86.5384 119.581C87.5527 121.042 87.4103 122.956 86.3113 124.25C86.0669 124.64 85.6704 125.143 85.0333 125.582C84.837 125.719 84.6445 125.83 84.4578 125.924C84.2576 126.137 84.0151 126.35 83.7245 126.552L83.0585 127.015C82.6871 127.27 82.3637 127.433 82.0943 127.544C81.9826 127.617 81.8941 127.673 81.8075 127.725C81.7671 127.75 81.7266 127.775 81.6477 127.829C81.5303 127.909 81.4514 127.965 81.3859 128.009C81.1531 128.293 80.8413 128.602 80.414 128.896C79.9559 129.213 79.5074 129.403 79.1167 129.518C78.9377 129.699 78.7164 129.896 78.4123 130.113C78.2352 130.276 78.0216 130.461 77.7001 130.681C77.3614 130.914 77.0438 131.077 76.757 131.192C76.63 131.298 76.4837 131.411 76.3105 131.53C76.016 131.734 75.7485 131.879 75.5117 131.987C75.3597 132.121 75.1788 132.267 74.9536 132.423C74.84 132.501 74.7842 132.544 74.7284 132.584C74.6283 132.657 74.5301 132.732 74.3415 132.862C74.1702 133.016 73.9662 133.189 73.6544 133.404C73.4946 133.513 73.3426 133.607 73.2002 133.686C72.9846 133.926 72.7151 134.176 72.3764 134.41C71.8894 134.746 71.4159 134.94 71.0021 135.053C70.8173 135.23 70.5902 135.427 70.2669 135.65C70.2476 135.663 70.2322 135.673 70.2207 135.683L70.188 135.71C70.0475 135.823 69.8877 135.951 69.6182 136.138C69.5316 136.197 69.445 136.253 69.3623 136.305C69.089 136.654 68.7637 136.961 68.3864 137.22C68.015 137.478 67.7032 137.635 67.4375 137.748C67.3606 137.795 67.2836 137.839 67.2085 137.879C66.9699 138.154 66.6946 138.397 66.3867 138.61C65.8612 138.973 65.3531 139.169 64.9489 139.277C64.7641 139.461 64.5409 139.653 64.2714 139.839C64.0404 139.998 63.9211 140.073 63.8018 140.15C63.769 140.171 63.7363 140.192 63.6901 140.221C63.5708 140.334 63.4342 140.455 63.2648 140.588C63.0492 140.828 62.7663 141.099 62.3659 141.373C62.0079 141.621 61.6288 141.809 61.2303 141.939C61.138 142.014 61.0379 142.089 60.932 142.162C60.7665 142.277 60.6029 142.375 60.447 142.458C60.2333 142.696 59.9697 142.936 59.6444 143.16C59.4211 143.314 59.2113 143.437 59.0169 143.533C58.8283 143.723 58.5993 143.919 58.3202 144.113C57.6003 144.61 56.9055 144.796 56.3974 144.867C56.0394 144.973 55.6699 145.025 55.3022 145.025ZM57.4906 144.341L57.4887 144.343C57.4887 144.343 57.4887 144.341 57.4906 144.341ZM61.2072 132.571C61.2053 132.571 61.2053 132.571 61.2072 132.571C61.2053 132.571 61.2053 132.571 61.2072 132.571ZM85.5645 124.92C85.5626 124.92 85.5626 124.922 85.5607 124.922C85.5626 124.922 85.5645 124.922 85.5645 124.92ZM79.3419 120.234C79.3381 120.236 79.3342 120.237 79.3323 120.241L79.3419 120.234Z" fill="#398967"/>
<path d="M139.63 76.6767L139.32 78.0628L139.828 79.4662L139.245 80.8332L139.576 82.2443L139.788 83.6592L138.993 84.9839L138.739 86.3508L139.218 87.8157L138.513 89.1192L138.088 90.4535L137.819 91.8109L137.616 93.1836L137.632 94.6081L137.087 95.9059L137.272 97.3938L136.587 98.6494L135.954 99.9088L135.626 101.264L134.98 102.508L134.652 103.868L134.131 105.154L133.409 106.354L132.891 107.64L132.901 109.186L132.01 110.303L131.498 111.612L130.181 112.465L129.548 113.695L129.036 115.012L128.715 116.475L127.26 117.155L126.969 118.677L126.195 119.856L125.26 120.906L124.249 121.885L122.912 122.538L121.972 123.561L120.712 124.233L119.749 125.23L118.716 126.153L117.796 127.253L116.489 127.806L115.417 128.722L114.383 129.753L112.982 130.098L111.515 130.221L110.22 130.694L109.096 131.707L107.604 131.552L106.311 132.108L104.906 132.12L103.566 132.563L102.169 132.481L100.787 132.268L99.3993 132.579L98.0116 132.496L96.6489 132.228L95.317 131.836L93.7984 132.204L92.4799 131.694L91.0653 131.469L89.8777 130.642L88.5266 130.225L87.3294 129.48L85.9802 129.014L85.0197 127.9L83.6744 127.393L82.4502 126.683L81.4455 125.687L80.8316 124.262L79.5978 123.559L78.5354 122.657L77.8656 121.378L76.8994 120.39L75.7638 119.535L75.2287 118.192L74.4088 117.08L73.5138 116.022L72.5957 114.97L71.8162 113.82L71.1829 112.584L70.3573 111.455L69.5393 110.312L69.1966 108.928L68.779 107.592L68.0745 106.392L67.0487 105.315L66.6753 103.962L66.1806 102.658L66.1748 101.187L64.9584 100.12L65.0662 98.6283L64.1751 97.4303L64.2809 95.9597L63.9402 94.61L63.1992 93.3468L63.2069 91.9184L63.0241 90.5361L62.9432 89.1404L62.7662 87.76L62.797 86.3566L62.1522 85.03L62.0848 83.6362L61.7903 82.2596L62.0752 80.8466L61.6113 79.472L61.6344 78.0744L61.8885 76.6767L62.0694 75.2887L61.7461 73.8891L61.9712 72.503L62.4313 71.1399L62.0136 69.7134L62.6969 68.383L62.4986 66.9642L62.4313 65.5493L62.7854 64.1939L62.7931 62.7808L63.7131 61.5349L63.9441 60.1698L64.0711 58.776L64.6889 57.4993L64.6062 56.0441L64.5658 54.5812L65.5243 53.4139L66.1402 52.1564L66.1883 50.7012L67.0063 49.5204L67.1064 48.0633L67.9514 46.9075L68.6443 45.6961L68.9984 44.3273L70.0589 43.3078L70.3284 41.8814L71.1464 40.7467L72.0934 39.7004L72.5649 38.3604L73.1 37.0453L73.8237 35.8434L74.6802 34.7376L75.4866 33.5876L76.5029 32.6123L77.5403 31.6697L78.5873 30.7443L79.5516 29.7402L80.2715 28.452L81.3897 27.5958L82.585 26.8432L83.607 25.8583L84.7561 25.0405L86.1226 24.5759L87.5989 24.3762L88.8326 23.7657L89.7719 22.4544L91.1538 22.1165L92.6455 22.1837L93.8734 21.4292L95.2188 21.0414L96.6489 21.124L97.9866 20.5922L99.3858 20.5192L100.787 20.3541L102.204 20.1909L103.551 20.9531L104.91 21.218L106.292 21.3543L107.71 21.3985L109.021 21.8919L110.328 22.3738L111.648 22.825L113.026 23.1705L113.958 24.4107L115.195 25.0174L116.385 25.7143L117.869 26.0042L118.596 27.3616L119.976 27.853L120.845 28.9761L121.78 29.9994L122.839 30.8941L124.149 31.566L124.742 32.9042L125.712 33.9006L127.073 34.6032L127.414 36.093L128.436 37.0721L128.776 38.514L130.143 39.2973L130.474 40.7237L130.942 42.0503L131.711 43.208L132.816 44.2121L133.384 45.4907L133.623 46.9075L134.246 48.1535L134.924 49.3841L134.814 50.9047L135.613 52.093L135.957 53.4427L136.159 54.8288L136.65 56.1286L136.956 57.4801L137.443 58.7876L138.169 60.0508L137.913 61.5233L138.409 62.8423L138.45 64.2438L138.829 65.5896L139.318 66.9316L139.714 68.2927L139.451 69.7211L139.149 71.1379L139.94 72.4857L139.522 73.8968L139.938 75.281L139.63 76.6767Z" fill="#A4C9ED"/>
<path d="M71.5596 37.1773C71.5596 36.9105 71.446 36.7569 71.4557 36.4862C71.4653 36.2193 71.5557 35.9525 71.5731 35.6798C71.5923 35.413 71.5769 35.1404 71.6058 34.8697C71.6327 34.6028 71.8964 34.3647 71.933 34.096C71.9696 33.831 71.9522 33.5603 71.9965 33.2916C72.0408 33.0266 71.9445 32.7367 71.9946 32.4718C72.0446 32.2088 72.214 31.9688 72.2717 31.7038C72.3295 31.4408 72.3045 31.1605 72.3699 30.8975C72.4353 30.6364 72.522 30.3811 72.5951 30.12C72.6663 29.8608 72.5316 29.5402 72.6105 29.281C72.6875 29.0237 72.905 28.8068 72.9896 28.5495C73.0724 28.2942 73.1263 28.0254 73.2168 27.7701C73.3053 27.5166 73.3669 27.2498 73.4612 26.9964C73.5555 26.7449 73.6825 26.503 73.7846 26.2515C73.8846 26.0019 73.9713 25.7427 74.0771 25.495C74.183 25.2474 74.4005 25.0477 74.5121 24.8001C74.6218 24.5543 74.5737 24.2337 74.6892 23.988C74.8047 23.7441 75.1819 23.627 75.3032 23.3851C75.4244 23.1451 75.2935 22.7746 75.4186 22.5346C75.5437 22.2966 75.6881 22.0624 75.8171 21.8262C75.9479 21.5901 76.3329 21.4979 76.4676 21.2637C76.6023 21.0295 76.5196 20.6685 76.6601 20.4382C76.8006 20.2078 77.1297 20.0926 77.2741 19.8641C77.4184 19.6357 77.6205 19.4494 77.7706 19.2229C77.9189 18.9983 77.8072 18.5989 77.9612 18.3762C78.1152 18.1535 78.2788 17.9366 78.4366 17.7177C78.5944 17.4989 78.7734 17.2935 78.937 17.0765C79.0987 16.8615 79.2565 16.6388 79.424 16.4257C79.5914 16.2126 79.9013 16.1147 80.0726 15.9054C80.2439 15.6961 80.2689 15.3659 80.4441 15.1605C80.6192 14.9551 80.9175 14.8552 81.0965 14.6537C81.2775 14.4521 81.4488 14.2447 81.6316 14.047C81.8164 13.8492 81.8568 13.5113 82.0454 13.3194C82.2341 13.1255 82.4381 12.9412 82.6305 12.753C82.823 12.5629 83.2542 12.6205 83.4505 12.4362C83.6487 12.2519 83.6564 11.8622 83.8585 11.6837C84.0606 11.5032 84.2223 11.2709 84.4263 11.0962C84.6322 10.9215 84.9671 10.8965 85.1769 10.7276C85.3867 10.5567 85.6831 10.4991 85.8987 10.3359C86.1143 10.1708 86.1258 9.73501 86.3452 9.57758C86.5646 9.41823 86.9323 9.46815 87.1556 9.31648C87.3788 9.16289 87.4904 8.84036 87.7156 8.69445C87.9427 8.54854 88.2026 8.44487 88.4335 8.30664C88.6664 8.16649 89.0379 8.27016 89.2727 8.13769C89.5095 8.00522 89.573 7.55982 89.8136 7.43311C90.0542 7.30832 90.366 7.31792 90.6085 7.20081C90.8529 7.0837 91.0819 6.93203 91.3283 6.8226C91.5766 6.71317 91.796 6.52886 92.0462 6.42711C92.2964 6.32536 92.6641 6.52886 92.9181 6.43671C93.1722 6.34455 93.3473 6.02394 93.6033 5.93947C93.8612 5.85691 94.0941 5.67453 94.354 5.60157C94.6138 5.52862 94.9256 5.63421 95.1893 5.56894C95.453 5.50558 95.7378 5.54782 96.0034 5.49406C96.2691 5.44031 96.5327 5.39999 96.7984 5.35583C97.0659 5.31168 97.3084 5.10433 97.5759 5.07169C97.8435 5.03906 98.1245 5.11969 98.3939 5.09665C98.6634 5.07553 98.9232 4.87779 99.1946 4.86627C99.4641 4.85475 99.7412 4.94306 100.013 4.94306C100.284 4.94306 100.559 4.87395 100.829 4.88547C101.1 4.89699 101.352 5.18113 101.622 5.20224C101.891 5.22336 102.193 4.94498 102.461 4.97762C102.73 5.01026 102.979 5.20608 103.244 5.25024C103.512 5.2944 103.787 5.29248 104.053 5.34623C104.318 5.39999 104.592 5.43071 104.853 5.49598C105.117 5.55934 105.404 5.5459 105.665 5.61885C105.925 5.69181 106.124 5.97978 106.381 6.06234C106.639 6.14489 106.903 6.20249 107.157 6.29464C107.411 6.38679 107.706 6.37911 107.956 6.48086C108.206 6.58262 108.372 6.88403 108.62 6.99346C108.866 7.10289 109.199 7.02802 109.444 7.14513C109.686 7.26224 109.961 7.32752 110.202 7.45231C110.441 7.5771 110.6 7.85356 110.837 7.98602C111.072 8.11849 111.368 8.15113 111.601 8.28936C111.832 8.42759 111.915 8.8058 112.142 8.95171C112.369 9.09762 112.648 9.15905 112.872 9.31264C113.095 9.46431 113.403 9.49695 113.622 9.65437C113.842 9.8118 114.088 9.93851 114.304 10.1036C114.517 10.2668 114.685 10.4953 114.896 10.6642C115.106 10.8332 115.355 10.9618 115.56 11.1365C115.766 11.3112 116.017 11.4398 116.219 11.6203C116.421 11.8008 116.48 12.1367 116.677 12.321C116.873 12.5053 117.179 12.5802 117.372 12.7703C117.564 12.9584 117.689 13.2176 117.878 13.4115C118.066 13.6054 118.136 13.9107 118.319 14.1084C118.503 14.3062 118.729 14.4617 118.909 14.6633C119.088 14.8648 119.385 14.9666 119.56 15.172C119.735 15.3774 119.86 15.627 120.032 15.8363C120.203 16.0456 120.43 16.2107 120.597 16.4238C120.765 16.6369 120.817 16.9364 120.979 17.1533C121.14 17.3683 121.444 17.4835 121.602 17.7024C121.76 17.9212 121.768 18.2476 121.922 18.4684C122.076 18.6911 122.305 18.862 122.453 19.0885C122.601 19.3131 122.724 19.557 122.869 19.7854C123.013 20.0139 123.223 20.2039 123.363 20.4343C123.504 20.6647 123.683 20.8759 123.817 21.1101C123.952 21.3443 123.864 21.7053 123.995 21.9414C124.125 22.1775 124.252 22.4137 124.378 22.6518C124.503 22.8917 124.647 23.1183 124.768 23.3602C124.89 23.6021 125.126 23.7864 125.242 24.0302C125.357 24.274 125.496 24.5102 125.607 24.7559C125.719 25.0036 125.644 25.3299 125.75 25.5776C125.856 25.8272 125.994 26.0595 126.094 26.3091C126.194 26.5606 126.539 26.718 126.633 26.9695C126.73 27.2229 126.587 27.5627 126.676 27.8161C126.766 28.0715 126.972 28.2865 127.055 28.5438C127.14 28.801 127.157 29.0794 127.234 29.3367C127.313 29.5958 127.392 29.855 127.463 30.1142C127.534 30.3753 127.75 30.6018 127.813 30.861C127.879 31.124 127.854 31.4101 127.911 31.6712C127.969 31.9361 127.944 32.2184 127.994 32.4814C128.046 32.7482 128.073 33.017 128.115 33.282C128.16 33.5507 128.246 33.8099 128.281 34.0749C128.317 34.3436 128.31 34.6162 128.339 34.8831C128.366 35.1538 128.323 35.4264 128.342 35.6933C128.362 35.964 128.466 36.227 128.475 36.4939C128.485 36.7646 128.5 37.0468 128.5 37.3136C128.113 37.4403 128.09 37.4211 127.682 37.4211C127.276 37.4211 127.276 37.4058 126.868 37.4058C126.462 37.4058 126.462 37.281 126.054 37.281C125.646 37.281 125.648 37.3904 125.24 37.3904C124.834 37.3904 124.834 37.3731 124.426 37.3731C124.02 37.3731 124.02 37.2157 123.612 37.2157C123.205 37.2157 123.205 37.1543 122.797 37.1543C122.391 37.1543 122.391 37.4423 121.983 37.4423C121.577 37.4423 121.577 37.1447 121.169 37.1447C120.763 37.1447 120.763 37.1792 120.355 37.1792C119.947 37.1792 119.949 37.1792 119.541 37.1792C119.135 37.1792 119.135 37.3079 118.727 37.3079C118.32 37.3079 118.32 37.1524 117.912 37.1524C117.506 37.1524 117.506 37.3693 117.098 37.3693C116.692 37.3693 116.692 37.2311 116.284 37.2311C115.878 37.2311 115.878 37.2042 115.47 37.2042C115.064 37.2042 115.064 37.2848 114.656 37.2848C114.25 37.2848 114.25 37.1409 113.842 37.1409C113.436 37.1409 113.436 37.1293 113.028 37.1293C112.621 37.1293 112.621 37.2176 112.213 37.2176C111.807 37.2176 111.807 37.3002 111.399 37.3002C110.993 37.3002 110.993 37.3501 110.585 37.3501C110.179 37.3501 110.179 37.2349 109.771 37.2349C109.365 37.2349 109.365 37.2752 108.957 37.2752C108.551 37.2752 108.551 37.4269 108.145 37.4269C107.738 37.4269 107.738 37.3213 107.332 37.3213C106.926 37.3213 106.926 37.1716 106.52 37.1716C106.114 37.1716 106.114 37.3674 105.708 37.3674C105.302 37.3674 105.302 37.1466 104.894 37.1466C104.488 37.1466 104.488 37.1696 104.08 37.1696C103.673 37.1696 103.673 37.2196 103.265 37.2196C102.859 37.2196 102.859 37.1178 102.451 37.1178C102.045 37.1178 102.045 37.1908 101.637 37.1908C101.231 37.1908 101.231 37.3943 100.823 37.3943C100.417 37.3943 100.417 37.1812 100.009 37.1812C99.6026 37.1812 99.6027 37.1447 99.1946 37.1447C98.7885 37.1447 98.7885 37.3232 98.3805 37.3232C97.9743 37.3232 97.9744 37.137 97.5663 37.137C97.1602 37.137 97.1602 37.2868 96.7522 37.2868C96.346 37.2868 96.346 37.1312 95.938 37.1312C95.53 37.1312 95.53 37.2848 95.1238 37.2848C94.7177 37.2848 94.7177 37.2272 94.3097 37.2272C93.9036 37.2272 93.9036 37.448 93.4955 37.448C93.0894 37.448 93.0894 37.233 92.6814 37.233C92.2734 37.233 92.2734 37.2829 91.8672 37.2829C91.4611 37.2829 91.4611 37.4864 91.0531 37.4864C90.647 37.4864 90.647 37.137 90.2389 37.137C89.8309 37.137 89.8309 37.3731 89.4248 37.3731C89.0187 37.3731 89.0187 37.3405 88.6106 37.3405C88.2026 37.3405 88.2026 37.1236 87.7965 37.1236C87.3884 37.1236 87.3884 37.1965 86.9823 37.1965C86.5743 37.1965 86.5743 37.2119 86.1682 37.2119C85.7601 37.2119 85.7601 37.2868 85.354 37.2868C84.946 37.2868 84.946 37.2848 84.5398 37.2848C84.1318 37.2848 84.1318 37.3923 83.7257 37.3923C83.3177 37.3923 83.3177 37.4845 82.9115 37.4845C82.5054 37.4845 82.5054 37.4403 82.0974 37.4403C81.6894 37.4403 81.6894 37.3175 81.2832 37.3175C80.8771 37.3175 80.8771 37.1812 80.4691 37.1812C80.061 37.1812 80.061 37.4327 79.6549 37.4327C79.2469 37.4327 79.2469 37.1792 78.8408 37.1792C78.4327 37.1792 78.4327 37.2292 78.0266 37.2292C77.6186 37.2292 77.6186 37.3252 77.2125 37.3252C76.8064 37.3252 76.8044 37.448 76.3983 37.448C75.9922 37.448 75.9903 37.2042 75.5842 37.2042C75.1761 37.2042 75.1761 37.16 74.77 37.16C74.362 37.16 74.362 37.1581 73.9559 37.1581C73.5478 37.1581 73.5478 37.4826 73.1398 37.4826C72.7317 37.4826 72.7317 37.3117 72.3237 37.3136C71.9426 37.3136 71.9465 37.304 71.5596 37.1773Z" fill="#398967"/>
<path d="M153.368 42.2861C152.96 42.2861 152.96 42.2765 152.552 42.2765C152.144 42.2765 152.144 42.3782 151.736 42.3782C151.328 42.3782 151.328 42.4262 150.92 42.4262C150.512 42.4262 150.512 42.1863 150.104 42.1863C149.696 42.1863 149.696 42.551 149.288 42.551C148.88 42.551 148.88 42.5414 148.472 42.5414C148.063 42.5414 148.063 42.2554 147.655 42.2554C147.247 42.2554 147.247 42.2515 146.839 42.2515C146.431 42.2515 146.431 42.2611 146.023 42.2611C145.615 42.2611 145.615 42.3245 145.207 42.3245C144.799 42.3245 144.799 42.3917 144.391 42.3917C143.983 42.3917 143.983 42.1978 143.575 42.1978C143.167 42.1978 143.167 42.313 142.759 42.313C142.351 42.313 142.351 42.4493 141.943 42.4493C141.535 42.4493 141.535 42.4627 141.127 42.4627C140.719 42.4627 140.719 42.5222 140.311 42.5222C139.903 42.5222 139.903 42.409 139.495 42.409C139.087 42.409 139.087 42.3072 138.679 42.3072C138.271 42.3072 138.271 42.2343 137.862 42.2343C137.454 42.2343 137.454 42.3494 137.046 42.3494C136.638 42.3494 136.638 42.1978 136.23 42.1978C135.822 42.1978 135.822 42.5376 135.414 42.5376C135.006 42.5376 135.006 42.2227 134.598 42.2227C134.19 42.2227 134.19 42.5434 133.782 42.5434C133.374 42.5434 133.374 42.3437 132.966 42.3437C132.558 42.3437 132.558 42.2765 132.15 42.2765C131.742 42.2765 131.742 42.4186 131.334 42.4186C130.926 42.4186 130.926 42.5414 130.518 42.5414C130.11 42.5414 130.11 42.1767 129.702 42.1767C129.294 42.1767 129.294 42.3053 128.886 42.3053C128.478 42.3053 128.478 42.4608 128.07 42.4608C127.662 42.4608 127.662 42.2688 127.253 42.2688C126.845 42.2688 126.845 42.3648 126.437 42.3648C126.029 42.3648 126.029 42.5165 125.621 42.5165C125.213 42.5165 125.213 42.1939 124.805 42.1939C124.397 42.1939 124.397 42.2285 123.987 42.2285C123.579 42.2285 123.579 42.3917 123.171 42.3917C122.763 42.3917 122.763 42.2323 122.355 42.2323C121.947 42.2323 121.947 42.4378 121.539 42.4378C121.131 42.4378 121.131 42.3629 120.723 42.3629C120.315 42.3629 120.315 42.4013 119.907 42.4013C119.499 42.4013 119.499 42.169 119.089 42.169C118.681 42.169 118.681 42.2247 118.273 42.2247C117.865 42.2247 117.865 42.3706 117.457 42.3706C117.049 42.3706 117.049 42.2554 116.641 42.2554C116.233 42.2554 116.233 42.3437 115.825 42.3437C115.416 42.3437 115.416 42.3226 115.008 42.3226C114.6 42.3226 114.6 42.5395 114.19 42.5395C113.782 42.5395 113.782 42.3974 113.374 42.3974C112.966 42.3974 112.966 42.432 112.558 42.432C112.15 42.432 112.15 42.4666 111.742 42.4666C111.334 42.4666 111.334 42.4358 110.924 42.4358C110.516 42.4358 110.516 42.455 110.108 42.455C109.7 42.455 109.7 42.3341 109.292 42.3341C108.884 42.3341 108.884 42.5146 108.476 42.5146C108.068 42.5146 108.068 42.2285 107.66 42.2285C107.252 42.2285 107.252 42.5146 106.844 42.5146C106.436 42.5146 106.436 42.4992 106.028 42.4992C105.62 42.4992 105.62 42.2112 105.212 42.2112C104.804 42.2112 104.804 42.4666 104.394 42.4666C103.986 42.4666 103.986 42.2477 103.578 42.2477C103.17 42.2477 103.17 42.1786 102.762 42.1786C102.353 42.1786 102.353 42.4934 101.945 42.4934C101.537 42.4934 101.537 42.4838 101.129 42.4838C100.721 42.4838 100.721 42.4608 100.311 42.4608C99.9033 42.4608 99.9033 42.4704 99.4933 42.4704C99.0853 42.4704 99.0853 42.2899 98.6773 42.2899C98.2692 42.2899 98.2692 42.4819 97.8612 42.4819C97.4532 42.4819 97.4531 42.3245 97.0451 42.3245C96.6371 42.3245 96.6371 42.3379 96.2271 42.3379C95.819 42.3379 95.8191 42.5414 95.411 42.5414C95.003 42.5414 95.003 42.528 94.5949 42.528C94.1869 42.528 94.1869 42.1901 93.7769 42.1901C93.3689 42.1901 93.3689 42.4704 92.9589 42.4704C92.5509 42.4704 92.5509 42.5395 92.1429 42.5395C91.7348 42.5395 91.7348 42.3456 91.3249 42.3456C90.9168 42.3456 90.9168 42.2093 90.5068 42.2093C90.0988 42.2093 90.0988 42.551 89.6888 42.551C89.2808 42.551 89.2808 42.2995 88.8708 42.2995C88.4628 42.2995 88.4628 42.5088 88.0528 42.5088C87.6448 42.5088 87.6448 42.4608 87.2348 42.4608C86.8268 42.4608 86.8268 42.1843 86.4168 42.1843C86.0088 42.1843 86.0088 42.5453 85.5988 42.5453C85.1908 42.5453 85.1908 42.3974 84.7808 42.3974C84.3728 42.3974 84.3728 42.4378 83.9628 42.4378C83.5548 42.4378 83.5548 42.5222 83.1468 42.5222C82.7387 42.5222 82.7387 42.2016 82.3287 42.2016C81.9207 42.2016 81.9207 42.4493 81.5127 42.4493C81.1046 42.4493 81.1046 42.5549 80.6947 42.5549C80.2866 42.5549 80.2866 42.3725 79.8767 42.3725C79.4686 42.3725 79.4686 42.2669 79.0587 42.2669C78.6487 42.2669 78.6487 42.2592 78.2407 42.2592C77.8326 42.2592 77.8307 42.432 77.4227 42.432C77.0146 42.432 77.0127 42.3245 76.6047 42.3245C76.1966 42.3245 76.1966 42.505 75.7867 42.505C75.3786 42.505 75.3786 42.4109 74.9686 42.4109C74.5587 42.4109 74.5587 42.4858 74.1506 42.4858C73.7407 42.4858 73.7407 42.217 73.3307 42.217C72.9208 42.217 72.9208 42.5242 72.5108 42.5242C72.2471 42.5242 71.9873 42.361 71.7313 42.3514C71.4676 42.3418 71.2039 42.3763 70.9479 42.3571C70.6842 42.336 70.4186 42.3398 70.1646 42.3091C69.9009 42.2765 69.6237 42.3264 69.3735 42.2842C69.1098 42.24 68.8923 41.977 68.646 41.9232C68.3823 41.8656 68.1244 41.8311 67.8838 41.762C67.622 41.6871 67.3372 41.7101 67.1043 41.6237C66.8464 41.5278 66.6943 41.2283 66.4749 41.1188C66.2228 40.9921 65.8917 41.0363 65.6992 40.8942C65.4663 40.7233 65.2065 40.5582 65.0699 40.3701C64.9043 40.1397 64.9544 39.8056 64.9544 39.5561C64.9544 39.3065 64.9428 38.9993 65.1064 38.767C65.2412 38.5789 65.6184 38.5942 65.8513 38.4234C66.0438 38.2832 66.1977 38.072 66.4499 37.9453C66.6674 37.8359 66.8483 37.5921 67.1062 37.4961C67.3391 37.4097 67.5797 37.281 67.8395 37.2062C68.0801 37.1371 68.3573 37.1447 68.621 37.0852C68.8673 37.0315 69.1156 36.922 69.3793 36.8779C69.6295 36.8356 69.8855 36.732 70.1492 36.6993C70.4032 36.6686 70.6862 36.851 70.9498 36.8299C71.2058 36.8107 71.458 36.6379 71.7217 36.6283C71.9776 36.6187 72.2432 36.707 72.5069 36.707C72.915 36.707 72.915 36.8683 73.323 36.8683C73.7311 36.8683 73.7311 36.8068 74.1391 36.8068C74.5471 36.8068 74.5471 36.6513 74.9552 36.6513C75.3632 36.6513 75.3632 36.7166 75.7713 36.7166C76.1793 36.7166 76.1793 36.6417 76.5873 36.6417C76.9954 36.6417 76.9954 36.7838 77.4034 36.7838C77.8115 36.7838 77.8115 36.6072 78.2195 36.6072C78.6275 36.6072 78.6275 36.7876 79.0356 36.7876C79.4436 36.7876 79.4436 36.6936 79.8516 36.6936C80.2597 36.6936 80.2597 36.7224 80.6677 36.7224C81.0758 36.7224 81.0758 36.6437 81.4838 36.6437C81.8918 36.6437 81.8918 36.5976 82.2999 36.5976C82.7079 36.5976 82.7079 36.851 83.1159 36.851C83.524 36.851 83.524 36.851 83.932 36.851C84.3401 36.851 84.3401 36.826 84.7481 36.826C85.1562 36.826 85.1562 36.6936 85.5642 36.6936C85.9722 36.6936 85.9722 36.6667 86.3803 36.6667C86.7883 36.6667 86.7883 36.8664 87.1964 36.8664C87.6044 36.8664 87.6044 36.828 88.0124 36.828C88.4205 36.828 88.4205 36.5649 88.8285 36.5649C89.2365 36.5649 89.2365 36.8126 89.6446 36.8126C90.0526 36.8126 90.0526 36.6878 90.4607 36.6878C90.8687 36.6878 90.8687 36.7531 91.2767 36.7531C91.6848 36.7531 91.6848 36.7473 92.0928 36.7473C92.5008 36.7473 92.5008 36.5976 92.9089 36.5976C93.3169 36.5976 93.3169 36.6859 93.725 36.6859C94.133 36.6859 94.133 36.7684 94.5411 36.7684C94.9491 36.7684 94.9491 36.7896 95.3571 36.7896C95.7652 36.7896 95.7652 36.7416 96.1732 36.7416C96.5813 36.7416 96.5813 36.78 96.9893 36.78C97.3973 36.78 97.3973 36.8452 97.8054 36.8452C98.2134 36.8452 98.2134 36.7569 98.6214 36.7569C99.0295 36.7569 99.0295 36.7377 99.4375 36.7377C99.8456 36.7377 99.8456 36.6302 100.254 36.6302C100.662 36.6302 100.662 36.6456 101.07 36.6456C101.478 36.6456 101.478 36.7704 101.886 36.7704C102.294 36.7704 102.294 36.6609 102.702 36.6609C103.11 36.6609 103.11 36.6782 103.518 36.6782C103.926 36.6782 103.926 36.8356 104.334 36.8356C104.742 36.8356 104.742 36.8971 105.15 36.8971C105.558 36.8971 105.558 36.6091 105.966 36.6091C106.374 36.6091 106.374 36.9067 106.784 36.9067C107.192 36.9067 107.192 36.8721 107.6 36.8721C108.008 36.8721 108.008 36.8721 108.416 36.8721C108.824 36.8721 108.824 36.7435 109.232 36.7435C109.64 36.7435 109.64 36.899 110.048 36.899C110.457 36.899 110.456 36.682 110.865 36.682C111.273 36.682 111.273 36.8203 111.683 36.8203C112.091 36.8203 112.091 36.8472 112.499 36.8472C112.907 36.8472 112.907 36.7665 113.315 36.7665C113.723 36.7665 113.723 36.9105 114.131 36.9105C114.539 36.9105 114.539 36.922 114.949 36.922C115.357 36.922 115.357 36.8337 115.765 36.8337C116.173 36.8337 116.173 36.7512 116.581 36.7512C116.989 36.7512 116.989 36.7012 117.397 36.7012C117.805 36.7012 117.805 36.8164 118.213 36.8164C118.621 36.8164 118.621 36.7761 119.029 36.7761C119.437 36.7761 119.437 36.6245 119.845 36.6245C120.253 36.6245 120.253 36.73 120.661 36.73C121.069 36.73 121.069 36.8798 121.479 36.8798C121.887 36.8798 121.887 36.684 122.295 36.684C122.703 36.684 122.703 36.9048 123.111 36.9048C123.52 36.9048 123.52 36.8817 123.928 36.8817C124.336 36.8817 124.336 36.8318 124.744 36.8318C125.152 36.8318 125.152 36.9336 125.562 36.9336C125.97 36.9336 125.97 36.8606 126.38 36.8606C126.788 36.8606 126.788 36.6571 127.196 36.6571C127.604 36.6571 127.604 36.8702 128.012 36.8702C128.42 36.8702 128.42 36.9067 128.828 36.9067C129.236 36.9067 129.236 36.7281 129.646 36.7281C130.054 36.7281 130.054 36.9144 130.462 36.9144C130.87 36.9144 130.87 36.7646 131.278 36.7646C131.686 36.7646 131.686 36.9201 132.096 36.9201C132.504 36.9201 132.504 36.7665 132.914 36.7665C133.322 36.7665 133.322 36.8241 133.73 36.8241C134.138 36.8241 134.138 36.6033 134.548 36.6033C134.956 36.6033 134.956 36.8184 135.366 36.8184C135.774 36.8184 135.774 36.7684 136.184 36.7684C136.592 36.7684 136.592 36.5649 137.002 36.5649C137.41 36.5649 137.41 36.9144 137.82 36.9144C138.228 36.9144 138.228 36.6782 138.638 36.6782C139.046 36.6782 139.046 36.7108 139.456 36.7108C139.864 36.7108 139.864 36.9278 140.274 36.9278C140.682 36.9278 140.682 36.8548 141.092 36.8548C141.5 36.8548 141.5 36.8395 141.91 36.8395C142.318 36.8395 142.318 36.7646 142.726 36.7646C143.134 36.7646 143.134 36.7665 143.544 36.7665C143.952 36.7665 143.952 36.659 144.36 36.659C144.768 36.659 144.768 36.5669 145.178 36.5669C145.586 36.5669 145.586 36.611 145.996 36.611C146.404 36.611 146.404 36.7339 146.814 36.7339C147.224 36.7339 147.224 36.8702 147.632 36.8702C148.04 36.8702 148.042 36.6187 148.45 36.6187C148.86 36.6187 148.86 36.8721 149.268 36.8721C149.676 36.8721 149.676 36.8222 150.086 36.8222C150.494 36.8222 150.494 36.7262 150.904 36.7262C151.314 36.7262 151.314 36.6033 151.722 36.6033C152.132 36.6033 152.132 36.8472 152.542 36.8472C152.952 36.8472 152.952 36.8913 153.362 36.8913C153.626 36.8913 153.88 36.8971 154.138 36.9067C154.402 36.9163 154.681 36.6091 154.937 36.6283C155.2 36.6494 155.449 36.8414 155.701 36.8721C155.964 36.9048 156.192 37.1332 156.442 37.1755C156.705 37.2196 157.021 36.9566 157.267 37.0103C157.531 37.0679 157.729 37.3463 157.97 37.4154C158.232 37.4903 158.544 37.3828 158.774 37.4692C159.032 37.5652 159.279 37.6842 159.496 37.7936C159.748 37.9204 159.997 38.0509 160.189 38.1911C160.422 38.3619 160.611 38.5885 160.745 38.7785C160.911 39.0089 161.053 39.3026 161.053 39.5522C161.053 39.8018 160.765 39.9919 160.599 40.2223C160.464 40.4104 160.335 40.6273 160.103 40.7982C159.91 40.9384 159.644 40.9806 159.392 41.1073C159.175 41.2167 158.984 41.4145 158.726 41.5105C158.493 41.5969 158.22 41.5815 157.96 41.6564C157.72 41.7255 157.464 41.7409 157.2 41.8004C156.954 41.8541 156.74 42.0999 156.476 42.144C156.226 42.1863 155.961 42.169 155.697 42.2016C155.443 42.2323 155.189 42.2995 154.925 42.3206C154.669 42.3398 154.409 42.3878 154.146 42.3974C153.895 42.4109 153.632 42.2861 153.368 42.2861Z" fill="#DF856A"/>
<path d="M103.551 3.91033C103.551 4.17143 103.684 4.43061 103.633 4.67635C103.583 4.92977 103.331 5.10831 103.235 5.34062C103.137 5.57868 103.318 5.96841 103.175 6.17767C103.033 6.39077 102.604 6.3735 102.423 6.55396C102.242 6.73443 102.111 6.94369 101.899 7.08576C101.688 7.22591 101.48 7.3507 101.241 7.45053C101.008 7.54652 100.802 7.75387 100.548 7.80378C100.302 7.85178 100.032 7.99001 99.7706 7.99001C99.5089 7.99001 99.2875 7.61372 99.0412 7.5638C98.7871 7.51389 98.4965 7.63484 98.2636 7.53884C98.0249 7.44093 97.8613 7.21631 97.6496 7.07616C97.436 6.93409 97.3109 6.72291 97.1319 6.54244C96.9509 6.36198 96.5737 6.34854 96.4313 6.13543C96.2908 5.92425 96.1637 5.67659 96.0656 5.44045C95.9693 5.20815 95.9386 4.93361 95.8885 4.68019C95.8404 4.43445 96.004 4.16951 96.004 3.91033C96.004 3.64923 95.798 3.37661 95.8462 3.13087C95.8962 2.87745 95.9655 2.61059 96.0617 2.37637C96.1599 2.13831 96.2869 1.89257 96.4293 1.68138C96.5718 1.46828 96.8566 1.36077 97.0376 1.18222C97.2185 1.00176 97.3436 0.746418 97.5572 0.602429C97.7689 0.46228 98.073 0.487238 98.3117 0.389326C98.5446 0.293334 98.7409 0.0591121 98.995 0.00919599C99.2413 -0.0388002 99.5127 0.116708 99.7725 0.116708C100.032 0.116708 100.275 0.101349 100.521 0.149345C100.775 0.199261 101.047 0.180063 101.28 0.276055C101.518 0.373967 101.743 0.506437 101.955 0.648506C102.169 0.790574 102.294 1.03248 102.475 1.21102C102.656 1.39149 102.991 1.45484 103.133 1.66795C103.274 1.87913 103.391 2.13447 103.489 2.37253C103.585 2.60483 103.722 2.86209 103.772 3.11551C103.822 3.36125 103.551 3.64923 103.551 3.91033Z" fill="#DF856A"/>
<path d="M35.6706 93.1602C36.0295 93.1602 36.3114 93.0911 36.6718 92.926C36.6971 92.9145 36.7267 92.901 36.7638 92.8857L36.7712 92.8838C36.878 92.8588 36.9997 92.8281 37.1614 92.7705C37.3913 92.759 37.6701 92.7129 38.0039 92.5727C38.1893 92.494 38.2932 92.4441 38.4015 92.3903C38.4489 92.3673 38.4964 92.3424 38.5943 92.302C38.9221 92.1638 39.1743 91.9795 39.3701 91.801C39.4472 91.776 39.5347 91.7453 39.6415 91.703C39.8403 91.6762 40.0717 91.6262 40.3654 91.5034C40.5939 91.4074 40.7867 91.2864 40.9499 91.1616C41.1323 91.1367 41.3341 91.0868 41.5521 90.9927C41.7568 90.9063 41.9037 90.8257 42.0209 90.7546C42.2271 90.7354 42.4718 90.6836 42.7596 90.5626C43.0459 90.4417 43.2802 90.2766 43.4716 90.1038C43.5962 90.0769 43.7282 90.0385 43.8676 89.9829C44.0456 89.9502 44.2518 89.9022 44.5322 89.7832C44.8022 89.668 44.9831 89.5586 45.1359 89.4568C45.4118 89.3378 45.6002 89.2168 45.7574 89.1036C45.8761 89.0517 45.9755 88.998 46.0645 88.9481C46.3063 88.9442 46.5881 88.8962 46.9041 88.7618C47.1607 88.6524 47.3536 88.5353 47.5078 88.4239C47.6665 88.3913 47.8505 88.3395 48.0878 88.2396L48.1041 88.2339C48.2495 88.1993 48.4275 88.1532 48.6945 88.04C49.006 87.9075 49.2537 87.7309 49.4525 87.5466C49.5727 87.5158 49.7047 87.4717 49.85 87.4103C50.0325 87.3335 50.1883 87.2451 50.3218 87.1549C50.5383 87.1396 50.7831 87.0896 51.053 86.9745C51.3512 86.8477 51.5633 86.7076 51.731 86.5809C51.863 86.5214 51.9535 86.4772 52.041 86.4331C52.0454 86.4311 52.0499 86.4292 52.0543 86.4254C52.2694 86.4081 52.5275 86.3582 52.8346 86.2295C53.1431 86.099 53.3923 85.9185 53.5896 85.7342C53.7127 85.7035 53.8462 85.6613 53.9901 85.5998C54.1444 85.5346 54.2215 85.5019 54.2987 85.4674C54.3699 85.4367 54.4411 85.4059 54.5835 85.3445C54.711 85.2907 54.7896 85.2562 54.8564 85.2255C55.1264 85.2389 55.4512 85.2005 55.8206 85.0431C56.0861 84.9317 56.2478 84.8338 56.3798 84.7513L56.4006 84.7397C56.6765 84.6226 56.9034 84.4671 57.0904 84.302C57.2387 84.2732 57.3974 84.2271 57.5665 84.1542C57.9195 84.0044 58.1791 83.8105 58.3779 83.6262C58.4728 83.5802 58.547 83.5379 58.6167 83.4976C58.6212 83.4938 58.6271 83.4918 58.6301 83.4899C58.7013 83.4784 58.7799 83.465 58.8644 83.4438C59.1685 83.4822 59.5409 83.4611 59.9725 83.2787C60.3419 83.1232 60.6104 82.9159 60.8151 82.7181C60.9768 82.6298 61.1073 82.5358 61.2185 82.4494C61.3862 82.3706 61.5108 82.2996 61.6146 82.2343C61.7333 82.2171 61.8638 82.1902 62.0121 82.1422C62.2613 82.1403 62.561 82.0999 62.9185 81.9483C64.0859 81.453 64.7237 79.8268 64.341 78.3159C63.9924 76.9394 62.9185 76.1311 61.846 76.375C61.6176 76.375 61.3432 76.4018 61.0183 76.5228C60.8166 76.5477 60.5807 76.5977 60.2826 76.7244C60.0037 76.8434 59.8301 76.949 59.6892 77.0411C59.3866 77.1717 59.173 77.3157 59.0054 77.4482C58.8808 77.5096 58.7695 77.5749 58.6687 77.644C58.4743 77.6555 58.2607 77.6958 58.0293 77.7841C57.8409 77.811 57.6125 77.8609 57.3188 77.9857C57.0859 78.0836 56.945 78.1623 56.8219 78.2315C56.7788 78.2564 56.7788 78.2564 56.7358 78.2737C56.5267 78.362 56.3516 78.4657 56.2018 78.5732C56.0045 78.5943 55.785 78.6461 55.5432 78.7479C55.1338 78.9207 54.8282 79.1818 54.6102 79.4294C54.3713 79.4352 54.0969 79.4832 53.7899 79.6137C53.6222 79.6848 53.5392 79.7213 53.4561 79.7597C53.3923 79.7884 53.3285 79.8173 53.1995 79.871C53.0452 79.9363 52.9681 79.9689 52.8909 80.0035C52.8583 80.0169 52.8272 80.0304 52.7886 80.0476C52.5661 80.063 52.2991 80.1091 51.9787 80.2454C51.6672 80.3778 51.415 80.5602 51.2162 80.7484C51.0961 80.7791 50.9655 80.8213 50.8246 80.8808C50.6288 80.9634 50.5146 81.021 50.4063 81.0767C50.3648 81.0978 50.3218 81.1189 50.2372 81.1554C50.077 81.2226 49.9405 81.2955 49.8234 81.3666C49.5905 81.3742 49.322 81.4242 49.0223 81.5509C48.7687 81.6584 48.5669 81.7851 48.4023 81.9118C48.2406 81.9425 48.0567 81.9944 47.8431 82.0846C47.4915 82.2343 47.22 82.4398 47.0109 82.6509C46.9352 82.6759 46.8507 82.7066 46.7528 82.7469C46.5748 82.7796 46.3686 82.8276 46.0897 82.9466C45.928 83.0157 45.7916 83.0868 45.6744 83.1578C45.4415 83.1655 45.173 83.2154 44.8734 83.3421C44.5975 83.4592 44.4135 83.5725 44.2578 83.68C43.9908 83.7971 43.8068 83.9142 43.6511 84.0275C43.4419 84.1216 43.2891 84.2118 43.1601 84.2963C43.0711 84.3135 42.9747 84.3347 42.8664 84.3673C42.6009 84.3577 42.2745 84.3942 41.8948 84.5535C41.5669 84.6917 41.3059 84.8876 41.0997 85.0892C40.9899 85.118 40.8727 85.1583 40.7466 85.212C40.5939 85.2773 40.4737 85.3368 40.3743 85.3925C40.1325 85.3963 39.8462 85.4424 39.5244 85.5787C39.2277 85.7035 38.9903 85.8686 38.8005 86.0376C38.6699 86.0702 38.5261 86.1163 38.3614 86.1854C38.3154 86.2046 38.3154 86.2046 38.2665 86.218C38.1359 86.2564 37.9876 86.3006 37.7562 86.3985C37.3957 86.5521 37.1257 86.7594 36.924 86.9533C36.884 86.9725 36.8484 86.9898 36.8113 87.009C36.8068 87.0109 36.8024 87.0128 36.7964 87.0167C36.5725 87.0301 36.3055 87.0781 35.988 87.2125L35.9821 87.2144C35.9331 87.226 35.8797 87.2394 35.8204 87.2547C35.5994 87.1338 35.3887 87.0628 35.1959 87.0244C35.0802 86.9188 34.9482 86.8151 34.7984 86.721C34.5536 86.5655 34.3237 86.4734 34.1145 86.4177C33.9914 86.2987 33.8475 86.1816 33.6814 86.074C33.539 85.9435 33.3699 85.7995 33.1118 85.6363C32.8863 85.4942 32.7409 85.4213 32.6119 85.3599L32.5778 85.3426C32.5659 85.3368 32.5525 85.3272 32.5347 85.3157C32.1862 85.0949 31.8732 85.0008 31.6136 84.9605C31.6032 84.9548 31.5913 84.9471 31.5809 84.9413C31.5765 84.9375 31.572 84.9356 31.5661 84.9336C31.3896 84.7167 31.1582 84.4863 30.8378 84.2809C30.7206 84.1753 30.5752 84.0524 30.3483 83.9046C30.1999 83.7606 30.0204 83.6032 29.7505 83.4323C29.3574 83.1827 28.991 83.0963 28.6899 83.081C28.6409 83.0484 28.5875 83.0138 28.5267 82.9735C28.4303 82.912 28.3843 82.8794 28.3383 82.8468C28.2834 82.8084 28.2271 82.7681 28.1499 82.7162C27.9808 82.5223 27.7613 82.3111 27.4542 82.1172C27.2554 81.9905 27.07 81.906 26.9024 81.8484C26.7496 81.6853 26.5642 81.524 26.3372 81.38C26.177 81.2783 26.0376 81.2053 25.913 81.1515C25.7424 80.9519 25.5258 80.7465 25.244 80.5698C24.974 80.399 24.7664 80.3106 24.5839 80.2492C24.5691 80.2377 24.5557 80.2281 24.5335 80.2108C24.4252 80.1283 24.3036 80.0361 24.0988 79.9075C23.9728 79.7961 23.8155 79.6637 23.5544 79.4986C23.2578 79.3104 23.0175 79.2183 22.8157 79.1607C22.6585 79.0723 22.5087 79.0109 22.3678 78.9668C22.2194 78.8112 22.0414 78.6577 21.8263 78.5233C21.6839 78.433 21.5475 78.3639 21.4169 78.3102C21.2419 78.0913 21.0194 77.8782 20.7405 77.6997C20.3934 77.4789 20.0285 77.3637 19.6532 77.3522C19.6087 77.3214 19.5612 77.2907 19.5078 77.2562C19.2423 77.0872 19.0584 77.0085 18.9071 76.9471C18.9011 76.9432 18.8967 76.9413 18.8937 76.9375L18.8774 76.924C18.7929 76.853 18.6935 76.7724 18.554 76.6745C18.3864 76.4825 18.1654 76.2713 17.8569 76.0755C17.7189 75.9871 17.5913 75.92 17.4756 75.8681C17.2976 75.6473 17.0692 75.4266 16.774 75.2384C16.4818 75.0522 16.2133 74.9562 15.9804 74.9063C15.8766 74.8199 15.7534 74.7296 15.6036 74.6337C15.3322 74.4628 15.1245 74.3745 14.9435 74.3111C14.7522 74.194 14.6202 74.1287 14.5015 74.0731H14.5C14.3532 73.9271 14.1662 73.762 13.8992 73.5931C13.702 73.4683 13.5848 73.403 13.4987 73.357C13.4839 73.3493 13.4676 73.3397 13.4513 73.3301C13.2896 73.1573 13.0878 72.973 12.803 72.7925L12.7823 72.7772C12.6591 72.6716 12.5079 72.5468 12.2572 72.3874C12.0005 72.2242 11.8018 72.1379 11.6297 72.0764C11.5096 71.9727 11.3582 71.8499 11.1179 71.6982C10.7723 71.4793 10.4712 71.3853 10.2205 71.3411C10.1345 71.297 10.0558 71.2605 9.98315 71.2317C9.82888 71.0704 9.63902 70.9034 9.38092 70.7402C9.3646 70.7306 9.35125 70.721 9.34086 70.7133L9.3112 70.6903C9.19402 70.5943 9.05902 70.4887 8.83206 70.3447C8.81871 70.3351 8.80685 70.3293 8.79795 70.3217L8.77571 70.3025C8.66446 70.2103 8.52799 70.1009 8.30993 69.9607C8.16901 69.8302 7.9999 69.6881 7.74328 69.5249C7.69878 69.4961 7.6973 69.4961 7.65577 69.4616C7.54155 69.3713 7.41101 69.2696 7.19147 69.1314C7.03424 69.0315 6.95413 68.9835 6.87403 68.9355C6.81173 68.8971 6.74795 68.8587 6.62483 68.78C6.27328 68.5573 5.9677 68.4633 5.71108 68.421C5.63988 68.3845 5.57313 68.3538 5.51083 68.3269C5.35359 68.158 5.15333 67.9795 4.88929 67.8105C4.79435 67.751 4.74837 67.7184 4.70238 67.6857C4.61041 67.6204 4.51844 67.5552 4.33006 67.4361C4.11645 67.3017 3.93104 67.2154 3.76787 67.1558C3.61954 67.0061 3.43708 66.8487 3.20419 66.7008C2.10057 66.002 0.76703 66.5933 0.227086 68.0217C-0.278741 69.3598 0.0891178 70.9571 1.04589 71.7289C1.21647 71.9286 1.44344 72.1513 1.76682 72.3567C2.05756 72.541 2.29488 72.6332 2.49662 72.6908C2.52036 72.7061 2.53965 72.7215 2.55893 72.7349C2.61975 72.7791 2.67907 72.8194 2.75473 72.8712C2.92235 73.0632 3.14189 73.2725 3.44895 73.4664C3.71002 73.6315 3.90433 73.7179 4.07344 73.7812C4.39829 73.979 4.68161 74.0711 4.92192 74.1134C4.94268 74.1268 4.96197 74.1383 4.98274 74.1499C5.04504 74.1882 5.10735 74.2266 5.23195 74.3054C5.27645 74.3342 5.27793 74.3342 5.31947 74.3687C5.42924 74.457 5.55383 74.553 5.75705 74.6836C5.89797 74.8141 6.06709 74.9562 6.32371 75.1194C6.33706 75.129 6.34892 75.1347 6.35782 75.1424L6.38008 75.1616C6.49578 75.2576 6.63817 75.3709 6.87254 75.5187C6.89035 75.5302 6.90222 75.5379 6.91408 75.5456L6.94374 75.5686C7.03126 75.6397 7.12917 75.7164 7.26712 75.8105C7.43474 75.9967 7.64389 76.1926 7.94501 76.3826C8.20905 76.5497 8.40931 76.6361 8.58287 76.6994C8.86174 76.8684 9.10946 76.9567 9.32306 77.0047C9.42097 77.0834 9.54259 77.1736 9.70428 77.2754C9.96239 77.4386 10.1597 77.5249 10.3332 77.5883C10.4282 77.6689 10.5409 77.763 10.7041 77.8724C10.8687 78.051 11.0734 78.2411 11.3686 78.4273C11.5659 78.5521 11.6831 78.6154 11.7691 78.6634C11.7958 78.6788 11.8225 78.6922 11.8596 78.7153C12.0079 78.865 12.1978 79.0339 12.4722 79.2067C12.7007 79.3507 12.849 79.4237 12.981 79.487L13.0137 79.5024C13.0226 79.5082 13.0359 79.5158 13.0522 79.5254C13.2911 79.6771 13.4809 79.7635 13.6456 79.823C13.7821 79.9497 13.9467 80.086 14.1811 80.2358C14.3665 80.3529 14.543 80.4354 14.7062 80.4911C14.8649 80.6677 15.0577 80.8386 15.2936 80.9884C15.5028 81.1208 15.6852 81.2053 15.8439 81.2648C15.9923 81.4165 16.1777 81.5758 16.4136 81.7256C16.4254 81.7333 16.4343 81.739 16.4432 81.7448L16.4595 81.7582C16.5767 81.8561 16.7221 81.9732 16.9609 82.1249C17.2264 82.2939 17.4104 82.3726 17.5617 82.434C17.5691 82.4398 17.575 82.4436 17.581 82.4474L17.6017 82.4647C17.7174 82.5607 17.8613 82.6759 18.0957 82.8237C18.2945 82.9504 18.4977 83.0407 18.7068 83.0983C18.8537 83.2538 19.0258 83.3997 19.2275 83.5283C19.4352 83.6608 19.631 83.7472 19.8119 83.8029C19.9603 83.9584 20.1383 84.112 20.3534 84.2463C20.7375 84.4902 21.0832 84.5804 21.365 84.6092C21.4733 84.6591 21.5727 84.6956 21.6646 84.7244C21.7789 84.8223 21.9242 84.9356 22.1378 85.0719C22.1987 85.1103 22.2076 85.118 22.255 85.1544C22.3633 85.237 22.4849 85.3291 22.6897 85.4597C22.8484 85.5595 22.9863 85.6325 23.1094 85.6862C23.28 85.8859 23.4981 86.0932 23.7799 86.2718C23.9372 86.3716 24.0751 86.4427 24.1982 86.4983C24.3688 86.6999 24.5884 86.9073 24.8702 87.0858C25.1105 87.2375 25.3271 87.3296 25.5229 87.3853C25.6564 87.5139 25.8166 87.6426 26.0109 87.7654C26.1058 87.8249 26.1518 87.8576 26.1978 87.8902C26.2898 87.9555 26.3803 88.0188 26.5672 88.1379C26.6295 88.1763 26.6413 88.1859 26.6888 88.2224C26.7956 88.303 26.9158 88.3951 27.119 88.5218C27.475 88.7465 27.8088 88.8405 28.0921 88.8674C28.1603 88.9173 28.2345 88.9692 28.3175 89.0229C28.3976 89.094 28.4896 89.1727 28.6113 89.2629C28.7922 89.4914 29.0325 89.7371 29.3722 89.9521C29.5324 90.0539 29.6125 90.1019 29.6926 90.1499C29.7549 90.1864 29.8157 90.2248 29.9389 90.3015C30.2978 90.5281 30.6197 90.6222 30.8823 90.6606C30.952 90.697 31.0143 90.7278 31.0721 90.7546L31.1063 90.7719C31.1107 90.7738 31.1166 90.7777 31.1226 90.7815C31.2042 90.8583 31.2961 90.937 31.4089 91.0234C31.5913 91.2596 31.8405 91.5226 32.1906 91.7434C32.4161 91.8854 32.6267 91.9757 32.8225 92.0313C32.9634 92.1734 33.1296 92.3136 33.3269 92.4383C33.6843 92.6649 34.0211 92.757 34.3074 92.7839C34.6174 92.9836 34.9586 93.0968 35.3353 93.1314C35.4599 93.1544 35.5682 93.1602 35.6706 93.1602ZM20.9956 84.4153C20.9956 84.4153 20.9971 84.4153 20.9971 84.4172C20.9971 84.4172 20.9971 84.4172 20.9956 84.4153Z" fill="#F0DDE6"/>
<path d="M35.0001 94.5786C35.2437 94.5786 35.5338 94.5341 35.8534 94.3988C36.1988 94.2519 36.5133 94.0218 36.7943 93.7125C36.9593 93.6873 37.1462 93.6409 37.3575 93.5559C37.4439 93.5365 37.538 93.5133 37.6475 93.4785C37.8795 93.4727 38.1567 93.4263 38.4866 93.2871C38.6632 93.2117 38.7676 93.1595 38.8668 93.1092C38.9016 93.0918 38.9377 93.0744 39.0086 93.0435C39.3167 92.912 39.5667 92.7361 39.7691 92.5563C39.8013 92.5447 39.8348 92.5331 39.8709 92.5196C40.0655 92.4964 40.2937 92.448 40.5798 92.3262C40.777 92.2431 40.951 92.1406 41.1044 92.0285C41.2668 92.0014 41.4421 91.9531 41.629 91.8738C41.781 91.8081 41.9048 91.7462 42.0105 91.6843C42.2064 91.6631 42.4332 91.6128 42.6949 91.5007C42.9359 91.3982 43.1615 91.2551 43.3728 91.0734C43.454 91.0541 43.5365 91.027 43.6229 90.9941C43.7982 90.9651 44.0044 90.9149 44.2673 90.8027C44.5226 90.6944 44.7017 90.5862 44.8525 90.4818C45.0909 90.3735 45.2714 90.2575 45.417 90.1492C45.4712 90.1241 45.5214 90.099 45.5691 90.0719C45.8037 90.0661 46.0705 90.0158 46.367 89.8902C46.5899 89.7954 46.7678 89.691 46.9147 89.5866C47.0488 89.5576 47.2009 89.5112 47.38 89.4377C47.5321 89.4029 47.7074 89.3565 47.9497 89.2521C48.2384 89.1284 48.4808 88.9602 48.6818 88.7823C48.7746 88.7553 48.8726 88.7205 48.977 88.676C49.1213 88.6141 49.2515 88.5445 49.3675 88.473C49.5712 88.4556 49.7954 88.4034 50.0403 88.299C50.3265 88.1772 50.5404 88.038 50.7119 87.9046C50.775 87.8756 50.8291 87.8485 50.8768 87.8234C51.0856 87.806 51.3318 87.7576 51.6192 87.6339C51.9054 87.5121 52.1477 87.3439 52.35 87.1622C52.4428 87.1351 52.5408 87.1003 52.6439 87.0558C52.7844 86.9959 52.854 86.9669 52.9236 86.9359C52.9842 86.9089 53.0473 86.8818 53.1698 86.8296C53.2291 86.8045 53.2768 86.7832 53.318 86.7658C53.5784 86.7774 53.9006 86.7407 54.2589 86.5879C54.4999 86.4855 54.6649 86.3888 54.8041 86.2999C55.0413 86.1955 55.2475 86.0582 55.4266 85.9093C55.5478 85.8803 55.6741 85.8397 55.8082 85.7837C56.1562 85.6348 56.4268 85.4337 56.6343 85.2404C56.6691 85.221 56.7014 85.2036 56.7323 85.1862C56.7542 85.1824 56.7761 85.1785 56.7993 85.1746C57.1009 85.221 57.4915 85.2094 57.9361 85.02C58.306 84.8634 58.5896 84.643 58.8061 84.4322C58.9273 84.3587 59.0304 84.2833 59.1219 84.2118C59.2212 84.1635 59.3062 84.1151 59.3823 84.0668C59.4596 84.0552 59.5434 84.0378 59.6323 84.0127C59.8811 84.0185 60.1904 83.9759 60.5474 83.8251C60.7923 83.7207 60.9625 83.6202 61.1055 83.5274C61.237 83.4694 61.353 83.4075 61.4536 83.3457C61.6508 83.3263 61.8763 83.2741 62.1251 83.1678C63.4952 82.5858 64.2904 80.4475 63.9012 78.3923C63.5506 76.5382 62.3545 75.382 61.1171 75.6063C60.8619 75.5967 60.541 75.6334 60.1621 75.7939C59.8837 75.9118 59.6787 76.0433 59.515 76.1651C59.4454 76.1979 59.3823 76.2308 59.3256 76.2617C59.158 76.2733 58.9711 76.3062 58.7636 76.3758C58.5677 76.3971 58.3293 76.4454 58.038 76.5691C57.7853 76.6774 57.6101 76.7818 57.4631 76.8804C57.1924 77.0022 56.9836 77.1453 56.8212 77.2748C56.7542 77.3096 56.6898 77.3483 56.6292 77.387C56.4694 77.4005 56.2967 77.4334 56.1136 77.4972C55.9229 77.5204 55.6973 77.5706 55.4138 77.6905C55.1805 77.7891 55.0335 77.8722 54.915 77.9438L54.8956 77.9534C54.7229 78.0269 54.5682 78.1139 54.4316 78.2067C54.2512 78.2299 54.0527 78.2821 53.84 78.373C53.4817 78.5257 53.1917 78.75 52.9636 78.9839C52.7599 79.0013 52.5318 79.0516 52.2856 79.156C52.1309 79.2217 52.0549 79.2565 51.9775 79.2913C51.9234 79.3165 51.8693 79.3397 51.761 79.3861C51.6244 79.4441 51.5561 79.475 51.489 79.504C51.4839 79.506 51.4774 79.5079 51.4723 79.5118C51.2532 79.5234 50.9928 79.5717 50.6848 79.7032C50.3935 79.8269 50.1486 79.999 49.9449 80.1826C49.8547 80.2097 49.7594 80.2426 49.6601 80.2851C49.4706 80.3663 49.3559 80.4243 49.2528 80.4784C49.2245 80.4939 49.1961 80.5074 49.1381 80.5326C49.0195 80.5828 48.9138 80.637 48.8184 80.6911C48.5955 80.7027 48.3441 80.753 48.067 80.8709C47.8428 80.9657 47.6559 81.0797 47.496 81.1977C47.3555 81.2286 47.197 81.275 47.0217 81.3504C46.6866 81.4935 46.4147 81.6965 46.1981 81.9053C46.1685 81.9169 46.1375 81.9285 46.104 81.9401C45.93 81.9691 45.7251 82.0194 45.4634 82.1315C45.3449 82.1818 45.2392 82.2359 45.1438 82.29C44.9208 82.3016 44.6695 82.3519 44.3924 82.4698C44.132 82.58 43.9425 82.698 43.7917 82.8024C43.5623 82.9087 43.387 83.0208 43.244 83.1272C43.0957 83.1968 42.9746 83.2664 42.8702 83.3341C42.8289 83.3418 42.7864 83.3515 42.7413 83.3631C42.4693 83.3457 42.1381 83.3805 41.7553 83.5429C41.4769 83.6608 41.2178 83.8329 40.9807 84.0591C40.902 84.0842 40.8195 84.1132 40.7332 84.1499C40.6314 84.1925 40.5437 84.235 40.4651 84.2775C40.2292 84.2833 39.9585 84.3317 39.6569 84.4593C39.3837 84.5753 39.1543 84.728 38.9622 84.8904C38.8591 84.9194 38.7457 84.9581 38.6232 85.0103L38.5987 85.018C38.475 85.0528 38.3229 85.0973 38.0909 85.194C37.7494 85.339 37.48 85.5381 37.2686 85.7372C37.0675 85.7527 36.8343 85.7972 36.5649 85.9074C36.4669 85.9287 36.3586 85.9557 36.2297 86.0002C36.0119 86.0137 35.7503 86.0601 35.4371 86.1935C35.3211 86.2419 35.2631 86.267 35.2051 86.2902C35.1316 86.3192 35.0568 86.3501 34.9099 86.412C34.665 86.5164 34.4356 86.6614 34.2229 86.847C34.1121 86.8741 33.9948 86.9127 33.8749 86.963C32.5048 87.545 31.7096 89.6833 32.0988 91.7385C32.4314 93.494 33.5205 94.625 34.6856 94.5477C34.781 94.5689 34.8854 94.5786 35.0001 94.5786ZM40.0333 92.4519H40.032C40.032 92.4538 40.0333 92.4519 40.0333 92.4519ZM43.726 90.9516C43.7247 90.9516 43.7247 90.9516 43.726 90.9516C43.7247 90.9516 43.7247 90.9516 43.726 90.9516ZM45.2907 90.2053C45.2907 90.2053 45.2894 90.2053 45.2907 90.2053C45.2894 90.2053 45.2907 90.2053 45.2907 90.2053ZM58.4311 84.6294C58.4298 84.6294 58.4298 84.6294 58.4285 84.6294C58.4298 84.6294 58.4298 84.6294 58.4311 84.6294ZM55.9615 77.5648H55.9603C55.9603 77.5648 55.9603 77.5648 55.9615 77.5648ZM58.587 76.4512H58.5857C58.5857 76.4512 58.5857 76.4512 58.587 76.4512Z" fill="#398967"/>
<path d="M142.094 67.7761C142.094 68.0622 142.096 68.2753 141.963 68.5057C141.825 68.7437 141.779 69.097 141.54 69.2333C141.309 69.3677 140.984 69.3696 140.697 69.3696C140.41 69.3696 140.135 69.2794 139.904 69.145C139.665 69.0067 139.502 68.7802 139.365 68.5421C139.23 68.3118 139.263 68.0603 139.263 67.7742C139.263 67.4882 139.061 67.1407 139.196 66.9084C139.334 66.6703 139.7 66.5993 139.939 66.463C140.17 66.3286 140.41 66.3055 140.697 66.3055C140.984 66.3055 141.282 66.2287 141.515 66.3631C141.754 66.5014 141.898 66.7663 142.035 67.0044C142.169 67.2367 142.094 67.4901 142.094 67.7761Z" fill="#ECDEE6"/>
</svg>
