<svg width="134" height="167" viewBox="0 0 134 167" fill="none" xmlns="http://www.w3.org/2000/svg">
<path d="M129.868 83.1581C128.274 83.1581 126.981 81.868 126.981 80.2783C126.981 79.8694 127.043 79.5238 127.125 79.2397C127.104 79.0746 127.091 78.8845 127.091 78.656C127.091 78.2606 127.131 77.9745 127.181 77.7326C127.181 77.6769 127.183 77.6232 127.185 77.5752C127.037 77.2238 126.915 76.7727 126.915 76.2274C126.915 75.8972 126.935 75.6918 126.954 75.5113L126.958 75.4672C126.958 75.4557 126.958 75.4384 126.958 75.4173C126.958 74.9392 127.05 74.5361 127.17 74.2097C127.158 74.0849 127.152 73.9486 127.152 73.7969C127.152 73.6318 127.156 73.4993 127.164 73.3861C127.048 73.0616 126.96 72.6623 126.96 72.1785C126.96 71.7254 127.029 71.3683 127.112 71.0842C127.112 71.0266 127.114 70.9786 127.114 70.9287C127.114 70.8691 127.116 70.8096 127.116 70.7271C127.054 70.4679 127.006 70.1569 127.006 69.7499C127.006 69.4101 127.048 69.1144 127.112 68.861C127.071 68.6479 127.046 68.4079 127.046 68.1334C127.046 67.9011 127.06 67.7091 127.081 67.542C127 67.2598 126.941 66.92 126.941 66.5149C126.941 66.3306 126.939 66.2385 126.939 66.1463C126.937 66.0369 126.937 65.9255 126.937 65.7067C126.937 65.4705 126.939 65.3515 126.942 65.2344C126.944 65.1499 126.946 65.0654 126.946 64.8984C126.946 64.6258 126.956 64.4645 126.966 64.3109C126.971 64.2322 126.973 64.1996 126.973 64.0902C126.973 63.6313 127.043 63.2723 127.125 62.9882C127.133 62.8365 127.145 62.7136 127.156 62.6061C127.096 62.3508 127.052 62.0494 127.052 61.6635C127.052 61.4542 127.066 61.2699 127.087 61.1048C126.994 60.8091 126.931 60.4578 126.931 60.047C126.931 59.6803 126.981 59.3635 127.054 59.0928C127.021 58.897 127 58.6781 127 58.4285C127 58.1885 127.021 57.9697 127.058 57.77C126.977 57.4916 126.925 57.1729 126.925 56.812C126.925 56.3589 127.002 55.9807 127.106 55.6697C127.094 55.5334 127.085 55.3779 127.085 55.1936C127.085 54.9632 127.087 54.848 127.089 54.7328C127.091 54.6464 127.093 54.56 127.093 54.3853C127.093 54.0186 127.139 53.7115 127.2 53.4561C127.181 53.3313 127.166 53.1931 127.156 53.0395C127.077 52.7592 127.012 52.4079 127.012 51.9586C127.012 51.9356 127.012 51.9164 127.012 51.901L127.008 51.8569C126.992 51.7148 126.979 51.5593 126.973 51.3366C126.941 51.352 126.908 51.3692 126.871 51.3846C126.621 51.5958 126.294 51.8166 125.842 51.999C125.497 52.1391 125.264 52.2005 125.074 52.2485L125.068 52.2505C124.721 52.3906 124.467 52.4578 124.244 52.5058C124.13 52.5499 124.023 52.5864 123.919 52.6171C123.617 52.9051 123.264 53.1297 122.862 53.291C122.441 53.46 122.011 53.5387 121.574 53.5387C121.484 53.5847 121.386 53.6289 121.28 53.6711C121.107 53.7729 120.891 53.8938 120.539 54.0359C120.369 54.1031 120.287 54.1396 120.202 54.1741C120.133 54.2029 120.065 54.2317 119.965 54.2721C119.742 54.4314 119.467 54.6003 119.078 54.7559C118.828 54.8576 118.589 54.921 118.366 54.9613C118.15 55.1206 117.892 55.2723 117.586 55.3971C117.097 55.5948 116.668 55.6563 116.322 55.6697C116.289 55.6793 116.256 55.6889 116.226 55.6966C115.987 55.8886 115.685 56.0806 115.3 56.2341C114.946 56.3781 114.68 56.4453 114.449 56.4914C114.297 56.5528 114.208 56.5874 114.122 56.6219C114.066 56.645 114.008 56.6661 113.931 56.6968C113.71 56.8542 113.439 57.0174 113.056 57.1729C112.611 57.3515 112.234 57.4206 111.924 57.4456C111.733 57.5089 111.573 57.5492 111.427 57.5819C111.185 57.6779 111.04 57.7278 110.934 57.7643C110.877 57.7835 110.819 57.8046 110.703 57.8506C110.609 57.889 110.584 57.9006 110.517 57.9332C110.507 57.937 110.499 57.9409 110.49 57.9466C110.226 58.2097 109.841 58.5092 109.306 58.7242C108.91 58.8835 108.59 58.9546 108.325 58.993C107.968 59.1177 107.657 59.1715 107.395 59.1945C107.289 59.2329 107.202 59.2598 107.118 59.2886C107.064 59.3059 107.039 59.3136 106.991 59.3328C106.883 59.4 106.762 59.471 106.615 59.5459C106.359 59.7743 106.011 60.0182 105.534 60.2121C105.249 60.3273 104.977 60.3944 104.727 60.4328C104.529 60.5711 104.296 60.7016 104.027 60.8111C103.759 60.9186 103.59 60.9742 103.438 61.0222C103.386 61.0376 103.363 61.0453 103.32 61.0626C103.124 61.1854 102.891 61.3179 102.541 61.458C102.085 61.6423 101.702 61.7095 101.392 61.7345C100.004 62.1031 98.5258 61.3928 97.9734 60.0297C97.3767 58.5552 98.0908 56.8773 99.569 56.2802C99.9289 56.1362 100.243 56.0633 100.51 56.0268C100.668 55.9366 100.857 55.8425 101.101 55.7446C101.199 55.7043 101.284 55.6716 101.359 55.6447C101.626 55.3798 102 55.1014 102.506 54.8979C102.87 54.752 103.211 54.681 103.515 54.6541C103.657 54.5696 103.815 54.4871 103.992 54.4141C104.188 54.2912 104.423 54.1588 104.773 54.0167C105.039 53.9092 105.201 53.8554 105.355 53.8074C105.426 53.7844 105.447 53.7786 105.538 53.7422C105.986 53.5617 106.365 53.4926 106.677 53.4676C106.731 53.4504 106.785 53.435 106.835 53.4216C107.079 53.2161 107.397 53.0069 107.799 52.8437C107.893 52.8053 107.918 52.7938 107.986 52.7611C108.13 52.6901 108.282 52.6191 108.542 52.5135C108.804 52.4079 108.958 52.356 109.071 52.3176C109.129 52.2985 109.187 52.2773 109.302 52.2313C109.647 52.093 109.899 52.0258 110.118 51.9759C110.436 51.853 110.715 51.7839 110.961 51.7475C111.137 51.6399 111.344 51.5324 111.602 51.4268C111.804 51.3462 111.905 51.3059 112.007 51.2656C112.095 51.231 112.184 51.1965 112.357 51.1254C112.545 51.0486 112.707 50.9949 112.853 50.9526C113.098 50.753 113.408 50.5514 113.808 50.3901C114.185 50.2385 114.484 50.1674 114.73 50.1252C114.872 50.0733 115.009 50.033 115.14 50.0023C115.383 49.8026 115.683 49.6107 116.058 49.459C116.476 49.29 116.863 49.2228 117.196 49.2056C117.323 49.1384 117.465 49.0712 117.627 49.0059C117.796 48.9387 117.879 48.9022 117.964 48.8677C118.066 48.8254 118.166 48.7832 118.366 48.7026C118.497 48.6258 118.651 48.5394 118.868 48.4396C119.099 48.2648 119.398 48.0748 119.809 47.9097C120.067 47.806 120.331 47.733 120.595 47.6947C120.814 47.5372 121.053 47.4067 121.313 47.3011C121.761 47.1206 122.142 47.0515 122.456 47.0285C122.645 46.9651 122.804 46.9267 122.949 46.8941C123.147 46.8154 123.307 46.7635 123.441 46.7251C123.676 46.5408 123.974 46.3546 124.367 46.1952C124.388 46.1856 124.406 46.1799 124.419 46.1722L124.458 46.1511C124.617 46.0666 124.798 45.9725 125.102 45.8497C125.582 45.6558 126.005 45.5924 126.346 45.579C126.469 45.5387 126.575 45.5118 126.667 45.4868L126.702 45.4753C126.844 45.4177 126.914 45.387 126.985 45.3563C127.079 45.314 127.173 45.2718 127.331 45.2085C127.426 45.1451 127.531 45.0779 127.657 45.0088C127.841 44.8206 128.113 44.5845 128.482 44.3887C129.502 43.8473 130.74 43.9125 131.71 44.5634C132.64 45.1854 133.458 46.4563 132.969 48.1074C132.996 48.2898 133.013 48.4933 133.013 48.7275C133.013 48.9118 133.015 49.004 133.015 49.0942C133.017 49.2037 133.017 49.315 133.017 49.5358C133.017 49.6299 133.019 49.6529 133.025 49.7259C133.036 49.889 133.048 50.058 133.048 50.344C133.048 50.8854 132.928 51.3308 132.784 51.6783C132.784 51.686 132.784 51.6918 132.784 51.6995C132.851 51.9452 132.911 52.2447 132.923 52.6171C132.978 52.8725 133.026 53.1739 133.026 53.5771C133.026 54.0378 132.953 54.4026 132.867 54.6925C132.867 54.7482 132.865 54.7981 132.865 54.8461C132.863 54.9267 132.861 55.0054 132.861 55.1533C132.898 55.374 132.93 55.6313 132.93 56.0018C132.93 56.2245 132.911 56.428 132.88 56.6143C132.969 56.9022 133.026 57.2382 133.026 57.6203C133.026 58.0158 132.967 58.3575 132.88 58.6474C132.905 58.824 132.923 59.0198 132.923 59.2368C132.923 59.519 132.894 59.7724 132.846 59.997C132.907 60.2485 132.946 60.5327 132.946 60.8552C132.946 61.1777 132.915 61.4408 132.871 61.6654C132.915 61.89 132.946 62.153 132.946 62.4736C132.946 62.8327 132.919 63.063 132.896 63.2512L132.894 63.2819C132.894 63.7369 132.824 64.0921 132.744 64.3743C132.74 64.4933 132.734 64.5874 132.728 64.6795C132.722 64.7583 132.72 64.7909 132.72 64.9003C132.72 65.1365 132.719 65.2555 132.715 65.3726C132.713 65.4571 132.711 65.5416 132.711 65.7086C132.711 65.8929 132.713 65.985 132.713 66.0772C132.713 66.0983 132.713 66.1175 132.713 66.1386C132.817 66.4496 132.903 66.8413 132.903 67.3251C132.903 67.5824 132.886 67.7916 132.863 67.9702C132.932 68.237 132.984 68.5576 132.984 68.9435C132.984 69.3313 132.928 69.6616 132.851 69.938C132.876 70.1185 132.894 70.322 132.894 70.56C132.894 70.7789 132.892 70.8903 132.892 70.9997C132.89 71.0918 132.89 71.184 132.89 71.3702C132.89 71.6102 132.871 71.8214 132.84 72.0114C132.919 72.2898 132.971 72.6143 132.971 72.9887C132.971 73.2997 132.955 73.4917 132.938 73.6625C132.938 73.6702 132.936 73.6779 132.936 73.6836C132.988 73.9294 133.03 74.2212 133.03 74.6071C133.03 75.1101 132.928 75.5305 132.799 75.8646C132.915 76.1852 133 76.5768 133 77.0357C133 77.3582 132.982 77.5579 132.963 77.7345L132.959 77.7825C132.957 77.7998 132.957 77.819 132.957 77.8459C132.957 78.1876 132.926 78.4449 132.886 78.6656C132.924 78.8807 132.953 79.1341 132.953 79.4662C132.953 80.0287 132.836 80.4703 132.709 80.8005C132.461 82.1425 131.283 83.1581 129.868 83.1581ZM132.755 80.2783V80.2802C132.755 80.2802 132.755 80.2802 132.755 80.2783ZM106.219 59.7206H106.217C106.217 59.7225 106.217 59.7225 106.219 59.7206Z" fill="#F0DDE6"/>
<path d="M100.343 166.619C98.759 166.619 97.4714 165.347 97.456 163.768C97.4213 163.548 97.3886 163.29 97.3886 162.92C97.3597 162.72 97.3289 162.476 97.3289 162.096C97.3289 161.718 97.3636 161.451 97.404 161.225L97.4001 161.19C97.3867 161.071 97.3732 160.933 97.3655 160.754C97.2885 160.495 97.2231 160.178 97.2096 159.787C97.1519 159.529 97.1037 159.222 97.1037 158.815C97.1037 158.372 97.1826 157.992 97.2885 157.681C97.2712 157.529 97.2596 157.36 97.2596 157.174C97.2596 156.759 97.3174 156.421 97.3944 156.145C97.3886 156.099 97.3847 156.049 97.379 155.997C97.2558 155.665 97.1518 155.242 97.1518 154.713C97.1518 154.311 97.2115 153.97 97.2943 153.685C97.2693 153.507 97.2539 153.305 97.2539 153.073C97.2539 152.979 97.2519 152.956 97.2462 152.883C97.2346 152.724 97.2211 152.543 97.2211 152.253C97.2211 151.825 97.2885 151.466 97.3809 151.169C97.3616 151.009 97.3501 150.827 97.3501 150.612C97.3501 150.506 97.3482 150.477 97.3424 150.402C97.3308 150.241 97.3212 150.074 97.3212 149.792L97.3173 149.738C97.2943 149.554 97.2692 149.325 97.2692 148.972C97.2692 148.782 97.2808 148.609 97.302 148.45C97.1961 148.139 97.1191 147.765 97.1191 147.331C97.1191 146.849 97.2134 146.442 97.3289 146.119C97.3193 145.993 97.3116 145.852 97.3116 145.689C97.3116 145.44 97.3289 145.23 97.354 145.05C97.2789 144.773 97.223 144.445 97.223 144.05C97.223 143.781 97.2442 143.556 97.275 143.362C97.2076 143.097 97.1596 142.785 97.1596 142.41C97.1596 142.178 97.1615 142.061 97.1634 141.946C97.1653 141.857 97.1673 141.769 97.1673 141.59C97.1673 141.172 97.2173 140.861 97.275 140.607C97.2866 140.293 97.3347 140.024 97.3963 139.791C97.3924 139.768 97.3886 139.743 97.3867 139.719C97.2308 139.358 97.1018 138.895 97.1018 138.309C97.1018 137.793 97.2096 137.359 97.3501 137.015C97.3424 136.91 97.3385 136.797 97.3385 136.67C97.3385 136.608 97.3385 136.608 97.3328 136.547C97.3154 136.37 97.2981 136.171 97.2981 135.85C97.2981 135.706 97.3058 135.572 97.3173 135.447C97.1634 135.055 97.0845 134.642 97.0845 134.21C97.0845 133.644 97.2135 133.181 97.3597 132.836C97.2673 132.538 97.2 132.179 97.2 131.751C97.2 131.519 97.2211 131.306 97.2539 131.11C97.1673 130.822 97.1076 130.488 97.1076 130.11C97.1076 129.737 97.1519 129.434 97.2115 129.182C97.1249 129.083 97.0383 128.973 96.9555 128.85C96.6399 128.38 96.4878 127.921 96.4205 127.531C96.1914 127.339 95.9508 127.09 95.7257 126.756C95.639 126.627 95.5947 126.566 95.5485 126.502C95.4754 126.401 95.4023 126.299 95.2618 126.091C95.1059 125.861 94.9923 125.644 94.9057 125.444C94.7152 125.27 94.5188 125.051 94.3321 124.773C94.0684 124.381 93.9222 124.024 93.8336 123.717C93.7682 123.624 93.6989 123.527 93.5719 123.338C93.414 123.104 93.3313 122.964 93.2697 122.862C93.2389 122.81 93.2081 122.759 93.1407 122.659C93.1022 122.601 93.0695 122.551 93.0406 122.507C92.698 122.298 92.315 121.979 91.9859 121.491C91.778 121.182 91.6606 120.95 91.5683 120.747C91.4297 120.533 91.3238 120.33 91.243 120.134C91.0467 119.958 90.8465 119.739 90.6636 119.466C90.3884 119.059 90.2402 118.66 90.1594 118.318C89.8841 118.116 89.5896 117.836 89.3298 117.448C89.1104 117.124 88.9718 116.805 88.8833 116.517C88.762 116.385 88.6388 116.231 88.5176 116.053C88.2847 115.707 88.15 115.413 88.0576 115.16C88.0422 115.139 88.0268 115.119 88.0133 115.1C87.9248 114.981 87.8401 114.866 87.6996 114.659C87.5379 114.419 87.4494 114.265 87.3704 114.129C87.3339 114.065 87.3242 114.048 87.2742 113.973C87.2299 113.908 87.2242 113.9 87.1818 113.849C87.0779 113.72 86.9624 113.574 86.795 113.324C86.7507 113.259 86.7449 113.251 86.7026 113.198C86.5986 113.069 86.4832 112.923 86.3157 112.674C86.179 112.472 86.0751 112.282 85.9943 112.105C85.7806 111.921 85.5593 111.685 85.3533 111.378C85.1994 111.149 85.1166 111.011 85.0569 110.911C85.0338 110.873 85.0127 110.836 84.9761 110.783C84.8029 110.612 84.6143 110.401 84.3968 110.078C84.2332 109.834 84.1177 109.617 84.033 109.423C83.854 109.252 83.6615 109.037 83.4729 108.757L83.471 108.755C83.3401 108.609 83.1842 108.429 82.9763 108.12C82.7049 107.717 82.5548 107.333 82.4701 106.999C82.4028 106.91 82.3277 106.807 82.2392 106.674C82.1237 106.501 82.0352 106.352 81.964 106.217C81.7234 106.021 81.4674 105.764 81.2306 105.411C81.0593 105.157 80.94 104.921 80.8515 104.706C80.6802 104.541 80.5012 104.336 80.3279 104.077C80.2875 104.015 80.2817 104.009 80.2394 103.957C80.1354 103.829 80.018 103.681 79.8486 103.43C78.9594 102.109 79.3136 100.319 80.6378 99.4343C81.962 98.5474 83.7558 98.9006 84.6431 100.221C84.6855 100.283 84.6893 100.291 84.7317 100.34C84.7894 100.413 84.8529 100.49 84.9261 100.59C85.1724 100.788 85.4438 101.055 85.7075 101.446C85.8557 101.667 85.9674 101.876 86.052 102.068C86.2503 102.247 86.4543 102.472 86.6467 102.756C86.8565 103.067 86.9759 103.307 87.0682 103.516C87.0798 103.531 87.0913 103.545 87.1144 103.574C87.2222 103.706 87.3435 103.856 87.5167 104.113C87.7785 104.501 87.9267 104.869 88.0114 105.194C88.0403 105.23 88.0691 105.267 88.0999 105.309C88.329 105.501 88.5869 105.758 88.839 106.137C89.0353 106.426 89.1604 106.68 89.2509 106.903C89.3933 107.052 89.5454 107.237 89.7167 107.49C89.8129 107.634 89.8822 107.742 89.9342 107.826C90.2094 108.029 90.5077 108.314 90.781 108.719C91.0158 109.066 91.1545 109.379 91.2449 109.642C91.3392 109.759 91.445 109.899 91.5913 110.116C91.6337 110.18 91.6414 110.189 91.6838 110.241C91.7877 110.37 91.9031 110.516 92.0706 110.765C92.2303 111.003 92.3208 111.157 92.3978 111.295C92.4344 111.359 92.444 111.376 92.4941 111.451C92.5672 111.56 92.6076 111.612 92.6461 111.666C92.7346 111.785 92.8193 111.9 92.9598 112.109C93.1061 112.326 93.2139 112.524 93.2966 112.702C93.4987 112.883 93.7085 113.111 93.9106 113.413C94.0781 113.66 94.1993 113.904 94.2859 114.135C94.4649 114.302 94.644 114.505 94.8095 114.751C94.9538 114.964 95.0212 115.073 95.0886 115.183C95.1271 115.244 95.1655 115.306 95.2464 115.427C95.4292 115.697 95.5562 115.964 95.6448 116.214C95.8065 116.371 95.9681 116.559 96.1183 116.782C96.3858 117.179 96.534 117.554 96.6206 117.878C96.9132 118.084 97.2211 118.372 97.4925 118.775C97.6234 118.969 97.685 119.067 97.7485 119.165C97.7947 119.236 97.8409 119.309 97.9352 119.449C98.093 119.683 98.1758 119.823 98.2374 119.927C98.2682 119.979 98.299 120.03 98.3664 120.13C98.4607 120.269 98.5069 120.336 98.555 120.405C98.6243 120.501 98.6916 120.599 98.8244 120.795C98.9899 121.04 99.1093 121.273 99.1978 121.488C99.3768 121.657 99.5616 121.866 99.7367 122.125C99.9889 122.499 100.131 122.833 100.222 123.12C100.226 123.125 100.229 123.131 100.233 123.135C100.247 123.154 100.26 123.173 100.274 123.192C100.551 123.396 100.857 123.682 101.138 124.101C101.278 124.31 101.346 124.417 101.413 124.525C101.454 124.59 101.494 124.653 101.579 124.78C101.804 125.112 101.944 125.441 102.031 125.742C102.248 125.982 102.46 126.285 102.618 126.665C102.63 126.694 102.647 126.727 102.662 126.76C102.78 127.007 102.974 127.42 103.078 127.938C103.222 128.664 103.093 129.261 103.007 129.597C103.005 129.632 103.001 129.664 102.999 129.697C103.128 130.033 103.224 130.444 103.224 130.928C103.224 131.271 103.18 131.573 103.111 131.838C103.153 132.054 103.18 132.298 103.18 132.569C103.18 132.917 103.157 133.139 103.136 133.32L103.132 133.358C103.132 133.358 103.132 133.372 103.132 133.387C103.132 133.623 103.109 133.84 103.072 134.04C103.169 134.356 103.217 134.685 103.217 135.026C103.217 135.449 103.157 135.789 103.084 136.061C103.097 136.199 103.107 136.357 103.109 136.578C103.155 136.816 103.194 137.094 103.194 137.486C103.194 137.851 103.14 138.171 103.059 138.451C103.088 138.609 103.109 138.78 103.117 138.962C103.176 139.223 103.226 139.534 103.226 139.947C103.226 140.458 103.136 140.857 103.028 141.172C103.009 141.393 102.976 141.577 102.939 141.738C102.939 141.876 102.938 141.965 102.936 142.053C102.936 142.065 102.936 142.074 102.936 142.086C103.03 142.387 103.105 142.76 103.105 143.228C103.105 143.487 103.086 143.708 103.057 143.898C103.128 144.169 103.178 144.487 103.178 144.869C103.178 145.227 103.143 145.503 103.099 145.728C103.132 145.935 103.159 146.181 103.159 146.511C103.159 146.782 103.13 147.029 103.082 147.25C103.151 147.513 103.197 147.815 103.197 148.151C103.197 148.573 103.138 148.913 103.061 149.191C103.076 149.347 103.09 149.537 103.09 149.792C103.09 149.898 103.091 149.926 103.097 150.001C103.107 150.143 103.117 150.289 103.118 150.514C103.167 150.754 103.207 151.036 103.207 151.432C103.207 151.915 103.12 152.311 103.011 152.63C103.015 152.708 103.018 152.795 103.02 152.896C103.084 153.161 103.134 153.476 103.134 153.891C103.134 154.204 103.097 154.48 103.041 154.722C103.093 154.954 103.126 155.216 103.128 155.511C103.161 155.715 103.194 155.966 103.194 156.352C103.194 156.711 103.149 157.013 103.088 157.266C103.124 157.473 103.147 157.711 103.147 157.994C103.147 158.456 103.061 158.85 102.949 159.167C102.955 159.217 102.959 159.27 102.963 159.324C103.051 159.618 103.124 159.986 103.124 160.455C103.124 160.474 103.124 160.491 103.124 160.505L103.128 160.541C103.147 160.718 103.17 160.937 103.17 161.277C103.17 161.643 103.138 161.904 103.099 162.129C103.126 162.317 103.153 162.547 103.155 162.893C103.192 163.114 103.222 163.371 103.222 163.744C103.23 165.329 101.937 166.619 100.343 166.619ZM97.4136 132.59V132.592V132.59C97.4136 132.592 97.4136 132.592 97.4136 132.59C97.4136 132.592 97.4136 132.592 97.4136 132.59Z" fill="#F0DDE6"/>
<path d="M47.5966 166.656C46.2569 166.656 45.0559 165.721 44.7729 164.362C44.6998 164.008 44.6864 163.684 44.7056 163.4C44.6248 163.204 44.5555 162.985 44.5035 162.737C44.4535 162.501 44.4323 162.277 44.4285 162.071C44.2726 161.783 44.159 161.474 44.0916 161.144C44.0127 160.77 43.9973 160.449 44.0088 160.18C43.9434 160.002 43.8799 159.791 43.8241 159.522C43.8202 159.501 43.8164 159.483 43.8125 159.468L43.801 159.43C43.7432 159.253 43.6817 159.055 43.6124 158.725C43.5084 158.226 43.5238 157.786 43.5892 157.421C43.4102 157.13 43.2428 156.759 43.1485 156.304C43.0676 155.916 43.0503 155.619 43.0503 155.375C43.0388 155.325 43.0292 155.288 43.0195 155.254C42.9791 155.104 42.9368 154.949 42.881 154.682C42.7982 154.288 42.7828 153.987 42.7828 153.739C42.752 153.587 42.7347 153.497 42.7173 153.405C42.7 153.317 42.6846 153.228 42.6481 153.054C42.5749 152.701 42.5518 152.47 42.5383 152.28L42.5326 152.24C42.4941 152.052 42.4729 151.946 42.4537 151.85C42.2708 151.554 42.0937 151.17 41.9898 150.675C41.934 150.404 41.9089 150.164 41.9032 149.953C41.7858 149.711 41.6799 149.423 41.6068 149.076C41.5548 148.824 41.5336 148.7 41.5105 148.573C41.497 148.496 41.4836 148.421 41.4528 148.269C41.3527 147.793 41.3585 147.381 41.4104 147.035C41.4047 147.014 41.3989 146.993 41.3931 146.972C41.2334 146.691 41.0755 146.332 40.9754 145.856C40.9119 145.549 40.8888 145.278 40.8908 145.036C40.7926 144.816 40.7041 144.557 40.6386 144.249C40.5674 143.906 40.552 143.591 40.5693 143.312C40.4847 143.113 40.4115 142.886 40.3576 142.631C40.2902 142.303 40.271 142.007 40.2806 141.744C40.1902 141.535 40.1113 141.295 40.0535 141.018C40.0131 140.824 39.99 140.644 39.9784 140.477C39.8168 140.197 39.6705 139.853 39.5839 139.44C39.5165 139.119 39.4973 138.832 39.505 138.574C39.3548 138.217 39.2335 137.754 39.2374 137.19C39.2432 136.474 39.4183 135.969 39.5896 135.6C39.6878 135.239 39.8129 134.959 39.9361 134.735C39.965 134.625 39.9938 134.533 40.0227 134.45C40.0112 134.235 40.0188 133.993 40.0593 133.717C40.04 133.414 40.0477 133.043 40.1516 132.588C40.2556 132.124 40.4346 131.751 40.629 131.455C40.5828 131.112 40.5809 130.693 40.6887 130.221C40.7714 129.854 40.8619 129.605 40.9504 129.394C40.9909 129.219 41.012 129.125 41.0351 129.031C41.0563 128.939 41.0794 128.846 41.1198 128.66L41.1217 128.651C41.1371 128.457 41.1622 128.219 41.2449 127.858C41.3065 127.585 41.3931 127.343 41.4952 127.13C41.4875 126.869 41.5105 126.583 41.5798 126.276C41.6722 125.867 41.8204 125.531 41.9821 125.258C41.9975 125.095 42.0245 124.918 42.0668 124.726C42.138 124.412 42.1996 124.22 42.2573 124.051L42.2727 124.006C42.2766 123.991 42.2823 123.972 42.2881 123.947C42.3478 123.682 42.4132 123.478 42.4767 123.306C42.4729 123.039 42.4941 122.726 42.5768 122.355C42.6519 122.021 42.7539 121.751 42.8578 121.528C42.8675 121.315 42.8963 121.071 42.9618 120.783C43.0234 120.507 43.11 120.267 43.2043 120.057C43.2005 119.8 43.2255 119.514 43.2967 119.201C43.3102 119.145 43.3102 119.145 43.316 119.086C43.3371 118.911 43.364 118.713 43.4353 118.402C43.4661 118.266 43.4795 118.197 43.4911 118.128C43.5142 117.997 43.5373 117.869 43.597 117.611C43.6759 117.266 43.7702 117.005 43.8625 116.795C43.876 116.59 43.9049 116.352 43.9761 116.039C44.0165 115.861 44.0358 115.77 44.055 115.682C44.0781 115.574 44.1012 115.465 44.1493 115.25C44.2244 114.914 44.2956 114.703 44.3572 114.532L44.3746 114.471C44.3803 114.446 44.3841 114.426 44.388 114.409L44.3938 114.363C44.4149 114.186 44.4419 113.989 44.5131 113.674C44.6228 113.19 44.8038 112.812 44.9962 112.514C44.9577 112.176 44.9616 111.775 45.0655 111.31C45.0848 111.226 45.0867 111.209 45.0983 111.138C45.1214 110.978 45.1483 110.8 45.2137 110.516C45.2965 110.147 45.3889 109.897 45.4774 109.684C45.5852 109.245 45.7488 108.895 45.924 108.619C45.8778 108.271 45.8778 107.855 45.9875 107.375C46.0568 107.064 46.1453 106.816 46.2377 106.607C46.2435 106.375 46.2704 106.11 46.3416 105.799C46.3994 105.541 46.4744 105.319 46.5572 105.125C46.5495 104.858 46.5707 104.56 46.6438 104.23C46.6573 104.029 46.6823 103.781 46.7651 103.41C46.8324 103.111 46.9364 102.829 47.075 102.568C47.0788 102.347 47.1038 102.109 47.1596 101.853C47.175 101.656 47.1981 101.412 47.2809 101.045C47.6312 99.4938 49.1768 98.5205 50.732 98.8699C52.2852 99.2193 53.2611 100.755 52.9146 102.304C52.9127 102.335 52.9107 102.366 52.9069 102.399C53.0051 102.802 53.057 103.339 52.9146 103.967C52.8164 104.401 52.6432 104.798 52.3949 105.152C52.4296 105.482 52.4219 105.87 52.3218 106.317C52.2429 106.664 52.1332 106.949 52.0158 107.185C52.0042 107.39 51.9753 107.619 51.9157 107.884C51.8695 108.091 51.8136 108.269 51.7559 108.427C51.779 108.734 51.7636 109.087 51.6732 109.485C51.6327 109.665 51.6135 109.757 51.5923 109.848C51.5692 109.955 51.5461 110.061 51.498 110.274C51.3748 110.823 51.1592 111.234 50.9437 111.541C50.9052 111.65 50.8667 111.748 50.8301 111.838C50.8205 111.883 50.8186 111.906 50.8109 111.957C50.8051 111.996 50.7993 112.036 50.7935 112.078C50.8493 112.443 50.8609 112.891 50.7416 113.417L50.5626 114.204C50.4529 114.686 50.2739 115.064 50.0814 115.359C50.0641 115.467 50.0391 115.59 50.0063 115.738C49.9313 116.074 49.86 116.283 49.7985 116.454L49.7811 116.515C49.7407 116.692 49.7215 116.782 49.7041 116.87C49.683 116.97 49.6618 117.07 49.6195 117.256C49.6079 117.483 49.5829 117.746 49.5001 118.111C49.4135 118.495 49.3057 118.771 49.2056 118.992C49.1921 119.059 49.1825 119.105 49.1748 119.151C49.1517 119.282 49.1267 119.412 49.069 119.67C49.0555 119.725 49.0555 119.725 49.0498 119.783C49.0421 119.838 49.0363 119.898 49.0266 119.961C49.0844 120.326 49.0959 120.775 48.9766 121.305C48.89 121.689 48.7591 122.004 48.6205 122.261C48.6051 122.438 48.5762 122.638 48.5262 122.862C48.4569 123.166 48.3684 123.417 48.2741 123.626C48.2702 123.862 48.2433 124.131 48.174 124.44C48.0912 124.807 48.0007 125.057 47.9122 125.266C47.8583 125.498 47.8102 125.659 47.7659 125.796C47.7755 126.076 47.7582 126.412 47.6678 126.813C47.6139 127.049 47.5427 127.261 47.4599 127.451C47.4792 127.767 47.4522 128.086 47.381 128.405C47.2597 128.94 47.0403 129.355 46.8132 129.666C46.7997 129.745 46.7824 129.829 46.7612 129.923C46.7131 130.133 46.6881 130.238 46.665 130.344C46.6438 130.436 46.6226 130.528 46.5803 130.711C46.5476 130.855 46.5149 130.979 46.4802 131.093C46.5264 131.436 46.5302 131.859 46.4225 132.333L46.4186 132.364C46.4013 132.552 46.3763 132.784 46.2974 133.135C46.1954 133.585 46.024 133.951 45.8354 134.241C45.8316 134.266 45.8297 134.293 45.8258 134.32C45.8528 134.637 45.847 135.024 45.7411 135.499C45.6622 135.846 45.5871 136.065 45.5217 136.242L45.5101 136.278C45.4331 136.622 45.3273 136.9 45.2195 137.127C45.2464 137.219 45.2715 137.317 45.2927 137.419C45.3389 137.643 45.3639 137.852 45.3696 138.048C45.514 138.313 45.641 138.63 45.7199 139.006C45.7796 139.294 45.8027 139.55 45.8046 139.778C45.9143 140.01 46.0125 140.285 46.0798 140.609C46.1395 140.899 46.1626 141.164 46.1588 141.402C46.2685 141.633 46.3628 141.901 46.4282 142.212C46.511 142.612 46.5187 142.971 46.486 143.282C46.5476 143.449 46.6034 143.635 46.6458 143.844C46.7112 144.157 46.7324 144.434 46.7304 144.677C46.8247 144.892 46.9114 145.144 46.973 145.442C47.0442 145.634 47.125 145.868 47.2039 146.244C47.3136 146.774 47.2944 147.225 47.227 147.596C47.3829 147.872 47.533 148.225 47.6273 148.671C47.6793 148.918 47.7043 149.143 47.712 149.341C47.841 149.594 47.9584 149.899 48.0335 150.264C48.0797 150.481 48.1008 150.589 48.122 150.698C48.1413 150.79 48.1586 150.884 48.1971 151.069C48.2702 151.42 48.2914 151.652 48.3068 151.842L48.3126 151.883C48.3607 152.109 48.3818 152.222 48.403 152.336C48.4203 152.424 48.4358 152.512 48.4723 152.687C48.5532 153.077 48.5705 153.376 48.5705 153.622C48.582 153.67 48.5917 153.703 48.6013 153.737C48.6417 153.887 48.684 154.042 48.7399 154.309C48.7706 154.459 48.7938 154.595 48.8072 154.72C48.9959 155.018 49.1729 155.4 49.2711 155.876C49.3173 156.101 49.3384 156.212 49.3615 156.325C49.3789 156.413 49.3962 156.504 49.4328 156.682C49.5483 157.233 49.5155 157.713 49.4347 158.097C49.4462 158.145 49.4578 158.195 49.4713 158.251C49.5675 158.477 49.6656 158.748 49.7465 159.136C49.7773 159.287 49.7985 159.43 49.8139 159.562C50.0371 159.908 50.1911 160.29 50.2777 160.702C50.3489 161.04 50.3643 161.351 50.349 161.626C50.4356 161.829 50.5125 162.062 50.5664 162.325C50.7185 163.052 50.6146 163.651 50.4914 164.054C50.374 165.277 49.4732 166.333 48.2048 166.596C47.9892 166.637 47.791 166.656 47.5966 166.656ZM44.9192 112.935C44.9192 112.937 44.9173 112.94 44.9173 112.942L44.9192 112.935Z" fill="#F0DDE6"/>
<path d="M2.91976 83.1585C1.32611 83.1585 0.0327049 81.8684 0.0327049 80.2787C0.0327049 80.1079 0.0307765 80.0215 0.0288518 79.9351C0.0269271 79.818 0.023072 79.7009 0.023072 79.4666C0.023072 78.8676 0.167434 78.3877 0.321411 78.0402C0.244422 77.7637 0.190544 77.4335 0.190544 77.0361C0.190544 76.7059 0.221317 76.4429 0.26366 76.2221C0.23479 76.0685 0.211725 75.8976 0.200177 75.6999C0.119339 75.4158 0.0519708 75.0606 0.0519708 74.6075C0.0519708 74.4328 0.0500423 74.3445 0.0481176 74.2562C0.0461929 74.141 0.0442644 74.0258 0.0442644 73.7973C0.0442644 73.4018 0.0866023 73.1158 0.13472 72.8739C0.136645 72.6761 0.14243 72.5629 0.146279 72.4477C0.150129 72.3805 0.152059 72.3133 0.152059 72.1789C0.152059 71.8352 0.196295 71.5357 0.26366 71.2746C0.223241 71.0635 0.19825 70.8254 0.19825 70.5605C0.19825 70.2072 0.232878 69.9327 0.277146 69.7061C0.244426 69.5026 0.219396 69.2626 0.219396 68.942C0.219396 68.8249 0.215586 68.7654 0.211736 68.7059C0.202113 68.5542 0.194397 68.3968 0.194397 68.1319C0.194397 67.9053 0.211716 67.7037 0.238661 67.5213C0.153974 67.2353 0.0981618 66.8993 0.0981618 66.5134C0.0981618 66.1544 0.130861 65.8895 0.173205 65.6648C0.142409 65.4613 0.117381 65.2233 0.117381 64.895C0.117381 64.6262 0.128951 64.4496 0.1405 64.2979C0.0692856 64.0253 0.0115595 63.6932 0.0115595 63.2766C0.0115595 62.8004 0.0885214 62.4299 0.177058 62.1362C0.186681 61.9998 0.202075 61.877 0.221322 61.7637C0.157807 61.5064 0.113574 61.205 0.113574 60.8499C0.113574 60.6329 0.127036 60.4429 0.150133 60.2739C0.0615962 59.9821 0 59.6365 0 59.2314C0 58.811 0.0711915 58.4481 0.169351 58.1467C0.14818 57.9854 0.136646 57.8088 0.136646 57.613C0.136646 57.1964 0.188632 56.8796 0.252148 56.6204C0.250223 56.5897 0.250219 56.5628 0.248294 56.536C0.244445 56.4476 0.240586 56.3613 0.238661 56.2537C0.161673 55.9734 0.0981618 55.6279 0.0981618 55.1863C0.0981618 54.8119 0.132784 54.5489 0.171278 54.3243C0.177052 53.8635 0.257929 53.4949 0.356089 53.1973C0.356089 53.1705 0.356044 53.1436 0.357969 53.1186C0.359893 53.0303 0.361822 52.9401 0.361822 52.7615C0.361822 52.7001 0.361863 52.7001 0.356089 52.6367C0.340691 52.4716 0.323337 52.2854 0.323337 51.9936C0.286768 51.7728 0.254074 51.5136 0.254074 51.145C0.254074 51.1258 0.254074 51.1124 0.254074 51.0989L0.250221 51.0682C0.230974 50.8916 0.207883 50.6747 0.207883 50.3387C0.207883 50.3157 0.207883 50.2964 0.207883 50.2811L0.20403 50.2389C0.190557 50.1064 0.175126 49.9605 0.169351 49.7608C0.0981374 49.4863 0.0404113 49.1561 0.0404113 48.7222C0.0404113 48.3996 0.0654418 48.1577 0.0981618 47.9523C-0.155899 46.1611 0.985464 45.1647 1.50706 44.8076C2.71577 43.9821 4.15353 44.0339 5.26216 44.9132C5.41036 44.9842 5.53354 45.0533 5.64325 45.1205C5.78567 45.1551 5.95313 45.1973 6.17447 45.2741C6.4497 45.3068 6.77111 45.372 7.1676 45.5218C7.43513 45.6235 7.58526 45.6907 7.69496 45.7406C7.72768 45.756 7.76235 45.7714 7.80854 45.7906C8.04913 45.829 8.34167 45.8942 8.70929 46.0344C9.01917 46.1515 9.20199 46.2417 9.36367 46.3243L9.40408 46.3435C9.41563 46.3492 9.43295 46.355 9.45412 46.3627C9.77555 46.4855 10.0065 46.6046 10.1971 46.7198C10.4107 46.762 10.6552 46.8254 10.9708 46.9444C11.221 47.0385 11.4346 47.1498 11.6213 47.265C11.8908 47.2957 12.1853 47.361 12.5029 47.482C12.7839 47.5895 13.0052 47.7008 13.19 47.8122C13.4325 47.8486 13.7116 47.9139 14.0292 48.0349L14.0908 48.0541C14.2678 48.0982 14.4815 48.1558 14.8048 48.2787C15.1628 48.415 15.3842 48.534 15.5613 48.6358C15.569 48.6396 15.5766 48.6415 15.5824 48.6435L15.6132 48.6511C15.7864 48.6953 15.9981 48.7529 16.3157 48.8738C16.5833 48.9756 16.8296 49.1042 17.0548 49.2617C17.2973 49.2943 17.5571 49.3576 17.8285 49.4613C18.1076 49.5669 18.3444 49.6936 18.5445 49.8242C18.7909 49.8587 19.0584 49.9221 19.3471 50.0334C19.8649 50.2312 20.2383 50.4961 20.5077 50.7419C20.6386 50.809 20.7522 50.8782 20.8523 50.9434C21.0255 50.9857 21.2353 51.0433 21.524 51.1527C21.6029 51.1834 21.6163 51.1873 21.6856 51.2065C21.8415 51.2525 22.0186 51.3044 22.2958 51.41C22.5075 51.4906 22.6807 51.5712 22.8289 51.6499C23.1253 51.6749 23.4698 51.7402 23.849 51.8842C24.0588 51.9648 24.232 52.0454 24.3802 52.1241C24.6805 52.1472 25.025 52.2144 25.4061 52.3584C25.7275 52.4812 25.9873 52.6233 26.201 52.7692C26.4127 52.8076 26.6475 52.871 26.9093 52.9708C27.0363 53.0188 27.1017 53.0399 27.1672 53.063C27.2942 53.1052 27.4232 53.1474 27.6734 53.2434C27.7562 53.2741 27.7715 53.2799 27.8408 53.2991C27.9948 53.3452 28.1681 53.397 28.4414 53.5007C28.9206 53.6831 29.2844 53.9346 29.5558 54.1841C29.6501 54.2129 29.7521 54.2475 29.8618 54.2897C29.983 54.3166 30.1216 54.3493 30.2948 54.4011C30.622 54.4164 31.0147 54.476 31.4747 54.6507C31.6883 54.7313 31.7961 54.7755 31.902 54.8177C31.9828 54.8503 32.0656 54.883 32.2292 54.9463C32.7123 55.1306 33.0664 55.3706 33.3262 55.5952C33.4148 55.6355 33.4898 55.672 33.5591 55.7085L33.5996 55.7296C33.6054 55.7315 33.6092 55.7335 33.6149 55.7373C33.742 55.7623 33.8805 55.7949 34.0403 55.841C34.3752 55.8506 34.789 55.9082 35.2606 56.0886C36.7503 56.655 37.4971 58.3195 36.9293 59.8055C36.4212 61.1359 35.0296 61.8712 33.6765 61.6063C33.3378 61.6024 32.9124 61.5544 32.4197 61.3721C32.1984 61.3279 31.9443 61.2665 31.5959 61.1321C31.2918 61.0169 31.109 60.9286 30.9493 60.846L30.9088 60.8249C30.8954 60.8191 30.8761 60.8115 30.853 60.8019C30.3834 60.6233 30.0369 60.391 29.779 60.1741C29.7655 60.1683 29.754 60.1645 29.7405 60.1587C29.7348 60.1568 29.7309 60.1549 29.7251 60.153C29.4095 60.1357 29.038 60.0723 28.6049 59.9111C28.424 59.8707 28.2085 59.8189 27.9005 59.7076C27.6638 59.6653 27.3905 59.6039 27.0267 59.4656C26.4974 59.2641 26.1086 58.978 25.8295 58.7035C25.7641 58.6804 25.6929 58.6536 25.6121 58.6228C25.485 58.5748 25.4196 58.5537 25.3541 58.5307C25.2771 58.5057 25.1982 58.4788 25.0943 58.4424C24.8036 58.4155 24.4534 58.3502 24.0395 58.1928C23.772 58.091 23.5469 57.9739 23.3563 57.8549C23.1022 57.8223 22.8212 57.757 22.5152 57.6399C22.3035 57.5592 22.1264 57.4767 21.9782 57.398C21.6818 57.373 21.3411 57.3077 20.9619 57.1638C20.5982 57.0255 20.3499 56.8873 20.1439 56.7587C20.1247 56.7529 20.1055 56.7471 20.0747 56.7375C19.9188 56.6915 19.7436 56.6396 19.4684 56.536C19.274 56.4918 19.0392 56.4342 18.687 56.2998C18.2866 56.1482 18.0075 55.983 17.7881 55.8314C17.586 55.7431 17.4089 55.6451 17.253 55.5434C17.0067 55.5088 16.7391 55.4455 16.4504 55.3341C16.2599 55.2612 16.0905 55.1805 15.9366 55.0942C15.6209 55.0769 15.2687 55.0135 14.8914 54.8695C14.4237 54.691 14.0176 54.426 13.677 54.0786C13.6173 54.0574 13.5538 54.0344 13.4864 54.0094C13.1284 53.8731 12.909 53.7541 12.73 53.6543L12.6896 53.6427C12.5625 53.6101 12.4163 53.5717 12.2257 53.5084C11.9351 53.4815 11.5867 53.4162 11.1691 53.2588C10.9843 53.1877 10.8245 53.1148 10.686 53.0418C10.3665 53.0246 10.0027 52.9593 9.60426 52.8076C9.20969 52.6579 8.90368 52.4697 8.66117 52.2854C8.50719 52.2451 8.33397 52.1933 8.13188 52.1165C7.76618 51.9782 7.51789 51.84 7.31195 51.7133C7.05789 51.6135 6.8943 51.5328 6.74995 51.4599C6.55748 51.4292 6.33421 51.3792 6.06667 51.2909C6.08977 51.4714 6.10901 51.6845 6.10901 51.9571C6.10901 52.0186 6.10902 52.0186 6.11479 52.0819C6.13211 52.2547 6.14749 52.4505 6.14749 52.7654C6.14749 52.9919 6.14557 53.1052 6.14364 53.2185C6.14172 53.3068 6.13979 53.397 6.13979 53.5756C6.13979 54.0805 6.05125 54.4798 5.94154 54.7947C5.93384 54.8906 5.92423 54.977 5.91269 55.0577C5.97428 55.3149 6.02241 55.624 6.02241 56.0022C6.02241 56.1366 6.02626 56.2038 6.02819 56.271C6.03589 56.4188 6.04163 56.5628 6.04163 56.8124C6.04163 57.1158 6.01471 57.3673 5.97429 57.5804C6.02433 57.8165 6.06089 58.0968 6.06089 58.4289C6.06089 58.7668 6.01468 59.0682 5.94732 59.3274C5.98966 59.5424 6.01663 59.7824 6.01663 60.0454C6.01663 60.3085 5.99545 60.5331 5.96466 60.7289C6.0301 60.99 6.07823 61.2991 6.07823 61.6639C6.07823 62.1054 6.01853 62.4395 5.94732 62.7102C5.93385 62.9348 5.90499 63.1345 5.8665 63.3111C5.91076 63.5338 5.93961 63.7911 5.93961 64.0906C5.93961 64.3901 5.92616 64.5763 5.91269 64.7414C5.90691 64.8009 5.9069 64.8163 5.90498 64.87C5.93962 65.0889 5.97044 65.3423 5.97044 65.709C5.97044 65.8875 5.96272 66.0431 5.94924 66.1813C6.05703 66.4961 6.13401 66.8763 6.13401 67.3274C6.13401 67.7652 6.06857 68.1146 5.98966 68.3949C5.99735 68.5273 6.00507 68.6694 6.00507 68.8883C6.04549 69.1148 6.07823 69.3778 6.07823 69.7541C6.07823 69.9941 6.06279 70.1976 6.03777 70.3742C6.11476 70.6507 6.17061 70.9809 6.17061 71.3706C6.17061 71.9082 6.0609 72.3421 5.9281 72.6838C5.9281 72.6953 5.92617 72.7088 5.92617 72.7203C5.92232 72.7875 5.92039 72.8547 5.92039 72.9891C5.92039 73.3826 5.87998 73.6687 5.82994 73.9087C5.82994 74.0143 5.83187 74.0815 5.83379 74.1487C5.83572 74.2101 5.83572 74.2715 5.83764 74.3483C5.90501 74.5941 5.96274 74.8916 5.97622 75.2564C6.03396 75.5137 6.08209 75.8189 6.08209 76.2259C6.08209 76.4774 6.06279 76.6925 6.03585 76.8768C6.10706 77.1475 6.15713 77.4642 6.15713 77.8444C6.15713 78.2303 6.11865 78.5048 6.0763 78.739C6.06476 79.2478 5.94926 79.6682 5.81838 79.9888C5.8203 80.0637 5.8203 80.1539 5.8203 80.2768C5.80683 81.8703 4.51342 83.1585 2.91976 83.1585ZM17.9575 55.9082C17.9575 55.9082 17.9575 55.9101 17.9575 55.9082C17.9575 55.9101 17.9575 55.9082 17.9575 55.9082ZM4.8541 44.7423H4.85603C4.85603 44.7423 4.85602 44.7423 4.8541 44.7423Z" fill="#F0DDE6"/>
<path d="M7.78749 76.3829C7.78749 76.6689 7.83947 76.9896 7.70473 77.2199C7.56615 77.458 7.34093 77.7152 7.10227 77.8535C6.8713 77.9879 6.53641 78.0128 6.24962 78.0128C5.96284 78.0128 5.7511 77.7786 5.51821 77.6461C5.27954 77.5079 5.05052 77.3927 4.91194 77.1527C4.77721 76.9224 4.77722 76.6689 4.77722 76.3829C4.77722 76.0968 4.63092 75.7589 4.76373 75.5266C4.90231 75.2886 5.16794 75.0659 5.40661 74.9277C5.63758 74.7933 5.96284 74.991 6.24962 74.991C6.53641 74.991 6.78277 74.9277 7.01566 75.0601C7.25433 75.1984 7.57001 75.3039 7.70859 75.5439C7.8414 75.7743 7.78749 76.0968 7.78749 76.3829Z" fill="#ECDEE6"/>
<path d="M105.651 56.4858L105.341 57.8719L105.849 59.2753L105.266 60.6423L105.597 62.0534L105.809 63.4683L105.016 64.793L104.76 66.1599L105.239 67.6247L104.535 68.9283L104.109 70.2626L103.84 71.62L103.638 72.9927L103.653 74.4172L103.109 75.715L103.293 77.2029L102.608 78.4585L101.975 79.7179L101.648 81.0733L101.001 82.3174L100.674 83.6766L100.152 84.9629L99.4304 86.1628L98.9126 87.4491L98.9223 88.9946L98.0312 90.1119L97.5191 91.4213L96.2027 92.2737L95.5694 93.5043L95.0574 94.8213L94.736 96.2843L93.2809 96.9639L92.9903 98.4863L92.2185 99.6651L91.2812 100.715L90.2707 101.694L88.933 102.347L87.9937 103.37L86.733 104.042L85.7707 105.039L84.7371 105.962L83.8171 107.062L82.5102 107.615L81.4382 108.531L80.4046 109.562L79.0034 109.908L77.5368 110.03L76.2414 110.503L75.1174 111.516L73.6258 111.361L72.3324 111.918L70.9273 111.929L69.5877 112.373L68.1904 112.29L66.8084 112.077L65.4207 112.388L64.033 112.305L62.6703 112.037L61.3384 111.645L59.8198 112.014L58.5014 111.503L57.0867 111.278L55.8991 110.451L54.548 110.034L53.3508 109.289L52.0016 108.823L51.0412 107.709L49.6958 107.202L48.4717 106.492L47.467 105.496L46.853 104.071L45.6193 103.369L44.5568 102.466L43.887 101.188L42.9208 100.199L41.7852 99.3445L41.2502 98.0006L40.4302 96.889L39.5352 95.8312L38.6171 94.7791L37.8377 93.6291L37.2044 92.3927L36.3787 91.2639L35.5607 90.1215L35.2181 88.7373L34.8004 87.4011L34.096 86.2012L33.0701 85.1242L32.6967 83.7707L32.2021 82.4671L32.1963 80.9965L30.9799 79.9291L31.0877 78.4373L30.1965 77.2393L30.3024 75.7688L29.9617 74.4191L29.2207 73.1558L29.2284 71.7275L29.0455 70.3452L28.9647 68.9495L28.7876 67.5691L28.8184 66.1657L28.1736 64.8391L28.1063 63.4452L27.8118 62.0687L28.0967 60.6557L27.6328 59.2811L27.6559 57.8834L27.91 56.4858L28.0909 55.0977L27.7675 53.6982L27.9927 52.312L28.4527 50.9489L28.035 49.5225L28.7183 48.192L28.5201 46.7733L28.4527 45.3583L28.8069 44.0029L28.8146 42.5899L29.7346 41.3439L29.9655 39.9789L30.0926 38.5851L30.7104 37.3084L30.6276 35.8532L30.5872 34.3903L31.5457 33.223L32.1617 31.9655L32.2098 30.5102L33.0278 29.3295L33.1278 27.8724L33.9728 26.7166L34.6657 25.5052L35.0198 24.1363L36.0804 23.1169L36.3498 21.6905L37.1678 20.5558L38.1148 19.5095L38.5863 18.1694L39.1214 16.8544L39.8451 15.6525L40.7016 14.5467L41.508 13.3967L42.5243 12.4214L43.5617 11.4788L44.6088 10.5534L45.5731 9.54933L46.2929 8.26111L47.4112 7.40486L48.6064 6.65227L49.6285 5.66739L50.7775 4.84954L52.144 4.38493L53.6203 4.18527L54.854 3.57476L55.7933 2.2635L57.1752 1.92561L58.6669 1.9928L59.8948 1.2383L61.2402 0.850493L62.6703 0.933047L64.008 0.401249L65.4072 0.328294L66.8084 0.163187L68.225 0L69.5723 0.76218L70.9312 1.02712L72.3131 1.16343L73.7316 1.20759L75.0423 1.70099L76.3492 2.18287L77.6696 2.63403L79.0477 2.97961L79.9793 4.21983L81.2168 4.8265L82.4063 5.52341L83.8902 5.8133L84.6178 7.17064L85.9978 7.66212L86.8659 8.78523L87.8013 9.80851L88.8599 10.7032L90.1706 11.3751L90.7634 12.7132L91.7335 13.7096L93.0942 14.4123L93.4349 15.9021L94.4569 16.8812L94.7976 18.323L96.1641 19.1063L96.4952 20.5328L96.9629 21.8594L97.7328 23.0171L98.8376 24.0211L99.4054 25.2998L99.644 26.7166L100.268 27.9626L100.945 29.1932L100.835 30.7137L101.634 31.9021L101.979 33.2518L102.181 34.6379L102.672 35.9376L102.978 37.2892L103.465 38.5966L104.19 39.8599L103.934 41.3324L104.431 42.6514L104.471 44.0528L104.85 45.3987L105.339 46.7406L105.736 48.1018L105.472 49.5302L105.17 50.947L105.961 52.2948L105.543 53.7058L105.959 55.0901L105.651 56.4858Z" fill="#A4C9ED"/>
<path d="M51.0681 11.5327C51.1528 11.7842 51.3164 12.0108 51.3914 12.2603C51.4684 12.5138 51.4742 12.7902 51.5416 13.0417C51.6089 13.2971 51.4492 13.6062 51.505 13.8596C51.5628 14.1188 51.6917 14.3549 51.736 14.6122C51.7822 14.8733 51.6917 15.1459 51.7244 15.4031C51.7571 15.6661 52.0247 15.9004 52.042 16.1615C52.0593 16.4245 52.1883 16.6913 52.1883 16.9524C52.1883 17.2155 51.8149 17.467 51.7975 17.7281C51.7802 17.9911 52.1055 18.2867 52.0709 18.5459C52.0343 18.807 51.8149 19.0393 51.759 19.2966C51.7032 19.5519 51.5685 19.7842 51.4935 20.0376C51.4184 20.2872 51.3568 20.5387 51.2606 20.7845C51.1663 21.0264 51.1662 21.3124 51.0488 21.5505" fill="#270011"/>
<path d="M20.3881 16.7641C20.1668 16.933 19.9762 17.0636 19.7991 17.2786C19.6221 17.4917 19.393 17.7163 19.2698 17.9659C19.1467 18.2136 19.2968 18.5726 19.2313 18.8471C19.1698 19.114 19.1525 19.3693 19.1525 19.6534C19.1525 19.9318 19.0235 20.216 19.0831 20.4771C19.1447 20.7458 19.1332 21.0684 19.2506 21.3103C19.3699 21.5579 19.7337 21.6654 19.9031 21.8785C20.0744 22.0917 20.3053 22.2107 20.519 22.3815C20.7307 22.5505 20.8154 22.921 21.0637 23.0401C21.3081 23.1572 21.5776 23.3146 21.847 23.376C22.1088 23.4355 22.4187 23.2532 22.6978 23.2532C22.9711 23.2532 23.2655 23.3952 23.5215 23.3376C23.7852 23.2781 24.0201 23.0861 24.2606 22.9729C24.5032 22.8577 24.609 22.5524 24.8188 22.3892C25.0305 22.226 25.4693 22.2952 25.6406 22.0897C25.81 21.8862 25.937 21.6098 26.0602 21.3698C26.1815 21.1356 26.1391 20.8207 26.2065 20.5596C26.2719 20.3062 26.3586 20.118 26.3682 19.8454C26.7512 19.7187 26.7493 19.9069 27.1535 19.9069C27.5577 19.9069 27.5577 19.809 27.9619 19.809C28.366 19.809 28.366 19.8531 28.7702 19.8531C29.1744 19.8531 29.1744 19.7936 29.5786 19.7936C29.9828 19.7936 29.9828 19.5997 30.387 19.5997C30.7912 19.5997 30.7912 19.6784 31.1954 19.6784C31.5996 19.6784 31.5996 19.7456 32.0037 19.7456C32.4079 19.7456 32.4079 19.784 32.8121 19.784C33.2163 19.784 33.2163 19.832 33.6205 19.832C34.0247 19.832 34.0247 19.7859 34.4289 19.7859C34.833 19.7859 34.8331 19.6746 35.2373 19.6746C35.6415 19.6746 35.6414 19.9222 36.0456 19.9222C36.4498 19.9222 36.4498 19.6477 36.854 19.6477C37.2582 19.6477 37.2582 19.617 37.6624 19.617C38.0666 19.617 38.0666 19.5997 38.4707 19.5997C38.8749 19.5997 38.875 19.832 39.2792 19.832C39.6833 19.832 39.6833 19.5901 40.0875 19.5901C40.4917 19.5901 40.4917 19.8128 40.8959 19.8128C41.3001 19.8128 41.3001 19.9299 41.7043 19.9299C42.1085 19.9299 42.1084 19.7379 42.5126 19.7379C42.9168 19.7379 42.9169 19.6726 43.3211 19.6726C43.7252 19.6726 43.7252 19.7053 44.1294 19.7053C44.5336 19.7053 44.5336 19.6554 44.9378 19.6554C45.342 19.6554 45.342 19.6323 45.7462 19.6323C46.1503 19.6323 46.1503 19.7014 46.5545 19.7014C46.9587 19.7014 46.9588 19.8243 47.3629 19.8243C47.7671 19.8243 47.7671 19.7782 48.1713 19.7782C48.5755 19.7782 48.5755 19.6707 48.9797 19.6707C49.3839 19.6707 49.3839 19.6861 49.79 19.6861C50.1942 19.6861 50.1942 19.6842 50.6003 19.6842C51.0064 19.6842 50.9949 19.8032 51.3817 19.6803C51.4529 19.3981 51.4375 19.1869 51.4876 18.9028C51.5376 18.6167 51.7686 18.3556 51.7974 18.0676C51.8263 17.7797 51.8129 17.4821 51.8225 17.1922C51.8302 16.9042 51.6878 16.6143 51.6762 16.3244C51.6647 16.0364 51.6377 15.7542 51.6069 15.4643C51.5761 15.1783 51.4876 14.9057 51.4395 14.6158C51.3913 14.3316 51.4317 14.1608 51.3682 13.8747C50.9852 13.7499 51.0083 13.6021 50.6061 13.6021C50.2019 13.6021 50.2019 13.892 49.7977 13.892C49.3935 13.892 49.3935 13.5694 48.9893 13.5694C48.5851 13.5694 48.5851 13.725 48.1809 13.725C47.7768 13.725 47.7767 13.9265 47.3725 13.9265C46.9683 13.9265 46.9683 13.723 46.5642 13.723C46.16 13.723 46.16 13.5522 45.7558 13.5522C45.3516 13.5522 45.3516 13.6155 44.9474 13.6155C44.5432 13.6155 44.5432 13.7096 44.1391 13.7096C43.7349 13.7096 43.7348 13.5579 43.3306 13.5579C42.9264 13.5579 42.9265 13.7058 42.5223 13.7058C42.1181 13.7058 42.1181 13.8728 41.7139 13.8728C41.3097 13.8728 41.3097 13.8478 40.9055 13.8478C40.5013 13.8478 40.5014 13.8862 40.0972 13.8862C39.693 13.8862 39.6929 13.6059 39.2887 13.6059C38.8846 13.6059 38.8846 13.8094 38.4804 13.8094C38.0762 13.8094 38.0762 13.7633 37.672 13.7633C37.2678 13.7633 37.2678 13.7134 36.8636 13.7134C36.4595 13.7134 36.4595 13.675 36.0553 13.675C35.6511 13.675 35.651 13.6309 35.2469 13.6309C34.8427 13.6309 34.8427 13.8958 34.4385 13.8958C34.0343 13.8958 34.0343 13.8613 33.6301 13.8613C33.2259 13.8613 33.2259 13.6155 32.8217 13.6155C32.4176 13.6155 32.4176 13.844 32.0134 13.844C31.6092 13.844 31.6092 13.8133 31.205 13.8133C30.8008 13.8133 30.8008 13.5522 30.3966 13.5522C29.9924 13.5522 29.9924 13.6424 29.5882 13.6424C29.184 13.6424 29.184 13.5752 28.7799 13.5752C28.3757 13.5752 28.3757 13.8113 27.9696 13.8113C27.5654 13.8113 27.5653 13.7 27.1592 13.7C26.755 13.7 26.7069 13.9419 26.322 13.8152C26.3124 13.5426 26.4105 13.1701 26.3451 12.9167C26.2777 12.6556 25.9524 12.4943 25.8331 12.2601C25.7099 12.022 25.7985 11.64 25.6291 11.4365C25.4578 11.2311 25.0556 11.2618 24.8438 11.0986C24.634 10.9354 24.5012 10.6724 24.2568 10.5572C24.0181 10.4439 23.7852 10.2596 23.5215 10.2001C23.2655 10.1425 22.9768 10.0811 22.7035 10.0811C22.4245 10.0811 22.1088 10.0619 21.847 10.1214C21.5776 10.1828 21.3813 10.5015 21.1368 10.6186C20.8886 10.7377 20.6845 10.9028 20.4728 11.0717C20.2591 11.2426 20.0936 11.4365 19.9243 11.6515C19.7549 11.8646 19.4392 11.9894 19.3199 12.2371C19.2025 12.4809 19.1909 12.7785 19.1313 13.0492C19.0716 13.3103 19.1544 13.5829 19.1544 13.8632C19.1544 14.1473 19.1448 14.4103 19.2064 14.6772C19.2699 14.9517 19.139 15.3107 19.2622 15.5584C19.3873 15.8099 19.8242 15.8637 20.0012 16.0787C20.1745 16.3033 20.1668 16.5951 20.3881 16.7641Z" fill="#F0DDE6"/>
<path d="M79.4923 21.9958C79.4076 21.7443 79.244 21.5178 79.1689 21.2682C79.0919 21.0148 79.0862 20.7383 79.0188 20.4868C78.9514 20.2315 79.1112 19.9224 79.0553 19.6689C78.9976 19.4098 78.8687 19.1736 78.8244 18.9164C78.7782 18.6553 78.8687 18.3826 78.836 18.1254C78.8032 17.8624 78.5357 17.6281 78.5183 17.367C78.501 17.104 78.3721 16.8372 78.3721 16.5761C78.3721 16.313 78.7455 16.0615 78.7628 15.8004C78.7801 15.5374 78.4549 15.2418 78.4895 14.9826C78.5261 14.7215 78.7455 14.4892 78.8013 14.2319C78.8571 13.9766 78.9918 13.7443 79.0669 13.4909C79.142 13.2413 79.2036 12.9898 79.2998 12.744C79.3941 12.5021 79.3941 12.2161 79.5115 11.978" fill="#270011"/>
<path d="M110.172 16.764C110.393 16.5951 110.584 16.4645 110.761 16.2495C110.938 16.0364 111.167 15.8118 111.29 15.5622C111.413 15.3145 111.263 14.9555 111.329 14.681C111.39 14.4141 111.408 14.1588 111.408 13.8747C111.408 13.5963 111.537 13.3121 111.477 13.051C111.415 12.7823 111.427 12.4597 111.31 12.2178C111.19 11.9702 110.826 11.8627 110.657 11.6496C110.486 11.4365 110.255 11.3174 110.041 11.1466C109.829 10.9776 109.745 10.6071 109.496 10.488C109.252 10.3709 108.983 10.2135 108.713 10.1521C108.451 10.0926 108.141 10.2749 107.862 10.2749C107.589 10.2749 107.295 10.1329 107.039 10.1905C106.775 10.25 106.54 10.442 106.3 10.5552C106.057 10.6704 105.951 10.9757 105.741 11.1389C105.53 11.3021 105.091 11.2329 104.919 11.4384C104.75 11.6419 104.623 11.9183 104.5 12.1583C104.379 12.3925 104.421 12.7074 104.354 12.9685C104.288 13.2219 104.202 13.4101 104.192 13.6827C103.809 13.8094 103.811 13.6212 103.407 13.6212C103.002 13.6212 103.002 13.7192 102.598 13.7192C102.194 13.7192 102.194 13.675 101.79 13.675C101.386 13.675 101.386 13.7345 100.981 13.7345C100.577 13.7345 100.577 13.9284 100.173 13.9284C99.7689 13.9284 99.7689 13.8497 99.3648 13.8497C98.9606 13.8497 98.9606 13.7825 98.5564 13.7825C98.1522 13.7825 98.1522 13.7441 97.748 13.7441C97.3438 13.7441 97.3438 13.6961 96.9396 13.6961C96.5354 13.6961 96.5354 13.7422 96.1312 13.7422C95.727 13.7422 95.727 13.8535 95.3229 13.8535C94.9187 13.8535 94.9187 13.6059 94.5145 13.6059C94.1103 13.6059 94.1103 13.8804 93.7061 13.8804C93.3019 13.8804 93.3019 13.9111 92.8977 13.9111C92.4935 13.9111 92.4935 13.9284 92.0893 13.9284C91.6851 13.9284 91.6851 13.6961 91.281 13.6961C90.8768 13.6961 90.8768 13.938 90.4726 13.938C90.0684 13.938 90.0684 13.7153 89.6642 13.7153C89.26 13.7153 89.26 13.5982 88.8558 13.5982C88.4516 13.5982 88.4516 13.7902 88.0474 13.7902C87.6432 13.7902 87.6432 13.8555 87.2391 13.8555C86.8349 13.8555 86.8349 13.8228 86.4307 13.8228C86.0265 13.8228 86.0265 13.8727 85.6223 13.8727C85.2181 13.8727 85.2181 13.8958 84.8139 13.8958C84.4097 13.8958 84.4097 13.8267 84.0055 13.8267C83.6013 13.8267 83.6013 13.7038 83.1972 13.7038C82.793 13.7038 82.793 13.7499 82.3888 13.7499C81.9846 13.7499 81.9846 13.8574 81.5804 13.8574C81.1762 13.8574 81.1762 13.842 80.7701 13.842C80.3659 13.842 80.3659 13.8439 79.9598 13.8439C79.5537 13.8439 79.5652 13.7249 79.1783 13.8478C79.1071 14.13 79.1225 14.3412 79.0725 14.6253C79.0225 14.9114 78.7915 15.1725 78.7626 15.4605C78.7337 15.7484 78.7472 16.046 78.7376 16.3359C78.7299 16.6239 78.8723 16.9138 78.8839 17.2037C78.8954 17.4917 78.9224 17.7739 78.9531 18.0638C78.9839 18.3498 79.0725 18.6224 79.1206 18.9123C79.1687 19.1965 79.1283 19.3673 79.1918 19.6534C79.5748 19.7782 79.5517 19.926 79.954 19.926C80.3582 19.926 80.3582 19.6361 80.7624 19.6361C81.1666 19.6361 81.1666 19.9587 81.5708 19.9587C81.975 19.9587 81.975 19.8031 82.3792 19.8031C82.7833 19.8031 82.7833 19.6016 83.1875 19.6016C83.5917 19.6016 83.5917 19.8051 83.9959 19.8051C84.4001 19.8051 84.4001 19.9759 84.8043 19.9759C85.2085 19.9759 85.2085 19.9126 85.6127 19.9126C86.0169 19.9126 86.0169 19.8185 86.4211 19.8185C86.8252 19.8185 86.8252 19.9702 87.2294 19.9702C87.6336 19.9702 87.6336 19.8223 88.0378 19.8223C88.442 19.8223 88.442 19.6553 88.8462 19.6553C89.2504 19.6553 89.2504 19.6803 89.6546 19.6803C90.0588 19.6803 90.0588 19.6419 90.463 19.6419C90.8671 19.6419 90.8671 19.9222 91.2713 19.9222C91.6755 19.9222 91.6755 19.7187 92.0797 19.7187C92.4839 19.7187 92.4839 19.7647 92.8881 19.7647C93.2923 19.7647 93.2923 19.8147 93.6965 19.8147C94.1007 19.8147 94.1007 19.8531 94.5049 19.8531C94.909 19.8531 94.909 19.8972 95.3132 19.8972C95.7174 19.8972 95.7174 19.6323 96.1216 19.6323C96.5258 19.6323 96.5258 19.6668 96.93 19.6668C97.3342 19.6668 97.3342 19.9126 97.7384 19.9126C98.1426 19.9126 98.1426 19.6841 98.5468 19.6841C98.9509 19.6841 98.9509 19.7148 99.3551 19.7148C99.7593 19.7148 99.7593 19.9759 100.163 19.9759C100.568 19.9759 100.568 19.8857 100.972 19.8857C101.376 19.8857 101.376 19.9529 101.78 19.9529C102.184 19.9529 102.184 19.7168 102.591 19.7168C102.995 19.7168 102.995 19.8281 103.401 19.8281C103.805 19.8281 103.853 19.5862 104.238 19.7129C104.248 19.9855 104.15 20.358 104.215 20.6114C104.282 20.8725 104.608 21.0338 104.727 21.268C104.85 21.5061 104.762 21.8881 104.931 22.0916C105.102 22.297 105.505 22.2663 105.716 22.4295C105.926 22.5927 106.059 22.8557 106.303 22.9709C106.542 23.0842 106.775 23.2685 107.039 23.328C107.295 23.3856 107.583 23.447 107.857 23.447C108.136 23.447 108.451 23.4662 108.713 23.4067C108.983 23.3453 109.179 23.0266 109.423 22.9095C109.672 22.7904 109.876 22.6253 110.087 22.4564C110.301 22.2855 110.467 22.0916 110.636 21.8766C110.805 21.6635 111.121 21.5387 111.24 21.291C111.358 21.0472 111.369 20.7496 111.429 20.4789C111.489 20.2178 111.406 19.9452 111.406 19.6649C111.406 19.3808 111.415 19.1178 111.354 18.8509C111.29 18.5764 111.421 18.2174 111.298 17.9697C111.173 17.7182 110.736 17.6644 110.559 17.4494C110.386 17.2267 110.393 16.933 110.172 16.764Z" fill="#F0DDE6"/>
</svg>
