<svg width="103" height="72" viewBox="0 0 103 72" fill="none" xmlns="http://www.w3.org/2000/svg">
<path fill-rule="evenodd" clip-rule="evenodd" d="M0.409835 72H102.801L102.271 70.2456L102.823 68.3999L101.783 66.6372L102.177 64.784L102.527 62.9182L102.005 61.1353L101.362 59.3801L100.864 57.6198L100.811 55.7867L100.158 54.0615L100.494 52.1355L99.5377 50.4832L98.8998 48.7732L98.4949 47.0053L97.8495 45.3053L97.5838 43.4923L97.1332 41.727L96.0829 40.1726L96.2271 38.1838L95.3363 36.5742L94.5162 34.9445L94.1999 33.0913L93.4532 31.4189L92.0004 30.1056L90.9881 28.5914L90.373 26.8563L89.9377 24.9905L88.1433 23.966L87.6953 22.0801L86.3488 20.7995L85.9008 18.8509L84.1114 17.9318L82.8358 16.6285L82.0588 14.8783L80.3352 13.9994L78.9432 12.8292L77.7106 11.4908L76.5692 10.0218L74.757 9.37897L73.7978 7.60362L71.8489 7.22444L70.2848 6.31291L68.6574 5.51941L67.4324 3.89723L65.6177 3.44523L63.884 2.85512L62.1655 2.22484L60.4419 1.57948L58.574 1.52173L56.7593 1.34344L54.9725 0.996908L53.2008 0L51.3355 0.213444L49.4955 0.429399L47.6529 0.524821L45.8965 1.2204L44.0159 1.11242L42.2443 1.61966L40.6295 2.60653L38.668 2.51864L36.8533 2.96059L35.6157 4.67567L33.9959 5.47421L32.0521 5.73536L30.2576 6.34305L28.7441 7.41278L27.4027 8.70097L25.831 9.68533L24.358 10.8053L23.4139 12.4902L22.1434 13.8035L20.7691 15.0139L19.4024 16.2468L18.066 17.5225L17.0081 19.0266L15.8818 20.473L14.9301 22.045L14.2265 23.7651L13.6039 25.5178L12.3612 26.8864L11.283 28.3704L10.9312 30.2362L9.53413 31.5696L9.07097 33.36L8.15729 34.9445L7.0462 36.4562L6.91712 38.3621L5.84146 39.9065L5.77565 41.8099L4.96575 43.4546L3.70533 44.9814L3.76101 46.8949L3.86731 48.7983L3.0574 50.4682L2.88783 52.2912L2.58664 54.0766L1.37684 55.7063L1.36419 57.5545L0.901022 59.3273L0.987075 61.178L1.24776 63.0337L0.351804 64.7739L0.901022 66.6397L0.296122 68.4225L0 70.2356L0.409835 72ZM37.6307 56.457L37.7496 54.7971L37.6737 53.1248L36.7473 51.7236L35.6363 50.4881L34.1329 49.7549L32.4801 49.5188L30.792 49.6368L29.281 50.4303L28.299 51.7838L27.5422 53.2051L27.0462 54.7971L27.6359 56.3591L28.0586 57.9863L29.4202 58.9756L30.873 59.7038L32.4801 60.2914L34.1885 60.0152L35.6211 59.0886L36.6056 57.7703L37.6307 56.457ZM75.5418 54.7973L75.4785 56.5023L74.5978 57.9738L73.4107 59.1942L71.8491 59.8546L70.1914 59.9501L68.4779 60.0279L67.0783 59.0486L65.8204 57.9487L65.3319 56.3642L64.9877 54.7973L65.0231 53.1324L65.79 51.6232L67.0201 50.4681L68.4728 49.5466L70.1914 49.5943L71.8339 49.7801L73.2842 50.5761L74.3776 51.7814L75.1293 53.2052L75.5418 54.7973Z" fill="#A4C9ED"/>
</svg>
