<svg width="166" height="262" viewBox="0 0 166 262" fill="none" xmlns="http://www.w3.org/2000/svg">
<g clip-path="url(#clip0)">
<path d="M136.659 110.027C136.279 110.027 135.892 109.968 135.51 109.846C133.511 109.212 132.406 107.069 133.041 105.066C133.068 104.979 133.068 104.974 133.089 104.888C133.104 104.814 133.122 104.736 133.142 104.652C133.111 104.169 133.147 103.583 133.362 102.905C133.567 102.255 133.858 101.768 134.149 101.397C134.156 101.374 134.164 101.349 134.172 101.321C134.179 100.917 134.235 100.43 134.417 99.8508C134.607 99.2491 134.873 98.7844 135.151 98.4188C135.189 98.2564 135.237 98.0736 135.303 97.8704C135.394 97.5835 135.442 97.4388 135.49 97.2966C135.528 97.1849 135.566 97.0707 135.637 96.8447C135.677 96.7178 135.713 96.6086 135.748 96.5096C135.7 96.0044 135.725 95.3798 135.945 94.6816C136.123 94.1256 136.33 93.7244 136.53 93.4096C136.618 93.1608 136.694 92.9831 136.765 92.8206L136.788 92.7647C136.796 92.747 136.801 92.7241 136.811 92.6936V92.6886C136.854 92.4321 136.912 92.1173 137.061 91.6425C137.102 91.5156 137.109 91.4826 137.132 91.3861C137.183 91.1779 137.236 90.9596 137.35 90.6016C137.41 90.4112 137.436 90.3147 137.464 90.2182C137.509 90.0557 137.555 89.8907 137.656 89.5683C137.805 89.0935 137.939 88.8015 138.053 88.5654V88.5629C138.127 88.3318 138.21 88.1236 138.299 87.9332C138.283 87.4356 138.352 86.938 138.509 86.4454C138.673 85.9249 138.855 85.5568 139.022 85.2674C139.197 84.7875 139.422 84.3965 139.65 84.0868C139.67 83.9852 139.695 83.8811 139.723 83.7694C139.741 83.3886 139.799 82.9417 139.976 82.3857C140.156 81.8145 140.399 81.3727 140.639 81.0325C140.601 80.5374 140.639 79.9433 140.852 79.268C141.011 78.7653 141.203 78.3794 141.393 78.0772C141.434 77.8563 141.494 77.5923 141.606 77.2445C141.694 76.9626 141.79 76.724 141.889 76.5158C141.897 76.1147 141.957 75.6551 142.117 75.1448C142.226 74.797 142.362 74.4948 142.509 74.2308C142.529 73.8779 142.59 73.4894 142.722 73.0731C142.944 72.3647 143.291 71.8341 143.627 71.4456C143.643 71.0623 143.701 70.5976 143.875 70.0442C143.989 69.6836 144.07 69.4729 144.151 69.2723C144.154 69.2673 144.154 69.2647 144.156 69.2597C144.179 68.8941 144.24 68.4675 144.404 67.9445C144.604 67.3149 144.885 66.835 145.173 66.4643C145.184 66.4262 145.194 66.3882 145.204 66.3475C145.211 65.9464 145.267 65.4589 145.452 64.8801C145.644 64.2733 145.897 63.8239 146.142 63.4786C146.178 63.3669 146.206 63.2755 146.259 63.0927C146.284 62.8058 146.327 62.4757 146.439 62.0314C146.583 61.4652 146.775 61.0438 146.957 60.7188C146.99 60.5944 147.018 60.5005 147.043 60.4091C147.053 60.3735 147.064 60.3354 147.076 60.2948C147.074 60.0816 147.081 59.8429 147.117 59.5789C147.056 59.099 147.053 58.4998 147.233 57.794C147.337 57.3827 147.484 57.0273 147.648 56.7226C147.658 56.4129 147.701 56.0752 147.792 55.7147C147.931 55.1688 148.134 54.7296 148.354 54.3741C148.374 54.2142 148.405 54.0415 148.445 53.8562C148.455 53.5287 148.496 53.1275 148.625 52.6121C148.653 52.3481 148.691 52.0231 148.814 51.5356C148.961 50.9517 149.181 50.4947 149.402 50.1418C149.432 49.9717 149.475 49.7711 149.541 49.502C149.634 49.1364 149.713 48.8952 149.789 48.6921C149.791 48.3341 149.829 47.905 149.958 47.3896C150.019 47.1459 150.049 47.024 150.08 46.9047C150.113 46.7651 150.148 46.6254 150.219 46.3461C150.36 45.7901 150.558 45.3585 150.76 45.0158C150.791 44.8228 150.834 44.5943 150.907 44.2998C150.998 43.9367 151.064 43.7311 151.109 43.5787C151.135 43.5 151.158 43.4213 151.198 43.2639C151.249 43.0633 151.302 42.8856 151.357 42.7282C151.312 42.2738 151.325 41.7253 151.479 41.1135C151.651 40.4356 151.922 39.9253 152.19 39.5394C152.195 39.5241 152.2 39.5089 152.205 39.4937C152.185 39.0798 152.21 38.5873 152.359 38.0033C152.445 37.6606 152.562 37.3559 152.693 37.0893C152.688 36.7288 152.729 36.3302 152.838 35.9011C152.858 35.8224 152.858 35.8224 152.871 35.7386C152.906 35.5101 152.946 35.2512 153.05 34.845C153.174 34.3549 153.296 34.0503 153.399 33.8015C153.531 33.2962 153.685 32.9281 153.837 32.6336C153.873 32.4102 153.916 32.1537 154.014 31.7551C154.136 31.2727 154.303 30.8843 154.475 30.5669C154.5 30.3105 154.546 30.0236 154.629 29.691C154.753 29.201 154.907 28.8278 155.062 28.5282C155.09 28.2921 155.135 28.0077 155.231 27.6243C155.333 27.2283 155.413 26.9871 155.489 26.7738C155.52 26.69 155.522 26.6824 155.545 26.591C155.573 26.4844 155.575 26.4691 155.591 26.3777C155.601 26.3143 155.611 26.2508 155.624 26.1797C155.565 25.6999 155.565 25.1083 155.74 24.4177C155.78 24.2552 155.798 24.1714 155.813 24.0877C155.844 23.9353 155.884 23.7246 155.975 23.3666C156.15 22.6735 156.431 22.153 156.712 21.7595C156.681 21.3304 156.709 20.8252 156.853 20.2539C156.922 19.9797 156.957 19.8452 156.992 19.7081C157.025 19.5837 157.058 19.4593 157.119 19.2104C157.278 18.5833 157.534 18.0857 157.792 17.71C157.82 17.5525 157.855 17.3824 157.906 17.1844C158.02 16.735 158.123 16.4557 158.212 16.2272L158.235 16.1536C158.751 14.1149 160.816 12.881 162.848 13.4015C164.879 13.9194 166.107 15.9911 165.59 18.0299C165.476 18.4792 165.373 18.7585 165.284 18.987L165.272 19.0226C165.246 19.3171 165.203 19.6548 165.082 20.1295C164.915 20.7871 164.641 21.3025 164.371 21.6833C164.406 22.1251 164.386 22.6506 164.234 23.2498C164.115 23.7221 163.994 24.0369 163.877 24.306C163.72 24.9077 163.485 25.3774 163.242 25.743C163.29 26.2051 163.278 26.7662 163.116 27.4111C163.09 27.5152 163.085 27.5329 163.073 27.6218C163.037 27.8376 162.994 28.0788 162.896 28.4647C162.794 28.8608 162.713 29.102 162.637 29.3152C162.612 29.3889 162.607 29.4041 162.589 29.4701C162.564 29.7392 162.524 30.0693 162.4 30.5618C162.291 30.996 162.157 31.3362 162.02 31.618C162 31.91 161.954 32.2451 161.853 32.6437C161.709 33.2124 161.504 33.6517 161.296 33.997C161.266 34.1798 161.223 34.393 161.15 34.685C161.013 35.2258 160.844 35.6142 160.682 35.924C160.58 36.2845 160.482 36.5308 160.396 36.7364C160.383 36.7872 160.38 36.8024 160.373 36.8456C160.489 37.3864 160.537 38.0973 160.327 38.9224C160.201 39.42 160.014 39.8364 159.811 40.1741C159.788 40.4204 159.745 40.6869 159.672 40.9764C159.583 41.3267 159.52 41.5299 159.457 41.7254C159.427 41.8218 159.411 41.8675 159.373 42.0122C159.292 42.3347 159.189 42.619 159.072 42.8704C159.08 43.2436 159.044 43.6625 158.928 44.1195C158.799 44.6273 158.655 44.9751 158.516 45.2696C158.442 45.5515 158.389 45.7241 158.346 45.8561C158.321 45.9348 158.298 46.0135 158.258 46.171L158.247 46.2192C158.217 46.468 158.177 46.7701 158.06 47.2322C157.906 47.8441 157.681 48.3036 157.455 48.6641C157.453 48.6768 157.448 48.6895 157.445 48.7048C157.425 48.786 157.407 48.8647 157.38 48.9714C157.382 49.3446 157.349 49.7965 157.21 50.35C157.101 50.7765 157.01 51.0329 156.927 51.2589L156.906 51.3122C156.901 51.3274 156.896 51.3478 156.889 51.3782C156.866 51.4722 156.863 51.4798 156.851 51.5661C156.815 51.787 156.772 52.0383 156.674 52.4319C156.534 52.9853 156.329 53.4246 156.122 53.7724C156.099 53.9222 156.069 54.0948 156.021 54.298C156.011 54.5823 155.98 54.9174 155.889 55.3389C155.882 55.6918 155.844 56.1031 155.71 56.6287C155.616 56.9943 155.494 57.3116 155.358 57.5909C155.355 57.9311 155.315 58.3119 155.211 58.7232C155.095 59.1853 154.923 59.5763 154.735 59.9038C154.725 60.0689 154.702 60.244 154.672 60.4243C154.682 60.8128 154.654 61.2901 154.505 61.874C154.427 62.1863 154.381 62.3412 154.338 62.4986C154.308 62.6027 154.28 62.7068 154.227 62.915C154.103 63.4024 153.943 63.7833 153.784 64.0879C153.751 64.3647 153.695 64.682 153.582 65.0882C153.453 65.5402 153.417 65.657 153.326 65.9388L153.232 66.2307C153.098 66.6573 152.934 67.0051 152.762 67.2945C152.726 67.5865 152.663 67.914 152.547 68.2796C152.537 68.3101 152.529 68.3355 152.524 68.3558L152.511 68.4167C152.463 68.6503 152.405 68.9144 152.276 69.3257C152.111 69.8512 151.886 70.2701 151.648 70.6103C151.61 70.8287 151.552 71.0699 151.469 71.3339C151.36 71.6767 151.282 71.8849 151.206 72.0753C151.188 72.451 151.127 72.9004 150.96 73.4361C150.927 73.5377 150.925 73.5529 150.905 73.6418C150.856 73.855 150.798 74.0962 150.679 74.4771C150.548 74.8884 150.378 75.2413 150.191 75.5409C150.163 75.8455 150.1 76.1756 149.991 76.5234C149.86 76.9373 149.692 77.2876 149.51 77.5847C149.48 77.8868 149.417 78.2143 149.305 78.5698C149.154 79.0522 148.979 79.4101 148.812 79.697C148.771 79.9306 148.708 80.215 148.587 80.6034C148.501 80.8751 148.405 81.1112 148.303 81.3219C148.301 81.7332 148.24 82.1953 148.078 82.7056C148.022 82.8834 147.997 82.9722 147.974 83.0636C147.929 83.2337 147.883 83.4038 147.777 83.7415C147.63 84.2061 147.441 84.5869 147.246 84.8967C147.215 85.0973 147.172 85.3156 147.107 85.5543C147.079 85.9097 147.018 86.321 146.854 86.844C146.656 87.4711 146.365 87.9561 146.082 88.3191C146.115 88.8599 146.046 89.3956 145.877 89.9288C145.662 90.6067 145.356 91.1043 145.065 91.475C145.001 91.6298 144.941 91.7593 144.885 91.8736V91.8761C144.824 92.0665 144.799 92.163 144.771 92.2595C144.726 92.422 144.68 92.587 144.579 92.9094C144.538 93.0364 144.531 93.0694 144.508 93.1659C144.457 93.3741 144.404 93.5924 144.29 93.9504V93.9555C144.247 94.2144 144.189 94.5293 144.04 95.0015C143.908 95.4179 143.805 95.6667 143.708 95.8876L143.686 95.9434C143.678 95.9612 143.673 95.984 143.663 96.0145C143.597 96.2252 143.524 96.4131 143.45 96.5832C143.465 97.0351 143.417 97.5632 143.235 98.1396C143.114 98.5229 143.023 98.754 142.937 98.9571C142.901 99.0409 142.896 99.0536 142.866 99.1526C142.775 99.4395 142.727 99.5817 142.679 99.7264C142.643 99.8305 142.61 99.9346 142.547 100.125C142.504 100.422 142.443 100.762 142.294 101.234C142.137 101.73 141.93 102.133 141.704 102.466C141.666 102.704 141.608 102.966 141.517 103.25C141.454 103.453 141.423 103.558 141.393 103.659C141.348 103.814 141.305 103.971 141.206 104.281C141.082 104.677 140.925 105.012 140.756 105.297C140.728 105.612 140.662 105.959 140.545 106.333C140.518 106.419 140.518 106.424 140.5 106.51C140.452 106.734 140.394 106.983 140.27 107.376C139.764 108.991 138.268 110.027 136.659 110.027ZM147.051 85.7701C147.051 85.7701 147.051 85.7726 147.051 85.7701C147.051 85.7726 147.051 85.7701 147.051 85.7701ZM146.008 63.9204C146.008 63.9229 146.006 63.9254 146.006 63.9305L146.008 63.9204ZM165.274 19.0581C165.272 19.0607 165.272 19.0607 165.274 19.0581V19.0581Z" fill="#F0DDE6"/>
<path d="M113.16 261.492C111.065 261.492 109.364 259.786 109.364 257.684C109.364 257.087 109.453 256.62 109.554 256.254C109.562 256.013 109.579 255.833 109.594 255.668C109.602 255.589 109.602 255.589 109.602 255.51C109.602 255.135 109.615 254.919 109.622 254.761C109.627 254.678 109.632 254.594 109.632 254.424C109.632 254.195 109.63 254.081 109.627 253.967C109.625 253.809 109.62 253.652 109.62 253.337C109.62 253.18 109.615 253.103 109.61 253.025C109.602 252.905 109.594 252.781 109.592 252.626C109.481 252.243 109.389 251.768 109.389 251.164C109.389 250.765 109.425 250.435 109.476 250.153C109.405 249.831 109.352 249.447 109.352 248.99C109.352 248.493 109.389 248.173 109.427 247.914V247.904C109.427 247.673 109.438 247.475 109.453 247.3C109.303 246.873 109.195 246.355 109.195 245.733C109.195 245.357 109.207 245.139 109.215 244.982C109.22 244.898 109.225 244.817 109.225 244.649C109.225 243.852 109.42 243.209 109.643 242.724C109.549 242.366 109.478 241.932 109.478 241.397C109.478 240.988 109.521 240.638 109.582 240.338C109.513 240.021 109.465 239.655 109.465 239.226C109.465 238.888 109.486 238.627 109.508 238.411C109.407 238.043 109.331 237.598 109.331 237.055C109.331 237.022 109.331 236.994 109.329 236.974L109.324 236.913C109.298 236.674 109.273 236.405 109.273 235.971C109.273 235.344 109.372 234.854 109.486 234.471C109.511 234.118 109.567 233.815 109.632 233.562C109.627 233.503 109.62 233.44 109.615 233.374C109.44 232.922 109.296 232.348 109.296 231.632C109.296 231.264 109.306 231.053 109.314 230.898C109.319 230.812 109.321 230.723 109.321 230.548C109.321 230.05 109.359 229.733 109.397 229.471V229.461C109.397 229.091 109.407 228.875 109.417 228.72C109.42 228.684 109.422 228.649 109.422 228.606C109.339 228.255 109.271 227.839 109.271 227.293C109.271 226.773 109.354 226.318 109.47 225.932C109.432 225.688 109.41 225.419 109.41 225.122C109.41 224.97 109.405 224.891 109.4 224.815C109.387 224.609 109.377 224.396 109.377 224.038C109.377 223.51 109.432 223.132 109.498 222.809C109.503 222.416 109.534 222.152 109.562 221.928L109.567 221.87C109.567 221.578 109.574 221.383 109.582 221.235C109.468 220.887 109.374 220.463 109.352 219.961C109.265 219.605 109.195 219.181 109.195 218.618C109.195 218.036 109.288 217.551 109.417 217.148C109.397 216.947 109.382 216.719 109.382 216.449C109.382 215.952 109.427 215.596 109.483 215.294L109.481 215.276C109.453 215.035 109.422 214.741 109.422 214.281C109.422 214.043 109.438 213.824 109.463 213.624C109.316 213.202 109.21 212.7 109.21 212.113C109.21 211.978 109.215 211.846 109.228 211.722C109.222 211.709 109.217 211.694 109.21 211.681C109.061 211.321 108.977 210.993 108.924 210.76C108.792 210.45 108.704 210.123 108.658 209.785C108.58 209.201 108.608 208.701 108.678 208.284C108.625 208.066 108.585 207.825 108.565 207.558C108.441 207.157 108.337 206.657 108.339 206.015C108.342 205.565 108.385 205.212 108.438 204.923C108.387 204.633 108.35 204.293 108.35 203.849C108.352 203.151 108.501 202.572 108.676 202.13C108.671 202.006 108.668 201.864 108.668 201.686C108.668 201.445 108.676 201.262 108.686 201.107C108.539 200.683 108.428 200.157 108.428 199.52C108.43 198.87 108.542 198.357 108.673 197.954C108.673 197.941 108.676 197.926 108.676 197.913C108.514 197.479 108.385 196.928 108.387 196.273C108.387 195.915 108.398 195.735 108.405 195.557C108.41 195.466 108.415 195.374 108.415 195.191C108.418 194.623 108.499 194.173 108.595 193.813C108.595 193.813 108.595 193.813 108.595 193.81C108.582 193.604 108.572 193.389 108.572 193.026C108.572 192.777 108.59 192.548 108.618 192.338C108.479 191.924 108.38 191.431 108.382 190.86C108.382 190.405 108.428 190.053 108.484 189.761C108.433 189.474 108.398 189.139 108.398 188.694C108.398 188.27 108.446 187.905 108.514 187.595C108.453 187.29 108.41 186.94 108.413 186.529C108.415 185.82 108.554 185.257 108.716 184.822C108.734 184.663 108.757 184.515 108.785 184.378C108.747 184.193 108.716 183.99 108.699 183.761C108.57 183.355 108.463 182.847 108.466 182.197C108.468 181.728 108.501 181.428 108.532 181.182L108.537 181.116C108.539 180.613 108.58 180.288 108.62 180.024C108.625 179.369 108.744 178.843 108.886 178.432V178.277C108.767 177.884 108.673 177.399 108.676 176.787C108.678 176.32 108.737 175.921 108.82 175.581C108.772 175.304 108.739 174.987 108.739 174.624C108.739 174.436 108.747 174.263 108.762 174.106C108.592 173.661 108.466 173.113 108.468 172.461C108.471 171.806 108.59 171.275 108.739 170.853C108.737 170.747 108.734 170.633 108.734 170.46C108.668 170.143 108.61 169.747 108.61 169.216C108.61 168.853 108.646 168.538 108.694 168.266C108.61 167.924 108.552 167.522 108.554 167.053C108.557 166.448 108.668 165.931 108.818 165.512C108.808 165.408 108.8 165.296 108.795 165.179C108.704 164.816 108.63 164.384 108.63 163.813C108.592 163.552 108.554 163.229 108.554 162.726C108.56 160.627 110.257 158.928 112.35 158.928C112.352 158.928 112.358 158.928 112.36 158.928C114.455 158.933 116.148 160.64 116.145 162.742C116.176 162.952 116.206 163.199 116.216 163.547C116.292 163.854 116.358 164.209 116.373 164.659C116.457 165.011 116.525 165.433 116.525 165.991C116.522 166.507 116.441 166.956 116.325 167.337C116.363 167.583 116.386 167.855 116.386 168.152C116.383 168.629 116.328 169.02 116.254 169.345C116.297 169.612 116.328 169.927 116.325 170.315C116.325 170.541 116.328 170.653 116.33 170.767C116.333 170.925 116.335 171.082 116.335 171.397C116.335 171.686 116.31 171.95 116.272 172.191C116.391 172.58 116.472 173.037 116.472 173.557C116.472 173.943 116.439 174.261 116.393 174.53C116.467 174.86 116.522 175.251 116.52 175.721C116.52 176.162 116.467 176.541 116.388 176.868C116.447 177.163 116.482 177.498 116.482 177.884L116.477 178.965C116.474 179.651 116.343 180.199 116.191 180.623C116.176 180.826 116.153 180.991 116.13 181.136C116.128 181.464 116.112 181.705 116.092 181.903C116.176 182.197 116.242 182.543 116.264 182.946C116.366 183.317 116.449 183.782 116.449 184.376C116.446 184.97 116.366 185.419 116.267 185.785C116.247 186.115 116.193 186.412 116.128 186.673C116.178 186.95 116.209 187.265 116.209 187.623C116.206 188.131 116.14 188.552 116.052 188.9C116.087 189.146 116.11 189.433 116.11 189.789C116.11 189.966 116.102 190.126 116.09 190.276C116.264 190.725 116.398 191.286 116.398 191.954C116.396 192.553 116.302 193.033 116.186 193.419C116.196 193.602 116.204 193.805 116.204 194.12C116.201 194.711 116.115 195.176 116.011 195.542C116.011 195.562 116.011 195.58 116.009 195.598C116.191 196.049 116.348 196.644 116.345 197.362C116.343 197.872 116.3 198.205 116.257 198.474C116.254 198.822 116.219 199.127 116.168 199.398C116.257 199.746 116.315 200.147 116.312 200.609C116.312 200.998 116.295 201.239 116.277 201.45C116.269 201.546 116.267 201.572 116.267 201.693C116.267 201.823 116.269 201.856 116.277 201.955C116.292 202.171 116.305 202.397 116.305 202.775C116.302 203.389 116.186 203.912 116.039 204.331C116.057 204.512 116.064 204.712 116.064 204.943C116.064 205.301 116.037 205.596 115.996 205.85C116.047 206.055 116.09 206.284 116.115 206.538C116.267 206.969 116.388 207.507 116.388 208.196C116.388 208.449 116.371 208.68 116.343 208.894C116.535 209.236 116.765 209.734 116.889 210.354C116.978 210.798 116.988 211.212 116.963 211.567C117.13 212.009 117.254 212.547 117.254 213.184C117.254 213.763 117.168 214.233 117.054 214.616C117.071 214.809 117.087 215.045 117.087 215.355C117.087 215.81 117.049 216.145 117.001 216.429C117.051 216.719 117.092 217.061 117.092 217.523C117.092 218.064 117.011 218.521 116.894 218.907C116.904 218.973 116.912 219.044 116.92 219.115C117.071 219.542 117.201 220.088 117.201 220.773C117.201 221.154 117.188 221.372 117.178 221.532C117.173 221.614 117.168 221.695 117.168 221.857C117.168 222.332 117.135 222.637 117.102 222.883L117.097 222.941C117.097 223.462 117.044 223.84 116.978 224.158C116.98 224.231 116.983 224.279 116.985 224.33C116.991 224.419 116.996 224.508 117.001 224.609C117.14 225.026 117.251 225.541 117.251 226.191C117.251 226.795 117.14 227.308 116.996 227.727C117.016 227.918 117.028 228.126 117.028 228.359C117.028 228.73 117.018 228.946 117.008 229.101C117.003 229.187 116.998 229.271 116.998 229.444C116.998 229.941 116.96 230.259 116.922 230.52V230.53C116.922 230.766 116.917 230.936 116.912 231.071C117.066 231.503 117.188 232.041 117.188 232.698C117.188 232.721 117.188 232.739 117.188 232.754L117.193 232.79C117.221 233.028 117.251 233.323 117.251 233.782C117.251 234.392 117.16 234.864 117.056 235.232C117.031 235.626 116.968 235.958 116.892 236.238C116.902 236.342 116.91 236.456 116.917 236.591C117.044 236.992 117.145 237.489 117.145 238.121C117.145 238.462 117.125 238.723 117.099 238.939C117.201 239.307 117.274 239.749 117.274 240.292C117.274 240.721 117.228 241.084 117.163 241.397C117.223 241.699 117.266 242.052 117.266 242.463C117.266 242.798 117.259 242.989 117.249 243.184C117.244 243.275 117.241 243.364 117.241 243.545C117.241 244.266 117.082 244.862 116.884 245.329C117.016 245.738 117.112 246.223 117.112 246.799C117.112 247.292 117.069 247.635 117.021 247.927C117.018 248.274 116.998 248.531 116.973 248.742C117.064 249.095 117.132 249.524 117.132 250.057C117.132 250.448 117.097 250.773 117.049 251.052C117.125 251.38 117.178 251.768 117.178 252.23C117.178 252.388 117.183 252.464 117.188 252.542C117.201 252.745 117.211 252.959 117.211 253.314C117.211 253.543 117.213 253.657 117.216 253.769C117.218 253.926 117.223 254.083 117.223 254.398C117.223 254.774 117.211 254.99 117.203 255.147C117.198 255.231 117.193 255.317 117.193 255.485C117.193 255.914 117.17 256.178 117.145 256.414C117.137 256.493 117.137 256.493 117.137 256.572C117.137 257.199 117.041 257.681 116.932 258.054C116.737 259.997 115.123 261.492 113.16 261.492ZM108.881 178.96C108.881 178.963 108.881 178.965 108.881 178.968V178.96ZM116.143 162.79H116.145H116.143Z" fill="#F0DDE6"/>
<path d="M50.9775 251.103C50.8131 251.103 50.6486 251.093 50.4841 251.07C48.4067 250.798 46.9392 248.886 47.2099 246.802C47.2909 246.172 47.4705 245.67 47.673 245.266C47.5717 244.811 47.5161 244.258 47.6021 243.598C47.6173 243.491 47.6173 243.473 47.6198 243.385C47.6299 243.166 47.6426 242.92 47.6932 242.526C47.7463 242.12 47.7995 241.871 47.8476 241.651C47.8653 241.577 47.8678 241.562 47.8754 241.496C47.8678 241.224 47.8678 240.891 47.9336 240.389C47.9918 239.944 48.0829 239.591 48.1841 239.297C48.1689 239.005 48.174 238.667 48.2271 238.261C48.303 237.68 48.4523 237.22 48.6168 236.852C48.6269 236.669 48.6421 236.451 48.6825 236.156C48.7534 235.605 48.8774 235.197 48.9988 234.872C49.057 234.506 49.1253 234.25 49.1861 234.036C49.1911 233.991 49.1937 233.973 49.1962 233.935C49.0165 233.412 48.885 232.711 48.9938 231.868C49.0596 231.36 49.1962 230.926 49.3581 230.563C49.3505 230.317 49.3632 230.048 49.4012 229.753C49.4467 229.398 49.4872 229.187 49.5251 228.984C49.5454 228.885 49.553 228.839 49.5732 228.692C49.6162 228.365 49.6845 228.07 49.7706 227.806C49.72 227.438 49.7048 227.016 49.7655 226.549C49.8338 226.031 49.935 225.668 50.0388 225.361C50.0793 225.074 50.1122 224.896 50.1375 224.762C50.1526 224.681 50.1678 224.602 50.1881 224.439L50.1906 224.394C50.1906 224.142 50.1957 223.838 50.2564 223.365C50.3374 222.741 50.5044 222.256 50.6865 221.873C50.6891 221.86 50.6891 221.847 50.6916 221.834C50.7017 221.753 50.7118 221.672 50.7245 221.565C50.6764 221.195 50.6562 220.743 50.7296 220.179C50.7852 219.742 50.8459 219.478 50.9041 219.242L50.9168 219.186C50.9193 219.171 50.9219 219.148 50.9269 219.12C50.9396 219.026 50.9396 219.019 50.9421 218.933C50.9497 218.709 50.9623 218.455 51.0155 218.052C51.0889 217.485 51.2381 217.026 51.4051 216.658C51.4102 216.505 51.4203 216.333 51.4431 216.127C51.4178 215.835 51.4102 215.5 51.4507 215.084C51.4178 214.733 51.4051 214.319 51.476 213.781C51.5241 213.408 51.6076 213.08 51.7088 212.788C51.6708 212.451 51.6658 212.067 51.7214 211.648C51.7822 211.176 51.9061 210.767 52.0504 210.422C52.0428 210.257 52.0428 210.084 52.0529 209.902C51.9972 209.516 51.9694 209.041 52.0453 208.444C52.0858 208.124 52.1111 207.965 52.1364 207.807C52.1541 207.7 52.1693 207.596 52.1971 207.383C52.2629 206.875 52.3793 206.474 52.5033 206.149C52.5033 205.908 52.5159 205.626 52.564 205.266C52.5944 205.035 52.607 204.918 52.6197 204.804C52.6374 204.654 52.6526 204.501 52.6931 204.202C52.774 203.582 52.9334 203.108 53.1004 202.737C53.1257 202.361 53.1966 201.924 53.3737 201.391C53.3838 201.361 53.3914 201.335 53.399 201.315L53.4117 201.254C53.4623 201.021 53.523 200.759 53.6596 200.348C53.8317 199.825 54.062 199.408 54.3049 199.071C54.3479 198.852 54.4061 198.614 54.4946 198.352C54.6085 198.012 54.6895 197.806 54.7679 197.616C54.7907 197.24 54.8565 196.791 55.0336 196.26C55.0665 196.161 55.0715 196.143 55.0918 196.057C55.1424 195.844 55.2031 195.603 55.3296 195.224C55.4663 194.816 55.6409 194.465 55.8332 194.168C55.8661 193.864 55.9318 193.536 56.0457 193.191C56.1823 192.779 56.3544 192.432 56.5391 192.137C56.5745 191.835 56.6429 191.507 56.7592 191.157C56.9187 190.677 57.0958 190.322 57.2678 190.037C57.3134 189.804 57.3792 189.519 57.5057 189.136C57.5942 188.867 57.6955 188.631 57.7967 188.425C57.8068 188.016 57.8726 187.554 58.0421 187.047C58.1003 186.871 58.1256 186.783 58.1509 186.694C58.199 186.524 58.2471 186.353 58.3584 186.018C58.5127 185.554 58.7076 185.178 58.9049 184.871C58.9378 184.67 58.9834 184.454 59.0517 184.218C59.0846 183.865 59.1529 183.452 59.325 182.934C59.5299 182.312 59.8285 181.832 60.1169 181.471C60.0916 180.933 60.1676 180.397 60.3421 179.867C60.5648 179.191 60.8786 178.696 61.1771 178.333C61.2429 178.178 61.3062 178.051 61.3619 177.937C61.4251 177.749 61.4529 177.653 61.4808 177.556C61.5289 177.394 61.5769 177.231 61.6832 176.909C61.7237 176.784 61.7338 176.751 61.7566 176.655C61.8097 176.447 61.8654 176.231 61.9843 175.873V175.868C62.0299 175.611 62.0931 175.297 62.25 174.827C62.3866 174.413 62.4954 174.164 62.5941 173.946L62.6194 173.893C62.627 173.877 62.6346 173.854 62.6422 173.824C62.7105 173.616 62.7864 173.428 62.8623 173.26C62.8522 172.808 62.9079 172.283 63.1002 171.707C63.2267 171.326 63.3228 171.097 63.4089 170.894C63.4443 170.81 63.4493 170.798 63.4822 170.701C63.5759 170.417 63.6265 170.275 63.6771 170.132C63.7125 170.028 63.7505 169.927 63.8137 169.736C63.8593 169.442 63.9276 169.102 64.0819 168.632C64.2464 168.139 64.4589 167.738 64.6892 167.411C64.7297 167.172 64.7929 166.911 64.8866 166.629C64.9523 166.428 64.9852 166.324 65.0156 166.223C65.0612 166.068 65.1092 165.913 65.2104 165.603C65.3395 165.21 65.5014 164.877 65.676 164.595C65.7089 164.28 65.7772 163.935 65.9012 163.564C65.929 163.481 65.9316 163.475 65.9493 163.389C65.9999 163.168 66.0606 162.919 66.1922 162.526C66.3971 161.906 66.6578 161.462 66.8981 161.13C67.7104 159.418 69.684 158.542 71.521 159.157C73.5098 159.819 74.5852 161.978 73.9248 163.973C73.7477 164.509 73.5275 164.913 73.3175 165.227C73.3099 165.263 73.2998 165.301 73.2897 165.339C73.3124 165.821 73.2694 166.408 73.0442 167.083C72.8292 167.728 72.5306 168.213 72.2345 168.579C72.2269 168.602 72.2194 168.627 72.2118 168.652C72.1991 169.056 72.1384 169.543 71.9461 170.12C71.7487 170.719 71.4754 171.181 71.192 171.542C71.1516 171.704 71.101 171.882 71.0352 172.087C70.9416 172.372 70.8909 172.514 70.8403 172.656C70.8024 172.768 70.7619 172.88 70.6885 173.106C70.6455 173.232 70.6076 173.342 70.5721 173.438C70.6126 173.943 70.5797 174.568 70.3495 175.264C70.1648 175.817 69.9497 176.216 69.7447 176.528C69.6536 176.774 69.5752 176.952 69.5018 177.112L69.4765 177.165C69.4689 177.18 69.4613 177.203 69.4537 177.234V177.239C69.4082 177.495 69.3449 177.81 69.1881 178.28C69.145 178.407 69.1375 178.437 69.1147 178.534C69.0615 178.742 69.0059 178.958 68.887 179.313C68.8237 179.504 68.7959 179.597 68.768 179.694C68.72 179.856 68.6719 180.019 68.5656 180.341C68.4087 180.814 68.2721 181.103 68.1532 181.339C68.0773 181.568 67.9912 181.773 67.9001 181.964C67.9103 182.461 67.8318 182.956 67.6699 183.446C67.4978 183.964 67.3106 184.33 67.1385 184.617C66.9589 185.094 66.7261 185.48 66.4933 185.787C66.4705 185.886 66.4452 185.99 66.4149 186.1C66.3921 186.48 66.3263 186.927 66.1441 187.481C65.9569 188.047 65.7064 188.484 65.4635 188.821C65.4938 189.319 65.4483 189.908 65.2256 190.581C65.0611 191.078 64.8613 191.462 64.669 191.764C64.6234 191.982 64.5601 192.246 64.4463 192.592C64.3527 192.871 64.254 193.109 64.1528 193.318C64.1401 193.719 64.0743 194.176 63.9048 194.684C63.7909 195.029 63.6518 195.328 63.5 195.59C63.4747 195.94 63.4089 196.329 63.2722 196.743C63.0394 197.448 62.6877 197.974 62.3436 198.355C62.3234 198.738 62.2601 199.2 62.0754 199.751C61.9565 200.109 61.873 200.317 61.7895 200.518C61.7869 200.52 61.7869 200.526 61.7844 200.528C61.7566 200.894 61.6908 201.318 61.5162 201.838C61.3087 202.465 61.0203 202.94 60.7268 203.306C60.7116 203.367 60.6913 203.433 60.6711 203.504C60.6559 203.791 60.6205 204.123 60.5269 204.527C60.4282 204.953 60.3017 205.299 60.1751 205.578C60.1726 205.606 60.1701 205.631 60.1676 205.657C60.1524 205.799 60.1347 205.944 60.0992 206.218C60.1068 206.51 60.1043 206.85 60.041 207.332C59.9651 207.909 59.826 208.35 59.6817 208.696C59.664 208.823 59.6488 208.917 59.6337 209.011C59.6286 209.046 59.621 209.084 59.616 209.125C59.6438 209.336 59.664 209.569 59.6615 209.836C59.7779 210.305 59.8513 210.899 59.7576 211.623C59.702 212.045 59.6008 212.413 59.4743 212.733C59.4996 213.04 59.4996 213.38 59.4515 213.748C59.3781 214.307 59.2288 214.766 59.0517 215.147C59.0492 215.307 59.0416 215.48 59.0213 215.67C59.0492 216.008 59.0568 216.404 58.991 216.922C58.996 217.188 58.996 217.513 58.9302 218.011C58.8518 218.608 58.6899 219.087 58.5127 219.463C58.5026 219.636 58.4849 219.839 58.4495 220.111C58.4014 220.481 58.3508 220.73 58.3002 220.941C58.3407 221.296 58.3533 221.728 58.285 222.253C58.2521 222.5 58.2369 222.624 58.2243 222.748C58.2066 222.891 58.1914 223.033 58.1534 223.32C58.0801 223.886 57.9358 224.338 57.7739 224.703C57.7663 224.896 57.7511 225.13 57.7132 225.43C57.6651 225.8 57.6246 226.011 57.5968 226.168C57.5816 226.25 57.5664 226.328 57.5462 226.491C57.5209 226.696 57.488 226.877 57.4525 227.039C57.5512 227.484 57.6044 228.029 57.5234 228.656C57.4348 229.35 57.2248 229.888 57.0047 230.302C57.0022 230.314 56.9996 230.33 56.9971 230.342C57.0679 230.751 57.0983 231.244 57.0224 231.84C56.9769 232.191 56.8984 232.503 56.8023 232.782C56.8478 233.138 56.8579 233.536 56.7997 233.975C56.7896 234.057 56.7896 234.057 56.7871 234.138C56.7795 234.369 56.7694 234.63 56.7137 235.047C56.6479 235.547 56.5644 235.864 56.491 236.123C56.4202 236.639 56.3114 237.022 56.1975 237.329C56.1899 237.555 56.1773 237.812 56.1241 238.215C56.0609 238.708 55.942 239.114 55.8079 239.449C55.8129 239.706 55.8028 239.995 55.7573 240.335C55.6915 240.836 55.5827 241.224 55.4663 241.541C55.4663 241.777 55.4561 242.067 55.4055 242.458C55.3524 242.864 55.2993 243.113 55.2512 243.334C55.231 243.418 55.2309 243.425 55.2183 243.519C55.2056 243.626 55.2031 243.641 55.2006 243.732C55.1981 243.796 55.1955 243.862 55.1905 243.93C55.3069 244.4 55.3752 244.987 55.2841 245.695C55.2613 245.863 55.2563 245.946 55.2487 246.03C55.236 246.185 55.2208 246.398 55.1728 246.766C55.0665 247.579 54.7983 248.183 54.5275 248.627C53.9886 250.097 52.5716 251.103 50.9775 251.103ZM59.616 210.516C59.616 210.516 59.616 210.519 59.616 210.521C59.616 210.519 59.616 210.519 59.616 210.516ZM59.1175 184.002C59.1175 184.002 59.1175 184.005 59.1175 184.002C59.1175 184.005 59.1175 184.002 59.1175 184.002Z" fill="#F0DDE6"/>
<path d="M136.408 111.217C135.902 111.217 135.386 111.141 134.877 110.979C132.213 110.131 130.738 107.277 131.583 104.604C131.679 104.299 131.788 104.025 131.907 103.778C131.945 103.395 132.023 102.974 132.165 102.527C132.355 101.928 132.61 101.43 132.883 101.019C132.921 100.864 132.964 100.704 133.018 100.536C133.114 100.232 133.164 100.082 133.215 99.9295C133.233 99.8787 133.25 99.8279 133.271 99.7645C133.314 99.4014 133.395 98.9749 133.562 98.4468C133.751 97.8451 133.994 97.3627 134.237 96.9768C134.278 96.827 134.326 96.6543 134.392 96.4487L134.397 96.4334C134.45 96.1821 134.516 95.8723 134.665 95.4052C134.784 95.032 134.867 94.8035 134.946 94.6029C134.966 94.5496 134.986 94.4963 135.022 94.3896C135.042 94.3211 135.062 94.2601 135.08 94.2068C135.065 93.6533 135.128 92.9805 135.363 92.2366C135.477 91.8736 135.558 91.6603 135.634 91.4572C135.657 91.3988 135.679 91.3379 135.717 91.216C135.889 90.6701 136.117 90.2081 136.363 89.8222C136.406 89.6267 136.459 89.4235 136.525 89.2103C136.742 88.5197 137.036 87.9789 137.329 87.5549C137.339 87.5194 137.352 87.4813 137.365 87.4407C137.413 87.0928 137.491 86.6866 137.653 86.1738C137.762 85.8336 137.833 85.633 137.904 85.4426C137.929 85.3766 137.952 85.3105 137.99 85.1887C138.038 84.9373 138.098 84.6504 138.212 84.2696C138.243 84.0614 138.286 83.8278 138.351 83.5612C138.379 83.1195 138.455 82.5914 138.653 81.9617C138.86 81.3042 139.148 80.7685 139.445 80.3419C139.472 80.0449 139.523 79.7072 139.619 79.3264C139.655 78.9227 139.733 78.4301 139.92 77.8386C140.082 77.3283 140.29 76.8916 140.517 76.5209C140.56 76.3 140.621 76.0664 140.697 75.8227C140.841 75.3682 141.006 74.995 141.173 74.6802C141.221 74.4162 141.292 74.1191 141.398 73.784C141.461 73.5809 141.492 73.4793 141.522 73.3777C141.567 73.2203 141.613 73.0629 141.712 72.7506C141.788 72.512 141.871 72.2936 141.96 72.088C141.987 71.6056 142.076 71.1257 142.225 70.6484C142.332 70.3133 142.445 70.0289 142.559 69.7827C142.602 69.4272 142.683 69.0261 142.825 68.5742C142.957 68.1603 143.111 67.8023 143.278 67.4926C143.323 67.1955 143.397 66.8731 143.506 66.5253L143.832 65.497C144.067 64.7531 144.386 64.1844 144.7 63.7503C144.748 63.6385 144.794 63.537 144.839 63.4431C144.976 63.0241 145.1 62.7347 145.214 62.4834C146.082 59.8454 148.905 58.3881 151.549 59.231C154.214 60.079 155.689 62.9277 154.844 65.6011C154.695 66.0708 154.561 66.3882 154.439 66.6573C154.29 67.1245 154.148 67.4469 154.019 67.7186C153.824 68.3076 153.574 68.7823 153.321 69.1657C153.293 69.6024 153.212 70.1127 153.032 70.6891C152.893 71.1308 152.724 71.5117 152.546 71.8341C152.498 72.1083 152.43 72.4053 152.326 72.7303C152.291 72.8446 152.253 72.9512 152.217 73.0528C152.225 73.6646 152.131 74.2714 151.942 74.8731C151.727 75.5536 151.441 76.0893 151.15 76.5082C151.145 76.526 151.137 76.5463 151.132 76.5666C151.089 76.9398 151.011 77.374 150.838 77.9147C150.737 78.2321 150.626 78.5139 150.51 78.7602C150.469 79.1309 150.388 79.5422 150.249 79.989C150.054 80.6034 149.791 81.1112 149.513 81.5251C149.482 81.9211 149.411 82.3959 149.242 82.9595C149.189 83.2667 149.115 83.6222 148.961 84.1096C148.784 84.6707 148.549 85.143 148.298 85.534C148.268 85.6635 148.235 85.8005 148.194 85.9402C148.146 86.2652 148.07 86.646 147.921 87.1284C147.865 87.4178 147.795 87.7504 147.645 88.2176C147.539 88.5578 147.466 88.7558 147.395 88.9488C147.382 88.9818 147.372 89.0122 147.357 89.0503C147.309 89.3931 147.23 89.7942 147.071 90.2995C146.997 90.528 146.965 90.6448 146.929 90.759C146.886 90.9012 146.843 91.0434 146.752 91.3277C146.613 91.7695 146.443 92.1503 146.261 92.4778C146.216 92.752 146.145 93.0491 146.046 93.3664C145.844 94.0088 145.563 94.5343 145.272 94.9583C145.247 95.4001 145.166 95.8952 144.999 96.4284C144.905 96.7229 144.857 96.8701 144.809 97.0148C144.773 97.124 144.735 97.2332 144.667 97.4515C144.548 97.8273 144.462 98.0532 144.386 98.2564C144.366 98.3097 144.346 98.363 144.31 98.4696L144.305 98.4874C144.252 98.7387 144.186 99.0485 144.037 99.5156L144.012 99.6071C143.961 99.8406 143.893 100.125 143.756 100.559C143.597 101.067 143.397 101.491 143.192 101.844C143.146 102.065 143.083 102.308 142.997 102.578C142.903 102.875 142.853 103.027 142.802 103.174C142.772 103.596 142.691 104.096 142.506 104.682C142.362 105.139 142.18 105.535 141.98 105.881C141.934 106.145 141.871 106.424 141.777 106.713C141.527 107.503 141.185 108.089 140.872 108.521C139.991 110.192 138.258 111.217 136.408 111.217ZM153.475 68.5716L153.472 68.5818C153.472 68.5792 153.472 68.5767 153.475 68.5716ZM144.401 64.55C144.401 64.5526 144.401 64.5525 144.399 64.5551C144.401 64.5525 144.401 64.55 144.401 64.55Z" fill="#5FA3DF"/>
<path d="M3.79541 202.211C3.35008 202.211 2.89716 202.133 2.45689 201.965C0.495907 201.224 -0.495969 199.025 0.245407 197.057C0.321316 196.852 0.35674 196.75 0.394695 196.646C0.44277 196.506 0.490846 196.367 0.586997 196.113C0.642664 195.811 0.723633 195.466 0.900754 194.996C1.07281 194.541 1.21451 194.262 1.33596 194.039L1.34103 194.031C1.39669 193.767 1.4726 193.445 1.64972 192.972C1.77371 192.64 1.84455 192.477 1.9154 192.315C1.95083 192.231 1.98878 192.145 2.05204 191.972C2.22916 191.502 2.40375 191.175 2.57075 190.906C2.62895 190.675 2.70232 190.393 2.86173 189.974L2.88704 189.895C2.9427 189.664 3.01608 189.385 3.17296 188.966C3.20079 188.829 3.23622 188.679 3.28682 188.499C3.28682 188.029 3.35767 187.453 3.60311 186.795C3.88144 186.059 4.2787 185.531 4.62535 185.175C4.63547 185.155 4.64812 185.132 4.65824 185.112C4.69873 184.756 4.78476 184.34 4.96947 183.855C5.00995 183.749 5.01501 183.728 5.04032 183.637C5.09092 183.459 5.14912 183.266 5.25033 182.984C5.30094 182.664 5.38191 182.276 5.56915 181.781C5.68554 181.474 5.74627 181.321 5.80953 181.169C5.84495 181.083 5.88037 180.996 5.9411 180.839C5.9993 180.542 6.08027 180.199 6.25486 179.735C6.43198 179.262 6.58633 178.973 6.71537 178.739C6.82164 178.46 6.87478 178.323 6.92792 178.188C6.97093 178.079 7.01395 177.97 7.09745 177.752C7.33023 177.132 7.65158 176.657 7.9704 176.302C8.01341 176.16 8.06402 176.005 8.12728 175.837C8.23861 175.54 8.33729 175.322 8.42332 175.144C8.45368 174.751 8.53971 174.294 8.73708 173.766L8.75732 173.7C8.81552 173.461 8.8889 173.169 9.05336 172.732C9.20265 172.334 9.31652 172.095 9.42026 171.887C9.45568 171.816 9.45568 171.816 9.48098 171.745C9.63786 171.328 9.80233 171.013 9.95668 170.757C10.0098 170.47 10.0933 170.135 10.2451 169.729C10.3388 169.477 10.4298 169.274 10.5159 169.097C10.5386 168.678 10.6196 168.19 10.8246 167.647C11.0903 166.941 11.4698 166.426 11.819 166.06C11.8493 165.979 11.8848 165.882 11.9303 165.76C11.9834 165.616 12.0366 165.489 12.0872 165.375C12.0745 164.879 12.1378 164.285 12.3832 163.63C12.5604 163.158 12.7628 162.798 12.9525 162.513C13.0082 162.269 13.0867 161.993 13.2182 161.642C13.451 161.02 13.7622 160.553 14.0735 160.198C14.1165 160.063 14.1671 159.908 14.2379 159.726C14.3189 159.507 14.3898 159.342 14.4505 159.202C14.4606 158.751 14.539 158.22 14.7617 157.623C14.9616 157.095 15.1919 156.704 15.4044 156.405C15.4095 156.389 15.4145 156.377 15.4171 156.361C15.4651 156.212 15.5284 156.006 15.66 155.661C15.7435 155.44 15.8295 155.247 15.9155 155.077C15.9282 154.64 16.0066 154.127 16.2166 153.571C16.4292 153.008 16.705 152.571 16.9858 152.228C16.9782 151.746 17.0466 151.164 17.2844 150.527C17.3224 150.428 17.3249 150.413 17.3502 150.324C17.4084 150.113 17.4792 149.877 17.6184 149.504C17.7222 149.227 17.7778 149.088 17.831 148.95C17.874 148.839 17.9195 148.724 18.0056 148.499C18.2054 147.965 18.3345 147.709 18.4939 147.407C18.5293 147.341 18.5698 147.262 18.6255 147.153C18.6811 147.041 18.7191 146.962 18.7495 146.894C18.8937 146.584 19.0202 146.325 19.3238 145.845C19.7084 145.236 20.1361 144.827 20.5131 144.545C20.6953 144.32 20.8749 144.137 21.0394 143.987C21.09 143.908 21.1305 143.845 21.1709 143.781C21.2317 143.687 21.2924 143.591 21.4037 143.418C21.4898 143.21 21.5935 142.979 21.7504 142.702C21.8465 142.38 21.9908 142.004 22.2362 141.583C22.3526 141.247 22.5171 140.867 22.8081 140.405C23.1117 139.922 23.4583 139.559 23.7923 139.287C23.8809 139.097 23.9872 138.896 24.1213 138.688C24.3237 138.366 24.4578 138.183 24.5868 138.008C24.6425 137.934 24.6602 137.909 24.721 137.812C24.8272 137.569 24.9664 137.272 25.2346 136.845C25.5053 136.416 25.7381 136.139 25.9481 135.911C26.2265 135.484 26.4947 135.187 26.7376 134.954C26.7427 134.943 26.7503 134.931 26.7553 134.918C26.7933 134.849 26.8312 134.781 26.8742 134.705C26.9754 134.273 27.1576 133.758 27.5093 133.199C27.7497 132.818 28.0053 132.519 28.2507 132.278C28.3266 132.09 28.4177 131.889 28.5366 131.676C28.6505 131.313 28.82 130.899 29.1287 130.406C29.3868 129.998 29.6753 129.675 29.9587 129.421C30.0599 129.172 30.1915 128.911 30.361 128.639C30.4268 128.535 30.4394 128.51 30.485 128.423C30.5862 128.231 30.695 128.03 30.8999 127.708C31.2213 127.197 31.5882 126.821 31.9323 126.547C31.9728 126.466 32.0158 126.382 32.0664 126.293C32.1777 125.93 32.3498 125.501 32.6635 125.006C33.0153 124.448 33.3872 124.069 33.7237 123.798C33.7997 123.694 33.868 123.602 33.9338 123.523C34.0071 123.297 34.1058 123.049 34.2475 122.78C34.3538 122.363 34.5309 121.873 34.8776 121.322C35.1382 120.911 35.4266 120.586 35.7075 120.332C35.8087 120.088 35.9403 119.829 36.1098 119.558C36.2743 119.296 36.4489 119.07 36.6235 118.877C36.7297 118.504 36.8993 118.098 37.1599 117.681C37.4534 117.217 37.7849 116.861 38.1037 116.595C38.1948 116.394 38.3086 116.181 38.4503 115.955C38.6275 115.676 38.797 115.45 38.9615 115.259C39.0728 114.901 39.2398 114.503 39.508 114.079C39.8344 113.561 40.1785 113.198 40.4923 112.931C40.5733 112.792 40.6593 112.644 40.8288 112.373C40.9427 112.19 40.9983 112.098 41.054 112.004C41.0717 111.977 41.0894 111.946 41.1071 111.916C41.2084 111.479 41.3905 110.961 41.7422 110.402C41.9396 110.09 42.0687 109.91 42.1926 109.74C42.2508 109.659 42.2736 109.631 42.3445 109.516C42.6026 109.105 42.8176 108.844 43.0099 108.625C43.2908 108.186 43.5463 107.891 43.769 107.663C43.8272 107.577 43.8854 107.495 43.9411 107.419C44.0296 106.942 44.2143 106.401 44.5661 105.843C44.9304 105.266 45.353 104.86 45.73 104.581C45.7958 104.466 45.8717 104.337 45.9653 104.187C47.0862 102.41 49.4293 101.879 51.203 103.004C52.9742 104.129 53.5031 106.482 52.3821 108.26C52.367 108.282 52.3543 108.303 52.3467 108.318L52.3239 108.364C52.2177 108.582 52.0937 108.826 51.8609 109.199C51.6888 109.471 51.5041 109.704 51.3194 109.905C51.2131 110.27 51.0461 110.664 50.7956 111.065C50.4895 111.55 50.196 111.878 49.9328 112.126C49.7076 112.451 49.4976 112.687 49.3129 112.878C49.0978 113.205 48.9131 113.429 48.7461 113.619C48.612 113.83 48.5133 113.977 48.4222 114.102C48.3185 114.521 48.1363 115.005 47.8074 115.528C47.6935 115.711 47.6378 115.803 47.5822 115.897C47.5012 116.034 47.4177 116.173 47.2456 116.445C47.1419 116.607 47.0938 116.691 47.0457 116.775C46.9597 116.925 46.8737 117.072 46.6915 117.364C46.4866 117.692 46.274 117.956 46.064 118.174C45.9552 118.489 45.7983 118.834 45.5681 119.197C45.3631 119.522 45.1632 119.776 44.976 119.982C44.8646 120.299 44.7052 120.652 44.4598 121.04C44.265 121.348 44.0549 121.609 43.8399 121.825C43.7336 122.16 43.5742 122.515 43.3465 122.879C43.1061 123.259 42.8455 123.564 42.5899 123.808C42.4836 124.077 42.3445 124.364 42.1522 124.668C41.8814 125.098 41.5778 125.43 41.2868 125.689C41.2286 125.824 41.1628 125.963 41.0844 126.108C40.973 126.479 40.7984 126.92 40.4796 127.428C40.219 127.84 40.0216 128.086 39.8572 128.281L39.8445 128.297C39.594 128.695 39.3309 129.002 39.0804 129.244C38.9969 129.447 38.8931 129.665 38.7565 129.899C38.6401 130.229 38.4756 130.609 38.1872 131.066C37.8405 131.617 37.4382 132.011 37.0739 132.29C36.9726 132.732 36.7905 133.24 36.4489 133.783C36.1275 134.296 35.7556 134.672 35.4039 134.948C35.376 135.004 35.3457 135.063 35.3153 135.124C35.2065 135.512 35.0294 135.972 34.7004 136.495C34.4879 136.832 34.2627 137.107 34.0451 137.33C33.9363 137.635 33.7819 137.967 33.5618 138.318C33.4834 138.442 33.4631 138.48 33.4125 138.571C33.3138 138.752 33.2101 138.942 33.0178 139.247C32.7066 139.739 32.408 140.069 32.1372 140.321C31.95 140.592 31.783 140.793 31.6261 140.963C31.5224 141.197 31.3858 141.481 31.1378 141.875C30.9657 142.149 30.8417 142.324 30.7304 142.479C30.6216 142.86 30.4445 143.299 30.1358 143.786C29.7942 144.327 29.402 144.718 29.03 145C29.0047 145.051 28.9769 145.104 28.9465 145.155C28.8403 145.513 28.6758 145.934 28.3798 146.414C28.2634 146.693 28.1166 147.013 27.8509 147.435C27.6966 147.678 27.6181 147.8 27.5397 147.922C27.4714 148.026 27.4056 148.133 27.2715 148.344C26.9451 148.862 26.6136 149.212 26.3277 149.468C26.0645 149.826 25.7887 150.101 25.5306 150.314C25.4978 150.385 25.4598 150.464 25.4143 150.555C25.3257 150.733 25.2599 150.857 25.2042 150.964C25.1865 150.997 25.1713 151.025 25.1562 151.055C25.1435 151.083 25.1258 151.129 25.103 151.192C24.9993 151.469 24.9436 151.606 24.8905 151.746C24.8475 151.857 24.8019 151.972 24.7159 152.198C24.6805 152.292 24.6754 152.312 24.6526 152.388C24.6931 152.916 24.6526 153.602 24.3667 154.366C24.2959 154.556 24.263 154.653 24.2301 154.749C24.1769 154.907 24.1238 155.067 24.0049 155.381C23.8708 155.737 23.7114 156.042 23.5418 156.306C23.5014 156.643 23.4204 157.014 23.2711 157.405C23.0788 157.915 22.8713 158.278 22.679 158.565C22.6638 158.606 22.6537 158.641 22.6436 158.677C22.5955 158.827 22.5322 159.032 22.4007 159.378C22.2893 159.672 22.1704 159.924 22.0464 160.139C22.0135 160.523 21.9275 160.957 21.7504 161.432C21.6112 161.802 21.5075 162.026 21.4139 162.224C21.3734 162.308 21.3658 162.323 21.3278 162.424C21.3177 162.455 21.3076 162.478 21.3025 162.495L21.2873 162.551C21.2266 162.782 21.1558 163.044 21.0014 163.45C20.7813 164.037 20.4928 164.486 20.1993 164.834C20.1538 164.996 20.093 165.177 20.0171 165.38C19.9387 165.588 19.8552 165.776 19.7692 165.943C19.759 166.393 19.6831 166.913 19.4706 167.477C19.2935 167.944 19.1442 168.231 19.0151 168.464C18.9291 168.69 18.8912 168.8 18.8532 168.906C18.8026 169.048 18.752 169.188 18.6457 169.47C18.4762 169.924 18.2586 170.297 18.0309 170.602C17.9828 170.866 17.9069 171.151 17.793 171.45C17.6437 171.846 17.5046 172.128 17.373 172.364C17.3224 172.669 17.2389 173.032 17.0693 173.479C16.8796 173.986 16.6771 174.344 16.4924 174.624C16.376 174.916 16.2824 175.111 16.1964 175.286C16.161 175.357 16.161 175.357 16.1331 175.429L16.1129 175.495C16.0775 175.639 16.037 175.807 15.9712 176.013C15.9509 176.439 15.8725 176.949 15.6473 177.549C15.4879 177.975 15.3538 178.242 15.2425 178.455C15.1893 178.762 15.1058 179.118 14.9312 179.582C14.6529 180.326 14.2455 180.857 13.8736 181.227C13.8508 181.288 13.823 181.362 13.7875 181.453C13.6205 181.898 13.4738 182.182 13.3473 182.411C13.2916 182.7 13.2081 183.033 13.0411 183.477C12.9247 183.784 12.864 183.936 12.8007 184.089C12.7729 184.16 12.7425 184.228 12.7021 184.335C12.6514 184.652 12.5679 185.041 12.3832 185.531C12.3427 185.637 12.3377 185.658 12.3124 185.749C12.2719 185.886 12.2289 186.039 12.1631 186.232C12.1277 186.615 12.0467 187.077 11.8392 187.628C11.6621 188.098 11.5103 188.387 11.3812 188.621C11.2193 189.042 11.0219 189.392 10.817 189.682C10.7689 189.959 10.693 190.258 10.5766 190.578C10.5209 190.842 10.445 191.167 10.2679 191.642L10.2426 191.721C10.1844 191.957 10.111 192.244 9.94909 192.673C9.9415 192.693 9.93644 192.711 9.93138 192.726L9.92379 192.759C9.86559 192.993 9.79221 193.277 9.63027 193.706C9.44556 194.196 9.26338 194.529 9.09132 194.805C8.99517 195.052 8.93697 195.194 8.87624 195.333C8.84082 195.415 8.80793 195.493 8.74973 195.648C8.69406 195.915 8.61815 196.237 8.4385 196.715C8.2715 197.156 8.13234 197.433 8.01341 197.654C7.95775 197.949 7.87678 198.289 7.70472 198.743C7.62628 198.949 7.59085 199.053 7.55543 199.155C7.50229 199.307 7.45169 199.459 7.33782 199.759C6.77357 201.269 5.32877 202.211 3.79541 202.211Z" fill="#F0DDE6"/>
<path d="M22.1578 153.995C21.2317 153.995 20.2955 153.741 19.458 153.208C17.0972 151.708 16.3938 148.572 17.8867 146.203C18.1347 145.812 18.3927 145.49 18.6458 145.221C18.7596 144.967 18.9039 144.698 19.0835 144.411C19.1468 144.312 19.2075 144.218 19.2708 144.129C19.42 143.535 19.6604 142.971 19.997 142.441C20.3765 141.836 20.7889 141.395 21.1761 141.06C21.1862 141.044 21.1963 141.027 21.2064 141.011C21.3431 140.663 21.5278 140.262 21.8314 139.782C22.0085 139.501 22.1882 139.257 22.3628 139.049C22.4969 138.701 22.6765 138.323 22.927 137.929C23.2686 137.386 23.6532 136.962 24.0252 136.634C24.1542 136.258 24.344 135.822 24.6476 135.322C24.7767 135.037 24.9386 134.712 25.2094 134.283C25.5231 133.786 25.8698 133.39 26.2088 133.075C26.2696 132.958 26.3353 132.839 26.4087 132.714C26.5378 132.412 26.7073 132.064 26.973 131.635C27.0995 131.371 27.2538 131.066 27.5119 130.655C27.7017 130.353 27.8232 130.178 27.9395 130.01C27.9573 129.982 27.9775 129.957 28.0003 129.924C28.1344 129.604 28.309 129.236 28.5924 128.792C28.7214 128.586 28.7847 128.484 28.8479 128.383C28.9264 128.256 29.0048 128.129 29.1617 127.878C29.4071 127.487 29.6677 127.164 29.9258 126.893C30.0397 126.639 30.1814 126.369 30.3585 126.09C30.7153 125.522 31.1176 125.085 31.5073 124.752C31.6439 124.333 31.8463 123.876 32.1424 123.404C32.3068 123.143 32.3903 123.013 32.4764 122.886C32.5396 122.79 32.6029 122.693 32.7243 122.5C32.9344 122.168 33.0735 121.97 33.2 121.794C33.2329 121.749 33.2658 121.703 33.3265 121.607L33.3341 121.594C33.448 121.363 33.5922 121.081 33.8528 120.667L33.8984 120.588C34.0072 120.375 34.1438 120.116 34.3867 119.733C34.6701 119.283 34.9712 118.923 35.2572 118.633C35.3584 118.43 35.4798 118.212 35.6316 117.973C35.7961 117.712 35.8847 117.58 35.9682 117.45C36.1048 117.052 36.3072 116.587 36.6362 116.069C36.8917 115.666 37.1675 115.328 37.4459 115.046C37.5572 114.802 37.6888 114.551 37.8507 114.295C38.1645 113.797 38.4959 113.411 38.8097 113.109C38.8375 113.056 38.8679 113 38.9008 112.941C39.0374 112.553 39.2373 112.096 39.5688 111.57C39.6801 111.395 39.7333 111.304 39.7864 111.215C39.8699 111.073 39.9559 110.933 40.1305 110.654C40.3355 110.329 40.548 110.05 40.7631 109.811C40.8719 109.544 41.0111 109.262 41.1831 108.973C41.3147 108.671 41.4817 108.323 41.7651 107.874C42.0206 107.467 42.2079 107.221 42.3622 107.023L42.3825 106.995C42.7696 106.378 43.1846 105.937 43.554 105.612C43.6679 105.462 43.7741 105.332 43.8779 105.215C43.9842 105.045 44.0499 104.944 44.1157 104.842C44.1334 104.817 44.1512 104.789 44.1689 104.761C44.3055 104.388 44.5003 103.951 44.8166 103.453C46.3095 101.082 49.4369 100.376 51.7977 101.874C54.0218 103.286 54.7759 106.147 53.6119 108.455C53.4753 108.851 53.2729 109.323 52.9262 109.872C52.7668 110.126 52.6858 110.25 52.6049 110.377C52.5416 110.476 52.4758 110.578 52.3493 110.778C52.0659 111.228 51.8255 111.53 51.6079 111.778C51.2537 112.312 50.8817 112.705 50.5477 113.002C50.487 113.086 50.4313 113.16 50.3782 113.226C50.3428 113.304 50.3048 113.388 50.2643 113.474C50.1353 114.013 49.9076 114.64 49.48 115.315C49.108 115.904 48.7057 116.341 48.3312 116.671C48.2022 117.026 48.02 117.44 47.734 117.907C47.605 118.189 47.4456 118.514 47.1749 118.941C47.0053 119.21 46.8307 119.446 46.6561 119.654C46.522 120.015 46.3399 120.401 46.0894 120.797C45.7554 121.327 45.3809 121.744 45.014 122.071C44.9406 122.208 44.8571 122.353 44.7635 122.5C44.594 122.769 44.5054 122.904 44.4194 123.036C44.3915 123.079 44.3612 123.122 44.3257 123.178C44.1916 123.518 44.0069 123.912 43.7109 124.379C43.3769 124.91 43.0201 125.316 42.6861 125.628C42.6102 125.763 42.5191 125.915 42.4052 126.098L42.3977 126.111C42.2838 126.342 42.1396 126.623 41.8789 127.037C41.6689 127.37 41.5298 127.568 41.4033 127.74C41.3704 127.786 41.3375 127.832 41.2767 127.926C41.2388 127.984 41.2059 128.038 41.1755 128.086C41.049 128.624 40.8213 129.259 40.4038 129.919C40.2014 130.241 40.0698 130.427 39.9433 130.604C39.9078 130.655 39.8699 130.706 39.8041 130.813C39.4979 131.297 39.1614 131.686 38.8274 131.996C38.7388 132.173 38.6351 132.356 38.5162 132.544C38.1316 133.156 37.7116 133.603 37.3194 133.938C37.3016 133.968 37.2814 133.999 37.2586 134.034C37.1245 134.357 36.9474 134.73 36.6615 135.185C36.4717 135.487 36.3502 135.662 36.2339 135.827C36.1934 135.883 36.1554 135.941 36.0871 136.045C35.9783 136.276 35.8442 136.538 35.6392 136.875C35.5557 137.068 35.4571 137.282 35.3255 137.52C35.1888 137.939 34.9814 138.432 34.6297 138.988C34.2628 139.572 33.8503 140.013 33.4556 140.351C33.3544 140.628 33.2203 140.94 33.033 141.283C32.8964 141.666 32.6965 142.121 32.365 142.646C32.0791 143.098 31.7679 143.466 31.4567 143.766C31.358 143.969 31.2416 144.18 31.1049 144.396C30.8519 144.797 30.5989 145.117 30.356 145.376C30.2421 145.619 30.0979 145.886 29.9106 146.186C29.7968 146.363 29.7436 146.455 29.6905 146.546C29.607 146.686 29.5235 146.825 29.3489 147.102C29.2173 147.313 29.0807 147.503 28.9415 147.676C28.7923 148.135 28.5848 148.577 28.3216 148.999C28.1344 149.296 27.9522 149.542 27.7801 149.75C27.6486 150.083 27.4689 150.451 27.2184 150.849C26.763 151.571 26.267 152.061 25.8369 152.403C24.8703 153.439 23.5242 153.995 22.1578 153.995ZM35.0598 137.982C35.0598 137.982 35.0598 137.985 35.0573 137.985C35.0573 137.985 35.0573 137.982 35.0598 137.982ZM49.8215 114.251C49.8215 114.254 49.819 114.254 49.819 114.256C49.8215 114.254 49.8215 114.254 49.8215 114.251ZM53.369 108.874L53.3665 108.877C53.3665 108.877 53.3665 108.877 53.369 108.874Z" fill="#5FA3DF"/>
<path d="M113.431 217.196C110.961 217.196 108.904 215.421 108.459 213.073C108.413 212.943 108.362 212.788 108.312 212.613C108.282 212.552 108.249 212.484 108.216 212.408C108.201 212.387 108.185 212.364 108.17 212.344C108.122 212.276 108.077 212.204 108.031 212.138C107.601 211.494 107.323 210.757 107.219 209.988C107.12 209.264 107.135 208.736 107.181 208.287C107.133 207.965 107.095 207.586 107.095 207.106C107.095 206.863 107.095 206.741 107.095 206.619C107.095 206.469 107.092 206.319 107.092 206.022C107.095 205.558 107.143 205.144 107.219 204.773C107.181 204.494 107.158 204.189 107.158 203.854C107.161 203.179 107.269 202.59 107.424 202.097C107.315 201.666 107.242 201.165 107.244 200.604C107.244 200.295 107.247 200.14 107.252 199.985C107.254 199.868 107.257 199.754 107.257 199.523C107.257 199.129 107.272 198.885 107.285 198.67C107.287 198.611 107.292 198.555 107.292 198.439V198.416C107.267 198.159 107.239 197.844 107.242 197.354L107.237 197.255C107.216 197.017 107.196 196.725 107.196 196.27C107.199 195.735 107.262 195.27 107.35 194.871C107.328 194.645 107.315 194.392 107.315 194.107C107.315 193.79 107.32 193.63 107.323 193.47C107.226 193.059 107.153 192.556 107.156 191.942C107.158 191.462 107.214 191.025 107.3 190.637C107.264 190.37 107.242 190.083 107.242 189.776C107.244 189.184 107.32 188.679 107.426 188.255C107.421 188.189 107.419 188.121 107.414 188.049C107.325 187.648 107.252 187.153 107.252 186.531C107.252 186.32 107.249 186.214 107.249 186.11C107.247 185.945 107.242 185.78 107.244 185.45C107.244 185.061 107.28 184.711 107.333 184.391C107.282 184.101 107.249 183.787 107.242 183.444C107.191 183.116 107.15 182.736 107.153 182.202C107.156 181.72 107.181 181.413 107.206 181.159L107.209 181.118C107.211 180.39 107.328 179.793 107.467 179.323C107.484 179.13 107.507 178.96 107.53 178.805C107.53 178.602 107.533 178.478 107.535 178.356C107.535 178.32 107.535 178.287 107.538 178.249C107.454 177.861 107.388 177.384 107.391 176.792L107.388 176.723C107.366 176.48 107.343 176.178 107.345 175.71C107.345 175.566 107.343 175.495 107.34 175.424C107.33 175.215 107.323 174.997 107.323 174.631C107.323 174.212 107.358 173.852 107.409 173.542C107.363 173.235 107.33 172.88 107.333 172.468C107.333 172.103 107.343 171.882 107.355 171.674C107.358 171.602 107.363 171.531 107.363 171.389C107.366 170.848 107.429 170.384 107.517 169.985C107.323 169.396 107.226 168.782 107.229 168.145C107.229 167.71 107.254 167.396 107.287 167.126C107.244 166.822 107.211 166.464 107.214 165.984C107.216 165.324 107.32 164.75 107.464 164.27C107.355 163.836 107.277 163.323 107.277 162.742C107.285 159.941 109.549 157.677 112.338 157.677C112.343 157.677 112.348 157.677 112.353 157.677C114.721 157.684 116.705 159.322 117.251 161.526C117.474 162.069 117.702 162.859 117.699 163.849C117.699 164.133 117.697 164.275 117.697 164.417C117.697 164.544 117.694 164.674 117.694 164.928C117.692 165.628 117.575 166.23 117.416 166.73C117.421 166.842 117.421 166.964 117.421 167.091C117.421 167.139 117.421 167.185 117.421 167.228C117.659 167.873 117.775 168.548 117.775 169.254C117.773 169.754 117.742 170.077 117.714 170.341C117.712 171.039 117.606 171.613 117.474 172.075C117.472 172.105 117.472 172.138 117.469 172.169C117.547 172.547 117.608 173.009 117.606 173.58C117.603 174.157 117.54 174.624 117.459 175.002C117.466 175.195 117.474 175.406 117.474 175.743L117.477 175.814C117.492 175.977 117.507 176.165 117.515 176.411C117.601 176.807 117.671 177.295 117.669 177.907C117.669 178.209 117.666 178.358 117.664 178.508C117.661 178.628 117.661 178.747 117.659 178.988C117.656 179.521 117.613 179.907 117.563 180.232C117.545 180.875 117.441 181.408 117.315 181.839C117.307 181.948 117.299 182.045 117.289 182.136C117.302 182.225 117.315 182.322 117.325 182.421C117.499 182.944 117.641 183.596 117.639 184.398C117.636 185.099 117.527 185.686 117.383 186.168C117.464 186.541 117.53 186.993 117.535 187.552C117.575 187.859 117.611 188.22 117.611 188.727C117.611 189.05 117.585 189.344 117.547 189.618C117.626 189.994 117.677 190.421 117.677 190.893C117.674 191.523 117.578 192.076 117.441 192.551C117.451 192.711 117.459 192.878 117.456 193.059C117.456 193.381 117.451 193.541 117.449 193.701C117.449 193.754 117.446 193.81 117.446 193.876C117.512 194.237 117.565 194.668 117.563 195.222C117.56 195.854 117.474 196.387 117.355 196.829C117.363 196.984 117.368 197.167 117.365 197.385V197.408C117.391 197.664 117.418 197.979 117.416 198.469C117.416 198.863 117.401 199.106 117.388 199.322C117.386 199.381 117.38 199.436 117.38 199.553C117.38 199.629 117.38 199.695 117.38 199.754C117.558 200.277 117.702 200.939 117.699 201.721C117.699 202.102 117.687 202.328 117.674 202.547C117.669 202.61 117.666 202.676 117.666 202.803C117.664 203.377 117.585 203.887 117.466 204.331C117.484 204.532 117.494 204.743 117.494 204.969C117.492 205.692 117.375 206.296 117.221 206.792C117.221 206.832 117.221 206.875 117.221 206.924C117.269 207.21 117.31 207.543 117.322 207.957C117.36 208.038 117.398 208.119 117.434 208.206L117.464 208.269C117.611 208.571 117.871 209.104 118.048 209.808C118.208 210.239 118.494 211.059 118.494 212.123C118.491 214.924 116.227 217.196 113.431 217.196ZM108.37 212.118C108.37 212.121 108.37 212.123 108.37 212.123C108.37 212.123 108.37 212.121 108.37 212.118ZM118.117 210.12C118.117 210.123 118.117 210.123 118.117 210.125C118.117 210.123 118.117 210.123 118.117 210.12ZM117.446 208.244C117.446 208.246 117.446 208.246 117.449 208.249C117.449 208.246 117.446 208.246 117.446 208.244ZM117.398 162.765C117.398 162.767 117.398 162.77 117.398 162.77C117.398 162.767 117.398 162.765 117.398 162.765Z" fill="#5FA3DF"/>
<path d="M56.6255 208.712C56.0916 208.712 55.5501 208.626 55.0163 208.448C52.367 207.557 50.9374 204.678 51.8256 202.019C51.9597 201.618 52.0583 201.375 52.1494 201.159C52.1621 201.131 52.1697 201.113 52.1747 201.098C52.2329 200.791 52.3114 200.435 52.4733 199.958C52.6479 199.437 52.825 199.062 52.9844 198.762C53.1464 198.323 53.3235 197.97 53.493 197.678C53.5057 197.165 53.5866 196.553 53.8169 195.863C53.9611 195.434 54.1307 195.065 54.3078 194.748C54.3331 194.613 54.3634 194.471 54.3989 194.327C54.4343 193.897 54.5203 193.377 54.7278 192.758C54.8746 192.321 55.0643 191.912 55.2971 191.531C55.3452 191.28 55.4135 191.018 55.5046 190.747C55.5299 190.673 55.5299 190.673 55.5476 190.599C55.6058 190.373 55.6716 190.117 55.8057 189.713C56.0081 189.109 56.2738 188.614 56.5521 188.21C56.5876 187.781 56.6761 187.271 56.876 186.667C57.1113 185.963 57.4175 185.425 57.7085 185.014C57.711 185.006 57.7136 184.999 57.7186 184.991C57.7414 184.796 57.7743 184.585 57.8249 184.359C57.8401 183.861 57.921 183.252 58.1538 182.549C58.3132 182.071 58.5131 181.663 58.7257 181.312C58.7763 181.068 58.8421 180.807 58.9332 180.535C59.0217 180.274 59.1204 180.033 59.2267 179.809C59.2672 179.355 59.3608 178.903 59.5101 178.456C59.6948 177.905 59.9352 177.44 60.1882 177.054C60.2312 176.867 60.2869 176.671 60.3552 176.468C60.4463 176.194 60.545 175.95 60.6436 175.734C60.6867 175.331 60.7727 174.881 60.9372 174.391C61.1446 173.769 61.4078 173.277 61.6659 172.888C61.7038 172.766 61.7494 172.619 61.8177 172.413C61.8632 172.276 61.8911 172.19 61.9138 172.116C61.924 171.596 62.0049 170.979 62.2377 170.281C62.3693 169.89 62.4629 169.654 62.549 169.445C62.5818 169.364 62.5844 169.359 62.6122 169.273C62.7767 168.778 62.9336 168.435 63.0803 168.148C63.2498 167.666 63.4295 167.3 63.599 167.003C63.599 166.383 63.7002 165.769 63.9027 165.162C64.138 164.456 64.4644 163.898 64.7908 163.461C64.8136 163.385 64.8414 163.304 64.8692 163.217C64.9983 162.832 65.0944 162.593 65.1805 162.385C65.2336 162.045 65.3171 161.646 65.4841 161.151C66.3722 158.493 69.2391 157.058 71.8908 157.949C74.4565 158.812 75.876 161.534 75.16 164.119C75.1068 164.479 75.0233 164.901 74.8437 165.436C74.7121 165.83 74.6159 166.071 74.5274 166.282C74.497 166.358 74.4945 166.363 74.4692 166.434C74.4135 166.693 74.3401 167.008 74.1807 167.483C74.0871 167.762 73.9808 168.021 73.8644 168.255C73.824 168.689 73.7303 169.123 73.5861 169.552C73.3862 170.154 73.1509 170.608 72.9358 170.959C72.7992 171.301 72.6575 171.576 72.5259 171.809C72.4019 172.144 72.2805 172.401 72.1691 172.624C72.1312 172.736 72.0958 172.835 72.0629 172.924C72.0401 173.411 71.9566 173.977 71.7441 174.609C71.6808 174.797 71.653 174.891 71.6251 174.988C71.5745 175.15 71.5264 175.315 71.4176 175.638C71.3645 175.798 71.3417 175.879 71.3164 175.96C71.2658 176.138 71.2127 176.316 71.0963 176.666C70.9799 177.011 70.8483 177.318 70.7092 177.588C70.6611 177.935 70.5776 178.311 70.4409 178.717C70.3271 179.055 70.2056 179.347 70.0816 179.598C70.0336 179.949 69.9475 180.342 69.8033 180.774C69.692 181.107 69.5629 181.406 69.4212 181.675C69.3732 182.064 69.2871 182.45 69.1581 182.83C69.0139 183.26 68.8393 183.633 68.6546 183.953C68.6039 184.234 68.528 184.537 68.4218 184.854C68.2548 185.354 68.0422 185.781 67.817 186.141C67.8069 186.194 67.7943 186.248 67.7816 186.301C67.7512 186.75 67.6652 187.294 67.4501 187.939C67.2907 188.413 67.1465 188.738 67.0149 189.013C66.8707 189.426 66.7037 189.782 66.5291 190.084C66.4987 190.247 66.4583 190.419 66.4077 190.599C66.3621 190.985 66.2761 191.458 66.0863 192.026C65.8864 192.623 65.6233 193.118 65.3475 193.519C65.3196 193.979 65.2336 194.509 65.0413 195.083C64.8642 195.616 64.6187 196.111 64.3075 196.561C64.2746 197.003 64.1886 197.533 63.9862 198.14C63.8647 198.506 63.723 198.828 63.5712 199.112C63.5206 199.445 63.4396 199.803 63.3106 200.189C63.2777 200.29 63.2726 200.306 63.2498 200.392C63.1942 200.605 63.1284 200.844 63.0019 201.222C62.7969 201.834 62.5591 202.294 62.3364 202.652C62.2453 202.883 62.1542 203.078 62.0657 203.248C62.01 203.52 61.9316 203.832 61.8 204.233C61.6659 204.634 61.5672 204.878 61.4761 205.094C61.4457 205.168 61.4457 205.168 61.4179 205.246C60.7145 207.371 58.7409 208.712 56.6255 208.712ZM63.0424 168.275C63.0424 168.277 63.0424 168.277 63.0424 168.275C63.0424 168.277 63.0424 168.277 63.0424 168.275Z" fill="#5FA3DF"/>
<path d="M39.2931 253.159C39.8219 253.159 39.8219 252.989 40.3483 252.989C40.8771 252.989 40.8771 253.086 41.4034 253.086C41.9322 253.086 41.9322 253.053 42.461 253.053C42.9899 253.053 42.9899 252.982 43.5162 252.982C44.045 252.982 44.045 253.002 44.5738 253.002C45.1027 253.002 45.1027 253.068 45.6315 253.068C46.1603 253.068 46.1603 253.167 46.6892 253.167C47.218 253.167 47.218 253.347 47.7468 253.347C48.2757 253.347 48.2757 253.347 48.8045 253.347C49.3333 253.347 49.3333 252.964 49.8622 252.964C50.391 252.964 50.391 253.043 50.9198 253.043C51.4487 253.043 51.4487 253.129 51.9775 253.129C52.5063 253.129 52.5063 253.35 53.0352 253.35C53.4451 253.35 53.8676 253.106 54.194 252.89C54.5179 252.677 54.9025 252.39 55.0847 252.03C55.2568 251.689 55.1657 251.22 55.1657 250.806C55.1657 250.204 55.2896 250.204 55.2896 249.6C55.2896 248.996 55.3985 248.996 55.3985 248.394C55.3985 247.79 54.9987 247.79 54.9987 247.188C54.9987 246.586 55.1733 246.622 54.9961 246.045C54.6849 246.238 54.5584 246.294 54.2548 246.439C53.9258 246.594 53.6019 246.708 53.2781 246.807C52.9339 246.914 52.5898 246.914 52.2508 246.964C51.8965 247.018 51.5676 247.226 51.2209 247.221C50.8692 247.216 50.5605 246.891 50.2164 246.832C49.8723 246.774 49.5585 246.716 49.222 246.612C48.8905 246.507 48.5388 246.502 48.2149 246.358C47.8987 246.218 47.5039 246.033 47.1927 245.857C46.6715 246.015 46.7246 246.198 46.2565 246.472C45.7884 246.749 45.7024 246.604 45.2343 246.878C44.7661 247.152 44.88 247.35 44.4119 247.627C43.9438 247.904 43.8578 247.757 43.3871 248.033C42.919 248.31 42.9064 248.287 42.4357 248.564C41.9676 248.841 42.0005 248.897 41.5299 249.173C41.0618 249.45 41.0289 249.394 40.5608 249.671C40.0902 249.948 40.2622 250.242 39.7916 250.519C39.3209 250.796 39.2931 250.747 38.8225 251.022C38.5011 251.209 38.362 251.451 38.3063 251.771C38.2481 252.106 38.2861 252.423 38.4758 252.695C38.6605 252.951 38.9161 253.159 39.2931 253.159Z" fill="#5FA3DF"/>
<path d="M141.062 102.928L140.652 104.761L141.322 106.617L140.556 108.425L140.991 110.291L141.267 112.164L140.224 113.914L139.89 115.721L140.52 117.659L139.594 119.383L139.035 121.147L138.681 122.942L138.415 124.757L138.435 126.641L137.719 128.358L137.962 130.325L137.061 131.986L136.229 133.654L135.799 135.444L134.948 137.089L134.518 138.886L133.833 140.587L132.884 142.177L132.203 143.878L132.213 145.922L131.044 147.397L130.371 149.128L128.64 150.255L127.808 151.885L127.135 153.625L126.71 155.562L124.799 156.458L124.417 158.471L123.4 160.03L122.17 161.419L120.842 162.716L119.083 163.577L117.846 164.93L116.191 165.819L114.926 167.139L113.567 168.358L112.358 169.813L110.64 170.544L109.23 171.755L107.872 173.118L106.03 173.575L104.102 173.738L102.399 174.362L100.921 175.705L98.96 175.497L97.2597 176.233L95.4125 176.249L93.6515 176.835L91.8145 176.726L89.9977 176.444L88.1734 176.855L86.349 176.746L84.5576 176.391L82.8041 175.873L80.8102 176.363L79.0744 175.685L77.2172 175.388L75.656 174.294L73.8797 173.745L72.3059 172.76L70.5322 172.141L69.2695 170.668L67.5009 169.998L65.8916 169.059L64.5708 167.741L63.7636 165.857L62.1417 164.928L60.745 163.734L59.8644 162.044L58.5942 160.739L57.1014 159.606L56.3954 157.829L55.32 156.361L54.1434 154.96L52.9365 153.571L51.9117 152.048L51.0792 150.413L49.9938 148.92L48.9184 147.409L48.468 145.579L47.9189 143.814L46.9928 142.225L45.6442 140.801L45.1533 139.011L44.503 137.287L44.4954 135.342L42.8963 133.93L43.038 131.958L41.8664 130.373L42.0031 128.429L41.5578 126.646L40.5836 124.973L40.5937 123.087L40.3533 121.256L40.2471 119.41L40.0143 117.588L40.0522 115.732L39.2071 113.977L39.1185 112.134L38.7314 110.314L39.1059 108.445L38.4961 106.625L38.5265 104.776L38.8605 102.928L39.0983 101.092L38.6732 99.2415L38.9693 97.4109L39.574 95.6058L39.0249 93.7219L39.9232 91.9599L39.6626 90.0837L39.574 88.2151L40.0396 86.4201L40.0497 84.5514L41.2592 82.9062L41.5628 81.0985L41.7298 79.2553L42.542 77.5695L42.4332 75.6424L42.3801 73.7078L43.6402 72.1667L44.4473 70.5012L44.5131 68.5767L45.5885 67.0153L45.7176 65.0883L46.8309 63.5599L47.7418 61.9603L48.2074 60.1476L49.6016 58.7994L49.9558 56.913L51.0312 55.4151L52.2761 54.0288L52.896 52.2592L53.5994 50.5176L54.5508 48.9282L55.6768 47.4658L56.737 45.945L58.0705 44.6578L59.4368 43.4087L60.8133 42.1849L62.081 40.8571L63.0248 39.1535L64.4974 38.0237L66.0687 37.0259L67.4123 35.726L68.9229 34.6419L70.7169 34.0274L72.6601 33.7634L74.2821 32.956L75.5168 31.222L77.3336 30.7777L79.2946 30.8665L80.9089 29.8662L82.6776 29.3559L84.5576 29.4625L86.3136 28.7618L88.1557 28.6628L89.9977 28.447L91.86 28.2286L93.6312 29.2365L95.4176 29.5869L97.2318 29.7697L99.0992 29.8256L100.822 30.4806L102.54 31.1153L104.276 31.7145L106.088 32.169L107.313 33.8116L108.94 34.6114L110.503 35.5355L112.454 35.9164L113.411 37.7114L115.225 38.3613L116.363 39.8491L117.596 41.2024L118.987 42.3855L120.71 43.2716L121.49 45.0437L122.765 46.3588L124.554 47.2881L125.002 49.2583L126.345 50.5556L126.793 52.4598L128.587 53.4957L129.022 55.3821L129.64 57.1365L130.652 58.6699L132.104 59.9952L132.848 61.6861L133.165 63.5624L133.984 65.2076L134.875 66.835L134.731 68.8484L135.781 70.4199L136.234 72.2023L136.499 74.0353L137.142 75.7542L137.547 77.5415L138.187 79.2705L139.141 80.9437L138.805 82.8885L139.457 84.6327L139.511 86.4861L140.009 88.2684L140.652 90.0405L141.173 91.8431L140.826 93.7295L140.429 95.6032L141.469 97.3855L140.92 99.2542L141.466 101.082L141.062 102.928Z" fill="#A4C9ED"/>
<path d="M83.4946 71.6284L83.3731 73.3092L82.3509 74.6345L81.3666 75.9674L79.9344 76.9043L78.2265 77.1835L76.6197 76.5894L75.1674 75.8532L73.8061 74.8528L73.3835 73.2076L72.7939 71.6284L73.2899 70.0188L74.0464 68.5818L75.0282 67.2133L76.5363 66.4135L78.2265 66.2917L79.8788 66.5303L81.3818 67.2717L82.49 68.5208L83.4186 69.9375L83.4946 71.6284Z" fill="#373B74"/>
<path d="M121.274 71.6284L121.211 73.3523L120.333 74.8401L119.146 76.074L117.583 76.7418L115.928 76.8382L114.215 76.917L112.816 75.9268L111.556 74.8148L111.07 73.2127L110.726 71.6284L110.758 69.9451L111.525 68.4218L112.757 67.2514L114.207 66.3196L115.928 66.3704L117.57 66.5557L119.017 67.3606L120.113 68.5792L120.864 70.0188L121.274 71.6284Z" fill="#373B74"/>
<path d="M121.138 45.5489C120.725 45.8866 120.682 45.6302 120.148 45.6302C119.615 45.6302 119.615 45.8333 119.081 45.8333C118.547 45.8333 118.547 45.554 118.013 45.554C117.479 45.554 117.479 45.4575 116.948 45.4575C116.414 45.4575 116.414 45.4601 115.882 45.4601C115.348 45.4601 115.348 45.7673 114.817 45.7673C114.283 45.7673 114.283 45.7064 113.749 45.7064C113.215 45.7064 113.215 45.5947 112.682 45.5947C112.148 45.5947 112.148 45.8536 111.616 45.8536C111.082 45.8536 111.082 45.5489 110.551 45.5489C110.017 45.5489 110.017 45.3992 109.486 45.3992C108.952 45.3992 108.952 45.8257 108.418 45.8257C107.884 45.8257 107.884 45.4525 107.353 45.4525C106.819 45.4525 106.819 45.7368 106.287 45.7368C105.756 45.7368 105.756 45.5743 105.222 45.5743C104.691 45.5743 104.691 45.8206 104.157 45.8206C103.623 45.8206 103.623 45.8663 103.092 45.8663C102.558 45.8663 102.558 45.7927 102.026 45.7927C101.493 45.7927 101.493 45.7775 100.961 45.7775C100.427 45.7775 100.427 45.5388 99.8934 45.5388C99.3595 45.5388 99.3595 45.6759 98.8281 45.6759C98.2943 45.6759 98.2943 45.4119 97.7629 45.4119C97.229 45.4119 97.229 45.5693 96.6976 45.5693C96.1637 45.5693 96.1637 45.6048 95.6324 45.6048C95.0985 45.6048 95.0985 45.7724 94.5646 45.7724C94.0307 45.7724 94.0307 45.4449 93.4968 45.4449C92.9629 45.4449 92.9629 45.8155 92.4316 45.8155C91.8977 45.8155 91.8977 45.587 91.3663 45.587C90.8324 45.587 90.8324 45.4677 90.3011 45.4677C89.7672 45.4677 89.7672 45.5286 89.2333 45.5286C88.6994 45.5286 88.6994 45.6099 88.168 45.6099C87.6341 45.6099 87.6341 45.4829 87.1028 45.4829C86.5689 45.4829 86.5689 45.5413 86.035 45.5413C85.5011 45.5413 85.5011 45.455 84.9672 45.455C84.4333 45.455 84.4333 45.5997 83.8994 45.5997C83.3655 45.5997 83.3655 45.8815 82.8316 45.8815C82.2977 45.8815 82.2977 45.7394 81.7638 45.7394C81.23 45.7394 81.23 45.7673 80.6961 45.7673C80.1622 45.7673 80.1622 45.8181 79.6283 45.8181C79.0944 45.8181 79.0944 45.521 78.5605 45.521C78.0266 45.521 78.0266 45.8358 77.4927 45.8358C76.9588 45.8358 76.9588 45.5388 76.4249 45.5388C75.891 45.5388 75.891 45.7546 75.3571 45.7546C74.8232 45.7546 74.8232 45.4449 74.2893 45.4449C73.7555 45.4449 73.7555 45.879 73.2216 45.879C72.6877 45.879 72.6877 45.5261 72.1563 45.5261C71.6224 45.5261 71.6224 45.4652 71.0885 45.4652C70.5546 45.4652 70.5546 45.7546 70.0207 45.7546C69.4869 45.7546 69.4869 45.5693 68.953 45.5693C68.4191 45.5693 68.4191 45.4601 67.8852 45.4601C67.3513 45.4601 67.3513 45.7597 66.8174 45.7597C66.2835 45.7597 66.2835 45.6835 65.7496 45.6835C65.2157 45.6835 65.2157 45.5388 64.6818 45.5388C64.1479 45.5388 64.1479 45.7571 63.614 45.7571C63.0801 45.7571 63.0801 45.7851 62.5463 45.7851C62.0124 45.7851 62.0124 45.7114 61.4785 45.7114C60.9446 45.7114 60.9446 45.8841 60.4107 45.8841C59.8768 45.8841 59.8768 45.3992 59.3404 45.3992C58.8065 45.3992 58.6673 46.0085 58.2498 45.6708C57.8374 45.3357 58.1739 45.1224 58.0676 44.5994C57.9588 44.0789 57.8703 44.0967 57.7615 43.5762C57.6527 43.0532 57.5818 43.0685 57.473 42.548C57.3642 42.025 57.6577 41.964 57.5514 41.4436C57.4426 40.9231 57.4426 40.9231 57.3364 40.4001C57.2276 39.8796 56.9341 39.9405 56.8253 39.4175C56.7165 38.8971 56.6912 38.9021 56.5849 38.3791C56.4761 37.8586 56.6836 37.8155 56.5748 37.2925C56.466 36.7695 56.2433 36.8177 56.137 36.2947C56.0282 35.7717 56.2458 35.7285 56.137 35.2055C56.0282 34.6825 55.8106 34.7282 55.7043 34.2077C55.5955 33.6872 55.6588 33.672 55.5525 33.1515C55.4437 32.6285 55.7701 32.5625 55.6613 32.0395C55.5525 31.5165 55.1704 31.5977 55.0642 31.0747C54.9554 30.5517 55.297 30.4832 55.1882 29.9601C55.0794 29.4371 55.011 29.4524 54.9048 28.9319C54.796 28.4089 54.5556 28.4597 54.4468 27.9392C54.338 27.4162 54.2874 27.4289 54.1786 26.9059C54.0698 26.3828 54.4822 26.2991 54.3759 25.776C54.2671 25.253 54.2924 25.248 54.1836 24.7275C54.0748 24.2045 53.6877 24.2857 53.5789 23.7627C53.4701 23.2397 53.465 23.2422 53.3562 22.7192C53.2474 22.1962 53.5865 22.1277 53.4777 21.6046C53.3689 21.0816 53.3689 21.0816 53.2601 20.5612C53.1513 20.0382 53.1892 20.0305 53.0804 19.5101C52.9716 18.987 52.9463 18.9921 52.8375 18.4717C52.7287 17.9486 52.6427 17.9664 52.5364 17.4459C52.4276 16.9229 52.1063 16.9915 52 16.4685C51.8912 15.9455 52.2505 15.8718 52.1417 15.3488C52.0329 14.8283 52.0101 14.8334 51.9013 14.3104C51.7925 13.7874 51.5901 13.8306 51.4813 13.3075C51.3725 12.7845 51.3775 12.7845 51.2687 12.2641C51.1599 11.741 51.2687 11.7207 51.1599 11.1977C51.0511 10.6747 50.955 10.695 50.8462 10.1746C50.7374 9.65154 50.793 9.64138 50.6868 9.11837C50.578 8.59536 50.6412 8.58266 50.5349 8.05965C50.4261 7.53664 50.5096 7.51887 50.4008 6.99839C50.292 6.47538 50.0466 6.52616 49.9403 6.00315C49.8315 5.48014 49.7581 5.49537 49.6519 4.97236C49.5431 4.44935 49.9884 4.35795 49.8796 3.83493C49.7708 3.31192 49.3153 3.40586 49.2065 2.88285C49.0977 2.35984 49.1408 2.34968 49.0319 1.82667C48.9231 1.30366 48.5765 1.06754 49.0446 0.81619C49.5178 0.559762 49.4672 1.03454 49.8568 1.40521C50.2465 1.77589 50.2389 1.78351 50.6286 2.15673C51.0182 2.5274 50.8917 2.66197 51.2814 3.03518C51.671 3.40586 51.7242 3.35001 52.1138 3.72322C52.5035 4.0939 52.5718 4.02281 52.9615 4.39349C53.3512 4.76417 53.4473 4.66261 53.837 5.03329C54.2266 5.40397 54.133 5.50299 54.5252 5.87367C54.9149 6.24434 55.0237 6.13009 55.4134 6.50077C55.803 6.87145 55.5146 7.17612 55.9042 7.5468C56.2939 7.91747 56.5545 7.64073 56.9442 8.01395C57.3338 8.38463 57.2428 8.48365 57.6324 8.85433C58.0221 9.225 57.8374 9.4205 58.227 9.79118C58.6167 10.1619 58.6724 10.1035 59.062 10.4741C59.4517 10.8448 59.6668 10.6189 60.0564 10.9895C60.4461 11.3602 60.2209 11.5989 60.6106 11.9721C61.0002 12.3428 61.1192 12.2158 61.5114 12.589C61.901 12.9597 61.7113 13.1603 62.1035 13.5335C62.4931 13.9067 62.5589 13.8356 62.9511 14.2063C63.3408 14.5795 63.2826 14.6405 63.6722 15.0137C64.0619 15.3844 64.2188 15.2193 64.6084 15.59C64.9981 15.9607 64.8589 16.1105 65.2486 16.4812C65.6383 16.8544 65.8989 16.5776 66.2886 16.9509C66.6782 17.3241 66.405 17.6135 66.7946 17.9842C67.1868 18.3574 67.3412 18.1924 67.7308 18.5656C68.123 18.9388 67.9611 19.2866 68.5 19.2968C69.039 19.3069 68.7809 18.8271 69.1857 18.4717C69.5906 18.1137 69.5855 18.1086 69.9878 17.7506C70.3927 17.3926 70.3649 17.3622 70.7697 17.0067C71.1746 16.6487 71.1796 16.6563 71.5845 16.3009C71.9893 15.9429 72.2347 16.2247 72.6396 15.8693C73.0444 15.5113 72.8673 15.3107 73.2722 14.9527C73.677 14.5948 73.7909 14.7242 74.1932 14.3688C74.598 14.0108 74.5373 13.9448 74.9422 13.5868C75.347 13.2288 75.4811 13.3837 75.886 13.0283C76.2883 12.6703 76.2023 12.5713 76.6046 12.2158C77.0094 11.8578 77.0575 11.9137 77.4598 11.5557C77.8647 11.1977 77.7533 11.0733 78.1582 10.7153C78.563 10.3574 78.6389 10.4437 79.0412 10.0882C79.4461 9.73024 79.4992 9.79372 79.9041 9.43573C80.3089 9.07775 80.0483 8.78324 80.4506 8.42525C80.8555 8.06727 81.1211 8.37194 81.526 8.01395C81.9308 7.65597 81.9384 7.66866 82.3433 7.31068C82.7481 6.9527 82.5128 6.68611 82.9177 6.33067C83.3225 5.97268 83.6084 6.3002 84.0133 5.94222C84.4181 5.58423 84.2891 5.43698 84.6939 5.08153C85.0988 4.72355 85.2152 4.85811 85.6175 4.50012C86.0223 4.14214 86.0021 4.12183 86.4069 3.76385C86.8118 3.40586 86.66 3.23576 87.0648 2.87777C87.4697 2.51979 87.3937 2.43347 87.7986 2.07548C88.2034 1.7175 88.4362 1.98408 88.8436 1.62356C89.251 1.26304 88.9727 0.77049 89.5116 0.752718C90.048 0.734946 89.9367 1.07262 90.3567 1.40521C90.7793 1.73781 90.8678 1.62356 91.2904 1.95361C91.713 2.28621 91.4776 2.5858 91.9002 2.91839C92.3228 3.25099 92.3278 3.24337 92.7504 3.57343C93.1729 3.90602 93.4209 3.58866 93.8409 3.91872C94.2635 4.25131 94.1623 4.37826 94.5848 4.71085C95.0074 5.04345 95.1213 4.89619 95.5438 5.22625C95.9664 5.55884 95.8829 5.66294 96.3054 5.99553C96.728 6.32813 96.6293 6.45507 97.0493 6.78513C97.4719 7.11772 97.3859 7.2269 97.8084 7.55949C98.231 7.89209 98.4309 7.63566 98.8534 7.96825C99.276 8.29831 99.1267 8.48873 99.5493 8.82132C99.9718 9.15392 100.129 8.9508 100.551 9.28086C100.974 9.61346 101.035 9.53475 101.457 9.86481C101.88 10.1974 101.677 10.4564 102.097 10.7864C102.52 11.119 102.543 11.0886 102.965 11.4186C103.388 11.7512 103.459 11.6573 103.881 11.9899C104.304 12.3225 104.192 12.4646 104.612 12.7972C105.035 13.1298 104.992 13.1831 105.414 13.5157C105.837 13.8483 106.113 13.4929 106.535 13.8255C106.958 14.1581 106.794 14.3688 107.216 14.7014C107.639 15.034 107.656 15.0111 108.079 15.3437C108.501 15.6763 108.443 15.7474 108.866 16.08C109.288 16.4126 109.342 16.3441 109.764 16.6767C110.187 17.0093 110.217 16.9686 110.64 17.3012C111.062 17.6338 111.179 17.484 111.601 17.8166C112.024 18.1492 111.912 18.2939 112.335 18.6265C112.757 18.9591 112.613 19.3323 113.15 19.2943C113.676 19.2587 113.534 18.9642 113.896 18.5757C114.255 18.1898 114.228 18.1619 114.589 17.7735C114.949 17.3875 114.873 17.3139 115.232 16.928C115.591 16.5421 115.627 16.5726 115.989 16.1867C116.348 15.8007 116.396 15.8439 116.755 15.4554C117.115 15.0695 116.988 14.9502 117.35 14.5618C117.709 14.1758 117.851 14.3079 118.213 13.922C118.572 13.536 118.656 13.6148 119.015 13.2263C119.374 12.8404 119.455 12.914 119.814 12.5281C120.174 12.1422 120.148 12.1143 120.508 11.7284C120.867 11.3424 120.566 11.0581 120.925 10.6722C121.287 10.2863 121.426 10.4183 121.788 10.0298C122.147 9.64392 122.274 9.76071 122.633 9.37226C122.995 8.98381 122.911 8.90764 123.271 8.51919C123.63 8.13328 123.592 8.0952 123.951 7.70675C124.313 7.3183 124.159 7.17612 124.521 6.78767C124.883 6.39922 125.136 6.63787 125.495 6.24942C125.854 5.86097 125.948 5.94729 126.31 5.56138C126.669 5.17547 126.568 5.07899 126.93 4.69308C127.291 4.30463 127.337 4.34779 127.696 3.96188C128.058 3.57343 128.071 3.58866 128.433 3.20021C128.794 2.81176 128.567 2.60103 128.929 2.21258C129.29 1.82413 129.543 2.06279 129.905 1.67434C130.267 1.28589 130.055 0.371884 130.523 0.618157C130.993 0.864429 130.578 1.30874 130.472 1.82921C130.363 2.34968 129.938 2.26082 129.829 2.78383C129.721 3.30684 129.989 3.36016 129.882 3.88317C129.774 4.40619 129.672 4.38333 129.564 4.90635C129.455 5.42682 129.455 5.42682 129.349 5.94983C129.24 6.47031 129.338 6.49062 129.232 7.01363C129.123 7.5341 129.156 7.54172 129.047 8.06219C128.939 8.58266 129.09 8.61567 128.982 9.13614C128.873 9.65916 128.805 9.64392 128.698 10.1669C128.589 10.6899 128.344 10.6392 128.238 11.1596C128.129 11.6827 128.316 11.7207 128.21 12.2412C128.101 12.7617 128.005 12.7439 127.899 13.2644C127.79 13.7874 127.603 13.7468 127.494 14.2698C127.385 14.7928 127.605 14.8385 127.496 15.359C127.388 15.882 127.415 15.8871 127.309 16.4075C127.2 16.9305 127.208 16.9305 127.099 17.4536C126.99 17.9766 127.061 17.9893 126.952 18.5123C126.844 19.0353 126.74 19.0124 126.634 19.5355C126.525 20.0585 126.697 20.094 126.588 20.6145C126.479 21.1375 126.474 21.135 126.368 21.658C126.259 22.181 126.067 22.1404 125.958 22.6634C125.849 23.1864 125.72 23.1585 125.614 23.6815C125.505 24.2045 125.793 24.2629 125.685 24.7859C125.576 25.3089 125.611 25.3165 125.505 25.837C125.396 26.36 125.039 26.2838 124.931 26.8068C124.822 27.3299 125.08 27.3832 124.974 27.9036C124.865 28.4267 125.002 28.4546 124.895 28.9776C124.786 29.5006 124.708 29.4828 124.602 30.0058C124.493 30.5289 124.291 30.4857 124.184 31.0087C124.075 31.5292 124.124 31.5393 124.017 32.0623C123.908 32.5854 123.79 32.56 123.683 33.083C123.574 33.606 123.865 33.6644 123.759 34.1874C123.65 34.7104 123.445 34.6673 123.339 35.1903C123.23 35.7133 123.344 35.7361 123.235 36.2591C123.127 36.7822 123.258 36.8075 123.149 37.3306C123.041 37.8536 122.836 37.8104 122.729 38.3334C122.621 38.8564 122.8 38.892 122.691 39.415C122.583 39.938 122.241 39.8669 122.135 40.3899C122.026 40.9129 122.168 40.9409 122.059 41.4639C121.95 41.9869 121.755 41.9463 121.646 42.4693C121.538 42.9923 121.816 43.0507 121.707 43.5737C121.598 44.0967 121.209 44.0586 121.178 44.5918C121.163 45.1046 121.553 45.2113 121.138 45.5489Z" fill="#373B74"/>
<path d="M129.063 50.2865C128.529 50.2865 128.529 50.1672 127.998 50.1672C127.464 50.1672 127.464 50.2814 126.933 50.2814C126.399 50.2814 126.399 50.0225 125.867 50.0225C125.333 50.0225 125.333 49.9438 124.802 49.9438C124.268 49.9438 124.268 50.0225 123.737 50.0225C123.203 50.0225 123.203 50.4287 122.671 50.4287C122.138 50.4287 122.138 49.9666 121.606 49.9666C121.072 49.9666 121.072 50.0504 120.541 50.0504C120.007 50.0504 120.007 50.35 119.476 50.35C118.942 50.35 118.942 50.1164 118.41 50.1164C117.877 50.1164 117.877 50.284 117.345 50.284C116.811 50.284 116.811 50.1189 116.28 50.1189C115.746 50.1189 115.746 50.4363 115.215 50.4363C114.681 50.4363 114.681 50.4414 114.149 50.4414C113.616 50.4414 113.616 50.1342 113.084 50.1342C112.55 50.1342 112.55 50.0377 112.019 50.0377C111.485 50.0377 111.485 50.0809 110.954 50.0809C110.42 50.0809 110.42 50.383 109.888 50.383C109.355 50.383 109.355 50.3804 108.823 50.3804C108.289 50.3804 108.289 50.0555 107.758 50.0555C107.224 50.0555 107.224 50.1113 106.693 50.1113C106.159 50.1113 106.159 50.0479 105.627 50.0479C105.094 50.0479 105.094 50.0555 104.562 50.0555C104.028 50.0555 104.028 50.1494 103.497 50.1494C102.963 50.1494 102.963 50.025 102.432 50.025C101.898 50.025 101.898 50.0479 101.366 50.0479C100.833 50.0479 100.833 50.1012 100.301 50.1012C99.7698 50.1012 99.7698 50.4033 99.2359 50.4033C98.7045 50.4033 98.7045 50.1316 98.1707 50.1316C97.6393 50.1316 97.6393 50.2738 97.1054 50.2738C96.574 50.2738 96.574 50.0936 96.0401 50.0936C95.5088 50.0936 95.5088 50.2789 94.9749 50.2789C94.441 50.2789 94.441 50.1824 93.9096 50.1824C93.3757 50.1824 93.3757 50.1266 92.8444 50.1266C92.3105 50.1266 92.3105 50.3144 91.7791 50.3144C91.2478 50.3144 91.2478 49.9514 90.7139 49.9514C90.1825 49.9514 90.1825 50.4084 89.6486 50.4084C89.1147 50.4084 89.1147 49.9793 88.5834 49.9793C88.0495 49.9793 88.0495 50.0529 87.5181 50.0529C86.9842 50.0529 86.9842 50.0479 86.4529 50.0479C85.919 50.0479 85.919 49.9514 85.3876 49.9514C84.8537 49.9514 84.8537 50.317 84.3223 50.317C83.7885 50.317 83.7885 50.3881 83.2571 50.3881C82.7232 50.3881 82.7232 49.9514 82.1893 49.9514C81.6554 49.9514 81.6554 50.1469 81.1241 50.1469C80.5902 50.1469 80.5902 50.3601 80.0588 50.3601C79.5249 50.3601 79.5249 50.2916 78.9935 50.2916C78.4597 50.2916 78.4597 50.1012 77.9283 50.1012C77.3944 50.1012 77.3944 50.025 76.863 50.025C76.3291 50.025 76.3291 50.2408 75.7978 50.2408C75.2639 50.2408 75.2639 49.9565 74.73 49.9565C74.1961 49.9565 74.1961 50.3652 73.6647 50.3652C73.1309 50.3652 73.1309 50.1393 72.597 50.1393C72.0631 50.1393 72.0631 50.3982 71.5317 50.3982C70.9978 50.3982 70.9978 50.0986 70.4639 50.0986C69.93 50.0986 69.93 50.416 69.3987 50.416C68.8648 50.416 68.8648 50.025 68.3309 50.025C67.797 50.025 67.797 50.2586 67.2631 50.2586C66.7292 50.2586 66.7292 50.0275 66.1953 50.0275C65.6614 50.0275 65.6614 50.2535 65.1301 50.2535C64.5962 50.2535 64.5962 50.3347 64.0623 50.3347C63.5284 50.3347 63.5284 49.9945 62.997 49.9945C62.4631 49.9945 62.4631 49.9742 61.9292 49.9742C61.3953 49.9742 61.3953 50.2281 60.864 50.2281C60.3301 50.2281 60.3301 50.0377 59.7962 50.0377C59.2623 50.0377 59.2623 50.3221 58.7284 50.3221C58.1945 50.3221 58.1945 50.317 57.6606 50.317C57.1267 50.317 57.1267 50.2459 56.5928 50.2459C56.059 50.2459 56.059 50.2357 55.5251 50.2357C54.9912 50.2357 54.9912 50.1088 54.4573 50.1088C53.9234 50.1088 53.9234 50.1418 53.3895 50.1418C52.8556 50.1418 52.8556 50.0174 52.3217 50.0174C51.7878 50.0174 51.7878 50.4058 51.2539 50.4058C50.9022 50.4058 50.5277 50.3703 50.1887 50.3221C49.842 50.2713 49.594 49.7762 49.2651 49.6797C48.9311 49.5807 48.6098 49.5248 48.296 49.3801C47.9797 49.2354 47.6331 49.177 47.3421 48.9891C47.0511 48.8013 46.9119 48.4382 46.6513 48.2122C46.3907 47.9837 45.8138 48.0726 45.5886 47.8085C45.3609 47.547 45.4418 47.0443 45.2546 46.7524C45.0674 46.4604 44.6372 46.3004 44.493 45.9831C44.3487 45.6683 44.5942 45.2113 44.4955 44.8761C44.3994 44.5461 44.1995 44.2566 44.1514 43.9088C44.1033 43.5686 43.7617 43.236 43.7617 42.8831C43.7617 42.5302 44.0401 42.1874 44.0881 41.8498C44.1387 41.5019 44.159 41.1516 44.2551 40.8215C44.3538 40.4864 44.3791 40.1132 44.5233 39.7983C44.6676 39.481 44.7713 39.1128 44.9585 38.8234C45.1458 38.5314 45.3938 38.2445 45.619 37.983C45.8467 37.7215 46.3426 37.7241 46.6032 37.4981C46.8639 37.2696 47.1245 37.0792 47.4155 36.8913C47.7064 36.7034 47.8254 36.188 48.1417 36.0433C48.4554 35.8986 48.9286 36.1728 49.2626 36.0738C49.5915 35.9773 49.9053 35.9265 50.2519 35.8758C50.591 35.8275 50.9047 35.6346 51.2565 35.6346C51.7903 35.6346 51.7903 35.5736 52.3217 35.5736C52.8556 35.5736 52.8556 35.7133 53.387 35.7133C53.9209 35.7133 53.9209 35.5076 54.4522 35.5076C54.9861 35.5076 54.9861 35.7767 55.5175 35.7767C56.0514 35.7767 56.0514 35.764 56.5827 35.764C57.1166 35.764 57.1166 35.599 57.648 35.599C58.1819 35.599 58.1819 35.7285 58.7132 35.7285C59.2471 35.7285 59.2471 35.5889 59.7785 35.5889C60.3124 35.5889 60.3124 35.4543 60.8437 35.4543C61.3776 35.4543 61.3776 35.6726 61.909 35.6726C62.4429 35.6726 62.4429 35.5584 62.9743 35.5584C63.5081 35.5584 63.5081 35.6447 64.0395 35.6447C64.5734 35.6447 64.5734 35.3781 65.1048 35.3781C65.6386 35.3781 65.6387 35.7869 66.17 35.7869C66.7039 35.7869 66.7039 35.3324 67.2353 35.3324C67.7692 35.3324 67.7692 35.4086 68.3005 35.4086C68.8344 35.4086 68.8344 35.6396 69.3658 35.6396C69.8997 35.6396 69.8997 35.6295 70.431 35.6295C70.9649 35.6295 70.9649 35.8224 71.4963 35.8224C72.0302 35.8224 72.0302 35.6803 72.5615 35.6803C73.0954 35.6803 73.0954 35.5711 73.6268 35.5711C74.1607 35.5711 74.1607 35.5381 74.692 35.5381C75.2259 35.5381 75.2259 35.4086 75.7573 35.4086C76.2912 35.4086 76.2912 35.6498 76.8225 35.6498C77.3564 35.6498 77.3564 35.3654 77.8878 35.3654C78.4217 35.3654 78.4217 35.7717 78.9531 35.7717C79.487 35.7717 79.487 35.83 80.0183 35.83C80.5497 35.83 80.5497 35.5152 81.0836 35.5152C81.6149 35.5152 81.6149 35.7945 82.1488 35.7945C82.6802 35.7945 82.6802 35.4441 83.2141 35.4441C83.7454 35.4441 83.7454 35.4416 84.2793 35.4416C84.8107 35.4416 84.8107 35.5838 85.3446 35.5838C85.8785 35.5838 85.8785 35.6142 86.4098 35.6142C86.9437 35.6142 86.9437 35.6168 87.4751 35.6168C88.009 35.6168 88.009 35.3781 88.5404 35.3781C89.0717 35.3781 89.0717 35.7234 89.6056 35.7234C90.137 35.7234 90.137 35.6752 90.6709 35.6752C91.2047 35.6752 91.2047 35.5558 91.7361 35.5558C92.27 35.5558 92.27 35.4721 92.8014 35.4721C93.3353 35.4721 93.3353 35.6904 93.8666 35.6904C94.4005 35.6904 94.4005 35.5914 94.9319 35.5914C95.4658 35.5914 95.4658 35.7463 95.9971 35.7463C96.531 35.7463 96.531 35.6396 97.0624 35.6396C97.5963 35.6396 97.5963 35.6219 98.1302 35.6219C98.6641 35.6219 98.6641 35.5482 99.1954 35.5482C99.7293 35.5482 99.7293 35.7107 100.261 35.7107C100.795 35.7107 100.795 35.4137 101.326 35.4137C101.86 35.4137 101.86 35.7818 102.391 35.7818C102.925 35.7818 102.925 35.7488 103.456 35.7488C103.99 35.7488 103.99 35.6498 104.522 35.6498C105.056 35.6498 105.056 35.6066 105.589 35.6066C106.123 35.6066 106.123 35.7691 106.655 35.7691C107.189 35.7691 107.189 35.3527 107.723 35.3527C108.256 35.3527 108.256 35.4822 108.788 35.4822C109.322 35.4822 109.322 35.7742 109.856 35.7742C110.389 35.7742 110.389 35.3426 110.921 35.3426C111.455 35.3426 111.455 35.6396 111.989 35.6396C112.522 35.6396 112.522 35.8123 113.056 35.8123C113.59 35.8123 113.59 35.5939 114.124 35.5939C114.658 35.5939 114.658 35.6168 115.189 35.6168C115.723 35.6168 115.723 35.5228 116.257 35.5228C116.791 35.5228 116.791 35.3578 117.322 35.3578C117.856 35.3578 117.856 35.8021 118.39 35.8021C118.924 35.8021 118.924 35.5787 119.455 35.5787C119.989 35.5787 119.989 35.8097 120.523 35.8097C121.057 35.8097 121.057 35.4594 121.591 35.4594C122.125 35.4594 122.125 35.6269 122.659 35.6269C123.193 35.6269 123.193 35.4162 123.727 35.4162C124.261 35.4162 124.261 35.7894 124.794 35.7894C125.328 35.7894 125.328 35.5863 125.862 35.5863C126.396 35.5863 126.396 35.6295 126.93 35.6295C127.464 35.6295 127.464 35.5609 127.998 35.5609C128.532 35.5609 128.532 35.5127 129.066 35.5127C129.417 35.5127 129.774 35.5406 130.113 35.5889C130.46 35.6396 130.751 35.9215 131.08 36.0179C131.414 36.1169 131.717 36.2414 132.031 36.3835C132.347 36.5282 132.81 36.4115 133.101 36.5993C133.392 36.7872 133.511 37.2214 133.772 37.4473C134.033 37.6758 134.187 37.983 134.415 38.2471C134.642 38.5086 134.928 38.7041 135.115 38.996C135.303 39.288 135.634 39.5038 135.778 39.8212C135.923 40.136 135.839 40.5372 135.938 40.8723C136.034 41.2023 136.092 41.5273 136.143 41.8752C136.191 42.2154 136.229 42.5429 136.229 42.8958C136.229 43.2487 136.492 43.6194 136.444 43.9596C136.393 44.3074 136.029 44.5892 135.933 44.9193C135.834 45.2544 135.7 45.5566 135.556 45.8688C135.412 46.1862 135.27 46.4832 135.083 46.7752C134.895 47.0672 134.781 47.4074 134.556 47.6689C134.329 47.9304 134.207 48.3163 133.944 48.5448C133.683 48.7733 133.385 48.9942 133.094 49.1846C132.803 49.3725 132.459 49.5096 132.142 49.6543C131.829 49.799 131.429 49.7229 131.095 49.8219C130.766 49.9184 130.442 50.0098 130.095 50.058C129.749 50.0961 129.415 50.2865 129.063 50.2865Z" fill="#5FA3DF"/>
<path d="M116.621 115.551L117.201 117.402L115.619 118.55L114.589 119.819L112.904 120.172L111.158 120.525L109.453 119.819L107.707 119.748L105.951 119.669L104.22 119.372L102.477 119.159L100.663 119.834L98.937 119.659L97.2037 118.672L95.4553 119.245L93.6563 118.664L91.8977 118.834L90.1746 119.294L88.4236 119.448L86.7055 119.829L84.99 120.256L83.2517 120.814L81.526 119.88L79.8586 119.702L78.224 119.002L77.0879 117.428L77.8343 115.551L77.3789 113.716L78.2619 112.076L78.687 110.303L79.6182 108.742L81.2679 107.798L81.8499 105.804L83.5047 104.949L84.8053 103.568L86.7131 103.286L88.1908 102.09L89.9443 101.526L91.8623 101.73L93.6537 101.628L95.4351 101.62L97.2037 101.014L99.0357 100.63L100.804 101.232L102.449 102.194L104.294 102.121L105.819 103.172L107.563 103.573L108.985 104.657L111.06 104.723L112.153 106.279L113.504 107.46L114.266 109.12L115.123 110.621L116.657 111.9L116.905 113.736L116.621 115.551Z" fill="#373B74"/>
<path d="M157.88 24.3822C157.88 24.7605 157.949 25.1845 157.772 25.4891C157.589 25.804 157.293 26.1442 156.98 26.327C156.676 26.5047 156.236 26.5377 155.859 26.5377C155.482 26.5377 155.203 26.228 154.897 26.0528C154.583 25.87 154.282 25.7176 154.1 25.4003C153.923 25.0956 153.923 24.7605 153.923 24.3822C153.923 24.0039 153.731 23.5571 153.905 23.2498C154.087 22.935 154.437 22.6405 154.75 22.4577C155.054 22.28 155.482 22.5415 155.859 22.5415C156.236 22.5415 156.56 22.4577 156.866 22.6329C157.179 22.8157 157.594 22.9553 157.777 23.2727C157.951 23.5774 157.88 24.0039 157.88 24.3822Z" fill="#ECDEE6"/>
</g>
<defs>
<clipPath id="clip0">
<rect y="0.572449" width="165.719" height="260.919" fill="white"/>
</clipPath>
</defs>
</svg>
