<svg width="23" height="20" viewBox="0 0 23 20" fill="none" xmlns="http://www.w3.org/2000/svg">
<path d="M1.32619 3.57129H4.74668V19.9999H1.32619C1.14475 19.9999 0.970751 19.9246 0.842458 19.7906C0.714164 19.6567 0.64209 19.475 0.64209 19.2856V4.28557C0.64209 4.09613 0.714164 3.91445 0.842458 3.7805C0.970751 3.64654 1.14475 3.57129 1.32619 3.57129Z" fill="#808080"/>
<path d="M18.4287 3.57129H21.8492C22.0306 3.57129 22.2046 3.64654 22.3329 3.7805C22.4612 3.91445 22.5333 4.09613 22.5333 4.28557V19.2856C22.5333 19.475 22.4612 19.6567 22.3329 19.7906C22.2046 19.9246 22.0306 19.9999 21.8492 19.9999H18.4287V3.57129Z" fill="#808080"/>
<path d="M14.3239 3.57143V0.714286C14.3239 0.524845 14.2519 0.343164 14.1236 0.20921C13.9953 0.075255 13.8213 0 13.6398 0H9.53524C9.3538 0 9.1798 0.075255 9.05151 0.20921C8.92321 0.343164 8.85114 0.524845 8.85114 0.714286V3.57143H6.11475V20H17.0603V3.57143H14.3239ZM10.2193 1.78571C10.2193 1.69099 10.2554 1.60015 10.3195 1.53318C10.3837 1.4662 10.4707 1.42857 10.5614 1.42857H12.6137C12.7044 1.42857 12.7914 1.4662 12.8555 1.53318C12.9197 1.60015 12.9557 1.69099 12.9557 1.78571V3.57143H10.2193V1.78571Z" fill="#808080"/>
</svg>
