<svg width="21" height="21" viewBox="0 0 21 21" fill="none" xmlns="http://www.w3.org/2000/svg">
<path d="M13.9737 13.873H17.7829C18.5045 13.873 19.1965 14.1712 19.7068 14.702C20.217 15.2328 20.5037 15.9527 20.5037 16.7034V20.0998H11.2529V16.7034C11.2529 15.9527 11.5396 15.2328 12.0498 14.702C12.5601 14.1712 13.2521 13.873 13.9737 13.873Z" fill="#808080"/>
<path d="M15.8794 12.7401C17.2318 12.7401 18.3281 11.5996 18.3281 10.1928C18.3281 8.78597 17.2318 7.64551 15.8794 7.64551C14.527 7.64551 13.4307 8.78597 13.4307 10.1928C13.4307 11.5996 14.527 12.7401 15.8794 12.7401Z" fill="#808080"/>
<path d="M12.4404 12.469C11.6127 12.7934 10.8996 13.3723 10.396 14.1287C9.89246 14.8851 9.62235 15.7831 9.62163 16.7032V20.0996H0.915039V13.8729C0.915039 12.6719 1.37369 11.52 2.19009 10.6707C3.00649 9.82147 4.11377 9.34436 5.26833 9.34436H10.71C11.0977 9.34469 11.4837 9.39798 11.8581 9.50286C11.8161 9.73041 11.7961 9.96176 11.7983 10.1935C11.7965 11.0006 12.0195 11.791 12.4404 12.469Z" fill="#808080"/>
<path d="M7.71636 8.07093C9.82009 8.07093 11.5255 6.29688 11.5255 4.10846C11.5255 1.92005 9.82009 0.145996 7.71636 0.145996C5.61263 0.145996 3.90723 1.92005 3.90723 4.10846C3.90723 6.29688 5.61263 8.07093 7.71636 8.07093Z" fill="#808080"/>
</svg>
