<svg width="123" height="106" viewBox="0 0 123 106" fill="none" xmlns="http://www.w3.org/2000/svg">
<path d="M54.3343 22.5816C54.5833 23.8449 54.78 25.1416 54.9207 26.466L54.4234 26.5188C54.5911 28.0982 54.6783 29.718 54.6783 31.3684C54.6783 33.0189 54.5911 34.6386 54.4234 36.218L54.9207 36.2708C54.78 37.5953 54.5833 38.8919 54.3343 40.1552L53.8437 40.0585C53.1857 43.3968 52.1589 46.4948 50.8362 49.2483L51.2869 49.4648C50.7051 50.6758 50.0665 51.8221 49.3768 52.8949L48.9562 52.6245C47.0834 55.538 44.8378 57.8851 42.3474 59.5002L42.6195 59.9197C41.4969 60.6477 40.323 61.2331 39.1081 61.6603L38.9422 61.1886C37.4474 61.7143 35.891 61.9917 34.2923 61.9917C32.6935 61.9917 31.1371 61.7143 29.6423 61.1886L29.4764 61.6603C28.2615 61.2331 27.0877 60.6477 25.9651 59.9197L26.2371 59.5002C23.7468 57.8851 21.5012 55.538 19.6283 52.6245L19.2077 52.8949C18.518 51.8221 17.8794 50.6758 17.2977 49.4648L17.7483 49.2483C16.4256 46.4948 15.3988 43.3968 14.7408 40.0585L14.2502 40.1552C14.0012 38.8919 13.8045 37.5953 13.6639 36.2708L14.1611 36.218C13.9934 34.6386 13.9062 33.0189 13.9062 31.3684C13.9062 29.718 13.9934 28.0982 14.1611 26.5188L13.6639 26.466C13.8045 25.1416 14.0012 23.8449 14.2502 22.5816L14.7408 22.6783C15.3988 19.3401 16.4256 16.242 17.7483 13.4886L17.2977 13.2721C17.8794 12.061 18.518 10.9148 19.2077 9.84194L19.6283 10.1123C21.5011 7.19884 23.7468 4.85178 26.2371 3.23667L25.9651 2.81717C27.0877 2.08913 28.2615 1.50379 29.4764 1.07654L29.6423 1.54822C31.1371 1.0225 32.6935 0.745117 34.2923 0.745117C35.891 0.745117 37.4474 1.0225 38.9422 1.54822L39.1081 1.07654C40.323 1.50379 41.4969 2.08912 42.6195 2.81717L42.3474 3.23667C44.8378 4.85177 47.0834 7.19884 48.9562 10.1123L49.3768 9.84194C50.0665 10.9148 50.7051 12.061 51.2869 13.2721L50.8362 13.4886C52.1589 16.242 53.1857 19.3401 53.8437 22.6783L54.3343 22.5816Z" fill="white" stroke="black" stroke-dasharray="10 4"/>
<path d="M43.5241 60.6548L53.1477 65.3802L49.7239 83.0274M19.0696 55.3007L12.5254 67.947V83.0274M12.5254 29.8686L0.642578 25.2793V42.2785M55.5792 32.9281L69.873 28.1476L73.1635 47.7331" stroke="black"/>
<path d="M106.195 20.5217C106.423 21.6824 106.604 22.8737 106.733 24.0905L106.236 24.1433C106.39 25.5929 106.47 27.0797 106.47 28.5946C106.47 30.1095 106.39 31.5962 106.236 33.0459L106.733 33.0987C106.604 34.3155 106.423 35.5068 106.195 36.6675L105.704 36.5708C105.1 39.6346 104.158 42.4777 102.944 45.0041L103.395 45.2206C102.86 46.3333 102.273 47.3864 101.64 48.3721L101.219 48.1017C99.5011 50.7745 97.4418 52.9264 95.1594 54.4066L95.4315 54.8261C94.4001 55.495 93.3216 56.0328 92.2054 56.4253L92.0396 55.9536C90.6703 56.4352 89.245 56.6892 87.7809 56.6892C86.3167 56.6892 84.8914 56.4352 83.5222 55.9536L83.3563 56.4253C82.2401 56.0328 81.1616 55.495 80.1302 54.8261L80.4023 54.4066C78.1199 52.9264 76.0606 50.7745 74.3425 48.1017L73.9219 48.3721C73.2883 47.3864 72.7015 46.3333 72.167 45.2206L72.6177 45.0041C71.4041 42.4777 70.4617 39.6346 69.8578 36.5708L69.3672 36.6675C69.1384 35.5068 68.9577 34.3155 68.8285 33.0987L69.3257 33.0459C69.1718 31.5962 69.0918 30.1095 69.0918 28.5946C69.0918 27.0797 69.1718 25.5929 69.3257 24.1433L68.8285 24.0905C68.9577 22.8737 69.1384 21.6824 69.3672 20.5217L69.8578 20.6184C70.4617 17.5545 71.4041 14.7115 72.6177 12.185L72.167 11.9685C72.7015 10.8559 73.2883 9.80276 73.9219 8.8171L74.3425 9.08747C76.0606 6.41467 78.1199 4.26279 80.4023 2.78258L80.1302 2.36308C81.1616 1.69418 82.2401 1.15641 83.3563 0.763868L83.5222 1.23555C84.8914 0.754008 86.3167 0.5 87.7809 0.5C89.245 0.5 90.6703 0.754008 92.0396 1.23555L92.2054 0.763868C93.3216 1.15641 94.4001 1.69418 95.4315 2.36308L95.1594 2.78258C97.4418 4.26279 99.5011 6.41467 101.219 9.08747L101.64 8.81709C102.273 9.80276 102.86 10.8559 103.395 11.9685L102.944 12.185C104.158 14.7115 105.1 17.5545 105.704 20.6184L106.195 20.5217Z" fill="white" stroke="black" stroke-dasharray="10 4"/>
<path d="M96.2624 55.5005L101.958 67.6226V76.0554M73.7948 50.5814L62.0863 58.4871L59.2383 73.0688M67.7823 27.2156L86.1815 30.0266L104.838 19.7507M107.338 30.0266L120.471 25.6345L121.895 9.47168" stroke="black"/>
<path d="M79.108 38.2835C79.3676 39.6005 79.5727 40.9523 79.7193 42.3331L79.2221 42.3859C79.397 44.0332 79.4879 45.7225 79.4879 47.4439C79.4879 49.1653 79.397 50.8547 79.2221 52.502L79.7193 52.5548C79.5727 53.9356 79.3676 55.2874 79.108 56.6044L78.6175 56.5077C77.9311 59.9896 76.8601 63.2211 75.4803 66.0933L75.931 66.3098C75.3245 67.5724 74.6587 68.7674 73.9397 69.8858L73.5191 69.6155C71.5653 72.6549 69.2222 75.1041 66.6229 76.7899L66.895 77.2094C65.7247 77.9684 64.5009 78.5786 63.2343 79.024L63.0685 78.5523C61.5079 79.1012 59.8829 79.3908 58.2137 79.3908C56.5444 79.3908 54.9195 79.1012 53.3589 78.5523L53.193 79.024C51.9265 78.5786 50.7027 77.9684 49.5323 77.2094L49.8044 76.7899C47.2052 75.1041 44.862 72.6549 42.9082 69.6155L42.4876 69.8859C41.7686 68.7674 41.1029 67.5724 40.4963 66.3099L40.947 66.0933C39.5672 63.2211 38.4962 59.9896 37.8099 56.5077L37.3193 56.6044C37.0597 55.2874 36.8546 53.9356 36.708 52.5548L37.2052 52.502C37.0303 50.8547 36.9395 49.1653 36.9395 47.4439C36.9395 45.7225 37.0303 44.0332 37.2052 42.3859L36.708 42.3331C36.8546 40.9523 37.0597 39.6005 37.3193 38.2835L37.8099 38.3802C38.4962 34.8983 39.5672 31.6668 40.947 28.7945L40.4963 28.578C41.1029 27.3155 41.7686 26.1205 42.4876 25.002L42.9082 25.2724C44.862 22.2329 47.2052 19.7837 49.8044 18.098L49.5323 17.6785C50.7027 16.9195 51.9265 16.3093 53.193 15.8638L53.3589 16.3355C54.9195 15.7867 56.5444 15.4971 58.2137 15.4971C59.8829 15.4971 61.5079 15.7867 63.0685 16.3355L63.2343 15.8638C64.5009 16.3093 65.7247 16.9195 66.895 17.6785L66.6229 18.098C69.2222 19.7837 71.5653 22.2329 73.5191 25.2724L73.9397 25.002C74.6587 26.1205 75.3245 27.3155 75.931 28.578L75.4803 28.7945C76.8601 31.6668 77.9311 34.8983 78.6175 38.3802L79.108 38.2835Z" fill="white" stroke="black" stroke-dasharray="10 4"/>
<path d="M67.8373 77.9757L80.405 89.5921L76.9628 104.979M42.3428 72.3939L35.5203 82.902V101.3M35.5203 45.8802L21.3176 50.7897L14.9668 39.082M80.405 49.0698L91.479 59.8213L109.322 55.4727" stroke="black"/>
</svg>
